<svg xmlns="http://www.w3.org/2000/svg" width="450" height="242" viewBox="0 0 450 242"><path fill="#161616" d="M289.27 181.177s-1.213 19.71-12.132 24.16c-10.914 4.445-13.037 3.23-13.037 3.23s-10.817-.2-16.073-4.447c-5.258-4.245-6.37-15.265-6.37-15.265l37.302-45.992 13.242-3.74-2.933 42.054zm-72.072 27.09s-1.314 21.532-13.14 26.28c-11.83 4.752-14.152 3.54-14.152 3.54s-11.828-.306-17.486-4.852c-5.66-4.55-6.874-16.58-6.874-16.58l40.635-49.933 14.457-4.04-3.44 45.585z"/><path fill="#0C0C0C" d="M93.876 195.53s-1.314 21.532-13.14 26.282-14.15 3.537-14.15 3.537-11.827-.304-17.487-4.853c-5.663-4.55-6.875-16.578-6.875-16.578l40.636-49.936 14.455-4.04-3.44 45.585z"/><ellipse fill="#95A5A6" cx="201.833" cy="201.795" rx="10.109" ry="23.653"/><ellipse fill="#95A5A6" cx="279.566" cy="177.131" rx="5.153" ry="11.929"/><path fill="#161616" d="M22.294 124.367l-7.38-3.84s-2.324-1.415-3.335-2.628c-1.013-1.214-1.315-1.72-1.315-1.72l-.606-9.906-6.672-1.617V81.913s4.75-1.82 7.58-1.516c2.833.304 6.874 1.113 6.874 1.113l.404 23.552-5.255 1.313v9.097s.103.506 1.417 1.416c1.313.91 3.84 2.326 3.84 2.326l3.944 1.516.504 3.637z"/><path fill="#C0392B" d="M52.435 40.47S41.012 52.397 37.07 62.706c-3.94 10.31-8.793 23.047-8.793 23.047l-6.064 21.025-2.02 39.42-.81 31.034-2.326 3.336.81 21.934 6.064 5.056 30.326 3.032 52.564 2.73 62.873 3.334 15.87-2.83 7.378-1.717 19.712-44.175 3.236-1.313 2.73 4.75-1.718 37.705 9.4-5.864 33.356-17.183 10.815-.506L273 163.49l7.785-17.894s3.538-3.033 4.546 1.313c1.014 4.347 3.54 18.7 3.54 18.7l15.363-10.41 4.244-12.637-1.717-75.004-1.315-18.903s-.198-7.884-5.256-14.454c-5.053-6.57-8.897-9.4-8.897-9.4l-35.377-2.023-38.413-8.592h-10.815l-.506-10.413h-8.39l-.203 8.59-41.142-1.818-20.013 1.82-28 6.772-31.033 10.41-24.967 10.92z"/><path fill="#B22922" d="M136.435 12.367l-28 6.773-31.033 10.41-24.967 10.92S41.012 52.397 37.07 62.706c-3.94 10.31-8.793 23.047-8.793 23.047l-6.064 21.025-2.02 39.42-.81 31.034-2.326 3.336.81 21.934 5.388 4.492L151.4 11.006l-14.965 1.36zM249.5 191.26l10.153-5.23 10.815-.505 2.528-22.035 7.786-17.893s3.538-3.033 4.546 1.313c1.013 4.348 3.54 18.7 3.54 18.7l15.362-10.41 4.244-12.636-1.717-75.004-1.315-18.902s-.198-7.884-5.256-14.454c-5.052-6.57-8.896-9.4-8.896-9.4l-3.213-.185L249.5 191.26z"/><path fill="#2C3E50" d="M19.38 177.233l153.948 8.592 18.802-4.347.807 30.63-23.248 4.546-113.213-5.962-32.548-3.134-6.065-5.056-.81-21.833 2.325-3.437z"/><path fill="#243442" d="M173.33 185.825l-59.543-3.323-15.653 30.384 71.555 3.768 23.248-4.547-.807-30.628z"/><path fill="#F2A56B" d="M186.066 154.693v27.9l-37.3-.81 3.538-16.88 30.828-10.818zm-139.9 19.61l-26.684.605.707-28.608 24.158 17.388z"/><path fill="#D89F79" d="M173.18 157.577l-6.855 24.587 19.74.428v-27.9l-2.933-.607zm-141.548-3.04L20.19 146.3l-.708 28.608 16.553-.375z"/><circle fill="#16A085" cx="158.268" cy="200.281" r="7.076"/><circle fill="#D35400" cx="139.466" cy="200.28" r="4.953"/><path fill="#F1C40F" d="M67.292 189.565v10.715l47.307 1.212v-10.307l-47.308-1.62z"/><path fill="#ECF0F1" d="M27.67 107.688l8.39-27.292s4.548-13.948 8.895-20.72c4.347-6.773 10.11-15.97 10.11-15.97l4.042-1.82H179.9l2.526 2.02-3.843 66.21-1.818 3.033-147.884-3.033-1.21-2.43zm142.02 54.992l3.64 15.06h-19.612l2.528-11.122z"/><path fill="#DBDBDB" d="M59.106 41.885l-4.043 1.82S49.3 52.9 44.953 59.674c-4.346 6.772-8.894 20.72-8.894 20.72l-8.39 27.292 1.21 2.428 13.62.28 82.065-68.51h-65.46z"/><path fill="#D35400" d="M173.33 160.554l1.92 7.784h8.085v-10.31l-10.006 2.526zm2.425 10.815l1.01 6.37h6.57v-7.583l-7.58 1.212z"/><path fill="#ECF0F1" d="M40 163.182l2.225 6.975H26.557l2.325-13.646 11.12 6.672z"/><path fill="#D35400" d="M26.557 154.085l-1.92 6.47H21.3v-9.906l5.255 3.435zm-2.628 10.21l-1.113 5.862h-1.515v-6.872l2.627 1.01z"/><path fill="#7F8C8D" d="M50.92 158.028l97.846 2.525-6.165 19.915-89.66-5.56-2.02-16.88z"/><path fill="#767C7C" d="M142.6 180.47l6.166-19.916-51.937-1.34 2.475 18.57z"/><path fill="#ECF0F1" d="M189.1 59.473h21.53l1.516 44.273s-10.41 0-12.434 6.57c-2.02 6.57-5.762 17.186-5.762 17.186s.203 4.244-2.324 4.044c-2.526-.204-4.347-2.227-4.347-2.227V62.2l1.82-2.73z"/><path fill="#DBDBDB" d="M210.63 59.473h-7.8l-15.55 50.242v19.604s1.82 2.02 4.346 2.226c2.527.2 2.324-4.044 2.324-4.044s3.74-10.616 5.762-17.186c2.023-6.57 12.434-6.57 12.434-6.57l-1.517-44.273z"/><path fill="#16A085" d="M230.036 26.318s5.358 3.538 6.37 8.39c1.01 4.852 0 10.41 0 10.41h-24.26s.503-3.03-2.325-5.053l-2.832-2.02 23.048-11.727z"/><path fill="#161616" d="M246.676 45.018l1.52 39.927v56.406l-1.52 23.956-1.716 8.59v19.31l8.593-3.943 1.515-17.894 4.345-8.188V43.804zm-78.235 69.34l2.123 5.563h10.006l5.863-4.145 3.134-3.942 6.976-.707 3.536-6.47v-19.71l-4.044-3.133h-10.412l-2.02 4.447-.103 22.238 4.044 2.628-2.426 3.13-4.85 3.237-7.986-.403z"/><path fill="#ECF0F1" d="M215.885 56.136l23.35-2.73v40.638L219.22 98.39l-3.335-42.254zm23.347 42.253l1.72 24.058s-2.527 7.38-6.875 13.95c-4.347 6.57-10.613 13.645-10.613 13.645h-1.513l-1.215-45.69 18.497-5.964z"/><path fill="#16A085" d="M262.687 30.665s3.636 7.075 4.043 13.14c.404 6.065 0 12.637 0 12.637h11.32s1.313-9.098 0-12.94c-1.314-3.84-5.058-12.938-5.058-12.938l-10.305.1zm18.495.2s3.64 7.077 4.04 13.142c.407 6.065 0 12.635 0 12.635h11.324s1.313-9.098 0-12.938c-1.315-3.84-5.053-12.938-5.053-12.938H281.18l.002.1z"/><path fill="#ECF0F1" d="M267.942 64.222L301.097 62l1.212 31.335-34.368 5.054V64.22z"/><path fill="#212A31" d="M269.718 83.124c-1.716-.303-2.526-1.515-3.638-1.82-.708-.203-4.853-1.82-6.568-3.235-1.013-.91-1.416-1.517-1.717-2.224v-.81c.2-3.94 2.626-3.232 2.626-4.65.205-1.414 6.27-13.847-7.68-14.05-.402 0-10.11-.404-5.46 4.346.202.405.202.607.305.607-.103.2-.708 1.11-.708 2.525 0 .81-.2 1.517-.505 2.124l.808 6.973c1.012.91 1.313 1.92.91 2.123l-.607.406.91 8.49v56.1c.102-.302.2-.604.404-.604.708 0 .708 7.277 1.113 10.313.404 2.02.404 2.627 1.11 3.74 0 .707-.808 7.783-1.013 14.758.102 2.123.102 4.144 0 6.267.102 2.427.307 4.45.708 5.864.404 1.514-.708 4.445-.2 6.567-.508 1.012-1.72 3.034.1 3.438l6.166-1.013c.507-.304 1.015-.606 1.417-1.013 1.112-1.112.708-5.055-.708-6.167.2-1.11 4.446-4.145 2.22-10.818 1.52-2.625.408-4.142-.4-12.128-2.426-18.902 4.752-20.722 3.943-27.09-1.11-8.896 7.277-6.974 7.582-17.286-.2-5.56.202-25.067.4-27.088.1-2.22-.807-4.544-1.517-4.648zm-5.153 34.168c-.91.506-1.52 2.832-1.52 2.832l.308-19.208c1.212-1.314 1.716 15.567 1.212 16.376zm84.91 13.848c.2-2.324-.81-4.65-1.417-4.75-1.717-.304-2.526-1.517-3.638-1.82-.707-.202-4.856-1.82-6.57-3.235-1.015-.908-1.416-1.515-1.718-2.22v-.81c.203-3.944 2.627-3.234 2.627-4.65.2-1.416 6.267-13.847-7.68-14.05-.407 0-10.11-.404-5.46 4.347.202.403.202.606.303.606-.1.202-.708 1.11-.708 2.525 0 2.225-1.717 3.64-.706 3.437 1.012-.2-1.013 3.538-.508 4.75 2.324.81 3.132 2.73 2.528 3.134-1.01.71-2.428.91-2.428.91s-9.703 1.922-11.622 2.73c.2 0-3.033 2.63-2.628 5.46 0 1.718-.203 2.63-.403 3.54-.203.908-6.368 25.068-5.766 34.163-.603.206-2.422 3.54 1.517 3.743l.203 1.11-.907 1.112s-2.227 1.82-2.835 13.243c0 .202-2.02 3.13-1.31 5.56.91 1.11 3.537 5.56 5.053 9.906 1.113 4.147 2.022 5.056 2.424 5.562.403.604 3.742.404 5.26 0 .603-2.628 2.02-18.7.704-21.63-.604-1.114-3.333-5.46-3.333-6.875-.2-1.516-.402-3.538-.402-3.538s-.605-2.832-.605-4.448c0-1.718 2.628-22.846 4.344-24.057.205-.403.407-.202.407 3.134-.406 3.03-4.65 23.753-3.034 27.996.404.91 2.02 2.225 3.035 2.225.2 1.315 3.033 32.548 3.54 37.198-.202 2.628-.202 6.77 1.82 7.48.2.606-3.135 3.336-1.317 4.447 1.718 1.112 5.56 1.72 7.077.607.404-1.717-.202-6.57.404-7.074.604-.607.91-4.855 1.11-6.168.205-1.313 0-6.57-1.31-10.312.4-4.447 1.11-16.477.605-17.185.4-.707.4-4.346 1.108-4.448.705 0 .705 7.28 1.11 10.314.403 2.02.403 2.625 1.11 3.738 0 1.112-2.22 20.518-.4 26.89.4 1.514-.71 4.446-.2 6.567-.608 1.113-1.82 3.337.6 3.537 1.822.202 4.856 0 7.08-2.02 1.112-1.112.708-5.057-.708-6.168.198-1.11 4.447-4.145 2.223-10.815 1.514-2.628.404-4.146-.402-12.13-2.425-18.903 4.748-20.725 3.942-27.092-1.113-8.895 7.28-6.976 7.582-17.284-.305-5.764.098-25.173.3-27.194zm-6.673 29.414c-.908.507-1.517 2.834-1.517 2.834l.305-19.208c1.212-1.317 1.72 15.565 1.212 16.374zm8.49-58.02c-.402.202-1.515 1.517-1.515 2.022 0 .604 1.313 1.514 2.224 1.717.91.203 1.316.404 2.427 1.315 1.11.91 3.537 5.658 4.647 7.278.913 2.02 13.85 18.497 14.76 19.408.91.91 1.72 2.424 2.02 5.964.406 3.537 4.146 18.498 4.35 20.72.403 2.022.705 23.352.705 24.463 0 1.113-1.11 3.336-1.11 3.336s-1.316 1.72-1.72 2.428c-.4.707-.4 1.92-1.92 3.738-1.515 1.92-2.426 8.087-2.832 12.735-1.923 5.765-3.74 15.163-3.74 15.163s1.313.203 2.426.605c.404.708.707 2.627.303 3.235-1.514.406-4.245.202-6.672 0-6.37-.2-3.538 3.537-2.628 4.35 1.515 1.513 3.64 2.018 5.56 2.223 2.73-.205 3.035-.307 5.965-.71 1.92-.203 2.02-3.74 2.02-4.85 1.314-5.967 13.244-28.61 13.244-28.61s1.11 1.314 1.716 2.022c1.11.604 21.128-1.516 22.442-1.717 1.112.2 1.518 2.425 3.334 3.033 1.923.605 1.112 4.448 2.628 5.66 3.032 1.11.708-5.964 2.427-5.254 1.717.708 9.398 4.85 11.018 5.76 4.65-4.853 13.646-26.178 13.646-26.178s-.605-2.02-3.942-3.336c-9.905-7.077-14.05-8.592-14.76-8.087-.6.91-4.445 8.39-4.445 8.39-1.014.4-1.717-.71-1.717-.71-.203-3.943-3.032-15.567-5.054-20.013-1.924-5.963-7.08-8.792-8.19-10.107-1.112-1.313-1.513-4.448-1.92-6.168 0-2.02-3.336-2.02-4.448-2.02-2.02-.91-7.48-6.165-8.186-6.876-.71-.708-.404-1.716.2-2.223 1.92-2.22 2.022-5.457 2.424-6.366-.907-8.188-9.702-6.874-12.13-6.166-2.628.606-3.13 5.46-4.144 6.167-1.112 1.112-.71 2.628-.71 2.628l-.707 2.02-.404.202c-1.717-1.72-14.556-16.072-16.275-16.983-1.513-1.313-4.648-6.57-5.053-7.48 0-3.538.202-8.997-1.11-8.997-1.718 0-.91 5.662-1.515 5.662-.71-1.315-4.348-.707-5.46-.203-.807.41 1.618.41 1.82.814zm52.26 75.002c.202-4.146 3.033-19.61 2.63-20.622 0 0 9.905 11.623 10.51 20.925 0 .906-.907 1.11.913 1.11-.405.708-.708 2.223.707 4.448.203.708.203 5.057 1.315 3.74.604-1.11 1.11-3.032 1.31-4.144.204-.605 1.92.202 1.92.202s-4.342 6.873-4.646 7.883c-.404.908-9.502 1.817-13.847-.708-.708-1.314-.91-4.65-2.022-5.966-.504-1.815 1.013-2.724 1.213-6.87zM269.72 83.124c-1.716-.303-2.526-1.515-3.638-1.82-.708-.203-4.853-1.82-6.568-3.235-1.013-.91-1.416-1.517-1.717-2.224v-.81c.2-3.94 2.626-3.232 2.626-4.65.205-1.414 6.27-13.847-7.68-14.05-.402 0-10.11-.404-5.46 4.346.202.405.202.607.305.607-.103.2-.708 1.11-.708 2.525 0 .81-.2 1.517-.505 2.124l.808 6.973c1.012.91 1.313 1.92.91 2.123l-.607.406.91 8.49v56.1c.102-.302.2-.604.404-.604.708 0 .708 7.277 1.113 10.313.404 2.02.404 2.627 1.11 3.74 0 .707-.808 7.783-1.013 14.758.102 2.123.102 4.144 0 6.267.102 2.427.307 4.45.708 5.864.404 1.514-.708 4.445-.2 6.567-.508 1.012-1.72 3.034.1 3.438l6.166-1.013c.507-.304 1.015-.606 1.417-1.013 1.112-1.112.708-5.055-.708-6.167.2-1.11 4.446-4.145 2.22-10.818 1.52-2.625.408-4.142-.4-12.128-2.426-18.902 4.752-20.722 3.943-27.09-1.11-8.896 7.277-6.974 7.582-17.286-.2-5.56.202-25.067.4-27.088.1-2.22-.807-4.544-1.517-4.648zm-5.153 34.168c-.91.506-1.52 2.832-1.52 2.832l.308-19.208c1.212-1.314 1.716 15.567 1.212 16.376zm84.91 13.848c.2-2.324-.81-4.65-1.417-4.75-1.717-.304-2.526-1.517-3.638-1.82-.707-.202-4.856-1.82-6.57-3.235-1.015-.908-1.416-1.515-1.718-2.22v-.81c.203-3.944 2.627-3.234 2.627-4.65.2-1.416 6.267-13.847-7.68-14.05-.407 0-10.11-.404-5.46 4.347.202.403.202.606.303.606-.1.202-.708 1.11-.708 2.525 0 2.225-1.717 3.64-.706 3.437 1.012-.2-1.013 3.538-.508 4.75 2.324.81 3.132 2.73 2.528 3.134-1.01.71-2.428.91-2.428.91s-9.703 1.922-11.622 2.73c.2 0-3.033 2.63-2.628 5.46 0 1.718-.203 2.63-.403 3.54-.203.908-6.368 25.068-5.766 34.163-.603.206-2.422 3.54 1.517 3.743l.203 1.11-.907 1.112s-2.227 1.82-2.835 13.243c0 .202-2.02 3.13-1.31 5.56.91 1.11 3.537 5.56 5.053 9.906 1.113 4.147 2.022 5.056 2.424 5.562.403.604 3.742.404 5.26 0 .603-2.628 2.02-18.7.704-21.63-.604-1.114-3.333-5.46-3.333-6.875-.2-1.516-.402-3.538-.402-3.538s-.605-2.832-.605-4.448c0-1.718 2.628-22.846 4.344-24.057.205-.403.407-.202.407 3.134-.406 3.03-4.65 23.753-3.034 27.996.404.91 2.02 2.225 3.035 2.225.2 1.315 3.033 32.548 3.54 37.198-.202 2.628-.202 6.77 1.82 7.48.2.606-3.135 3.336-1.317 4.447 1.718 1.112 5.56 1.72 7.077.607.404-1.717-.202-6.57.404-7.074.604-.607.91-4.855 1.11-6.168.205-1.313 0-6.57-1.31-10.312.4-4.447 1.11-16.477.605-17.185.4-.707.4-4.346 1.108-4.448.705 0 .705 7.28 1.11 10.314.403 2.02.403 2.625 1.11 3.738 0 1.112-2.22 20.518-.4 26.89.4 1.514-.71 4.446-.2 6.567-.608 1.113-1.82 3.337.6 3.537 1.822.202 4.856 0 7.08-2.02 1.112-1.112.708-5.057-.708-6.168.198-1.11 4.447-4.145 2.223-10.815 1.514-2.628.404-4.146-.402-12.13-2.425-18.903 4.748-20.725 3.942-27.092-1.113-8.895 7.28-6.976 7.582-17.284-.305-5.764.098-25.173.3-27.194zm-6.673 29.414c-.908.507-1.517 2.834-1.517 2.834l.305-19.208c1.212-1.317 1.72 15.565 1.212 16.374zm8.49-58.02c-.402.202-1.515 1.517-1.515 2.022 0 .604 1.313 1.514 2.224 1.717.91.203 1.316.404 2.427 1.315 1.11.91 3.537 5.658 4.647 7.278.913 2.02 13.85 18.497 14.76 19.408.91.91 1.72 2.424 2.02 5.964.406 3.537 4.146 18.498 4.35 20.72.403 2.022.705 23.352.705 24.463 0 1.113-1.11 3.336-1.11 3.336s-1.316 1.72-1.72 2.428c-.4.707-.4 1.92-1.92 3.738-1.515 1.92-2.426 8.087-2.832 12.735-1.923 5.765-3.74 15.163-3.74 15.163s1.313.203 2.426.605c.404.708.707 2.627.303 3.235-1.514.406-4.245.202-6.672 0-6.37-.2-3.538 3.537-2.628 4.35 1.515 1.513 3.64 2.018 5.56 2.223 2.73-.205 3.035-.307 5.965-.71 1.92-.203 2.02-3.74 2.02-4.85 1.314-5.967 13.244-28.61 13.244-28.61s1.11 1.314 1.716 2.022c1.11.604 21.128-1.516 22.442-1.717 1.112.2 1.518 2.425 3.334 3.033 1.923.605 1.112 4.448 2.628 5.66 3.032 1.11.708-5.964 2.427-5.254 1.717.708 9.398 4.85 11.018 5.76 4.65-4.853 13.646-26.178 13.646-26.178s-.605-2.02-3.942-3.336c-9.905-7.077-14.05-8.592-14.76-8.087-.6.91-4.445 8.39-4.445 8.39-1.014.4-1.717-.71-1.717-.71-.203-3.943-3.032-15.567-5.054-20.013-1.924-5.963-7.08-8.792-8.19-10.107-1.112-1.313-1.513-4.448-1.92-6.168 0-2.02-3.336-2.02-4.448-2.02-2.02-.91-7.48-6.165-8.186-6.876-.71-.708-.404-1.716.2-2.223 1.92-2.22 2.022-5.457 2.424-6.366-.907-8.188-9.702-6.874-12.13-6.166-2.628.606-3.13 5.46-4.144 6.167-1.112 1.112-.71 2.628-.71 2.628l-.707 2.02-.404.202c-1.717-1.72-14.556-16.072-16.275-16.983-1.513-1.313-4.648-6.57-5.053-7.48 0-3.538.202-8.997-1.11-8.997-1.718 0-.91 5.662-1.515 5.662-.71-1.315-4.348-.707-5.46-.203-.807.41 1.618.41 1.82.814zm52.26 75.002c.202-4.146 3.033-19.61 2.63-20.622 0 0 9.905 11.623 10.51 20.925 0 .906-.907 1.11.913 1.11-.405.708-.708 2.223.707 4.448.203.708.203 5.057 1.315 3.74.604-1.11 1.11-3.032 1.31-4.144.204-.605 1.92.202 1.92.202s-4.342 6.873-4.646 7.883c-.404.908-9.502 1.817-13.847-.708-.708-1.314-.91-4.65-2.022-5.966-.504-1.815 1.013-2.724 1.213-6.87z"/><path fill="#F1C40F" d="M72.607 161.146c2 .076 2.754 1.062 2.682 2.952l-.024.605c-.052 1.358-.47 2.19-1.603 2.494 1.235.396 1.675 1.406 1.62 2.82l-.04 1.083c-.074 1.928-1.052 2.975-3.053 2.898l-2.956-.112.49-12.85 2.883.11zm-.367 11.55c1.046.04 1.545-.49 1.59-1.686l.044-1.138c.055-1.433-.497-1.932-1.727-1.98l-1.248-.046-.184 4.79 1.524.06zm-.19-6.11c1.14.044 1.74-.302 1.79-1.642l.03-.752c.043-1.14-.32-1.704-1.35-1.743l-1.413-.055-.158 4.15 1.1.042zm9.226.59l-.05 1.286-3.14-.12-.173 4.57 3.855.147-.05 1.303-5.287-.2.49-12.852 5.288.202-.05 1.304-3.855-.146-.168 4.387 3.14.12zm5.138-5.503c2 .076 2.754 1.062 2.683 2.952l-.023.605c-.052 1.358-.47 2.19-1.603 2.494 1.236.396 1.676 1.406 1.622 2.82l-.042 1.083c-.073 1.928-1.05 2.975-3.052 2.898l-2.956-.112.49-12.85 2.882.11zm-.366 11.55c1.046.04 1.545-.49 1.59-1.686l.044-1.138c.055-1.434-.497-1.933-1.727-1.98l-1.248-.047-.183 4.79 1.524.06zm-.19-6.11c1.138.043 1.74-.303 1.79-1.643l.028-.752c.044-1.14-.32-1.704-1.35-1.743l-1.412-.054-.158 4.15 1.1.043zm5.93 5.04l-.594 2.57-1.32-.05 2.948-12.757 2.075.08 1.97 12.944-1.433-.055-.396-2.608-3.25-.123zm.232-1.22l2.863.108-1.167-7.47-1.696 7.363z"/><path fill="#E4BA0F" d="M104.206 162.352c2 .076 2.754 1.062 2.683 2.952l-.024.605c-.052 1.357-.47 2.188-1.603 2.493 1.234.396 1.674 1.406 1.62 2.82l-.04 1.082c-.074 1.928-1.052 2.976-3.053 2.9l-2.956-.114.49-12.85 2.882.112zm-.366 11.55c1.046.04 1.545-.493 1.59-1.688l.044-1.138c.055-1.433-.497-1.93-1.728-1.978l-1.248-.048-.183 4.79 1.525.06zm-.19-6.11c1.138.043 1.74-.303 1.79-1.643l.028-.753c.044-1.14-.32-1.704-1.35-1.744l-1.413-.054-.158 4.148 1.102.043zm6.303-5.222l-.49 12.85-1.432-.054.49-12.85 1.433.054zm5.717 13.07l-1.377-.053-1.74-10.306-.39 10.244-1.25-.048.49-12.85 2.002.075 1.72 10.344 2.43-10.185 2 .075-.49 12.85-1.357-.05.394-10.336-2.432 10.24zm6.414-2.33l-.595 2.57-1.322-.05 2.95-12.758 2.074.08 1.97 12.943-1.432-.055-.397-2.607-3.25-.123zm.23-1.223l2.863.11-1.167-7.472-1.696 7.362z"/><path fill="#B22922" d="M99 4"/><path fill="#DBDBDB" d="M164.072 164.325l-7.826 2.293-2.528 11.122h6.346zm-125.654 5.83h3.807L40 163.183l-4.05-2.43zM223.464 150.043s6.267-7.074 10.613-13.645c4.348-6.57 6.875-13.95 6.875-13.95l-1.72-24.06-13.772 4.44-3.783 36.922.274 10.293h1.514zm15.77-96.636l-8.816 1.03-4.35 42.465 13.166-2.86zM283.386 96.118l18.924-2.783L301.098 62l-11.285.755z"/><path d="M285.223 44.007c.406 6.065 0 12.635 0 12.635h11.323s1.313-9.098 0-12.938c-.766-2.235-2.348-6.24-3.54-9.208l-8.65 4.66c.428 1.59.76 3.254.867 4.85zM278.05 56.44s1.313-9.097 0-12.938l-.28-.8-10.868 5.85c.047 4.312-.172 7.89-.172 7.89h11.32zM212.146 45.12h24.26s1.012-5.56 0-10.413c-.108-.522-.276-1.026-.474-1.515l-24.952 7.963c1.507 1.87 1.166 3.964 1.166 3.964z" fill="#0F8770"/><path fill="#BA4504" d="M139.466 205.232c2.735 0 4.953-2.218 4.953-4.953 0-2.374-1.673-4.353-3.902-4.836l-3.11 9.33c.63.288 1.322.458 2.058.458z"/><path fill="#0F8770" d="M158.268 207.357c3.908 0 7.076-3.17 7.076-7.077 0-2.333-1.135-4.396-2.877-5.686l-8.005 11.645c1.1.703 2.403 1.117 3.806 1.117z"/><circle fill="#16A085" cx="28.653" cy="192.832" r="7.075"/><circle fill="#D35400" cx="47.386" cy="194.446" r="4.953"/><path fill="#BA4504" d="M46.96 199.38c-2.725-.233-4.744-2.634-4.51-5.36.205-2.363 2.04-4.19 4.302-4.48l2.297 9.56c-.652.233-1.356.344-2.09.28z"/><path fill="#0F8770" d="M28.046 199.884c-3.894-.336-6.778-3.765-6.442-7.66.2-2.323 1.51-4.282 3.355-5.416l6.975 12.29c-1.157.605-2.49.906-3.89.786z"/><path d="M200.08 84.945l-4.044-3.132h-3.545l-4.907 32.517 1.984-2.497 6.976-.707 3.536-6.47z"/></svg>