<?xml version="1.0" encoding="utf-8"?>
<!-- Generator: Adobe Illustrator 16.0.0, SVG Export Plug-In . SVG Version: 6.00 Build 0)  -->
<!DOCTYPE svg PUBLIC "-//W3C//DTD SVG 1.1//EN" "http://www.w3.org/Graphics/SVG/1.1/DTD/svg11.dtd">
<svg version="1.1" id="Logo" xmlns="http://www.w3.org/2000/svg" xmlns:xlink="http://www.w3.org/1999/xlink" x="0px" y="0px"
	 width="64px" height="64px" viewBox="64 40 64 64" enable-background="new 64 40 64 64" xml:space="preserve">
<path id="B_1_" fill="#F1C40F" d="M114.324,69.153c5.613-4.009,6.334-10.426,4.09-15.96c-2.084-5.214-6.578-9.224-13.635-9.224
	h-5.598v7.699h5.598c8.824,0,8.662,14.599-0.16,14.599h-7.98v8.02h10.145c5.455,0,8.18,4.493,8.18,8.903
	c0,4.409-2.725,8.981-8.18,8.981H89.458V80.988l-8.021,8.02v11.023h25.345c10.746,0,16.281-8.502,16.281-16.922
	C123.066,77.815,120.738,71.881,114.324,69.153z"/>
<polygon id="T" fill="#FFFFFF" points="97.357,43.969 97.357,51.669 89.458,51.669 89.458,78.449 81.448,86.461 81.448,51.654 
	68.936,51.654 68.936,43.969 "/>
</svg>
