<svg xmlns="http://www.w3.org/2000/svg" width="64" height="64" viewBox="64 40 64 64" enable-background="new 64 40 64 64"><path d="M114.324 69.153c5.613-4.01 6.334-10.426 4.09-15.96-2.084-5.214-6.578-9.224-13.635-9.224h-5.6v7.698h5.6c8.823 0 8.66 14.6-.16 14.6h-7.98v8.02h10.144c5.455 0 8.18 4.492 8.18 8.902 0 4.41-2.725 8.98-8.18 8.98H89.458V80.99l-8.02 8.02v11.023h25.344c10.746 0 16.28-8.5 16.28-16.92.004-5.295-2.324-11.23-8.738-13.957z" fill="#F1C40F"/><path d="M97.357 43.97v7.7h-7.9v26.78l-8.01 8.01V51.655h-12.51V43.97z" fill="#fff"/></svg>