<svg xmlns="http://www.w3.org/2000/svg" height="120" viewBox="0 0 120 120" width="120"><path d="M74.6 101.2C72.1 98.6 72 93 72 93H48.6s-.1 5.6-2.6 8.2-6.5 4.8.4 4.8h27.9c6.8 0 2.8-2.3.3-4.8z" fill="#B2B2B2"/><path opacity=".5" d="M72.5 97c-.5-2-.5-4-.5-4H48.6s0 2-.5 4h24.4z" enable-background="new" fill="#7C7C7C"/><path d="M2 88c0 1.9 2.3 5 4.2 5h107.6c1.9 0 3.2-3.1 3.2-5v-6H2v6z" fill="#B2B2B2"/><path d="M113.8 15H6.2C4.3 15 2 14.6 2 16.5V82h115V16.5c0-1.9-1.3-1.5-3.2-1.5z" fill="#231F20"/><path d="M8 18h103v59H8V18z" fill="#D3D3D3"/><path id="logo" d="M66 43.2l-13-4.1c-.6-.6-1-1.9-1-3.4 0-1.4.7-2.7 1.3-3.4l6.4-3.8 6.3 3.8v10.9zM47 36v14.8l3.5 2.1V40.7c-.6-.7-1-2-1-3.4 0-1.5.5-2.7 1.1-3.4L47 36zm6.3 7.8v10.8l6.4 3.8 6.4-3.8c1.198-.7 1.198-1.9 1.198-3.4S67 48.5 66.4 47.8l-13.1-4zm15.7-10v12.3c.6.7 1.2 2 1.2 3.4 0 1.5-.4 2.7-1 3.4l3.9-2.1V36L69 33.8z" fill="#FF302C"/><path id="text" d="M37.2 64.3v2.2h-.5v-4.9h.5v2.1h1.2v-2.2h.5v4.9h-.5v-2.2l-1.2.1zm4.4-1.5v.1h-.5v-.2c0-.5-.2-.7-.6-.7s-.6.2-.6.7c0 1.1 1.6 1.2 1.6 2.6 0 .8-.3 1.2-1.1 1.2s-1.1-.5-1.1-1.2V65h.5v.3c0 .5.2.7.6.7s.6-.2.6-.7c0-1.1-1.6-1.2-1.6-2.6 0-.8.3-1.2 1.1-1.2.8.1 1.1.6 1.1 1.3zm1.6 1h1.3v.5h-1.3v-.5zm4-2.2c.8 0 1.1.5 1.1 1.2v2.4c0 .8-.3 1.2-1.1 1.2H46v-4.9h1.2v.1zm0 4.4c.4 0 .6-.2.6-.7v-2.5c0-.5-.2-.7-.6-.7h-.6V66h.6zm3.4-2.2v.5h-1.2V66h1.5v.5h-2v-4.9h2v.5h-1.5v1.6h1.2v.1zm1.2-2.2l.8 4.2.8-4.2h.5l-.9 4.9h-.8l-.9-4.9h.5zm4.2 2.2v.5h-1.2V66h1.4v.5h-2v-4.9h2v.5h-1.4v1.6H56v.1zm.8 2.7v-4.9h.5V66h1.4v.5h-1.9zm2.3-3.7c0-.8.3-1.2 1.1-1.2s1.1.5 1.1 1.2v2.5c0 .8-.3 1.2-1.1 1.2s-1.1-.5-1.1-1.2v-2.5zm.5 2.6c0 .5.2.7.6.7.4 0 .6-.2.6-.7v-2.6c0-.5-.2-.7-.6-.7s-.6.3-.6.7v2.6zm3.3-3.8c.8 0 1.1.5 1.1 1.2v.6c0 .8-.3 1.2-1.2 1.2h-.5v1.898h-.5V61.6h1.1zm-.1 2.5c.4 0 .6-.2.6-.6v-.6c0-.5-.198-.7-.6-.7h-.5v2h.5v-.1zm3.9-2c-.4 0-.6.2-.6.7v.2c0 .4.198.6.6.6h.5v-.5h.5v.5h.2v.5h-.2v1.7c0 .2 0 .4.1.6h-.5c-.1-.1-.1-.198-.1-.398-.1.3-.4.5-.8.5-.602 0-.9-.4-.9-1.1V65c0-.5.2-.9.6-1-.398-.1-.6-.5-.6-1v-.1c0-.8.3-1.2 1.2-1.2h.8v.5h-.8v-.1zm0 2.1c-.4 0-.6.3-.6.8v.5c0 .4.198.7.6.7.3 0 .5-.2.5-.6v-1.302l-.5-.098zm3.9-2.6c.8 0 1.102.5 1.102 1.2v2.4c0 .8-.3 1.2-1.102 1.2h-1.2v-4.9h1.2v.1zm0 4.4c.4 0 .602-.2.602-.7v-2.5c0-.5-.2-.7-.602-.7H70V66h.6zm3.3-2.2v.5h-1.2V66h1.4v.5h-2v-4.9h2v.5h-1.4v1.6h1.2v.1zm2.9-1v.1h-.5v-.2c0-.5-.2-.7-.6-.7s-.6.2-.6.7c0 1.1 1.6 1.2 1.6 2.6 0 .8-.3 1.2-1.1 1.2s-1.102-.5-1.102-1.2V65h.602v.3c0 .5.2.7.6.7.4 0 .6-.2.6-.7 0-1.1-1.6-1.2-1.6-2.6 0-.8.3-1.2 1.1-1.2.6.1 1 .6 1 1.3zm1-1.2v4.9h-.5v-4.9h.5zm2.7 1.2v.4H80v-.5c0-.5-.2-.7-.6-.7s-.6.3-.6.7v2.6c0 .5.2.7.6.7.4 0 .602-.3.602-.7v-.9h-.5v-.5h1v1.5c0 .8-.3 1.2-1.1 1.2s-1.102-.5-1.102-1.2v-2.5c0-.8.3-1.2 1.1-1.2.8-.1 1.1.4 1.1 1.1zm1 3.7H81v-4.9h.7l1.1 3.5v-3.5h.5v4.9h-.6l-1.2-3.9v3.9z" fill="#FF302C"/><linearGradient id="a" y2="47.5" gradientUnits="userSpaceOnUse" x2="111" y1="47.5" x1="55.6"><stop stop-color="#fff" stop-opacity="0" offset="0"/><stop stop-color="#fff" offset="1"/></linearGradient><path id="reflection" opacity=".6" d="M55.6 77H111V18H90.9L55.6 77z" enable-background="new" fill="url(#a)"/></svg>