<svg xmlns="http://www.w3.org/2000/svg" width="120" height="120" viewBox="0 0 120 120"><g><path fill="#B2B2B2" d="M59.475 91.972c-1.962-2.047-2.04-6.454-2.04-6.454H39.07s-.078 4.407-2.04 6.454c-1.962 2.046-5.1 3.778.314 3.778H59.24c5.336 0 2.197-1.81.235-3.778z"/><path opacity=".5" fill="#7C7C7C" enable-background="new" d="M57.827 88.665c-.392-1.573-.392-3.147-.392-3.147H39.07s0 1.574-.392 3.147h19.15z"/><path fill="#B2B2B2" d="M2.5 81.582c0 1.494 1.805 3.936 3.296 3.936h84.442c1.492 0 2.512-2.44 2.512-3.936v-4.724H2.5v4.724z"/><path fill="#231F20" d="M90.238 24.12H5.796c-1.49 0-3.296-.315-3.296 1.18v51.558h90.25V25.3c0-1.495-1.02-1.18-2.512-1.18z"/><path fill="#D3D3D3" d="M7.208 26.48H88.04v46.442H7.21v-46.44z"/><path fill="#FF302C" d="M52.726 46.317L42.524 43.09c-.47-.472-.785-1.495-.785-2.676 0-1.102.548-2.125 1.02-2.676l5.022-2.99 4.944 2.99v8.58zm-14.91-5.668v11.648l2.746 1.654V44.35c-.47-.552-.785-1.575-.785-2.677 0-1.18.393-2.125.863-2.676l-2.825 1.652zm4.943 6.14v8.5l5.022 2.99 5.02-2.99c.942-.55.942-1.494.942-2.675 0-1.18-.234-2.125-.705-2.677L42.76 46.79zm12.32-7.872V48.6c.472.552.942 1.575.942 2.676 0 1.182-.313 2.126-.785 2.677l3.06-1.654V40.65l-3.216-1.732z"/><path fill="#FF302C" d="M30.125 62.926v1.73h-.392V60.8h.392v1.654h.94v-1.732h.394v3.856h-.394v-1.73l-.94.078zm3.452-1.18v.077h-.393v-.156c0-.394-.156-.55-.47-.55s-.47.156-.47.55c0 .865 1.254.943 1.254 2.046 0 .63-.235.944-.863.944s-.863-.394-.863-.944v-.236h.392v.236c0 .394.157.55.47.55s.472-.156.472-.55c0-.865-1.255-.944-1.255-2.046 0-.63.236-.945.864-.945.628.078.863.47.863 1.023zm1.256.786h1.02v.394h-1.02v-.394zm3.14-1.732c.627 0 .862.394.862.945v1.89c0 .63-.235.943-.862.943h-.943v-3.856h.942v.078zm0 3.464c.313 0 .47-.157.47-.55v-1.97c0-.394-.157-.55-.47-.55H37.5v3.07h.473zm2.667-1.732v.394h-.94v1.338h1.176v.394h-1.57V60.8h1.57v.394H39.7v1.26h.94v.078zm.942-1.732l.628 3.307.628-3.307h.393l-.705 3.857h-.628L41.19 60.8h.392zm3.296 1.732v.394h-.942v1.338h1.1v.394h-1.57V60.8h1.57v.394h-1.1v1.26h.942v.078zm.628 2.125V60.8h.393v3.464h1.098v.394h-1.492zm1.805-2.912c0-.63.237-.945.865-.945.627 0 .862.394.862.945v1.968c0 .63-.235.944-.862.944-.628 0-.864-.394-.864-.944v-1.968zm.394 2.047c0 .394.157.55.47.55.313 0 .47-.156.47-.55v-2.047c0-.395-.156-.552-.47-.552-.313 0-.47.237-.47.552v2.047zm2.59-2.992c.627 0 .862.394.862.945v.472c0 .63-.235.944-.942.944h-.393v1.496h-.39V60.8h.863zm-.08 1.97c.315 0 .473-.158.473-.473v-.474c0-.394-.156-.55-.472-.55h-.393v1.574h.393v-.078zm3.06-1.577c-.313 0-.47.157-.47.552v.158c0 .313.155.472.47.472h.394v-.395h.393v.395h.158v.394h-.157v1.337c0 .157 0 .315.08.474h-.393c-.078-.08-.078-.156-.078-.313-.08.236-.315.394-.63.394-.472 0-.706-.313-.706-.865v-.316c0-.395.158-.71.47-.788-.31-.08-.47-.393-.47-.786v-.08c0-.63.235-.943.942-.943h.628v.394h-.628v-.084zm0 1.655c-.313 0-.47.235-.47.63v.393c0 .316.155.553.47.553.236 0 .394-.158.394-.474v-1.025l-.393-.077zm3.062-2.048c.63 0 .865.394.865.945v1.89c0 .63-.235.943-.864.943h-.94v-3.856h.94v.078zm0 3.464c.314 0 .473-.157.473-.55v-1.97c0-.394-.158-.55-.474-.55h-.47v3.07h.47zm2.59-1.732v.394h-.942v1.338h1.098v.394h-1.57V60.8h1.57v.394h-1.098v1.26h.942v.078zm2.275-.787v.078h-.39v-.156c0-.394-.157-.55-.47-.55s-.473.156-.473.55c0 .865 1.256.943 1.256 2.046 0 .63-.234.944-.864.944s-.865-.394-.865-.944v-.236h.473v.236c0 .394.156.55.472.55.313 0 .47-.156.47-.55 0-.865-1.255-.944-1.255-2.046 0-.63.235-.945.863-.945.47.078.783.47.783 1.023zm.786-.945v3.857h-.393V60.8h.393zm2.12.945v.315h-.394v-.394c0-.394-.156-.55-.47-.55-.314 0-.472.233-.472.55v2.046c0 .394.157.55.472.55.313 0 .47-.235.47-.55v-.708h-.39v-.394h.784v1.182c0 .63-.235.943-.864.943-.63 0-.865-.393-.865-.943v-1.97c0-.63.235-.942.865-.942.628-.08.863.313.863.865zm.784 2.912h-.392V60.8h.55l.862 2.756V60.8h.393v3.857h-.47l-.943-3.07v3.07z"/><linearGradient id="a" gradientUnits="userSpaceOnUse" x1="-128.936" y1="-486.201" x2="-85.459" y2="-486.201" gradientTransform="matrix(1 0 0 -1 173.5 -436.5)"><stop offset="0" stop-color="#fff" stop-opacity="0"/><stop offset="1" stop-color="#fff"/></linearGradient><path opacity=".6" fill="url(#a)" enable-background="new" d="M44.564 72.922H88.04v-46.44H72.27L44.564 72.92z"/></g><g><path d="M106.705 92.028c0 1.02-.65 1.893-1.443 1.893H46.61c-.795 0-1.446-.87-1.446-1.892V54.042c0-1.092.65-1.892 1.445-1.892h58.723c.796 0 1.445.873 1.445 1.892v37.986h-.073z"/><g><path fill="#5F6767" d="M34.69 94.503s-.506.946 3.106 1.746H114s2.53-.147 3.252-1.383v-.655l-82.562.29z"/><linearGradient id="b" gradientUnits="userSpaceOnUse" x1="107.19" y1="985.227" x2="189.759" y2="985.227" gradientTransform="translate(-72.5 -891.5)"><stop offset="0" stop-color="#999C9D"/><stop offset=".001" stop-color="#A5A7A9"/><stop offset=".004" stop-color="#C2C3C5"/><stop offset=".007" stop-color="#D9D8DA"/><stop offset=".01" stop-color="#E9E7EA"/><stop offset=".013" stop-color="#F2F0F3"/><stop offset=".018" stop-color="#F5F3F6"/><stop offset=".049" stop-color="#DFE1E3"/><stop offset=".189" stop-color="#D1D1D1"/><stop offset=".506" stop-color="#E3E5E7"/><stop offset=".872" stop-color="#D1D1D1"/><stop offset=".951" stop-color="#DFE1E3"/><stop offset=".988" stop-color="#F5F3F6"/><stop offset="1" stop-color="#999C9D"/></linearGradient><path fill="url(#b)" d="M34.69 92.538h82.562v2.11s.145.292-.865.22H35.484s-.794.218-.794-.292v-2.038z"/><path fill="#5F6767" d="M113.424 93.85c0 .07-.072.145-.145.145h-2.818c-.073 0-.144-.074-.144-.146 0-.074.072-.147.144-.147h2.816c.073 0 .145 0 .146.146zM70.374 92.61s-.29 1.093.723 1.166h9.605s1.01.145.867-1.165H70.373z"/></g><path fill="#CCC8C8" d="M47.62 54.48h56.847V89.77H47.62V54.48z"/><path fill="#FF302C" d="M79.62 69.033l-7.37-2.328c-.36-.364-.577-1.092-.577-1.893s.36-1.528.723-1.893l3.61-2.184 3.613 2.183v6.113zm-10.764-4.075v8.515l1.95 1.237v-7.06c-.36-.363-.578-1.092-.578-1.965 0-.8.29-1.527.65-1.964l-2.022 1.238zm3.612 4.366v6.186l3.612 2.183 3.61-2.183c.65-.364.65-1.092.65-1.892s-.144-1.6-.505-1.965l-7.367-2.33zm8.884-5.676v7.06c.36.363.65 1.09.65 1.964 0 .874-.217 1.528-.577 1.966l2.24-1.238v-8.514l-2.313-1.238z"/><path fill="#FF302C" d="M63.294 81.113v1.237h-.288v-2.766h.288v1.237h.723v-1.236h.288v2.766h-.288v-1.237h-.723zm2.527-.873l-.286.072v-.072c0-.29-.073-.364-.36-.364-.218 0-.36.146-.36.364 0 .654.937.728.937 1.455 0 .438-.215.73-.648.73s-.65-.292-.65-.73v-.145h.288v.146c0 .29.074.364.362.364.217 0 .36-.146.36-.364 0-.653-.938-.728-.938-1.455 0-.436.216-.728.65-.728.432.073.647.292.647.728zm.87.582h.722v.29h-.723v-.29zM69 79.585c.434 0 .65.29.65.728v1.383c0 .438-.217.73-.65.73h-.65v-2.768H69v-.073zm0 2.475c.218 0 .362-.146.362-.364V80.24c0-.29-.072-.364-.362-.364h-.36v2.256H69v-.072zm1.878-1.238v.29h-.722v1.02h.794v.292h-1.155v-2.767h1.155v.29h-.794v.947h.722v-.072zm.65-1.237l.434 2.4.434-2.4h.288l-.504 2.766h-.435l-.506-2.765h.288zm2.456 1.237v.29h-.722v1.02h.795v.292H72.9v-2.767h1.157v.29h-.795v.947h.722v-.072zm.363 1.53v-2.767h.29v2.475h.865v.29h-1.155zm1.37-2.112c0-.437.22-.73.65-.73.434 0 .65.293.65.73v1.455c0 .438-.218.73-.65.73-.432 0-.65-.292-.65-.73V80.24zm.29 1.455c0 .29.073.364.36.364.29 0 .362-.147.362-.365V80.24c0-.29-.074-.364-.363-.364-.287 0-.36.146-.36.364v1.455zm1.88-2.11c.434 0 .648.29.648.728v.364c0 .437-.216.654-.65.654h-.288v1.093h-.29v-2.766h.58v-.072zm-.074 1.383c.216 0 .36-.073.36-.364v-.364c0-.29-.073-.364-.36-.364h-.29v1.092h.29zm2.167-1.092c-.217 0-.36.146-.36.364v.146c0 .218.144.363.36.363h.288v-.29h.29v.29h.144v.29h-.145v.946c0 .146 0 .22.07.364h-.286c0-.074 0-.146-.072-.22-.07.147-.216.293-.433.293-.36 0-.506-.22-.506-.654v-.294c0-.29.07-.51.36-.582-.217-.073-.36-.29-.36-.582v-.072c0-.437.215-.73.65-.73h.432v.293h-.432v.073zm0 1.164c-.217 0-.36.146-.36.437v.292c0 .217.07.362.36.362.145 0 .288-.073.288-.363v-.73h-.288zm2.238-1.455c.436 0 .65.29.65.728v1.383c0 .438-.216.73-.65.73h-.648v-2.768h.648v-.073zm0 2.475c.218 0 .363-.146.363-.364V80.24c0-.29-.072-.364-.362-.364h-.36v2.256h.36v-.072zm1.88-1.238v.29h-.723v1.02h.795v.292h-1.084v-2.767h1.156v.29h-.795v.947h.65v-.072zm1.662-.582l-.29.072v-.072c0-.29-.072-.364-.36-.364-.29 0-.36.146-.36.364 0 .654.937.728.937 1.455 0 .438-.217.73-.647.73-.435 0-.65-.292-.65-.73v-.145h.36v.146c0 .29.072.364.36.364s.362-.146.362-.364c0-.653-.94-.728-.94-1.455 0-.436.218-.728.65-.728.36.073.578.292.578.728zm.576-.655v2.766h-.29v-2.765h.29zm1.518.655v.22h-.29v-.293c0-.29-.072-.363-.36-.363-.29 0-.36.145-.36.363v1.456c0 .29.07.363.36.363.288 0 .36-.146.36-.363v-.51h-.288v-.29h.578v.8c0 .437-.218.728-.648.728-.436 0-.65-.29-.65-.727v-1.456c0-.438.217-.728.65-.728.43.145.648.364.648.8zm.578 2.11h-.29v-2.765h.36l.652 2.038v-2.038h.29v2.766h-.363l-.722-2.256v2.257h.074z"/><linearGradient id="c" gradientUnits="userSpaceOnUse" x1="-108.978" y1="-508.517" x2="-69.105" y2="-508.517" gradientTransform="matrix(1 0 0 -1 173.5 -436.5)"><stop offset="0" stop-color="#fff" stop-opacity="0"/><stop offset="1" stop-color="#fff"/></linearGradient><path opacity=".6" fill="url(#c)" enable-background="new" d="M64.522 89.482h39.873v-34.93H88.792l-24.27 34.93z"/></g></svg>