<svg xmlns="http://www.w3.org/2000/svg" width="120" height="120" viewBox="0 0 120 120"><g fill="none" stroke="#FF302C" stroke-miterlimit="10"><path stroke-width=".15" d="M63.272 80.905v1.257h-.285v-2.8h.285v1.2h.686v-1.257h.287v2.8h-.287V80.85l-.686.055zm2.513-.856v.056H65.5v-.113c0-.287-.115-.4-.344-.4-.228 0-.342.113-.342.4 0 .628.914.685.914 1.485 0 .457-.172.685-.63.685-.457 0-.628-.286-.628-.685v-.173h.286v.173c0 .285.113.398.342.398.23 0 .344-.113.344-.398 0-.628-.913-.687-.913-1.485 0-.457.17-.687.626-.687.458.056.63.343.63.743zm.914.57h.74v.285h-.74v-.285zm2.283-1.258c.457 0 .63.287.63.687v1.37c0 .456-.173.685-.63.685h-.685v-2.8h.685v.057zm0 2.514c.23 0 .344-.113.344-.398v-1.43c0-.284-.115-.398-.344-.398h-.343v2.227h.343zm1.942-1.256v.285h-.686v.97h.856v.287h-1.143v-2.8h1.143v.287h-.857v.912h.685v.058zm.687-1.258l.455 2.4.458-2.4h.284l-.514 2.8h-.458l-.513-2.8h.287zm2.397 1.258v.285h-.685v.97h.8v.287H72.98v-2.8h1.145v.287h-.8v.912h.684v.058zm.456 1.542v-2.8h.287v2.514h.8v.286h-1.087zm1.313-2.113c0-.458.173-.688.63-.688s.627.287.627.687v1.428c0 .457-.172.685-.628.685s-.63-.286-.63-.685v-1.43zm.285 1.483c0 .287.114.4.344.4.228 0 .34-.113.34-.4V80.05c0-.286-.112-.4-.34-.4-.23 0-.345.17-.345.4v1.483zm1.886-2.17c.458 0 .63.286.63.686v.343c0 .457-.172.684-.687.684h-.286v1.085h-.284v-2.8h.628zm-.056 1.428c.23 0 .343-.113.343-.34v-.345c0-.285-.11-.4-.343-.4h-.286v1.145h.286v-.06zm2.227-1.14c-.227 0-.342.113-.342.398v.113c0 .23.112.345.343.345h.286v-.285h.287v.285h.113v.285h-.113v.972c0 .113 0 .23.057.342h-.285c-.06-.057-.06-.112-.06-.228-.055.173-.227.287-.456.287-.345 0-.515-.228-.515-.63v-.23c0-.284.115-.514.343-.57-.226-.058-.343-.285-.343-.572v-.056c0-.456.172-.685.686-.685h.458v.283h-.457v-.054zm0 1.2c-.227 0-.342.17-.342.455v.287c0 .23.112.4.343.4.173 0 .286-.116.286-.344v-.744l-.285-.054zm2.23-1.488c.456 0 .63.287.63.687v1.37c0 .456-.174.685-.63.685h-.686v-2.8h.686v.057zm0 2.514c.228 0 .345-.113.345-.398v-1.43c0-.284-.116-.398-.345-.398h-.345v2.227h.345zm1.884-1.256v.285h-.686v.97h.8v.287h-1.144v-2.8h1.143v.287h-.8v.912h.687v.058zm1.656-.57v.056h-.285v-.113c0-.287-.113-.4-.342-.4s-.343.113-.343.4c0 .628.914.685.914 1.485 0 .457-.172.685-.63.685s-.63-.286-.63-.685v-.173h.346v.173c0 .285.113.398.343.398.23 0 .343-.113.343-.398 0-.628-.913-.687-.913-1.485 0-.457.17-.687.63-.687.34.056.567.343.567.743zm.57-.688v2.8h-.285v-2.8h.286zm1.544.687v.228h-.284v-.285c0-.287-.116-.4-.344-.4-.23 0-.344.172-.344.4v1.485c0 .285.113.398.344.398.228 0 .345-.17.345-.398v-.515h-.286v-.286h.57v.856c0 .458-.17.687-.628.687-.46 0-.63-.285-.63-.687v-1.428c0-.456.17-.685.63-.685.457-.058.628.23.628.63zm.57 2.112h-.285v-2.8h.4l.626 2v-2h.286v2.8h-.342l-.686-2.23v2.23z"/><path stroke-width=".25" d="M79.713 68.928l-7.38-2.314c-.36-.36-.577-1.085-.577-1.88s.36-1.52.725-1.88l3.616-2.172 3.617 2.17v6.076zm-10.776-4.05v8.462l1.952 1.23V67.55c-.362-.36-.58-1.084-.58-1.953 0-.795.29-1.52.65-1.954l-2.023 1.23zm3.616 4.338v6.148l3.616 2.17 3.615-2.17c.65-.362.65-1.086.65-1.88 0-.797-.146-1.592-.507-1.953l-7.375-2.314zm8.895-5.64v7.015c.36.363.65 1.086.65 1.953 0 .87-.217 1.52-.578 1.954l2.24-1.23v-8.46l-2.312-1.232z"/><path stroke-width=".5" d="M47.67 54.462h56.922v35.08h-56.92V54.46z"/><path stroke-width=".25" d="M117.396 94.386V92.29h-82.67v1.952s-.508.94 3.11 1.735h76.303s2.532-.144 3.256-1.374v-.152c.008-.034 0-.064 0-.064z"/><path stroke-width=".25" d="M70.455 92.36s-.29 1.087.723 1.16h9.62s1.012.144.867-1.16h-11.21z"/><path stroke-width=".25" d="M105.46 52.148h-58.8c-.797 0-1.447.795-1.447 1.88v37.754c0 .176.025.343.062.507h61.498c.036-.165.062-.332.062-.508h.073V54.028c0-1.012-.65-1.88-1.447-1.88z"/><path stroke-width=".25" d="M115.656 93.813c0 .068-.068.138-.138.138h-2.68c-.07 0-.14-.068-.14-.137s.07-.138.14-.138h2.68c.07 0 .137 0 .138.138z"/></g><g fill="none" stroke="#FF302C" stroke-miterlimit="10"><path stroke-width=".15" d="M40.993 64.482h-1.57v-3.847h1.57v.392h-1.178v1.257h.942V62.756h-.942v1.334h1.178v.392zm1.65 0l.706-3.847h-.393l-.628 3.297-.63-3.296h-.393l.707 3.847h.628zm2.512-.392h-1.1v-1.334h.942V62.284h-.942v-1.257h1.1v-.392h-1.57v3.847h1.57v-.392zM31.18 62.284h-.943v-1.648h-.393v3.847h.393v-1.727l.942-.08v1.73h.392v-3.848h-.393v1.726zm1.648-1.726c-.628 0-.864.313-.864.94 0 1.1 1.256 1.18 1.256 2.043 0 .393-.157.55-.47.55-.315 0-.473-.157-.473-.55v-.235h-.392v.236c0 .55.236.942.864.942.627 0 .863-.314.863-.94 0-1.1-1.256-1.18-1.256-2.043 0-.394.157-.55.47-.55.315 0 .472.156.472.55v.157h.392v-.08c0-.55-.236-.94-.864-1.02zm3.14 1.804h-1.02v.394h1.02v-.394zm2.12 2.042h-.942v-3.847h.942v.078c.628 0 .863.392.863.94v1.886c.002.63-.234.944-.862.944zm-.47-.314h.47c.314 0 .47-.157.47-.55v-1.963c0-.393-.156-.55-.47-.55h-.47v3.063z"/><path stroke-width=".25" d="M42.877 46.66l10.285 3.14c.426.498.646 1.326.687 2.348h-7.19c-.797 0-1.447.795-1.447 1.88v2.5l-2.335-1.388v-8.48zm13.175 5.488h2.37v-11.61l-3.218-1.73v9.658c.472.55.943 1.57.943 2.67 0 .364-.04.697-.095 1.012zm-15.373-7.92c-.472-.55-.786-1.57-.786-2.67 0-1.178.392-2.12.863-2.67l-2.826 1.65v11.62l2.75 1.648v-9.58zm12.17 1.96v-8.557l-4.947-2.982-5.025 2.983c-.47.55-1.02 1.57-1.02 2.67 0 1.178.313 2.2.784 2.67l10.207 3.22z"/><path stroke-width=".25" d="M90.377 24.05H5.897c-1.49 0-3.297-.314-3.297 1.177V81.363c0 1.492 1.806 3.927 3.298 3.927h39.314V72.726h-37.9V26.405h80.867V52.15h4.71V25.226c0-1.492-1.02-1.177-2.513-1.177z"/><path stroke-width=".25" d="M36.57 92.29c.197-.186.392-.373.576-.564 1.963-2.04 2.042-6.438 2.042-6.438h6.025v6.493c0 .177.025.344.062.508H36.57zm-1.845 1.952v-.154c-.525.685-.407 1.174 1.248 1.342-1.543-.624-1.248-1.188-1.248-1.188z"/></g></svg>