<svg xmlns="http://www.w3.org/2000/svg" width="120" height="120" viewBox="0 0 120 120"><path fill="none" stroke="#FF302C" stroke-width=".25" stroke-miterlimit="10" d="M59.5 6.1L13 33.1V87l46.5 26.9L106 87V33.1z"/><g fill="none" stroke="#FF302C" stroke-width=".25" stroke-miterlimit="10"><path d="M73.6 60.6c-.3.4-6.1 9.1-13.6 9.1S46.6 61 46.4 60.6L46 60l.4-.6c.3-.4 6.1-9.1 13.6-9.1s13.4 8.7 13.6 9.1l.4.6-.4.6z"/><circle cx="60" cy="60" r="7"/><circle cx="60" cy="60" r="3"/><circle cx="61" cy="59" r=".8"/></g><g fill="none" stroke="#FF302C" stroke-width=".25" stroke-miterlimit="10"><path d="M46.5 40.266l-3.018-3.017L37.4 43.33l3.042 3.04.018-.018-.023-.023z"/><path d="M41.95 35.73c-.9-.898-1.9 0-2.9 1l-2.1 2.102c-1 1-1.9 2.2-1.1 3l1.55 1.5 6.075-6.077-1.524-1.525z"/><path d="M77.726 77.454l2.92-2.95.022.04.078-.077-34.228-34.22-.018.02.023.023-6.063 6.064L74.665 80.55l.143-.144h-.003z"/><path d="M86.904 86.73l-3.13-6.114-3.106-6.07-5.86 5.86 6.047 3.162 6.05 3.16zm-2.7-2.703l.8-.8 1.7 3.3-3.3-1.7.8-.8z"/></g><g fill="none" stroke="#FF302C" stroke-width=".25" stroke-miterlimit="10"><path d="M70.164 40.87c-2.313 2.516-3.188 5.216-2.853 7.505.04.262.094.518.164.77l.024.075c.06.207.133.41.215.607.025.063.054.124.08.185.076.165.16.325.25.48.033.06.065.123.103.182.127.205.264.405.417.595.165.214.344.402.528.574.06.054.12.1.18.15.134.11.272.215.416.308.07.045.14.088.212.128.15.083.304.156.462.22.065.026.13.057.196.08.226.078.457.142.696.183 2.296.39 5.17-.908 7.71-3.244h.002c5.8-5.4 7.3-16.1 7.3-16.1s-10 .7-16.1 7.3z"/><path d="M68.032 53.026l-.006-.006c-.918-.96-1.954-1.93-2.782-2.584-.64-.506-1.158-.828-1.393-.804 0 0-.17.068-.2.1l-29.4 31.9c-1 1-.898 2.5.102 3.5l.6.6c.93.93 2.2.898 3.18.088l-.08.113c.102-.1.2-.2.3-.3l31.898-29.3c.038-.04.046-.105.028-.19.07-.23-.256-.78-.793-1.463-.393-.5-.902-1.076-1.453-1.654z"/><path d="M70.36 52.65c-.158-.065-.313-.137-.462-.22-.07-.042-.143-.084-.212-.13-.144-.09-.282-.195-.416-.308-.06-.05-.12-.095-.18-.15-.184-.17-.362-.36-.527-.574-.153-.19-.29-.39-.417-.595-.037-.06-.07-.12-.104-.18-.09-.158-.173-.318-.248-.482-.027-.06-.056-.12-.08-.184-.083-.198-.155-.4-.216-.607-.008-.027-.018-.05-.024-.077-.07-.25-.125-.507-.163-.77v-.003l-2.066 2.065c.828.655 1.862 1.622 2.782 2.585l.006.006c.552.58 1.06 1.152 1.453 1.654l1.77-1.768h-.002c-.24-.04-.47-.105-.696-.183-.068-.024-.13-.054-.197-.08z"/></g></svg>