<svg xmlns="http://www.w3.org/2000/svg" height="120" viewBox="0 0 120 120" width="120"><path fill="#ddd" d="M13 33.1l46.5-27 46.5 27V87l-46.5 26.9L13 87z"/><g><path d="M73.6 59.4c-.2-.4-6.1-9.1-13.6-9.1S46.7 59 46.4 59.4l-.4.6.4.6c.2.4 6.1 9.1 13.6 9.1s13.3-8.7 13.6-9.1l.4-.6-.4-.6z" fill="#fff"/><circle cy="60" cx="60" r="7" fill="#ddd"/><circle cy="60" cx="60" r="3" fill="#fff"/><circle cy="59" cx="61" r=".8" fill="#ddd"/></g><g><path d="M73.5 67.3c.8.8.7 2.5-.3 3.5L71 73c-1 1-2.8 1.3-3.6.4l-3-3c-.8-.8.1-2 1.1-3l2.1-2.1c1-1 2-1.9 2.9-1l3 3z" fill="#4889F8"/><path fill="#666" d="M65.95 71.9l6.08-6.083 3.042 3.04-6.08 6.084z"/><path fill="#BD3D33" d="M68.985 74.9l6.08-6.083 34.23 34.22-6.08 6.08z"/><path fill="#DE483C" d="M68.946 74.985l3.04-3.04 34.223 34.223-3.04 3.04z"/><path fill="#C8A856" d="M115 115l-5.8-3-5.8-3 2.8-2.8 2.8-2.8 3 5.8z"/><path fill="#666" d="M114.8 114.8l-3.3-1.7.8-.8.8-.8z"/></g><g><path fill="#EAB229" d="M94.587 86.695l-4.242-4.243 5.515-5.514 4.242 4.244z"/><path fill="#FFD97D" d="M92.16 84.31l-1.84-1.837 5.517-5.516 1.837 1.838z"/><path d="M107.7 78.3c-3.7 3.4-8.1 4.6-10.4 1.6-2.1-2.6-1.8-6.7 1.6-10.4 6.1-6.6 16.1-7.3 16.1-7.3s-1.5 10.7-7.3 16.1z" fill="#37353A"/><path d="M66.9 114.2c-1 1-2.4 1.1-3.4.1l-.6-.6c-1-1-1.1-2.5-.1-3.5l29.4-31.9c.6-.6 7.2 6 6.6 6.6l-31.9 29.3z" fill="#4B4555"/><path d="M92.4 78.2l-25.8 36.3.3-.3 31.9-29.4c.7-.6-5.4-6.7-6.4-6.6z" fill="#665E73"/></g></svg>