<svg xmlns="http://www.w3.org/2000/svg" width="300" height="900" viewBox="0 0 300 900"><svg xmlns:xlink="http://www.w3.org/1999/xlink" height="300" width="300" viewBox="-140 -140 400 400" enable-background="new -140 -140 400 400"><g><path d="M58.673 164.37c-6.44-6.718-6.697-21.183-6.697-21.183H-8.298s-.254 14.465-6.695 21.183c-6.44 6.715-16.742 12.4 1.032 12.4H57.9c17.514.01 7.21-5.93.773-12.4z" fill="#B2B2B2"/><path opacity=".5" d="M53.262 153.52c-1.287-5.163-1.287-10.33-1.287-10.33H-8.298s0 5.167-1.287 10.33h62.847z" enable-background="new" fill="#7C7C7C"/><path d="M-128.32 130.27c0 4.904 5.925 12.917 10.82 12.917h277.15c4.895 0 8.243-8.013 8.243-12.917v-15.503h-296.21v15.5z" fill="#B2B2B2"/><path d="M159.64-58.322h-277.15c-4.894 0-10.82-1.034-10.82 3.875v169.22h296.21v-169.22c0-4.906-3.34-3.872-8.24-3.872z" fill="#231F20"/><path d="M-112.87-50.572h265.3v152.42h-265.3v-152.42z" fill="#D3D3D3"/><path d="M36.52 14.533L3.04 3.94C1.492 2.39.46-.968.46-4.845c0-3.617 1.803-6.977 3.346-8.784l16.486-9.817 16.226 9.817v28.16zM-12.418-4.07v38.235l9.016 5.428V8.073C-4.947 6.264-5.98 2.907-5.98-.71c0-3.876 1.29-6.976 2.834-8.785l-9.272 5.425zM3.808 16.083v27.9L20.294 53.8l16.48-9.814c3.09-1.808 3.09-4.907 3.09-8.782 0-3.876-.767-6.976-2.312-8.785L3.808 16.083zM44.25-9.753v31.78c1.545 1.807 3.09 5.164 3.09 8.78 0 3.878-1.03 6.978-2.576 8.785l10.043-5.428V-4.07L44.25-9.753z" fill="#FF302C"/><path d="M-37.66 69.043v5.683h-1.286v-12.66h1.287v5.43h3.09V61.81h1.29v12.657h-1.29v-5.68l-3.09.256zm11.333-3.875v.256h-1.29v-.512c0-1.292-.51-1.81-1.542-1.81s-1.543.518-1.543 1.81c0 2.84 4.12 3.096 4.12 6.715 0 2.066-.772 3.1-2.833 3.1s-2.833-1.293-2.833-3.1v-.776h1.288v.777c0 1.29.516 1.807 1.546 1.807s1.545-.516 1.545-1.807c0-2.84-4.12-3.1-4.12-6.715 0-2.07.77-3.104 2.832-3.104 2.06.257 2.83 1.55 2.83 3.36zm4.122 2.584h3.348v1.29h-3.348v-1.29zm10.305-5.687c2.06 0 2.83 1.292 2.83 3.103v6.2c0 2.065-.77 3.1-2.83 3.1h-3.093v-12.66h3.093v.257zm0 11.37c1.027 0 1.543-.517 1.543-1.808v-6.46c0-1.294-.516-1.81-1.543-1.81h-1.548v10.076h1.548zm8.754-5.683v1.29h-3.088v4.392h3.862v1.292h-5.15v-12.66h5.15v1.292h-3.862v4.138h3.088v.256zm3.092-5.687l2.06 10.853L4.07 62.065h1.29L3.04 74.725H.978l-2.32-12.66h1.288zm10.82 5.687v1.29H7.673v4.392h3.605v1.292H6.13v-12.66h5.15v1.292H7.673v4.138h3.09v.256zm2.058 6.974v-12.66h1.29v11.368h3.605v1.292h-4.896zm5.924-9.558c0-2.064.775-3.103 2.836-3.103 2.06 0 2.83 1.292 2.83 3.103v6.46c0 2.065-.77 3.098-2.83 3.098s-2.836-1.292-2.836-3.1V65.17zm1.29 6.718c0 1.292.515 1.805 1.546 1.805 1.024 0 1.543-.512 1.543-1.804v-6.718c0-1.295-.515-1.81-1.543-1.81-1.032 0-1.546.777-1.546 1.81v6.718zm8.5-9.82c2.06 0 2.833 1.29 2.833 3.102v1.548c0 2.07-.77 3.1-3.09 3.1h-1.29v4.907h-1.286V62.065h2.834zm-.258 6.46c1.03 0 1.55-.516 1.55-1.548v-1.555c0-1.29-.513-1.804-1.55-1.804h-1.29v5.166h1.29v-.26zm10.045-5.17c-1.03 0-1.55.517-1.55 1.812v.52c0 1.028.513 1.548 1.55 1.548h1.29V65.94h1.288v1.295h.516v1.292h-.517v4.39c0 .517 0 1.036.254 1.556H39.87c-.256-.263-.256-.516-.256-1.032-.26.777-1.032 1.293-2.06 1.293-1.552 0-2.32-1.032-2.32-2.844v-1.04c0-1.29.518-2.322 1.545-2.582-1.023-.26-1.546-1.29-1.546-2.58v-.264c0-2.066.772-3.096 3.09-3.096h2.062v1.292h-2.06v-.263zm0 5.43c-1.03 0-1.55.772-1.55 2.064v1.292c0 1.035.513 1.81 1.55 1.81.772 0 1.29-.52 1.29-1.554v-3.36l-1.29-.25zm10.045-6.72c2.064 0 2.84 1.29 2.84 3.102v6.2c0 2.065-.776 3.1-2.84 3.1h-3.09v-12.66h3.09v.257zm0 11.368c1.03 0 1.55-.516 1.55-1.807v-6.46c0-1.294-.513-1.81-1.55-1.81h-1.545v10.076h1.545zm8.502-5.682v1.29H53.78v4.392h3.603v1.292h-5.15v-12.66h5.15v1.292H53.78v4.138h3.092v.256zm7.466-2.584v.256h-1.285v-.512c0-1.292-.516-1.81-1.547-1.81-1.03 0-1.548.518-1.548 1.81 0 2.84 4.125 3.096 4.125 6.715 0 2.066-.77 3.1-2.838 3.1-2.062 0-2.836-1.293-2.836-3.1v-.776h1.552v.777c0 1.29.51 1.807 1.548 1.807 1.027 0 1.547-.516 1.547-1.807 0-2.84-4.123-3.1-4.123-6.715 0-2.07.772-3.104 2.833-3.104 1.546.257 2.57 1.55 2.57 3.36zm2.576-3.103v12.66h-1.287v-12.66h1.287zm6.955 3.103v1.035H72.58v-1.29c0-1.293-.514-1.81-1.545-1.81-1.03 0-1.545.77-1.545 1.81v6.714c0 1.29.516 1.807 1.547 1.807 1.028 0 1.544-.775 1.544-1.807v-2.324H71.3v-1.295h2.577v3.878c0 2.067-.773 3.097-2.838 3.097-2.067 0-2.84-1.29-2.84-3.097v-6.462c0-2.066.772-3.096 2.84-3.096 2.058-.263 2.83 1.03 2.83 2.84zm2.573 9.558h-1.285v-12.66h1.8l2.835 9.045v-9.044h1.29v12.66h-1.546L76.443 64.65v10.076z" fill="#FF302C"/><linearGradient id="a" y2="-462.14" gradientUnits="userSpaceOnUse" x2="-21.072" gradientTransform="matrix(1 0 0 -1 173.5 -436.5)" y1="-462.14" x1="-163.77"><stop stop-color="#fff" stop-opacity="0" offset="0"/><stop stop-color="#fff" offset="1"/></linearGradient><path opacity=".6" d="M9.733 101.85h142.7V-50.57h-51.77L9.736 101.85z" enable-background="new" fill="url(#a)"/><path d="M213.69 164.56c0 3.346-2.13 6.21-4.736 6.21h-192.5c-2.607 0-4.742-2.86-4.742-6.21V39.89c0-3.583 2.135-6.208 4.742-6.208h192.74c2.613 0 4.744 2.865 4.744 6.208v124.68h-.24z"/><g><path d="M-22.673 172.68s-1.66 3.106 10.194 5.73h250.11s8.3-.477 10.67-4.534v-2.15l-270.97.95z" fill="#5F6767"/><linearGradient id="b" y2="1061.6" gradientUnits="userSpaceOnUse" x2="320.82" gradientTransform="translate(-72.5 -891.5)" y1="1061.6" x1="49.827"><stop stop-color="#999C9D" offset="0"/><stop stop-color="#A5A7A9" offset=".001"/><stop stop-color="#C2C3C5" offset=".004"/><stop stop-color="#D9D8DA" offset=".007"/><stop stop-color="#E9E7EA" offset=".01"/><stop stop-color="#F2F0F3" offset=".013"/><stop stop-color="#F5F3F6" offset=".018"/><stop stop-color="#DFE1E3" offset=".049"/><stop stop-color="#D1D1D1" offset=".189"/><stop stop-color="#E3E5E7" offset=".506"/><stop stop-color="#D1D1D1" offset=".872"/><stop stop-color="#DFE1E3" offset=".951"/><stop stop-color="#F5F3F6" offset=".988"/><stop stop-color="#999C9D" offset="1"/></linearGradient><path d="M-22.673 166.23h270.97v6.93s.475.955-2.84.718h-265.53s-2.606.715-2.606-.958v-6.69z" fill="url(#b)"/><path d="M235.74 170.53c0 .237-.236.478-.473.478h-9.248c-.24 0-.472-.243-.472-.478 0-.24.236-.478.47-.478h9.245c.236 0 .475 0 .475.478zM94.443 166.47s-.947 3.583 2.373 3.823h31.525s3.315.475 2.847-3.823H94.44z" fill="#5F6767"/></g><path d="M19.764 41.32h186.58v115.84H19.764V41.32z" fill="#CCC8C8"/><path d="M124.79 89.088l-24.184-7.64c-1.186-1.196-1.896-3.585-1.896-6.213s1.186-5.017 2.37-6.212l11.855-7.163 11.855 7.163v20.065zM89.463 75.713v27.945l6.4 4.062V84.55c-1.186-1.192-1.896-3.583-1.896-6.45 0-2.624.95-5.012 2.13-6.444l-6.634 4.057zm11.857 14.33v20.302l11.855 7.163 11.85-7.163c2.137-1.195 2.137-3.583 2.137-6.208s-.473-5.254-1.66-6.45l-24.19-7.637zm29.15-18.628v23.167c1.186 1.195 2.14 3.583 2.14 6.45s-.716 5.015-1.9 6.45l7.35-4.064V75.474l-7.59-4.06z" fill="#FF302C"/><path d="M71.207 128.74v4.06h-.945v-9.076h.945v4.062h2.37v-4.062h.946v9.077h-.945v-4.06h-2.37zm8.295-2.87l-.943.236v-.236c0-.952-.24-1.196-1.187-1.196-.71 0-1.182.478-1.182 1.196 0 2.146 3.077 2.388 3.077 4.775 0 1.436-.71 2.39-2.13 2.39-1.425 0-2.136-.954-2.136-2.39v-.478h.946v.478c0 .955.244 1.195 1.19 1.195.71 0 1.18-.478 1.18-1.195 0-2.145-3.08-2.388-3.08-4.775 0-1.434.71-2.392 2.136-2.392 1.425.25 2.13.97 2.13 2.4zm2.85 1.91h2.37v.955h-2.37v-.96zm7.582-4.06c1.424 0 2.14.955 2.14 2.388v4.54c0 1.435-.716 2.39-2.14 2.39h-2.13v-9.08h2.13v-.24zm0 8.12c.715 0 1.19-.478 1.19-1.195v-4.775c0-.952-.237-1.196-1.19-1.196h-1.182v7.404h1.182v-.22zm6.164-4.06v.955h-2.37v3.343h2.608v.958h-3.793v-9.08h3.793v.955H93.73v3.106h2.368v-.24zm2.134-4.06l1.424 7.882 1.422-7.882h.945l-1.652 9.077h-1.427l-1.66-9.077h.95zm8.058 4.06v.955h-2.367v3.343h2.607v.958h-3.795v-9.08h3.795v.955h-2.607v3.106h2.367v-.24zm1.19 5.02v-9.077h.95v8.122h2.84v.955h-3.79zm4.5-6.93c0-1.434.715-2.392 2.13-2.392 1.425 0 2.136.958 2.136 2.392v4.775c0 1.436-.715 2.39-2.135 2.39-1.415 0-2.13-.954-2.13-2.39v-4.77zm.95 4.78c0 .955.24 1.195 1.182 1.195.95 0 1.19-.478 1.19-1.195v-4.775c0-.952-.24-1.196-1.19-1.196-.94 0-1.182.477-1.182 1.195v4.79zm6.17-6.93c1.426 0 2.133.955 2.133 2.388v1.196c0 1.433-.71 2.147-2.133 2.147h-.95v3.584h-.946v-9.077h1.896v-.24zm-.24 4.54c.707 0 1.186-.24 1.186-1.196v-1.19c0-.953-.244-1.197-1.186-1.197h-.953v3.584h.95zm7.11-3.58c-.71 0-1.186.478-1.186 1.196v.477c0 .715.475 1.193 1.186 1.193h.945v-.952h.95v.952h.474v.955h-.476v3.106c0 .478 0 .718.234 1.195h-.943c0-.242 0-.477-.24-.717-.232.478-.707.958-1.42.958-1.186 0-1.66-.717-1.66-2.146v-.96c0-.953.238-1.67 1.184-1.912-.71-.24-1.185-.955-1.185-1.91v-.236c0-1.434.71-2.392 2.135-2.392h1.42v.958h-1.42v.24zm0 3.82c-.71 0-1.186.478-1.186 1.433v.958c0 .716.234 1.193 1.186 1.193.475 0 .945-.24.945-1.192v-2.39h-.95zm7.35-4.78c1.43 0 2.137.955 2.137 2.388v4.54c0 1.435-.71 2.39-2.137 2.39h-2.13v-9.08h2.13v-.24zm0 8.12c.715 0 1.19-.478 1.19-1.195v-4.775c0-.952-.24-1.196-1.19-1.196h-1.184v7.404h1.184v-.22zm6.17-4.06v.955h-2.37v3.343h2.606v.958h-3.557v-9.08h3.794v.955h-2.61v3.106h2.136v-.24zm5.45-1.91l-.955.236v-.236c0-.952-.234-1.196-1.184-1.196-.944 0-1.18.478-1.18 1.196 0 2.146 3.075 2.388 3.075 4.775 0 1.436-.71 2.39-2.125 2.39-1.426 0-2.137-.954-2.137-2.39v-.478h1.186v.478c0 .955.235 1.195 1.185 1.195s1.186-.478 1.186-1.195c0-2.145-3.08-2.388-3.08-4.775 0-1.434.71-2.392 2.132-2.392 1.17.25 1.88.97 1.88 2.4zm1.89-2.15v9.077h-.95v-9.077h.95zm4.98 2.15v.718h-.947v-.96c0-.954-.24-1.19-1.188-1.19s-1.182.474-1.182 1.19v4.78c0 .952.234 1.192 1.182 1.192s1.188-.478 1.188-1.192v-1.673h-.95v-.955h1.897v2.628c0 1.433-.715 2.388-2.127 2.388-1.43 0-2.14-.955-2.14-2.388v-4.78c0-1.435.716-2.387 2.14-2.387 1.42.48 2.13 1.2 2.13 2.63zm1.9 6.93h-.95v-9.077h1.185l2.137 6.69v-6.69h.95v9.077h-1.19l-2.37-7.407v7.407h.24z" fill="#FF302C"/><linearGradient id="c" y2="-535.38" gradientUnits="userSpaceOnUse" x2="32.606" gradientTransform="matrix(1 0 0 -1 173.5 -436.5)" y1="-535.38" x1="-98.262"><stop stop-color="#fff" stop-opacity="0" offset="0"/><stop stop-color="#fff" offset="1"/></linearGradient><path opacity=".6" d="M75.238 156.2h130.87V41.56h-51.213L75.233 156.2z" enable-background="new" fill="url(#c)"/></g></svg><svg width="300" height="300" viewBox="-140 -140 400 400" enable-background="new -140 -140 400 400" y="300"><path fill="#ddd" d="M-100.446-26.36L45.84-111.3l146.29 84.94V143.21L45.84 227.836l-146.286-84.628z"/><path fill="#fff" d="M90.198 56.38c-.627-1.26-19.19-28.63-42.783-28.63-23.595 0-41.84 27.37-42.786 28.628l-1.26 1.888 1.26 1.886c.63 1.26 19.19 28.63 42.785 28.63 23.594 0 41.84-27.37 42.784-28.63l1.26-1.886-1.262-1.887z"/><circle fill="#ddd" cx="47.415" cy="58.267" r="22.021"/><circle fill="#fff" cx="47.415" cy="58.267" r="9.438"/><circle fill="#ddd" cx="50.561" cy="55.121" r="2.516"/><path fill="#4889F8" d="M89.885 81.23c2.517 2.517 2.203 7.866-.942 11.012l-6.922 6.922c-3.145 3.146-8.808 4.09-11.323 1.26l-9.438-9.438c-2.52-2.52.312-6.29 3.458-9.438l6.605-6.61c3.146-3.147 6.292-5.974 9.125-3.147l9.437 9.44z"/><path fill="#666" d="M94.85 86.125l-19.134 19.133-9.566-9.566L85.283 76.56z"/><path fill="#BD3D33" d="M202.51 193.626l-19.13 19.13-107.65-107.65 19.13-19.13z"/><path fill="#DE483C" d="M192.807 203.524l-9.56 9.56L75.598 105.44l9.56-9.56z"/><path fill="#C8A856" d="M220.443 231.295l-18.246-9.438-18.246-9.438 8.81-8.81 8.807-8.807 9.438 18.246z"/><path fill="#666" d="M219.813 230.665l-10.38-5.35 2.515-2.515 2.516-2.516z"/><path fill="#EAB229" d="M160.247 111.523l13.345 13.345-17.346 17.347L142.9 128.87z"/><path fill="#FFD97D" d="M160.15 111.585l5.78 5.78-17.347 17.35-5.78-5.783z"/><path fill="#37353A" d="M197.478 115.837c-11.64 10.697-25.483 14.474-32.72 5.035-6.604-8.184-5.66-21.078 5.036-32.72 19.192-20.762 50.652-22.964 50.652-22.964s-4.72 33.662-22.965 50.648h-.002z"/><path fill="#4B4555" d="M69.123 228.778c-3.146 3.146-7.552 3.46-10.698.313l-1.886-1.885c-3.147-3.146-3.467-7.865-.32-11.012l92.492-100.357c1.887-1.887 22.648 18.876 20.763 20.766L69.123 228.778z"/><path fill="#665E73" d="M149.345 115.523l-81.168 114.2.946-.944 100.354-92.493c2.204-1.888-16.986-21.08-20.132-20.764z"/></svg><svg xmlns:xlink="http://www.w3.org/1999/xlink" height="300" viewBox="-140 -140 400 400" width="300" y="600" enable-background="new -140 -140 400 400"><g><path d="M141.45 207.9c0 12.354-8.383 22.238-20.177 22.238h-196.76c-12.1 0-22.033-9.885-22.033-22.238v-310.77c0-12.357 9.934-22.243 22.033-22.243h196.76c12.11 0 20.177 9.885 20.177 22.243V207.9z" fill="#565656"/><path opacity=".1" d="M121.28-125.12H84.97L-78.9 229.82h.62c10.55 0 138.42-.613 203.9-.314 9.312-2.16 15.517-11.113 15.517-21.617v-310.77c.31-12.35-7.75-22.24-19.86-22.24z" enable-background="new" fill="#fff"/><path d="M29.726 213.15c0 3.4-2.794 6.18-6.207 6.18h-3.104c-3.413 0-6.207-2.78-6.207-6.18v-3.092c0-3.398 2.793-6.174 6.206-6.174h3.103c3.412 0 6.206 2.775 6.206 6.174v3.09z" stroke="#444344" stroke-miterlimit="10" stroke-width=".5" fill="none"/><path d="M129.04-88.048v274.31c0 2.475 0 7.105-3.103 7.105h-202.36c-3.103 0-8.69-4.63-8.69-7.105v-274.31c0-2.472 5.587-3.09 8.69-3.09h202.35c3.11 0 3.11.62 3.11 3.092z" fill="#D3D3D3"/><path d="M40.587 10.19L.24-2.48c-1.86-1.854-3.1-5.87-3.1-10.502 0-4.327 2.173-8.34 4.033-10.503l19.865-11.74L40.59-23.176V10.19h-.003zM-18.38-12.056v45.717l10.866 6.49V2.462c-1.863-2.16-3.103-6.18-3.103-10.502 0-4.633 1.55-8.34 3.41-10.504l-11.172 6.49zM1.173 11.732v33.363L21.038 56.83l19.86-11.734c3.723-2.163 3.723-5.87 3.723-10.505 0-4.633-.93-8.338-3.102-10.195L1.172 11.732zm48.724-30.586v37.997c1.863 2.162 3.726 6.18 3.726 10.505 0 4.632-1.246 8.34-3.103 10.504l12.1-6.49v-45.717l-12.724-6.8z" fill="#FF302C"/><path d="M-48.794 75.367v6.8h-1.55v-15.14h1.55v6.486h3.724v-6.787h1.553V81.86h-1.553V75.06l-3.724.305zm13.652-4.633v.31h-1.55v-.614c0-1.545-.618-2.164-1.863-2.164-1.243 0-1.86.615-1.86 2.164 0 3.402 4.964 3.703 4.964 8.037 0 2.47-.932 3.7-3.417 3.7s-3.416-1.542-3.416-3.7v-.932h1.55v.918c0 1.545.62 2.166 1.865 2.166 1.24 0 1.86-.618 1.86-2.167 0-3.398-4.963-3.697-4.963-8.03 0-2.47.93-3.706 3.413-3.706 2.487.31 3.415 1.855 3.415 4.017zm4.97 3.088h4.033v1.54h-4.033v-1.54zm12.41-6.795c2.485 0 3.417 1.545 3.417 3.707v7.414c0 2.477-.93 3.703-3.416 3.703h-3.725V66.724h3.724v.304zm0 13.598c1.242 0 1.864-.613 1.864-2.158V70.74c0-1.545-.622-2.16-1.863-2.16h-1.864v12.045h1.863zm10.554-6.803v1.54h-3.72v5.257h4.655v1.544h-6.206v-15.14h6.207v1.542h-4.656v4.94h3.722v.316zm3.725-6.795l2.48 12.97 2.485-12.97h1.55l-2.79 15.14h-2.485l-2.793-15.14h1.553zM9.55 73.822v1.54H5.828v5.257h4.346v1.544h-6.21v-15.14h6.21v1.542H5.826v4.94H9.55v.316zm2.485 8.344v-15.14h1.553v13.6h4.347v1.54h-5.9zm7.133-11.432c0-2.477.935-3.707 3.42-3.707s3.415 1.545 3.415 3.707v7.72c0 2.48-.932 3.706-3.416 3.706s-3.42-1.54-3.42-3.707v-7.72zm1.554 8.028c0 1.545.623 2.166 1.866 2.166 1.238 0 1.863-.617 1.863-2.166v-8.027c0-1.545-.62-2.162-1.862-2.162-1.243 0-1.866.926-1.866 2.162v8.027zM30.97 67.027c2.48 0 3.412 1.545 3.412 3.707v1.854c0 2.47-.93 3.703-3.726 3.703h-1.553v5.874h-1.55v-15.14h3.416v.003zm-.314 7.727c1.245 0 1.866-.62 1.866-1.86V71.04c0-1.542-.62-2.16-1.866-2.16h-1.553v6.175h1.553v-.3zm12.104-6.182c-1.245 0-1.866.615-1.866 2.162v.62c0 1.233.622 1.855 1.866 1.855h1.553v-1.546h1.55v1.545h.622v1.544h-.622v5.252c0 .613 0 1.23.308 1.846H44.62c-.31-.3-.31-.613-.31-1.232-.315.932-1.243 1.54-2.483 1.54-1.866 0-2.794-1.23-2.794-3.397v-1.545c0-1.545.623-2.777 1.864-3.086-1.238-.31-1.863-1.543-1.863-3.09v-.31c0-2.474.932-3.706 3.727-3.706h2.484v1.54l-2.48.006zm0 6.487c-1.245 0-1.866.93-1.866 2.476v1.232c0 1.234.622 2.166 1.866 2.166.93 0 1.553-.62 1.553-1.86V75.06H42.76zm12.102-8.033c2.486 0 3.424 1.545 3.424 3.707v7.414c0 2.477-.932 3.703-3.424 3.703h-3.72V66.724h3.72v.304zm0 13.598c1.243 0 1.863-.623 1.863-2.172v-7.72c0-1.544-.62-2.16-1.866-2.16h-1.857v12.046h1.86v.005zm10.245-6.803v1.54H61.38v5.257h4.655v1.544H59.83v-15.14h6.205v1.542H61.69v4.94h3.417v.316zm9-3.088v.31H72.56v-.614c0-1.545-.623-2.164-1.863-2.164-1.246 0-1.866.615-1.866 2.164 0 3.402 4.973 3.703 4.973 8.037 0 2.47-.93 3.7-3.42 3.7-2.486 0-3.418-1.542-3.418-3.7v-.932h1.863v.918c0 1.545.617 2.166 1.866 2.166 1.236 0 1.862-.618 1.862-2.167 0-3.398-4.965-3.697-4.965-8.03 0-2.47.93-3.706 3.412-3.706 1.865.31 3.105 1.855 3.105 4.017zm3.103-3.707v15.14h-1.552v-15.14h1.552zm8.38 3.707v1.234h-1.552v-1.545c0-1.543-.623-2.158-1.862-2.158-1.243 0-1.863.922-1.863 2.158v8.027c0 1.545.62 2.162 1.87 2.162 1.232 0 1.862-.926 1.862-2.162v-2.773h-1.552v-1.545h3.104v4.635c0 2.475-.93 3.707-3.415 3.707-2.49 0-3.42-1.54-3.42-3.707v-7.72c0-2.476.928-3.708 3.42-3.708 2.476-.313 3.408 1.232 3.408 3.394zm3.105 11.432H87.14v-15.14h2.172L92.73 77.84v-10.81h1.548v15.138h-1.856L88.7 70.116v12.05h-.005z" fill="#FF302C"/><path d="M24.874-111.59c1.07 0 1.875.802 1.875 1.87s-.807 1.868-1.876 1.868-1.875-.802-1.875-1.87c-.002-1.07.804-1.87 1.874-1.87z" fill="#3F3F3F"/><path opacity=".2" d="M125.94-91.14H69.45L-61.83 193.37h188.08c3.103 0 3.103-4.63 3.103-7.104v-274.31c-.31-2.47-.31-3.09-3.41-3.09z" enable-background="new" fill="#fff"/><path d="M217.52 216.56c0 14.676 1.07 28.555-26.218 28.555h-97.94c-27.29 0-25.685-13.88-25.685-28.555V-26.53c0-14.678-1.876-27.22 25.684-27.22h97.94c27.287 0 26.217 12.542 26.217 27.22v243.09z" fill="#545454"/><path opacity=".1" d="M217.52 216.56V-26.53c0-14.678 1.07-27.22-26.218-27.22h-28.365L67.673 215.23v1.335c0 14.676-1.605 28.555 25.687 28.555h97.936c27.29 0 26.22-13.88 26.22-28.56z" enable-background="new" fill="#fff"/><g><circle cy="-28.395" cx="109.96" r="3.203" fill="#3F3F3F"/><circle cy="-28.395" cx="109.96" r="1.866" fill="#6D6D6D"/><circle cy="-28.395" cx="109.96" r=".535" fill="#5B5B5B"/></g><path d="M142.6-43.34c1.07 0 1.876.802 1.876 1.87s-.806 1.868-1.876 1.868c-1.07 0-1.875-.802-1.875-1.87 0-1.07.81-1.868 1.88-1.868z" fill="#3F3F3F"/><path d="M159.99-28.127c0 .535-.534 1.066-1.07 1.066h-32.64c-.538 0-1.073-.536-1.073-1.067v-.535c0-.535.535-1.067 1.073-1.067h32.64c.536 0 1.07.536 1.07 1.068v.535z" fill="#ddd"/><path d="M208.42 212.56c0 1.334-1.064 1.87-2.137 1.87H78.913c-1.337 0-2.14-1.067-2.14-1.87V-7.58c0-1.334 1.073-1.866 2.14-1.866h127.37c1.337 0 2.137 1.067 2.137 1.866v220.14z" fill="#D3D3D3"/><path d="M142.6 220.57c5.025 0 9.098 4.063 9.098 9.074 0 5.01-4.075 9.068-9.098 9.068-5.025 0-9.1-4.06-9.1-9.068 0-5 4.07-9.07 9.1-9.07z" stroke="#444" stroke-miterlimit="10" stroke-width=".5" fill="none"/><path d="M155.98 70.336l-28.63-9.072c-1.336-1.333-2.142-4.27-2.142-7.472 0-3.2 1.604-5.867 2.945-7.47l14.18-8.27 13.91 8.27V70.34h-.264v-.002zM113.7 54.59v32.822l7.76 4.805v-27.22c-1.337-1.6-2.41-4.27-2.41-7.467 0-3.204 1.073-6.14 2.41-7.472l-7.76 4.532zm14.18 17.08v23.744l14.18 8.273 14.182-8.273c2.675-1.598 2.675-4.266 2.675-7.467 0-3.203-.53-6.14-2.144-7.473l-28.9-8.807zm34.52-21.883v27.22c1.337 1.6 2.678 4.267 2.678 7.466 0 3.203-.813 6.14-2.41 7.475l8.826-4.805V54.59l-9.1-4.803z" fill="#FF302C"/><path d="M92.292 117.03v4.8h-1.07v-10.675h1.07v4.805h2.672v-4.805h1.07v10.676h-1.07v-4.8h-2.672zm9.628-3.47l-1.07.264v-.264c0-1.07-.27-1.602-1.34-1.602s-1.335.53-1.335 1.602c0 2.398 3.475 2.668 3.475 5.602 0 1.598-.8 2.668-2.404 2.668-1.605 0-2.41-1.07-2.41-2.668v-.535h1.07v.535c0 1.07.27 1.598 1.34 1.598s1.334-.527 1.334-1.598c0-2.404-3.48-2.668-3.48-5.602 0-1.602.806-2.668 2.41-2.668 1.61.01 2.41 1.07 2.41 2.67zm3.48 2.4h2.945v1.07H105.4v-1.07zm9.1-5.06c1.604 0 2.41 1.066 2.41 2.668v5.338c0 1.598-.806 2.668-2.41 2.668h-2.678v-10.678h2.678zm0 9.87c.803 0 1.337-.535 1.337-1.605v-5.598c0-1.07-.267-1.61-1.337-1.61h-1.34v8.536h1.34v.28zm7.23-4.81v1.07h-2.678v3.73h3.213v1.07h-4.55v-10.676h4.55v1.068h-3.213v3.465h2.678v.28zm2.67-5.06l1.876 9.34 1.872-9.34h1.066l-2.14 10.674h-1.872l-2.14-10.674h1.33zm9.36 5.06v1.07h-2.67v3.73h3.212v1.07h-4.55v-10.676h4.55v1.068h-3.213v3.465h2.67v.28zm1.61 5.87v-10.67h1.076v9.604h2.938v1.07h-4.02zm5.08-8.27c0-1.602.806-2.668 2.41-2.668s2.404 1.066 2.404 2.668v5.602c0 1.598-.8 2.668-2.404 2.668s-2.41-1.07-2.41-2.668v-5.6zm1.34 5.61c0 1.07.27 1.605 1.34 1.605.8 0 1.342-.535 1.342-1.605v-5.598c0-1.07-.27-1.602-1.34-1.602-.8 0-1.342.53-1.342 1.602v5.59zm7.23-8.27c1.6 0 2.397 1.066 2.397 2.668v1.334c0 1.6-.802 2.668-2.674 2.668h-.8v4.268h-1.07v-10.676h2.147v-.26zm-.27 5.6c.8 0 1.334-.266 1.334-1.334v-1.336c0-1.066-.264-1.598-1.334-1.598h-1.07v4.268h1.07zm8.56-4.27c-.802 0-1.337.53-1.337 1.598v.535c0 .8.535 1.334 1.337 1.334h1.073v-1.334h1.067v1.064h.534v1.07h-.534v3.738c0 .527 0 .8.273 1.334h-1.076c0-.272 0-.536-.265-.808-.27.535-.81 1.07-1.61 1.07-1.338 0-1.873-.8-1.873-2.404v-1.063c0-1.064.273-1.87 1.34-2.398-.806-.264-1.34-1.064-1.34-2.137v-.268c0-1.602.808-2.668 2.674-2.668h1.876v1.066h-2.14v.28h-.01zm0 4.53c-.802 0-1.337.535-1.337 1.605v1.063c0 .807.268 1.605 1.337 1.605.535 0 1.073-.27 1.073-1.334v-2.94h-1.07zm8.57-5.86c1.605 0 2.407 1.066 2.407 2.668v5.338c0 1.598-.806 2.668-2.407 2.668h-2.68v-10.678h2.675zm0 9.87c.803 0 1.34-.535 1.34-1.605v-5.598c0-1.07-.272-1.61-1.34-1.61h-1.337v8.536h1.337v.28zm7.49-4.81v1.07h-2.675v3.73h3.21v1.07h-4.28v-10.676h4.545v1.068h-3.21v3.465h2.41v.28zm6.15-2.4l-1.07.264v-.264c0-1.07-.27-1.602-1.334-1.602-1.076 0-1.34.53-1.34 1.602 0 2.398 3.48 2.668 3.48 5.602 0 1.598-.807 2.668-2.41 2.668s-2.405-1.07-2.405-2.668v-.535h1.342v.535c0 1.07.265 1.598 1.334 1.598 1.063 0 1.34-.527 1.34-1.598 0-2.404-3.485-2.668-3.485-5.602 0-1.602.813-2.668 2.41-2.668 1.34.01 2.14 1.07 2.14 2.67zm2.41-2.66v10.674h-1.07V110.9h1.07zm5.89 2.66v.8h-1.07v-1.067c0-1.066-.264-1.602-1.34-1.602-.8 0-1.335.536-1.335 1.603v5.605c0 1.063.265 1.598 1.335 1.598.806 0 1.34-.535 1.34-1.598v-1.87h-1.07v-1.07h2.41v3.204c0 1.598-.805 2.668-2.41 2.668-1.604 0-2.403-1.07-2.403-2.668v-5.602c0-1.602.8-2.668 2.404-2.668 1.59.01 2.13 1.07 2.13 2.67zm2.4 8.27h-1.066v-10.67h1.602l2.41 7.742v-7.742h1.066v10.674h-1.337l-2.675-8.8v8.8z" fill="#FF302C"/><path opacity=".2" d="M206.28-9.452h-58.872l-70.64 198.79v23.217c0 1.07.803 1.87 2.14 1.87h127.37c1.07 0 2.14-.8 2.14-1.87V-7.585c0-.8-.8-1.872-2.14-1.872z" enable-background="new" fill="#fff"/></g></svg></svg>