<svg xmlns="http://www.w3.org/2000/svg" width="120" height="600" viewBox="0 0 120 600"><svg xmlns:xlink="http://www.w3.org/1999/xlink" height="120" viewBox="0 0 120 120" width="120"><path d="M74.6 101.2C72.1 98.6 72 93 72 93H48.6s-.1 5.6-2.6 8.2-6.5 4.8.4 4.8h27.9c6.8 0 2.8-2.3.3-4.8z" fill="#B2B2B2"/><path opacity=".5" d="M72.5 97c-.5-2-.5-4-.5-4H48.6s0 2-.5 4h24.4z" enable-background="new" fill="#7C7C7C"/><path d="M2 88c0 1.9 2.3 5 4.2 5h107.6c1.9 0 3.2-3.1 3.2-5v-6H2v6z" fill="#B2B2B2"/><path d="M113.8 15H6.2C4.3 15 2 14.6 2 16.5V82h115V16.5c0-1.9-1.3-1.5-3.2-1.5z" fill="#231F20"/><path d="M8 18h103v59H8V18z" fill="#D3D3D3"/><path d="M66 43.2l-13-4.1c-.6-.6-1-1.9-1-3.4 0-1.4.7-2.7 1.3-3.4l6.4-3.8 6.3 3.8v10.9zM47 36v14.8l3.5 2.1V40.7c-.6-.7-1-2-1-3.4 0-1.5.5-2.7 1.1-3.4L47 36zm6.3 7.8v10.8l6.4 3.8 6.4-3.8c1.198-.7 1.198-1.9 1.198-3.4S67 48.5 66.4 47.8l-13.1-4zm15.7-10v12.3c.6.7 1.2 2 1.2 3.4 0 1.5-.4 2.7-1 3.4l3.9-2.1V36L69 33.8z" fill="#FF302C"/><path d="M37.2 64.3v2.2h-.5v-4.9h.5v2.1h1.2v-2.2h.5v4.9h-.5v-2.2l-1.2.1zm4.4-1.5v.1h-.5v-.2c0-.5-.2-.7-.6-.7s-.6.2-.6.7c0 1.1 1.6 1.2 1.6 2.6 0 .8-.3 1.2-1.1 1.2s-1.1-.5-1.1-1.2V65h.5v.3c0 .5.2.7.6.7s.6-.2.6-.7c0-1.1-1.6-1.2-1.6-2.6 0-.8.3-1.2 1.1-1.2.8.1 1.1.6 1.1 1.3zm1.6 1h1.3v.5h-1.3v-.5zm4-2.2c.8 0 1.1.5 1.1 1.2v2.4c0 .8-.3 1.2-1.1 1.2H46v-4.9h1.2v.1zm0 4.4c.4 0 .6-.2.6-.7v-2.5c0-.5-.2-.7-.6-.7h-.6V66h.6zm3.4-2.2v.5h-1.2V66h1.5v.5h-2v-4.9h2v.5h-1.5v1.6h1.2v.1zm1.2-2.2l.8 4.2.8-4.2h.5l-.9 4.9h-.8l-.9-4.9h.5zm4.2 2.2v.5h-1.2V66h1.4v.5h-2v-4.9h2v.5h-1.4v1.6H56v.1zm.8 2.7v-4.9h.5V66h1.4v.5h-1.9zm2.3-3.7c0-.8.3-1.2 1.1-1.2s1.1.5 1.1 1.2v2.5c0 .8-.3 1.2-1.1 1.2s-1.1-.5-1.1-1.2v-2.5zm.5 2.6c0 .5.2.7.6.7.4 0 .6-.2.6-.7v-2.6c0-.5-.2-.7-.6-.7s-.6.3-.6.7v2.6zm3.3-3.8c.8 0 1.1.5 1.1 1.2v.6c0 .8-.3 1.2-1.2 1.2h-.5v1.898h-.5V61.6h1.1zm-.1 2.5c.4 0 .6-.2.6-.6v-.6c0-.5-.198-.7-.6-.7h-.5v2h.5v-.1zm3.9-2c-.4 0-.6.2-.6.7v.2c0 .4.198.6.6.6h.5v-.5h.5v.5h.2v.5h-.2v1.7c0 .2 0 .4.1.6h-.5c-.1-.1-.1-.198-.1-.398-.1.3-.4.5-.8.5-.602 0-.9-.4-.9-1.1V65c0-.5.2-.9.6-1-.398-.1-.6-.5-.6-1v-.1c0-.8.3-1.2 1.2-1.2h.8v.5h-.8v-.1zm0 2.1c-.4 0-.6.3-.6.8v.5c0 .4.198.7.6.7.3 0 .5-.2.5-.6v-1.302l-.5-.098zm3.9-2.6c.8 0 1.102.5 1.102 1.2v2.4c0 .8-.3 1.2-1.102 1.2h-1.2v-4.9h1.2v.1zm0 4.4c.4 0 .602-.2.602-.7v-2.5c0-.5-.2-.7-.602-.7H70V66h.6zm3.3-2.2v.5h-1.2V66h1.4v.5h-2v-4.9h2v.5h-1.4v1.6h1.2v.1zm2.9-1v.1h-.5v-.2c0-.5-.2-.7-.6-.7s-.6.2-.6.7c0 1.1 1.6 1.2 1.6 2.6 0 .8-.3 1.2-1.1 1.2s-1.102-.5-1.102-1.2V65h.602v.3c0 .5.2.7.6.7.4 0 .6-.2.6-.7 0-1.1-1.6-1.2-1.6-2.6 0-.8.3-1.2 1.1-1.2.6.1 1 .6 1 1.3zm1-1.2v4.9h-.5v-4.9h.5zm2.7 1.2v.4H80v-.5c0-.5-.2-.7-.6-.7s-.6.3-.6.7v2.6c0 .5.2.7.6.7.4 0 .602-.3.602-.7v-.9h-.5v-.5h1v1.5c0 .8-.3 1.2-1.1 1.2s-1.102-.5-1.102-1.2v-2.5c0-.8.3-1.2 1.1-1.2.8-.1 1.1.4 1.1 1.1zm1 3.7H81v-4.9h.7l1.1 3.5v-3.5h.5v4.9h-.6l-1.2-3.9v3.9z" fill="#FF302C"/><linearGradient id="a" y2="47.5" gradientUnits="userSpaceOnUse" x2="111" y1="47.5" x1="55.6"><stop stop-color="#fff" stop-opacity="0" offset="0"/><stop stop-color="#fff" offset="1"/></linearGradient><path opacity=".6" d="M55.6 77H111V18H90.9L55.6 77z" enable-background="new" fill="url(#a)"/></svg><svg xmlns:xlink="http://www.w3.org/1999/xlink" height="120" viewBox="0 0 120 120" width="120" y="120"><path fill="#ddd" d="M13 33.1l46.5-27 46.5 27V87l-46.5 26.9L13 87z"/><g><path d="M73.6 59.4c-.2-.4-6.1-9.1-13.6-9.1S46.7 59 46.4 59.4l-.4.6.4.6c.2.4 6.1 9.1 13.6 9.1s13.3-8.7 13.6-9.1l.4-.6-.4-.6z" fill="#fff"/><circle cy="60" cx="60" r="7" fill="#ddd"/><circle cy="60" cx="60" r="3" fill="#fff"/><circle cy="59" cx="61" r=".8" fill="#ddd"/></g><g><path d="M73.5 67.3c.8.8.7 2.5-.3 3.5L71 73c-1 1-2.8 1.3-3.6.4l-3-3c-.8-.8.1-2 1.1-3l2.1-2.1c1-1 2-1.9 2.9-1l3 3z" fill="#4889F8"/><path fill="#666" d="M65.95 71.9l6.08-6.083 3.042 3.04-6.08 6.084z"/><path fill="#BD3D33" d="M68.985 74.9l6.08-6.083 34.23 34.22-6.08 6.08z"/><path fill="#DE483C" d="M68.946 74.985l3.04-3.04 34.223 34.223-3.04 3.04z"/><path fill="#C8A856" d="M115 115l-5.8-3-5.8-3 2.8-2.8 2.8-2.8 3 5.8z"/><path fill="#666" d="M114.8 114.8l-3.3-1.7.8-.8.8-.8z"/></g><g><path fill="#EAB229" d="M94.587 86.695l-4.242-4.243 5.515-5.514 4.242 4.244z"/><path fill="#FFD97D" d="M92.16 84.31l-1.84-1.837 5.517-5.516 1.837 1.838z"/><path d="M107.7 78.3c-3.7 3.4-8.1 4.6-10.4 1.6-2.1-2.6-1.8-6.7 1.6-10.4 6.1-6.6 16.1-7.3 16.1-7.3s-1.5 10.7-7.3 16.1z" fill="#37353A"/><path d="M66.9 114.2c-1 1-2.4 1.1-3.4.1l-.6-.6c-1-1-1.1-2.5-.1-3.5l29.4-31.9c.6-.6 7.2 6 6.6 6.6l-31.9 29.3z" fill="#4B4555"/><path d="M92.4 78.2l-25.8 36.3.3-.3 31.9-29.4c.7-.6-5.4-6.7-6.4-6.6z" fill="#665E73"/></g></svg><svg xmlns:xlink="http://www.w3.org/1999/xlink" height="120" viewBox="0 0 120 120" width="120" y="240"><path d="M102.2 79.5c0 1.4-.9 2.6-2 2.6H19c-1.1 0-2-1.2-2-2.6V27.3c0-1.5.9-2.6 2-2.6h81.3c1.1 0 2 1.2 2 2.6v52.2h-.1z"/><g><path d="M2.5 82.9s-.7 1.3 4.3 2.4h105.5s3.5-.2 4.5-1.9v-.9l-114.3.4z" fill="#5F6767"/><linearGradient id="b" y2="-296.83" gradientUnits="userSpaceOnUse" x2="362.81" gradientTransform="matrix(1 0 0 -1 -246 -215)" y1="-296.83" x1="248.5"><stop stop-color="#999C9D" offset="0"/><stop stop-color="#A5A7A9" offset=".001"/><stop stop-color="#C2C3C5" offset=".004"/><stop stop-color="#D9D8DA" offset=".007"/><stop stop-color="#E9E7EA" offset=".01"/><stop stop-color="#F2F0F3" offset=".013"/><stop stop-color="#F5F3F6" offset=".018"/><stop stop-color="#DFE1E3" offset=".049"/><stop stop-color="#D1D1D1" offset=".189"/><stop stop-color="#E3E5E7" offset=".506"/><stop stop-color="#D1D1D1" offset=".872"/><stop stop-color="#DFE1E3" offset=".951"/><stop stop-color="#F5F3F6" offset=".988"/><stop stop-color="#999C9D" offset="1"/></linearGradient><path d="M2.5 80.2h114.3v2.9s.2.4-1.2.3H3.6s-1.1.3-1.1-.4v-2.8z" fill="url(#b)"/><path d="M111.5 82c0 .1-.1.2-.2.2h-3.9c-.1 0-.2-.1-.2-.2s.1-.2.2-.2h3.9c.1 0 .2 0 .2.2zM51.9 80.3s-.4 1.5 1 1.6h13.3s1.4.2 1.2-1.6H51.9z" fill="#5F6767"/></g><path d="M20.4 27.9h78.7v48.5H20.4V27.9z" fill="#CCC8C8"/><path d="M64.7 47.9l-10.2-3.2c-.5-.5-.8-1.5-.8-2.6s.5-2.1 1-2.6l5-3 5 3v8.4zm-14.9-5.6V54l2.7 1.7V46c-.5-.5-.8-1.5-.8-2.7 0-1.1.4-2.1.9-2.7l-2.8 1.7zm5 6v8.5l5 3 5-3c.9-.5.9-1.5.9-2.6s-.2-2.2-.7-2.7l-10.2-3.2zm12.3-7.8v9.7c.5.5.9 1.5.9 2.7s-.3 2.1-.8 2.7l3.1-1.7V42.2l-3.2-1.7z" fill="#FF302C"/><path d="M42.1 64.5v1.7h-.4v-3.8h.4v1.7h1v-1.7h.4v3.8h-.4v-1.7h-1zm3.5-1.2l-.4.1v-.1c0-.4-.1-.5-.5-.5-.3 0-.5.2-.5.5 0 .9 1.3 1 1.3 2 0 .6-.3 1-.9 1s-.9-.4-.9-1v-.2h.4v.2c0 .4.1.5.5.5.3 0 .5-.2.5-.5 0-.9-1.3-1-1.3-2 0-.6.3-1 .9-1 .6.1.9.4.9 1zm1.2.8h1v.4h-1v-.4zm3.2-1.7c.6 0 .9.4.9 1v1.9c0 .6-.3 1-.9 1h-.9v-3.8h.9v-.1zm0 3.4c.3 0 .5-.2.5-.5v-2c0-.4-.1-.5-.5-.5h-.5v3.1h.5v-.1zm2.6-1.7v.4h-1v1.4h1.1v.4h-1.6v-3.8h1.6v.4h-1.1v1.3h1v-.1zm.9-1.7l.6 3.3.6-3.3h.4l-.7 3.8h-.6l-.7-3.8h.4zm3.4 1.7v.4h-1v1.4H57v.4h-1.6v-3.8H57v.4h-1.1v1.3h1v-.1zm.5 2.1v-3.8h.4v3.4H59v.4h-1.6zm1.9-2.9c0-.6.3-1 .9-1s.9.4.9 1v2c0 .6-.3 1-.9 1-.6 0-.9-.4-.9-1v-2zm.4 2c0 .4.1.5.5.5s.5-.2.5-.5v-2c0-.4-.1-.5-.5-.5s-.5.2-.5.5v2zm2.6-2.9c.6 0 .9.4.9 1v.5c0 .6-.3.9-.9.9h-.4v1.5h-.4v-3.8h.8v-.1zm-.1 1.9c.3 0 .5-.1.5-.5v-.5c0-.4-.1-.5-.5-.5h-.4v1.5h.4zm3-1.5c-.3 0-.5.2-.5.5v.2c0 .3.2.5.5.5h.4v-.4h.4v.4h.2v.4H66v1.3c0 .2 0 .3.1.5h-.4c0-.1 0-.2-.1-.3-.1.2-.3.4-.6.4-.5 0-.7-.3-.7-.9V65c0-.4.1-.7.5-.8-.3-.1-.5-.4-.5-.8v-.1c0-.6.3-1 .9-1h.6v.4h-.6v.1zm0 1.6c-.3 0-.5.2-.5.6v.4c0 .3.1.5.5.5.2 0 .4-.1.4-.5v-1h-.4zm3.1-2c.6 0 .9.4.9 1v1.9c0 .6-.3 1-.9 1h-.9v-3.8h.9v-.1zm0 3.4c.3 0 .5-.2.5-.5v-2c0-.4-.1-.5-.5-.5h-.5v3.1h.5v-.1zm2.6-1.7v.4h-1v1.4H71v.4h-1.5v-3.8h1.6v.4H70v1.3h.9v-.1zm2.3-.8l-.4.1v-.1c0-.4-.1-.5-.5-.5s-.5.2-.5.5c0 .9 1.3 1 1.3 2 0 .6-.3 1-.9 1-.6 0-.9-.4-.9-1v-.2h.5v.2c0 .4.102.5.5.5.4 0 .5-.2.5-.5 0-.9-1.3-1-1.3-2 0-.6.3-1 .9-1 .5.1.8.4.8 1zm.8-.9v3.8h-.4v-3.8h.4zm2.1.9v.3h-.4v-.4c0-.4-.1-.5-.5-.5s-.5.2-.5.5v2c0 .4.1.5.5.5s.5-.2.5-.5v-.7h-.4v-.4h.8v1.1c0 .6-.3 1-.9 1-.6 0-.9-.4-.9-1v-2c0-.6.3-1 .9-1 .6.2.9.5.9 1.1zm.8 2.9h-.4v-3.8h.5l.9 2.8v-2.8h.4v3.8h-.5l-1-3.1v3.1h.1z" fill="#FF302C"/><linearGradient id="c" y2="52" gradientUnits="userSpaceOnUse" x2="99" y1="52" x1="43.8"><stop stop-color="#fff" stop-opacity="0" offset="0"/><stop stop-color="#fff" offset="1"/></linearGradient><path opacity=".6" d="M43.8 76H99V28H77.4L43.8 76z" enable-background="new" fill="url(#c)"/></svg><svg xmlns:xlink="http://www.w3.org/1999/xlink" height="120" viewBox="0 0 120 120" width="120" y="360"><path d="M88 105.3c0 5.5.4 10.7-9.8 10.7H41.6c-10.2 0-9.6-5.2-9.6-10.7V14.2C32 8.7 31.3 4 41.6 4h36.6C88.4 4 88 8.7 88 14.2v91.1z" fill="#545454"/><linearGradient id="d" y2="60" gradientUnits="userSpaceOnUse" x2="88.002" y1="60" x1="31.993"><stop stop-color="#fff" stop-opacity="0" offset="0"/><stop stop-color="#fff" offset="1"/></linearGradient><path opacity=".1" d="M88 105.3V14.2C88 8.7 88.4 4 78.2 4H67.6L32 104.8v.5c0 5.5-.6 10.7 9.6 10.7h36.6c10.2 0 9.8-5.2 9.8-10.7z" enable-background="new" fill="url(#d)"/><g><circle cy="13.5" cx="47.8" r="1.2" fill="#3F3F3F"/><circle cy="13.5" cx="47.8" r=".7" fill="#6D6D6D"/><circle cy="13.5" cx="47.8" r=".2" fill="#5B5B5B"/></g><path d="M60 7.9c.4 0 .7.3.7.7s-.3.7-.7.7-.7-.3-.7-.7.3-.7.7-.7z" fill="#3F3F3F"/><path d="M66.5 13.6c0 .2-.2.4-.4.4H53.9c-.2 0-.4-.2-.4-.4v-.2c0-.2.2-.4.4-.4h12.2c.2 0 .4.2.4.4v.2z" fill="#ddd"/><path d="M84.6 103.8c0 .5-.4.7-.8.7H36.2c-.5 0-.8-.4-.8-.7V21.3c0-.5.4-.7.8-.7h47.6c.5 0 .8.4.8.7v82.5z" fill="#D3D3D3"/><path d="M60 106.8c1.878 0 3.4 1.522 3.4 3.4s-1.522 3.4-3.4 3.4-3.4-1.52-3.4-3.4 1.522-3.4 3.4-3.4z" stroke="#444" stroke-miterlimit="10" stroke-width=".5" fill="none"/><path d="M65 50.5l-10.7-3.4c-.5-.5-.8-1.6-.8-2.8s.6-2.2 1.1-2.8l5.3-3.1 5.2 3.1v9H65zm-15.8-5.9v12.3l2.9 1.8V48.5c-.5-.6-.9-1.6-.9-2.8s.4-2.3.9-2.8l-2.9 1.7zm5.3 6.4v8.9l5.3 3.1 5.3-3.1c1-.6 1-1.6 1-2.8s-.2-2.3-.8-2.8L54.5 51zm12.9-8.2V53c.5.6 1 1.6 1 2.8s-.3 2.3-.9 2.8l3.3-1.8V44.6l-3.4-1.8z" fill="#FF302C"/><path d="M41.2 68v1.8h-.4v-4h.4v1.8h1v-1.8h.4v4h-.4V68h-1zm3.6-1.3l-.4.1v-.1c0-.4-.1-.6-.5-.6s-.5.2-.5.6c0 .9 1.3 1 1.3 2.1 0 .6-.3 1-.9 1s-.9-.4-.9-1v-.2h.4v.2c0 .4.1.6.5.6s.5-.2.5-.6c0-.9-1.3-1-1.3-2.1 0-.6.3-1 .9-1s.9.4.9 1zm1.3.9h1.1v.4h-1.1v-.4zm3.4-1.9c.6 0 .9.4.9 1v2c0 .6-.3 1-.9 1h-1v-4h1zm0 3.7c.3 0 .5-.2.5-.6v-2.1c0-.4-.1-.602-.5-.602H49v3.2h.5v.102zm2.7-1.8v.4h-1v1.4h1.2v.4h-1.7v-4h1.7v.4h-1.2v1.3h1v.1zm1-1.9l.7 3.5.7-3.5h.4l-.8 4h-.7l-.8-4h.5zm3.5 1.9v.4h-1v1.4h1.2v.4h-1.7v-4h1.7v.4h-1.2v1.3h1v.1zm.6 2.2v-4h.4v3.6h1.1v.4h-1.5zm1.9-3.1c0-.6.3-1 .9-1s.9.4.9 1v2.1c0 .6-.3 1-.9 1s-.9-.4-.9-1v-2.1zm.5 2.1c0 .4.1.6.5.6.3 0 .5-.2.5-.6v-2.1c0-.4-.1-.6-.5-.6-.3 0-.5.2-.5.6v2.1zm2.7-3.1c.6 0 .9.4.9 1v.5c0 .6-.3 1-1 1H62v1.6h-.4v-4h.8v-.1zm-.1 2.1c.3 0 .5-.1.5-.5v-.5c0-.4-.1-.6-.5-.6h-.4v1.6h.4zm3.2-1.6c-.3 0-.5.2-.5.6v.2c0 .3.2.5.5.5h.4V67h.4v.4h.2v.4h-.2v1.4c0 .2 0 .3.1.5H66c0-.1 0-.2-.1-.3-.1.2-.3.4-.6.4-.5 0-.7-.3-.7-.9v-.4c0-.4.1-.7.5-.9-.3-.1-.5-.398-.5-.8v-.1c0-.6.3-1 1-1h.7v.4h-.8v.1zm0 1.7c-.3 0-.5.2-.5.6v.4c0 .3.1.6.5.6.2 0 .4-.1.4-.5v-1.1h-.4zm3.2-2.2c.6 0 .9.4.9 1v2c0 .6-.3 1-.9 1h-1v-4h1zm0 3.7c.3 0 .5-.2.5-.6v-2.1c0-.4-.1-.602-.5-.602h-.5v3.2h.5v.102zm2.8-1.8v.4h-1v1.4h1.2v.4h-1.6v-4h1.7v.4h-1.2v1.3h.9v.1zm2.3-.9l-.4.1v-.1c0-.4-.1-.6-.5-.6s-.5.2-.5.6c0 .9 1.3 1 1.3 2.1 0 .6-.3 1-.9 1s-.9-.4-.9-1v-.2h.5v.2c0 .4.1.6.5.6s.5-.2.5-.6c0-.9-1.3-1-1.3-2.1 0-.6.3-1 .9-1 .5 0 .8.4.8 1zm.9-1v4h-.4v-4h.4zm2.2 1v.3h-.4v-.4c0-.4-.1-.6-.5-.6-.3 0-.5.2-.5.6v2.1c0 .4.1.6.5.6.3 0 .5-.2.5-.6V68h-.4v-.4h.9v1.2c0 .6-.3 1-.9 1s-.9-.4-.9-1v-2.1c0-.6.3-1 .9-1 .6 0 .8.4.8 1zm.9 3.1h-.4v-4h.6l.9 2.9v-2.9h.4v4h-.5l-1-3.3v3.3z" fill="#FF302C"/><linearGradient id="e" y2="62.55" gradientUnits="userSpaceOnUse" x2="84.55" y1="62.55" x1="35.4"><stop stop-color="#fff" stop-opacity="0" offset="0"/><stop stop-color="#fff" offset="1"/></linearGradient><path opacity=".6" d="M83.8 20.6h-22L35.4 95.1v8.7c0 .4.3.7.8.7h47.6c.4 0 .8-.3.8-.7V21.3c0-.3-.3-.7-.8-.7z" enable-background="new" fill="url(#e)"/></svg><svg xmlns:xlink="http://www.w3.org/1999/xlink" height="120" viewBox="0 0 120 120" width="120" y="480"><path d="M98.5 110.8c0 4-2.7 7.2-6.5 7.2H28.6c-3.9 0-7.1-3.2-7.1-7.2V10.2c0-4 3.2-7.2 7.1-7.2H92c3.9 0 6.5 3.2 6.5 7.2v100.6z" fill="#565656"/><linearGradient id="f" y2="60.45" gradientUnits="userSpaceOnUse" x2="98.484" y1="60.45" x1="27.5"><stop stop-color="#fff" stop-opacity="0" offset="0"/><stop stop-color="#fff" offset="1"/></linearGradient><path opacity=".1" d="M92 3H80.3L27.5 117.9h.2c3.4 0 44.6-.2 65.7-.1 3-.7 5-3.6 5-7V10.2c.1-4-2.5-7.2-6.4-7.2z" enable-background="new" fill="url(#f)"/><path d="M62.5 112.5c0 1.1-.9 2-2 2h-1c-1.1 0-2-.9-2-2v-1c0-1.1.9-2 2-2h1c1.1 0 2 .9 2 2v1z" stroke="#444344" stroke-miterlimit="10" stroke-width=".5" fill="none"/><circle cy="8.5" stroke="#333" cx="60" stroke-miterlimit="10" stroke-width=".5" fill="#808080"/><path d="M94.5 15v88.8c0 .8 0 2.3-1 2.3H28.3c-1 0-2.8-1.5-2.8-2.3V15c0-.8 1.8-1 2.8-1h65.2c1 0 1 .2 1 1z" fill="#D3D3D3"/><path d="M66 46.8l-13-4.1c-.6-.6-1-1.9-1-3.4 0-1.4.7-2.7 1.3-3.4l6.4-3.8L66 36v10.8zm-19-7.2v14.8l3.5 2.1V44.3c-.6-.7-1-2-1-3.4 0-1.5.5-2.7 1.1-3.4L47 39.6zm6.3 7.7v10.8l6.4 3.8 6.4-3.8c1.2-.7 1.2-1.9 1.2-3.4s-.3-2.7-1-3.3l-13-4.1zM69 37.4v12.3c.6.7 1.2 2 1.2 3.4 0 1.5-.4 2.7-1 3.4l3.9-2.1V39.6L69 37.4z" fill="#FF302C"/><path d="M37.2 67.9v2.2h-.5v-4.9h.5v2.1h1.2v-2.2h.5V70h-.5v-2.2l-1.2.1zm4.4-1.5v.1h-.5v-.2c0-.5-.2-.7-.6-.7s-.6.2-.6.7c0 1.1 1.6 1.2 1.6 2.6 0 .8-.3 1.2-1.1 1.2s-1.1-.5-1.1-1.2v-.3h.5v.3c0 .5.2.7.6.7s.6-.2.6-.7c0-1.1-1.6-1.2-1.6-2.6 0-.8.3-1.2 1.1-1.2.8.1 1.1.6 1.1 1.3zm1.6 1h1.3v.5h-1.3v-.5zm4-2.2c.8 0 1.1.5 1.1 1.2v2.4c0 .8-.3 1.2-1.1 1.2H46v-4.9h1.2v.1zm0 4.4c.4 0 .6-.2.6-.7v-2.5c0-.5-.2-.7-.6-.7h-.6v3.9h.6zm3.4-2.2v.5h-1.2v1.7h1.5v.5h-2v-4.9h2v.5h-1.5v1.6h1.2v.1zm1.2-2.2l.8 4.2.8-4.2h.5l-.9 4.9h-.8l-.9-4.9h.5zm4.2 2.2v.5h-1.2v1.7h1.4v.5h-2v-4.9h2v.5h-1.4v1.6H56v.1zm.8 2.7v-4.9h.5v4.4h1.4v.5h-1.9zm2.3-3.7c0-.8.3-1.2 1.1-1.2s1.1.5 1.1 1.2v2.5c0 .8-.3 1.2-1.1 1.2s-1.1-.5-1.1-1.2v-2.5zm.5 2.6c0 .5.2.7.6.7.4 0 .6-.2.6-.7v-2.6c0-.5-.2-.7-.6-.7s-.6.3-.6.7V69zm3.3-3.8c.8 0 1.1.5 1.1 1.2v.6c0 .8-.3 1.2-1.2 1.2h-.5v1.9h-.5v-4.9h1.1zm-.1 2.5c.4 0 .6-.2.6-.6v-.6c0-.5-.2-.7-.6-.7h-.5v2h.5v-.1zm3.9-2c-.4 0-.6.2-.6.7v.2c0 .4.2.6.6.6h.5v-.5h.5v.5h.2v.5h-.2v1.7c0 .2 0 .4.1.6h-.5c-.1-.1-.1-.2-.1-.4-.1.302-.4.5-.8.5-.6 0-.9-.398-.9-1.1v-.5c0-.5.2-.9.6-1-.4-.1-.6-.5-.6-1v-.1c0-.8.3-1.2 1.2-1.2h.8v.5h-.8zm0 2.1c-.4 0-.6.3-.6.8v.4c0 .4.2.7.6.7.3 0 .5-.2.5-.6v-1.3h-.5zm3.9-2.6c.8 0 1.1.5 1.1 1.2v2.4c0 .8-.3 1.2-1.1 1.2h-1.2v-4.9h1.2v.1zm0 4.4c.4 0 .6-.2.6-.7v-2.5c0-.5-.2-.7-.6-.7H70v3.9h.6zm3.3-2.2v.5h-1.2v1.7h1.5v.5h-2v-4.9h2v.5h-1.4v1.6h1.1v.1zm2.9-1v.1h-.5v-.2c0-.5-.2-.7-.6-.7s-.6.2-.6.7c0 1.1 1.6 1.2 1.6 2.6 0 .8-.3 1.2-1.1 1.2s-1.1-.5-1.1-1.2v-.3h.6v.3c0 .5.2.7.6.7.4 0 .6-.2.6-.7 0-1.1-1.6-1.2-1.6-2.6 0-.8.3-1.2 1.1-1.2.6.1 1 .6 1 1.3zm1-1.2v4.9h-.5v-4.9h.5zm2.7 1.2v.4H80v-.5c0-.5-.2-.7-.6-.7s-.6.3-.6.7v2.6c0 .5.2.7.6.7.4 0 .6-.3.6-.7V68h-.5v-.5h1V69c0 .8-.3 1.2-1.1 1.2s-1.1-.5-1.1-1.2v-2.5c0-.8.3-1.2 1.1-1.2.8-.1 1.1.4 1.1 1.1zm1 3.7H81v-4.9h.7l1.1 3.5v-3.5h.5v4.9h-.6l-1.2-3.9v3.9z" fill="#FF302C"/><linearGradient id="g" y2="60.05" gradientUnits="userSpaceOnUse" x2="94.6" y1="60.05" x1="33"><stop stop-color="#fff" stop-opacity="0" offset="0"/><stop stop-color="#fff" offset="1"/></linearGradient><path opacity=".6" d="M93.5 14H75.3L33 106.1h60.6c1 0 1-1.5 1-2.3V15c-.1-.8-.1-1-1.1-1z" enable-background="new" fill="url(#g)"/></svg></svg>