<svg xmlns="http://www.w3.org/2000/svg" xmlns:xlink="http://www.w3.org/1999/xlink" width="64" height="64" viewBox="0 0 64 64"><path fill="#FFDB4B" d="M32 2.688c-10.726 0-21.362 9.72-21.362 20.513 0 9.59 8.74 15.416 9.777 21.242h23.17c1.038-5.826 9.777-11.652 9.777-21.24C53.362 12.407 42.726 2.687 32 2.687z"/><path fill-rule="evenodd" clip-rule="evenodd" fill="#8C8C8C" d="M40.68 45.533H23.32c-1.308 0-2.368 1.06-2.368 2.367s1.06 2.368 2.368 2.368h17.356c1.307 0 2.366-1.06 2.366-2.368s-1.06-2.367-2.365-2.367zm-1.58 6.312H24.9c-1.308 0-2.368 1.06-2.368 2.368 0 1.307 1.06 2.365 2.367 2.365h14.2c1.308 0 2.368-1.06 2.368-2.365 0-1.308-1.06-2.368-2.367-2.368zM32 61.313c2.335 0 5.157-1.27 6.25-3.155h-12.5c1.093 1.883 3.915 3.155 6.25 3.155z"/><path fill="#EB6D3F" d="M26.676 33.064c.835-.12 1.67-.182 2.505-.264l-.243.164c.403-1.27.85-2.523 1.317-3.77l.47-1.252.406 1.3c.543 1.74 1.047 3.492 1.49 5.26l-.767-.18c.644-.67 1.306-1.326 1.975-1.975l.12-.115.122.01c.543.05 1.085.098 1.628.168.542.065 1.084.123 1.626.214-.545.07-1.09.107-1.633.152-.544.05-1.088.078-1.632.105l.242-.103c-.582.728-1.172 1.45-1.78 2.153l-.518.6-.25-.78c-.56-1.735-1.056-3.49-1.515-5.253l.875.047c-.535 1.217-1.09 2.427-1.688 3.618l-.09.18-.154-.016c-.834-.08-1.67-.14-2.504-.262z"/><ellipse fill="#fff" cx="31.5" cy="9.5" rx="7.333" ry="4.667" opacity=".4"/><defs><path id="a" d="M35.833-1.833L23.833 67l35 2.167L62.167 0z"/></defs><clipPath id="b"><use xlink:href="#a" overflow="visible"/></clipPath><g clip-path="url(#b)"><path fill="#D1AF1C" d="M32 2.688c-10.726 0-21.362 9.72-21.362 20.513 0 9.59 8.74 15.416 9.777 21.242h23.17c1.038-5.826 9.777-11.652 9.777-21.24C53.362 12.407 42.726 2.687 32 2.687z"/><path fill-rule="evenodd" clip-rule="evenodd" fill="#666" d="M40.68 45.533H23.32c-1.308 0-2.368 1.06-2.368 2.367s1.06 2.368 2.368 2.368h17.356c1.307 0 2.366-1.06 2.366-2.368s-1.06-2.367-2.365-2.367zm-1.58 6.312H24.9c-1.308 0-2.368 1.06-2.368 2.368 0 1.307 1.06 2.365 2.367 2.365h14.2c1.308 0 2.368-1.06 2.368-2.365 0-1.308-1.06-2.368-2.367-2.368zM32 61.313c2.335 0 5.157-1.27 6.25-3.155h-12.5c1.093 1.883 3.915 3.155 6.25 3.155z"/><path fill="#D64C22" d="M26.676 33.064c.835-.12 1.67-.182 2.505-.264l-.243.164c.403-1.27.85-2.523 1.317-3.77l.47-1.252.406 1.3c.543 1.74 1.047 3.492 1.49 5.26l-.767-.18c.644-.67 1.306-1.326 1.975-1.975l.12-.115.122.01c.543.05 1.085.098 1.628.168.542.065 1.084.123 1.626.214-.545.07-1.09.107-1.633.152-.544.05-1.088.078-1.632.105l.242-.103c-.582.728-1.172 1.45-1.78 2.153l-.518.6-.25-.78c-.56-1.735-1.056-3.49-1.515-5.253l.875.047c-.535 1.217-1.09 2.427-1.688 3.618l-.09.18-.154-.016c-.834-.08-1.67-.14-2.504-.262z"/><ellipse fill="#E5E4DF" cx="31.5" cy="9.5" rx="7.333" ry="4.667" opacity=".4"/></g></svg>