<svg xmlns="http://www.w3.org/2000/svg" width="120" height="120" viewBox="0 0 120 120"><path fill="none" stroke="#FF302C" stroke-width=".25" stroke-miterlimit="10" d="M116.8 83.1v-2.9H2.5v2.7s-.7 1.3 4.3 2.397h105.5s3.5-.198 4.5-1.897v-.21c.014-.05 0-.09 0-.09z"/><path fill="none" stroke="#FF302C" stroke-width=".25" stroke-miterlimit="10" d="M111.5 82c0 .1-.1.2-.2.2h-3.9c-.103 0-.2-.1-.2-.2s.1-.2.2-.2h3.897c.1 0 .202 0 .203.2z"/><path fill="none" stroke="#FF302C" stroke-width=".25" stroke-miterlimit="10" d="M51.9 80.3s-.4 1.5 1 1.6h13.3s1.4.2 1.2-1.6H51.9z"/><path fill="none" stroke="#FF302C" stroke-width=".25" stroke-miterlimit="10" d="M100.3 24.7H19c-1.1 0-2 1.1-2 2.6v52.2c0 .242.036.475.086.7h85.027c.05-.226.087-.458.087-.7h.1V27.3c0-1.4-.9-2.6-2-2.6z"/><path fill="none" stroke="#FF302C" stroke-width=".25" stroke-miterlimit="10" d="M20.4 27.9h78.7v48.5H20.4z"/><path fill="none" stroke="#FF302C" stroke-width=".25" stroke-miterlimit="10" d="M64.7 47.9l-10.2-3.2c-.5-.5-.8-1.5-.8-2.6s.5-2.1 1-2.6l5-3 5 3v8.4zm-14.9-5.6V54l2.7 1.7V46c-.5-.5-.8-1.5-.8-2.7 0-1.1.4-2.1.9-2.7l-2.8 1.7zm5 6v8.5l5 3 5-3c.9-.5.9-1.5.9-2.6s-.2-2.2-.7-2.7l-10.2-3.2zm12.3-7.8v9.7c.5.5.9 1.5.9 2.7 0 1.2-.3 2.1-.8 2.7l3.1-1.7V42.2l-3.2-1.7z"/><path fill="none" stroke="#FF302C" stroke-width=".15" stroke-miterlimit="10" d="M41.97 64.46V66.2h-.395v-3.87h.395v1.658h.947V62.25h.395v3.87h-.395v-1.737l-.947.078zm3.475-1.185v.08h-.395v-.157c0-.396-.158-.554-.474-.554-.315 0-.474.157-.474.554 0 .868 1.264.946 1.264 2.053 0 .633-.237.948-.87.948s-.868-.396-.868-.947v-.236h.395v.237c0 .397.158.555.474.555.315 0 .474-.158.474-.554 0-.867-1.263-.947-1.263-2.052 0-.632.237-.948.87-.948.63.08.868.475.868 1.025zm1.263.79h1.027v.396h-1.027v-.394zm3.16-1.736c.63 0 .867.395.867.945v1.896c0 .634-.237.95-.868.95h-.948v-3.87h.947v.08zm0 3.475c.314 0 .473-.158.473-.554v-1.975c0-.395-.157-.553-.473-.553h-.475v3.08h.475v.003zm2.684-1.74v.396h-.947v1.345h1.185v.395h-1.58v-3.87h1.58v.395h-1.186v1.265h.947l.002.076zm.948-1.736l.63 3.314.633-3.315h.395l-.71 3.868h-.633l-.71-3.87h.395zm3.316 1.736v.395h-.948v1.345h1.106v.395h-1.58v-3.87h1.58v.395h-1.106v1.265h.948v.076zm.632 2.132v-3.87h.395v3.477h1.106v.395l-1.502-.002zm1.816-2.923c0-.63.237-.946.87-.946.63 0 .868.395.868.945v1.976c0 .633-.236.948-.87.948-.63 0-.868-.396-.868-.947v-1.975zm.395 2.055c0 .395.157.553.474.553.315 0 .474-.158.474-.553v-2.055c0-.395-.158-.553-.474-.553-.316 0-.475.237-.475.553v2.055zm2.606-3c.633 0 .868.395.868.945v.476c0 .633-.235.947-.946.947h-.396v1.498h-.395V62.33h.87zm-.078 1.973c.314 0 .474-.156.474-.474v-.475c0-.396-.155-.554-.474-.554h-.396v1.58h.396v-.077zm3.08-1.578c-.316 0-.476.157-.476.553v.158c0 .315.155.474.476.474h.395v-.396h.395v.396h.158v.396h-.158v1.342c0 .158 0 .316.08.476h-.398c-.08-.08-.08-.156-.08-.313-.078.237-.314.397-.63.397-.48 0-.712-.313-.712-.87v-.316c0-.395.158-.71.474-.788-.313-.08-.474-.396-.474-.79v-.08c0-.632.236-.946.947-.946h.63v.395h-.63v-.08h.003zm0 1.658c-.316 0-.476.236-.476.63v.397c0 .314.155.553.476.553.235 0 .395-.158.395-.475V64.46l-.395-.077zm3.078-2.054c.633 0 .87.395.87.945v1.896c0 .634-.237.95-.87.95H67.4v-3.87h.946v.08zm0 3.475c.316 0 .478-.158.478-.554v-1.975c0-.395-.158-.553-.478-.553h-.474v3.08h.474v.003zm2.606-1.74v.396h-.947v1.345h1.104v.395h-1.58v-3.87h1.58v.395h-1.105v1.265h.947v.076zm2.29-.79v.08h-.396v-.157c0-.396-.156-.554-.473-.554s-.475.157-.475.554c0 .868 1.264.946 1.264 2.053 0 .633-.236.948-.87.948-.633 0-.87-.396-.87-.947v-.236h.477v.237c0 .397.157.555.476.555.314 0 .475-.158.475-.554 0-.867-1.264-.947-1.264-2.052 0-.632.237-.948.87-.948.47.08.786.475.786 1.025zm.79-.946v3.868h-.396v-3.87h.395zm2.132.945v.316h-.394v-.394c0-.396-.158-.555-.474-.555s-.476.238-.476.556v2.053c0 .394.158.552.476.552.315 0 .476-.236.476-.553v-.71h-.395v-.397h.79v1.186c0 .63-.237.946-.87.946-.634 0-.87-.396-.87-.947v-1.976c0-.633.236-.947.87-.947.63-.078.867.318.867.868zm.79 2.923h-.396v-3.87h.553l.87 2.765V62.33h.395v3.868H77.9l-.946-3.08v3.08z"/></svg>