<svg xmlns="http://www.w3.org/2000/svg" height="120" viewBox="0 0 120 120" width="120"><path d="M102.2 79.5c0 1.4-.9 2.6-2 2.6H19c-1.1 0-2-1.2-2-2.6V27.3c0-1.5.9-2.6 2-2.6h81.3c1.1 0 2 1.2 2 2.6v52.2h-.1z"/><g><path d="M2.5 82.9s-.7 1.3 4.3 2.4h105.5s3.5-.2 4.5-1.9v-.9l-114.3.4z" fill="#5F6767"/><linearGradient id="a" y2="-296.83" gradientUnits="userSpaceOnUse" x2="362.81" gradientTransform="matrix(1 0 0 -1 -246 -215)" y1="-296.83" x1="248.5"><stop stop-color="#999C9D" offset="0"/><stop stop-color="#A5A7A9" offset=".001"/><stop stop-color="#C2C3C5" offset=".004"/><stop stop-color="#D9D8DA" offset=".007"/><stop stop-color="#E9E7EA" offset=".01"/><stop stop-color="#F2F0F3" offset=".013"/><stop stop-color="#F5F3F6" offset=".018"/><stop stop-color="#DFE1E3" offset=".049"/><stop stop-color="#D1D1D1" offset=".189"/><stop stop-color="#E3E5E7" offset=".506"/><stop stop-color="#D1D1D1" offset=".872"/><stop stop-color="#DFE1E3" offset=".951"/><stop stop-color="#F5F3F6" offset=".988"/><stop stop-color="#999C9D" offset="1"/></linearGradient><path d="M2.5 80.2h114.3v2.9s.2.4-1.2.3H3.6s-1.1.3-1.1-.4v-2.8z" fill="url(#a)"/><path d="M111.5 82c0 .1-.1.2-.2.2h-3.9c-.1 0-.2-.1-.2-.2s.1-.2.2-.2h3.9c.1 0 .2 0 .2.2zM51.9 80.3s-.4 1.5 1 1.6h13.3s1.4.2 1.2-1.6H51.9z" fill="#5F6767"/></g><path d="M20.4 27.9h78.7v48.5H20.4V27.9z" fill="#CCC8C8"/><path id="logo" d="M64.7 47.9l-10.2-3.2c-.5-.5-.8-1.5-.8-2.6s.5-2.1 1-2.6l5-3 5 3v8.4zm-14.9-5.6V54l2.7 1.7V46c-.5-.5-.8-1.5-.8-2.7 0-1.1.4-2.1.9-2.7l-2.8 1.7zm5 6v8.5l5 3 5-3c.9-.5.9-1.5.9-2.6s-.2-2.2-.7-2.7l-10.2-3.2zm12.3-7.8v9.7c.5.5.9 1.5.9 2.7s-.3 2.1-.8 2.7l3.1-1.7V42.2l-3.2-1.7z" fill="#FF302C"/><path id="text" d="M42.1 64.5v1.7h-.4v-3.8h.4v1.7h1v-1.7h.4v3.8h-.4v-1.7h-1zm3.5-1.2l-.4.1v-.1c0-.4-.1-.5-.5-.5-.3 0-.5.2-.5.5 0 .9 1.3 1 1.3 2 0 .6-.3 1-.9 1s-.9-.4-.9-1v-.2h.4v.2c0 .4.1.5.5.5.3 0 .5-.2.5-.5 0-.9-1.3-1-1.3-2 0-.6.3-1 .9-1 .6.1.9.4.9 1zm1.2.8h1v.4h-1v-.4zm3.2-1.7c.6 0 .9.4.9 1v1.9c0 .6-.3 1-.9 1h-.9v-3.8h.9v-.1zm0 3.4c.3 0 .5-.2.5-.5v-2c0-.4-.1-.5-.5-.5h-.5v3.1h.5v-.1zm2.6-1.7v.4h-1v1.4h1.1v.4h-1.6v-3.8h1.6v.4h-1.1v1.3h1v-.1zm.9-1.7l.6 3.3.6-3.3h.4l-.7 3.8h-.6l-.7-3.8h.4zm3.4 1.7v.4h-1v1.4H57v.4h-1.6v-3.8H57v.4h-1.1v1.3h1v-.1zm.5 2.1v-3.8h.4v3.4H59v.4h-1.6zm1.9-2.9c0-.6.3-1 .9-1s.9.4.9 1v2c0 .6-.3 1-.9 1-.6 0-.9-.4-.9-1v-2zm.4 2c0 .4.1.5.5.5s.5-.2.5-.5v-2c0-.4-.1-.5-.5-.5s-.5.2-.5.5v2zm2.6-2.9c.6 0 .9.4.9 1v.5c0 .6-.3.9-.9.9h-.4v1.5h-.4v-3.8h.8v-.1zm-.1 1.9c.3 0 .5-.1.5-.5v-.5c0-.4-.1-.5-.5-.5h-.4v1.5h.4zm3-1.5c-.3 0-.5.2-.5.5v.2c0 .3.2.5.5.5h.4v-.4h.4v.4h.2v.4H66v1.3c0 .2 0 .3.1.5h-.4c0-.1 0-.2-.1-.3-.1.2-.3.4-.6.4-.5 0-.7-.3-.7-.9V65c0-.4.1-.7.5-.8-.3-.1-.5-.4-.5-.8v-.1c0-.6.3-1 .9-1h.6v.4h-.6v.1zm0 1.6c-.3 0-.5.2-.5.6v.4c0 .3.1.5.5.5.2 0 .4-.1.4-.5v-1h-.4zm3.1-2c.6 0 .9.4.9 1v1.9c0 .6-.3 1-.9 1h-.9v-3.8h.9v-.1zm0 3.4c.3 0 .5-.2.5-.5v-2c0-.4-.1-.5-.5-.5h-.5v3.1h.5v-.1zm2.6-1.7v.4h-1v1.4H71v.4h-1.5v-3.8h1.6v.4H70v1.3h.9v-.1zm2.3-.8l-.4.1v-.1c0-.4-.1-.5-.5-.5s-.5.2-.5.5c0 .9 1.3 1 1.3 2 0 .6-.3 1-.9 1-.6 0-.9-.4-.9-1v-.2h.5v.2c0 .4.102.5.5.5.4 0 .5-.2.5-.5 0-.9-1.3-1-1.3-2 0-.6.3-1 .9-1 .5.1.8.4.8 1zm.8-.9v3.8h-.4v-3.8h.4zm2.1.9v.3h-.4v-.4c0-.4-.1-.5-.5-.5s-.5.2-.5.5v2c0 .4.1.5.5.5s.5-.2.5-.5v-.7h-.4v-.4h.8v1.1c0 .6-.3 1-.9 1-.6 0-.9-.4-.9-1v-2c0-.6.3-1 .9-1 .6.2.9.5.9 1.1zm.8 2.9h-.4v-3.8h.5l.9 2.8v-2.8h.4v3.8h-.5l-1-3.1v3.1h.1z" fill="#FF302C"/><linearGradient id="b" y2="52" gradientUnits="userSpaceOnUse" x2="99" y1="52" x1="43.8"><stop stop-color="#fff" stop-opacity="0" offset="0"/><stop stop-color="#fff" offset="1"/></linearGradient><path id="reflection" opacity=".6" d="M43.8 76H99V28H77.4L43.8 76z" enable-background="new" fill="url(#b)"/></svg>