<svg xmlns="http://www.w3.org/2000/svg" width="192" height="144" viewBox="0 0 192 144"><path fill="#F1C40F" d="M92.12 53.17h4.239c1.753 0 3.154.398 4.197 1.193 1.047.796 1.568 1.862 1.568 3.2 0 1.28-.525 2.302-1.574 3.066l-.31.21c.408.18.783.395 1.127.648 1.166.855 1.75 2.003 1.75 3.446 0 1.562-.564 2.806-1.694 3.736-1.13.928-2.64 1.394-4.526 1.394h-4.77V53.17h-.006zm3.123 6.58h1.115c.876 0 1.533-.153 1.974-.458.438-.305.66-.763.66-1.37 0-.61-.223-1.07-.66-1.38s-1.098-.46-1.974-.46h-1.115v3.668zm0 7.402h1.65c1.024 0 1.798-.186 2.314-.562s.773-.936.773-1.678c0-.752-.275-1.314-.828-1.69-.555-.375-1.387-.56-2.493-.56h-1.417v4.49zm9.743-13.982h3.046v2.788h-3.046V53.17zm0 4.227H108.032v12.667h-3.048V57.397h.002zm5.51 0h2.831v1.05c.93-.99 2.025-1.48 3.295-1.473 1.403 0 2.573.535 3.51 1.606l.222.268.246-.268c.988-1.07 2.27-1.606 3.84-1.606 1.558 0 2.79.486 3.7 1.46.912.975 1.368 2.292 1.368 3.958v7.672h-3.044v-7.17c0-1.033-.208-1.818-.62-2.353-.412-.535-1.015-.802-1.804-.802-.845 0-1.472.305-1.89.914-.418.61-.627 1.523-.627 2.742v6.668h-3.042v-6.825c0-1.146-.213-2.015-.637-2.61-.42-.593-1.042-.89-1.856-.89-.815 0-1.426.304-1.834.913-.406.608-.612 1.524-.612 2.743v6.668h-3.042V57.398h.002zm27.128 13.09c-1.737 0-3.222-.655-4.447-1.968-1.228-1.313-1.84-2.905-1.84-4.778 0-1.874.612-3.47 1.84-4.79 1.228-1.32 2.712-1.98 4.458-1.98 1.69 0 3.12.606 4.292 1.818v-1.393h2.8v12.667h-2.8V68.68c-1.187 1.197-2.62 1.8-4.303 1.808zm.502-10.758c-1.062 0-1.95.383-2.662 1.153-.715.768-1.07 1.722-1.07 2.86 0 1.13.355 2.078 1.07 2.843.712.765 1.597 1.15 2.654 1.15 1.062 0 1.95-.383 2.668-1.15.716-.766 1.077-1.717 1.077-2.854 0-1.14-.356-2.09-1.07-2.854-.715-.767-1.604-1.15-2.667-1.15zm9.61 10.334v-9.99h-1.46v-2.678h1.46v-4.248h3.045v4.248h1.843v2.677h-1.842v9.99h-3.044zm12.224.424c-1.828 0-3.392-.656-4.677-1.97-1.29-1.31-1.936-2.903-1.936-4.776 0-1.874.646-3.47 1.936-4.79 1.29-1.32 2.848-1.98 4.677-1.98 1.836 0 3.397.66 4.688 1.98 1.29 1.32 1.935 2.916 1.935 4.79 0 .454-.037.9-.11 1.338h-9.88c.173.55.457 1.05.858 1.494.692.76 1.554 1.138 2.588 1.138.64 0 1.226-.15 1.758-.447.53-.297.923-.694 1.177-1.193h3.21c-.41 1.344-1.18 2.417-2.31 3.217-1.128.798-2.435 1.198-3.913 1.198zm3.444-7.84c-.15-.668-.45-1.25-.903-1.75-.682-.765-1.53-1.148-2.542-1.148-1.01 0-1.854.383-2.54 1.148-.44.506-.744 1.09-.916 1.75h6.902zm5.098-9.478h3.043v16.894H168.5V53.17zm11.56 17.318c-1.827 0-3.39-.656-4.675-1.97-1.29-1.31-1.937-2.903-1.937-4.776 0-1.874.646-3.47 1.937-4.79 1.286-1.32 2.848-1.98 4.676-1.98 1.836 0 3.398.66 4.688 1.98 1.29 1.32 1.936 2.916 1.936 4.79 0 .454-.037.9-.108 1.338h-9.882c.173.55.455 1.05.86 1.494.69.76 1.552 1.138 2.585 1.138.645 0 1.228-.15 1.757-.447.533-.297.924-.694 1.18-1.193h3.21c-.407 1.344-1.18 2.417-2.31 3.217-1.13.798-2.436 1.198-3.914 1.198zm3.448-7.84c-.15-.668-.45-1.25-.904-1.75-.684-.765-1.53-1.148-2.54-1.148-1.014 0-1.857.383-2.544 1.148-.438.506-.744 1.09-.916 1.75h6.904z"/><path fill="#F1C40F" d="M94.83 71.383v12.57h-1.625v-12.57h1.624zm2.965 5.985c0-.933-.02-1.696-.074-2.444h1.454l.094 1.493h.04c.446-.856 1.49-1.694 2.983-1.694 1.25 0 3.19.743 3.19 3.84v5.394h-1.643v-5.202c0-1.455-.54-2.667-2.088-2.667-1.084 0-1.923.767-2.204 1.68-.07.203-.11.486-.11.765v5.43h-1.642v-6.595zm10.742-2.444l1.77 5.074c.3.82.542 1.568.73 2.313h.055c.207-.743.467-1.49.766-2.312l1.754-5.074h1.718l-3.544 9.027h-1.566l-3.433-9.026h1.75zm9.067 4.814c.037 2.218 1.453 3.133 3.098 3.133 1.174 0 1.885-.206 2.5-.466l.277 1.175c-.58.26-1.565.557-3.003.557-2.78 0-4.438-1.826-4.438-4.55 0-2.726 1.603-4.866 4.23-4.866 2.944 0 3.728 2.593 3.728 4.25 0 .337-.037.597-.06.765h-6.34v.007l.006-.004zm4.81-1.177c.022-1.042-.428-2.663-2.273-2.663-1.66 0-2.388 1.53-2.52 2.664h4.795zm3.397 3.713c.487.314 1.343.652 2.165.652 1.193 0 1.754-.6 1.754-1.345 0-.78-.468-1.212-1.68-1.66-1.622-.578-2.387-1.47-2.387-2.554 0-1.452 1.174-2.648 3.112-2.648.914 0 1.715.262 2.22.563l-.41 1.193c-.353-.228-1.01-.522-1.847-.522-.97 0-1.512.56-1.512 1.232 0 .742.543 1.082 1.715 1.525 1.566.602 2.37 1.38 2.37 2.725 0 1.588-1.23 2.707-3.375 2.707-.988 0-1.9-.243-2.535-.618l.41-1.25zm9.586-9.938v2.593h2.35v1.25h-2.35v4.867c0 1.12.313 1.753 1.23 1.753.43 0 .743-.056.948-.11l.074 1.23c-.314.132-.816.223-1.453.223-.764 0-1.38-.24-1.77-.687-.47-.487-.636-1.287-.636-2.354v-4.925h-1.398v-1.25h1.397v-2.16l1.606-.43zm4.202 5.033c0-.933-.02-1.696-.076-2.444h1.438l.074 1.455h.057c.506-.858 1.348-1.66 2.835-1.66 1.23 0 2.164.745 2.56 1.813h.035c.276-.5.635-.896 1.01-1.177.537-.412 1.135-.635 1.992-.635 1.19 0 2.967.78 2.967 3.917v5.314h-1.607v-5.108c0-1.732-.633-2.777-1.957-2.777-.932 0-1.66.69-1.938 1.492-.073.227-.13.523-.13.82v5.576h-1.605v-5.41c0-1.436-.636-2.478-1.882-2.478-1.026 0-1.77.818-2.032 1.645-.096.242-.133.52-.133.8v5.447H139.6V77.368h-.002zm16.466 2.37c.04 2.218 1.455 3.133 3.096 3.133 1.177 0 1.884-.206 2.5-.466l.28 1.175c-.58.26-1.566.557-3.005.557-2.775 0-4.438-1.826-4.438-4.55 0-2.726 1.604-4.866 4.23-4.866 2.947 0 3.73 2.593 3.73 4.25 0 .337-.035.597-.055.765h-6.344v.007l.006-.004zm4.812-1.177c.02-1.042-.43-2.663-2.276-2.663-1.658 0-2.387 1.53-2.518 2.664h4.794zm3.62-1.192c0-.933-.02-1.696-.073-2.444h1.452l.093 1.493h.038c.447-.856 1.492-1.694 2.982-1.694 1.25 0 3.188.743 3.188 3.84v5.394h-1.64v-5.202c0-1.455-.542-2.667-2.09-2.667-1.08 0-1.923.767-2.2 1.68-.074.203-.112.486-.112.765v5.43h-1.64V77.37h.002v-.002zm12.254-5.033v2.593h2.35v1.25h-2.35v4.867c0 1.12.316 1.753 1.23 1.753.43 0 .746-.056.95-.11l.075 1.23c-.316.132-.818.223-1.457.223-.763 0-1.38-.24-1.77-.687-.47-.487-.637-1.287-.637-2.354v-4.925h-1.395v-1.25h1.396v-2.16l1.61-.43zm3.975 9.938c.484.314 1.344.652 2.164.652 1.19 0 1.753-.6 1.753-1.345 0-.78-.467-1.212-1.678-1.66-1.625-.578-2.39-1.47-2.39-2.554 0-1.452 1.177-2.648 3.114-2.648.91 0 1.716.262 2.217.563l-.408 1.193c-.355-.228-1.01-.522-1.848-.522-.97 0-1.51.56-1.51 1.232 0 .742.54 1.082 1.715 1.525 1.564.602 2.37 1.38 2.37 2.725 0 1.588-1.233 2.707-3.378 2.707-.99 0-1.902-.243-2.538-.618l.413-1.25z"/><path fill="#fff" d="M94.55 89.206h-1.506c-.162.384-.372.888-.503 1.235h-.653l1.685-4.25h.444l1.685 4.25h-.647l-.504-1.234zm-1.278-.57h1.043l-.515-1.482-.528 1.483zm3.078 1.805h-.606v-4.19h2.5v.605H96.35v1.182h1.68v.61h-1.68v1.794zm2.694 0h-.604v-4.19h2.5v.605h-1.896v1.182h1.68v.61h-1.68v1.794zm2.628-3.615c.385-.39.924-.636 1.512-.636.594 0 1.127.245 1.518.635.378.39.624.924.624 1.518 0 .595-.246 1.128-.624 1.517-.39.396-.924.637-1.518.637-.588 0-1.127-.24-1.512-.637-.378-.39-.623-.922-.623-1.517 0-.594.244-1.128.622-1.518zm2.598.432c-.28-.28-.672-.455-1.086-.455s-.797.175-1.072.455c-.276.276-.45.66-.45 1.086 0 .427.174.81.45 1.085.275.282.658.456 1.072.456s.805-.174 1.086-.456c.27-.275.443-.652.443-1.085 0-.432-.174-.81-.443-1.086zm2.262 1.056h.706c.51 0 .763-.364.763-.73 0-.36-.25-.727-.762-.727h-.93v3.586h-.6v-4.196h1.53c.91 0 1.366.67 1.366 1.337 0 .594-.365 1.157-1.086 1.283l1.326 1.576h-.785l-1.53-1.84.002-.29zm3.846-2.063c1.373 0 2.063 1.05 2.063 2.1s-.688 2.092-2.062 2.092h-1.506V86.25h1.506zm0 3.586c.972 0 1.463-.744 1.463-1.486 0-.744-.49-1.494-1.462-1.494h-.9v2.98h.9zm4.517-.63h-1.504c-.16.384-.372.888-.503 1.235h-.654l1.686-4.25h.442l1.686 4.25h-.648l-.505-1.234zm-1.278-.57h1.044l-.516-1.48-.527 1.48zm4.242-2.386c.526 0 .862.3 1.02.69.167.413.113.893-.307 1.19.48.205.653.648.653 1.044 0 .63-.414 1.267-1.218 1.267h-1.896v-4.19h1.747zm-1.146 1.667h1.134c.66 0 .672-1.092.012-1.092h-1.146v1.092zm0 1.937h1.296c.407 0 .61-.342.61-.672 0-.328-.203-.664-.61-.664h-1.296v1.336zm3.408-.018h1.974v.605h-2.578v-4.19h.604v3.586zm2.82 0h1.948v.605h-2.562v-4.19h2.555v.605h-1.942v1.182h1.9v.61h-1.9v1.19zm6.64-.63h-1.505c-.162.384-.372.888-.504 1.235h-.653l1.686-4.25h.443l1.685 4.25h-.647l-.506-1.234zm-1.277-.57h1.045l-.517-1.48-.528 1.48zm2.96-1.786c.365-.377.882-.623 1.45-.623.96 0 1.717.6 1.955 1.547h-.6c-.223-.63-.737-.947-1.354-.947-.4 0-.77.174-1.032.45s-.432.646-.432 1.08c0 .42.168.79.432 1.065.266.276.63.45 1.032.45.636 0 1.175-.366 1.392-1.002h.594c-.24.954-1.008 1.603-1.984 1.603-.57 0-1.086-.24-1.45-.625-.36-.384-.602-.91-.602-1.492-.002-.595.238-1.124.598-1.506zm4.258 0c.365-.377.88-.623 1.45-.623.96 0 1.716.6 1.956 1.547h-.602c-.222-.63-.737-.947-1.354-.947-.402 0-.768.174-1.03.45s-.434.646-.434 1.08c0 .42.17.79.433 1.065.265.276.63.45 1.03.45.636 0 1.177-.366 1.393-1.002h.594c-.24.954-1.008 1.603-1.983 1.603-.57 0-1.086-.24-1.453-.625-.358-.384-.6-.91-.6-1.492 0-.595.24-1.124.6-1.506zm4.327 2.986h1.95v.605h-2.562v-4.19h2.555v.605h-1.943v1.182h1.9v.61h-1.9v1.19zm4.51-2.507c-.085-.38-.492-.54-.857-.535-.282.007-.594.104-.762.318-.083.107-.113.246-.102.39.03.433.504.485.953.526.576.07 1.29.223 1.452.894.018.092.03.192.03.276 0 .81-.804 1.276-1.56 1.276-.647 0-1.434-.384-1.512-1.134l-.006-.112.61-.014.007.09v-.022c.042.39.517.594.905.594.45 0 .94-.252.94-.685 0-.04-.005-.09-.017-.145-.072-.316-.504-.37-.924-.413-.654-.065-1.422-.21-1.488-1.086v.006c-.022-.28.05-.563.23-.798.28-.366.784-.558 1.27-.558.647 0 1.318.335 1.428 1.104l-.595.025zm3.326 0c-.084-.38-.492-.54-.857-.535-.283.007-.595.104-.763.318-.084.107-.114.246-.103.39.03.433.503.485.953.526.575.07 1.29.223 1.45.894.02.092.03.192.03.276 0 .81-.804 1.276-1.56 1.276-.646 0-1.434-.384-1.51-1.134l-.008-.112.61-.014.006.09v-.022c.043.39.517.594.905.594.45 0 .942-.252.942-.685 0-.04-.007-.09-.02-.145-.07-.316-.503-.37-.923-.413-.653-.065-1.422-.21-1.487-1.086v.006c-.023-.28.05-.563.23-.798.28-.366.784-.558 1.27-.558.646 0 1.317.335 1.427 1.104l-.594.025zm2.94-.48h-.78v2.986h.78v.605h-2.166v-.604h.78V86.85h-.78v-.6h2.165v.6zm2.045-.6c.53 0 .864.3 1.022.69.168.413.113.893-.307 1.19.48.205.653.648.653 1.044 0 .63-.413 1.267-1.218 1.267h-1.896v-4.19h1.747zm-1.145 1.667h1.134c.658 0 .67-1.092.01-1.092h-1.145v1.092zm0 1.937h1.295c.408 0 .61-.342.61-.672 0-.328-.202-.664-.61-.664h-1.295v1.336zm3.41-.018h1.973v.605h-2.578v-4.19h.604v3.586zm2.818 0h1.95v.605h-2.563v-4.19h2.555v.605h-1.942v1.182h1.9v.61h-1.9v1.19zm6.642-.63h-1.506c-.163.384-.372.888-.505 1.235h-.652l1.685-4.25h.444l1.685 4.25h-.647l-.505-1.234zm-1.28-.57h1.045l-.516-1.48-.528 1.48zm4.73-1.307c-.085-.38-.493-.54-.858-.535-.28.007-.594.104-.762.318-.084.107-.113.246-.102.39.03.433.503.485.953.526.574.07 1.29.223 1.45.894.02.092.03.192.03.276 0 .81-.804 1.276-1.56 1.276-.647 0-1.433-.384-1.51-1.134l-.007-.112.61-.014.006.09v-.022c.04.39.516.594.904.594.45 0 .94-.252.94-.685 0-.04-.005-.09-.018-.145-.07-.316-.504-.37-.924-.413-.653-.065-1.42-.21-1.487-1.086v.006c-.02-.28.05-.563.23-.798.28-.366.784-.558 1.27-.558.648 0 1.32.335 1.43 1.104l-.596.025zm3.323 0c-.084-.38-.492-.54-.857-.535-.28.007-.593.104-.76.318-.085.107-.114.246-.103.39.03.433.503.485.953.526.574.07 1.29.223 1.45.894.02.092.03.192.03.276 0 .81-.804 1.276-1.56 1.276-.647 0-1.433-.384-1.51-1.134l-.007-.112.61-.014.006.09v-.022c.04.39.516.594.904.594.45 0 .94-.252.94-.685 0-.04-.005-.09-.018-.145-.072-.316-.504-.37-.924-.413-.653-.065-1.42-.21-1.487-1.086v.006c-.023-.28.05-.563.23-.798.28-.366.784-.558 1.27-.558.646 0 1.32.335 1.428 1.104l-.595.025zm1.046 1.852V86.25h.61v2.938c0 .46.5.69.94.69.44 0 .938-.235.938-.696V86.25h.61v2.938c0 .853-.826 1.295-1.547 1.295-.736 0-1.55-.443-1.55-1.3zm4.35-.87h.706c.51 0 .763-.363.763-.73 0-.358-.253-.726-.763-.726h-.93v3.586h-.6v-4.196h1.53c.91 0 1.366.67 1.366 1.337 0 .594-.365 1.157-1.086 1.283l1.325 1.576h-.785l-1.528-1.84v-.29zm2.98 1.524h1.95v.605h-2.56v-4.19h2.554v.605h-1.943v1.182h1.9v.61h-1.9v1.19zm3.73-3.586c1.374 0 2.064 1.05 2.064 2.1s-.688 2.092-2.063 2.092h-1.506V86.25h1.505zm0 3.586c.973 0 1.465-.744 1.465-1.486 0-.744-.493-1.494-1.465-1.494h-.898v2.98h.898z"/><path fill="#F1C40F" d="M68.062 69.946c7.503-5.358 8.466-13.933 5.466-21.33-2.786-6.967-8.79-12.326-18.22-12.326h-7.48v10.29h7.48c11.79 0 11.575 19.51-.215 19.51H44.428v10.717h13.557c7.29 0 10.932 6.004 10.932 11.897s-3.644 12.003-10.932 12.003H34.832V85.76L24.114 96.48v14.73h33.87c14.362 0 21.758-11.36 21.758-22.614.002-7.075-3.108-15.005-11.68-18.65z"/><path fill="#fff" d="M45.388 36.29v10.29H34.832v35.79L24.127 93.075V46.56H7.407V36.29z"/></svg>