<svg xmlns="http://www.w3.org/2000/svg" width="120" height="120" viewBox="0 0 120 120"><path fill="#B3B3B3" d="M119.5 92.428l-1.13-4.057-11.562-12.04-17.493-5.214L59.5 70.22v-.264l-29.068.902-16.74 5.213L1.814 88.115.5 91.524V120h119z"/><path fill="#722626" d="M15.27 83.657L7.212 120H112.58L99.128 82.987 75.334 75.95l-40.6 2.765z"/><path fill="#999" d="M50.98 120h10.718l.158-31h-11.73z"/><g fill="#333"><path d="M32.074 50.94l-10.65 9.766 4.16 12.16 31.78 20.9 28.785-27.922.996-9.934-11.812-6.34zM57.38 93.926l-.083-.054-31.816-20.92-4.2-12.285.063-.964L32.025 49h.046l43.293-.464 11.918 6.848-1.01 10.296-28.89 28.246zM25.688 72.783l31.66 20.82 28.68-27.82.986-9.8-11.71-6.28-43.182 1.364-10.552 9.677 4.118 12.04z"/></g><g fill="#B3B3B3"><path d="M35.697 54.363l-9.03 8.28 3.526 10.315 26.952 17.724 24.413-23.68.846-8.426-10.018-5.374zM57.16 90.844l-.082-.054L30.09 73.042l-3.57-10.056L35.647 55h.046l36.722-1.546 10.122 5.238-.858 8.468-24.52 23.684zm-26.863-17.97L57.13 90.518 81.44 66.942l.835-8.292-9.916-5.32-36.61 1.16-8.935 8.192 3.485 10.19z"/></g><g fill="#666"><path d="M42.294 58.764l-6.227 7.297 2.432 9.09 18.584 15.62L73.918 69.9l.584-7.425-6.908-4.737zM57.1 90.947L38.39 75.225l-.01-.04-2.45-8.977L42.234 59h.054l25.338-1.208 7.004 4.71-.006.03-.588 7.442L57.1 90.947zm-18.49-15.87l18.457 15.51 16.73-20.736.574-7.308-6.812-4.67-25.206 1.02-6.147 7.202 2.404 8.982z"/></g><g fill="#8C6239"><path d="M31.532 28.16c0 6.038 5.24 31.346 5.24 31.346l8.612 6.167 12.604 3.21 12.104-7.964 4.616-7.837-2.245-30.576s-24.708-35.843-40.93 5.652zM58.01 69.022l-12.697-3.244-8.65-6.196-.01-.05c-.053-.254-5.245-25.392-5.245-31.373l.01-.05C36.633 14.768 43.277 8 51.16 8c11.324 0 20.764 14.288 20.863 14.432l-.523.03v.035l2.793 30.618-4.382 7.896-11.9 8.012zm-12.573-3.468l12.53 3.192L70 60.83l4.582-7.78-2.24-30.497c-.51-.72-10.23-14.296-21.18-14.296-7.77 0-14.33 6.705-19.504 19.928.014 5.873 4.968 29.982 5.228 31.244l8.55 6.124z"/></g><g fill="#8C6239"><path d="M57.988 68.884l-12.604-3.21-3.345-2.397c.913 7.69 1.9 14.985 1.9 14.985l5.624 6.168 8.232 3.21 7.905-7.964 3.017-7.837-.465-9.712-10.264 6.756zM57.83 87.79l-8.337-3.25-.02-.023-5.65-6.196-.006-.04c-.01-.072-.997-7.38-1.9-14.986l-.035-.284 3.554 2.545 12.53 3.192 10.4-6.844.48 9.96-.01.023-3.026 7.863-.02.02-7.96 8.02zm-8.193-3.472l8.13 3.174 7.83-7.89 2.997-7.784-.455-9.46-10.13 6.664-12.697-3.244-3.114-2.23c.857 7.205 1.78 14.067 1.86 14.657l5.577 6.113z"/></g><g fill="#8C6239"><path d="M73.46 35.738l1.623-.898 1.122 2.312.127 9.765-1.25 1.54-.746-.77zM74.734 48.647l-1.234-.902v-.048l-.523-12.03 1.984-1.002 1.283 2.485-.008 9.81-1.5 1.687zm-.277-1.017l.617.638 1.13-1.396-.12-9.688-1.055-2.168-1.44.8.867 11.814z"/></g><g fill="#8C6239"><path d="M33.35 42.753l-1.794-.432-.496 2.536 2.36 9.457 1.598 1.15.525-.943zM35.057 55.65l-1.746-1.26-2.38-9.53.53-2.693 1.997.48 2.217 11.895-.617 1.108zm-1.527-1.413l1.447 1.043.436-.784-2.17-11.638-1.59-.38-.466 2.374 2.343 9.385z"/></g><g fill="#1A1A1A"><path d="M43.97 92.483l-2.068 1.033-1.83-1.495.237-2.525 2.067-1.03 1.83 1.493zM41.887 93.677l-1.947-1.59.252-2.687 2.2-1.097 1.948 1.588-.254 2.69-2.2 1.097zm-1.683-1.722l1.712 1.398 1.938-.966.222-2.364-1.713-1.398-1.937.966-.222 2.365z"/></g><g fill="#666"><path d="M43.486 92.12l-1.52.782-1.347-1.13.174-1.914 1.52-.78 1.347 1.13zM41.954 93.023l-1.43-1.202.185-2.033 1.616-.832 1.432 1.203-.187 2.033-1.616.833zm-1.238-1.3l1.26 1.057 1.424-.73.164-1.79-1.26-1.06-1.424.732-.164 1.79z"/></g><g fill="#1A1A1A"><path d="M71.173 92.483l-2.068 1.033-1.83-1.495.238-2.525 2.067-1.03 1.83 1.493zM69.09 93.677l-1.946-1.59.253-2.687 2.2-1.097 1.947 1.588-.254 2.69-2.2 1.097zm-1.684-1.722l1.715 1.398 1.937-.966.223-2.364-1.713-1.398-1.938.966-.224 2.365z"/></g><g fill="#666"><path d="M70.69 92.12l-1.522.782-1.345-1.13.175-1.914 1.52-.78 1.347 1.13zM69.156 93.023l-1.43-1.202.187-2.033 1.615-.832 1.433 1.203-.184 2.033-1.62.833zm-1.236-1.3l1.26 1.057 1.424-.73.164-1.79-1.26-1.06-1.425.732-.163 1.79z"/></g><path fill="#666" d="M69.156 93.023l-1.43-1.202.187-2.033 1.615-.832 1.433 1.203-.184 2.033-1.62.833zm-1.236-1.3l1.26 1.057 1.424-.73.164-1.79-.784-.66-2.064 2.122z"/><g fill="#999"><path d="M87.146 55.91l-.997 9.934-5.16 5.14 8.153.17 5.16 1.028zM94.515 72.354L89.12 71.28l-8.434-.176 5.343-5.32 1.04-10.36 7.445 16.93zM81.29 70.86l7.855.165 4.943.983-6.865-15.613-.954 9.508-4.98 4.957z"/></g><g fill="#42210B"><path d="M59.43 46.444l-3.073.387-.88 1.197-1.143-.943-4.245.532-4.16 3.145 5.184 1.975 9.34-1.172 4.16-3.144zM51.1 52.865L45.67 50.8l4.372-3.307 4.328-.543 1.087.895.833-1.135 3.157-.396 5.43 2.066-4.37 3.308-9.408 1.177zm-4.91-2.14l4.94 1.88 9.28-1.164 3.945-2.98-4.94-1.884-2.99.377-.925 1.26-1.205-.995-4.16.522-3.944 2.984z"/></g><g fill="#42210B"><path d="M57.692 32.677l.233.17 8.782.018.468-.85zM66.78 32.994l-8.895-.018-.55-.4 10.06-.708-.615 1.126zm-7.88-.27l7.734.013.318-.578-8.052.563z"/></g><g fill="#42210B"><path d="M49.51 34.137l-.303.3-8.72 1.253-.516-1.058zM40.416 35.83l-.64-1.316 10.06-.52-.572.565-8.848 1.27zm-.248-1.08l.39.8 8.59-1.232.034-.034-9.014.465z"/></g><g fill="#754B28"><path d="M57.514 28.993l.178 3.684L61.772 30l1.082-3.897zM57.578 32.905l-.193-3.99 5.67-3.066-1.176 4.232-4.302 2.823zm.065-3.837l.164 3.382 3.858-2.533.99-3.56-5.012 2.71z"/></g><g fill="#754B28"><path d="M47.38 29.766l2.164 4.398-4.99-2.15-2.58-3.64zM49.81 34.417l-5.337-2.3-2.802-3.956 5.797 1.494 2.342 4.763zm-5.177-2.508l4.647 2-1.985-4.033-5.018-1.293 2.356 3.325z"/></g><g fill="#1A1A1A"><path d="M57.656 32.712l2.215-2.777 4.794-.35 2.574 2.43zM57.374 32.86l2.436-3.05 4.898-.356 2.83 2.668-10.164.74zm2.56-2.8l-2 2.504 9.007-.656-2.32-2.19-4.686.342z"/></g><g fill="#BDCCD4"><path d="M57.692 32.677l2.11-2.245 4.55-.396 2.445 1.852zM57.372 32.835l2.372-2.526 4.646-.404 2.75 2.082-9.768.847zm2.485-2.278l-1.844 1.965 8.442-.73-2.14-1.62-4.458.385z"/></g><g fill="#666"><path d="M63.872 30.88c-.16-.558-.925-.886-1.704-.73-.778.157-1.28.737-1.12 1.3.162.558.925.884 1.704.727.78-.156 1.28-.737 1.12-1.296zM62.36 32.345c-.697 0-1.284-.354-1.433-.86-.07-.25-.034-.505.107-.745.205-.35.62-.617 1.11-.715.135-.028.276-.042.414-.042.698 0 1.286.355 1.433.86.072.25.035.507-.104.745-.208.35-.62.616-1.11.715-.138.026-.277.042-.417.042zm.2-2.106c-.122 0-.246.013-.367.036-.422.084-.773.31-.944.597-.105.175-.13.36-.08.538.115.398.603.677 1.19.677.123 0 .25-.01.37-.036.42-.083.773-.307.942-.597.104-.175.13-.358.08-.535-.114-.4-.605-.68-1.192-.68z"/></g><g fill="#603813"><path d="M61.778 31.403c.092.397.49.638.893.532.403-.104.657-.513.567-.912-.09-.397-.49-.638-.892-.532-.404.105-.657.514-.567.913zM62.48 32.09c-.396 0-.735-.272-.822-.657-.104-.467.188-.945.656-1.066.072-.02.148-.028.22-.028.4 0 .737.27.825.655.103.467-.19.945-.66 1.066-.072.02-.145.03-.22.03zm.055-1.495c-.053 0-.105.006-.16.02-.335.087-.55.428-.474.758.062.27.3.46.58.46.053 0 .107-.007.16-.02.337-.09.55-.43.476-.76-.062-.27-.3-.458-.58-.458z"/></g><g fill="#1A1A1A"><path d="M62.066 31.27c.046.21.245.336.442.284.197-.05.32-.262.273-.47-.048-.21-.245-.337-.442-.285s-.32.262-.272.47zM62.42 31.693c-.228 0-.423-.163-.477-.396-.062-.276.103-.555.364-.622.263-.07.534.105.595.378.063.277-.1.558-.363.625-.04.01-.08.015-.12.015zm.01-.777c-.02 0-.04.002-.06.008-.132.034-.214.177-.182.316.03.137.162.223.29.19.133-.035.214-.177.183-.317-.026-.117-.122-.197-.23-.197z"/></g><g fill="#fff"><path d="M62.707 30.908c.067.255.353.41.64.346.29-.067.47-.327.404-.582-.063-.254-.352-.41-.64-.342-.288.064-.468.324-.403.578zM63.215 31.396c-.302 0-.56-.186-.628-.453-.038-.146-.015-.3.064-.432.09-.153.25-.265.433-.307.35-.08.71.12.79.436.036.145.015.3-.064.432-.09.15-.25.265-.435.306-.053.012-.106.018-.16.018zm.03-.953c-.035 0-.072.004-.106.012-.12.026-.22.096-.275.19-.03.05-.063.132-.036.23.04.155.2.263.386.263.036 0 .07-.004.106-.012.12-.026.22-.096.273-.19.03-.052.063-.132.037-.232-.04-.153-.2-.26-.388-.26z"/></g><g fill="#1A1A1A"><path d="M39.916 34.693l2.257-2.744 4.796-.28 2.54 2.467zM39.634 34.838l2.478-3.014 4.904-.284 2.79 2.708-10.172.59zm2.6-2.762l-2.035 2.474 9.014-.522-2.292-2.227-4.69.276z"/></g><g fill="#BDCCD4"><path d="M40.413 34.506l2.21-2.14 4.565-.17 2.356 1.968zM40.085 34.647l2.486-2.408 4.66-.176 2.65 2.215-9.795.367zm2.59-2.155l-1.935 1.873 8.468-.318-2.063-1.722-4.47.167z"/></g><g fill="#666"><path d="M46.16 32.953c-.154-.563-.914-.898-1.695-.754-.78.145-1.29.717-1.136 1.28.152.56.91.898 1.69.754.783-.145 1.292-.717 1.14-1.28zM44.657 34.396c-.71 0-1.308-.363-1.45-.882-.067-.25-.027-.505.117-.743.21-.345.627-.606 1.12-.698.125-.023.255-.035.385-.035.71 0 1.307.36 1.45.882.066.247.027.504-.118.74-.21.348-.63.61-1.12.7-.127.025-.256.036-.385.036zm.173-2.1c-.114 0-.23.01-.342.03-.422.078-.778.295-.95.58-.107.176-.138.36-.09.537.113.41.61.695 1.21.695.114 0 .23-.01.342-.032.42-.077.778-.296.952-.582.106-.173.135-.36.086-.536-.112-.41-.61-.693-1.208-.693z"/></g><g fill="#603813"><path d="M44.06 33.445c.084.4.48.646.884.548.405-.1.663-.504.578-.905-.083-.4-.48-.646-.884-.547-.405.1-.663.506-.578.905zM44.764 34.143c-.403 0-.744-.274-.826-.67-.1-.467.203-.94.672-1.057.068-.018.138-.025.208-.025.404 0 .745.277.827.672.1.467-.203.94-.672 1.056-.07.015-.14.025-.21.025zm.053-1.495c-.05 0-.1.006-.15.02-.338.082-.556.418-.486.75.06.275.298.467.584.467.05 0 .1-.006.15-.017.34-.083.556-.42.487-.753-.057-.275-.297-.467-.583-.467z"/></g><g fill="#1A1A1A"><path d="M44.348 33.316c.045.208.24.34.44.29.198-.048.323-.257.278-.465-.044-.208-.24-.34-.44-.29-.198.047-.323.257-.278.466zM44.704 33.745c-.23 0-.428-.165-.477-.4-.058-.277.108-.557.372-.62.262-.063.53.113.588.39.058.275-.108.554-.372.617-.037.01-.075.013-.112.013zm.006-.776c-.02 0-.035 0-.054.005-.133.033-.215.175-.187.313.03.138.16.227.288.193.133-.03.216-.172.186-.312-.025-.118-.12-.2-.234-.2z"/></g><g fill="#fff"><path d="M44.994 32.965c.063.256.347.413.638.354.288-.063.473-.32.41-.575-.062-.255-.347-.415-.635-.354-.29.062-.474.32-.413.575zM45.506 33.46c-.307 0-.567-.19-.633-.464-.035-.146-.012-.3.07-.43.093-.152.252-.262.437-.3.35-.075.705.128.782.447.035.144.01.297-.07.43-.093.152-.253.262-.438.3-.05.012-.098.016-.148.016zm.025-.954c-.032 0-.065.004-.1.012-.118.023-.22.092-.276.185-.03.052-.063.133-.038.232.037.155.2.267.39.27.033 0 .066-.005.1-.013.118-.024.218-.092.275-.186.032-.05.064-.13.04-.23-.036-.157-.2-.27-.39-.27z"/></g><g fill="#603813"><path d="M50.264 32.2l1.914 2.308-1.296 6.484.413-6.118zM51.005 41.02l-.247-.035.41-6.09-1.298-3.368 2.442 2.946-1.307 6.546zm-.348-8.15l.763 1.983-.282 4.23.905-4.54-1.386-1.672z"/></g><g fill="#603813"><path d="M56.734 31.554l-1.58 2.56 2.16 6.235-1.235-6zM57.198 40.393L55.015 34.1l2.02-3.27-.83 3.522 1.23 5.972-.237.07zm-1.906-6.264l1.513 4.367-.855-4.15.488-2.07-1.146 1.852z"/></g><g fill="#603813"><path d="M52.55 39.993l.343-3.292"/><path d="M52.796 36.69l.25.03-.387 3.286-.25-.03z"/></g><g fill="#754B28"><path d="M51.114 52.735l.378.964 8.713-1.133.25-1.004zM51.413 53.84l-.476-1.213 9.687-1.214-.32 1.27-8.89 1.156zm-.12-.997l.28.716 8.53-1.11.187-.734-8.998 1.127z"/></g><g fill="#1A1A1A"><path d="M49.004 27.324l-1.623 2.442-9.358-2.442-1.622 1.35 1.185-2.57-.624-.514 11.67 1.542.56-.257zM47.435 29.913l-9.383-2.447-2 1.662 1.377-2.987-.894-.734L48.61 27l.82-.374-.313.75-1.682 2.537zm-9.443-2.73l9.334 2.437 1.573-2.366.052-.13-.305.14-.034-.004-11.228-1.482.355.29-.993 2.152 1.245-1.036z"/></g><g fill="#1A1A1A"><path d="M55.393 27l2.12 1.993 8.57-4.583 1.877.93-1.726-2.22.494-.647-11.015 4.25-.604-.118zM57.493 29.148l-2.186-2.055-.488-.677.882.173 11.398-4.4-.708.927L68.4 25.7l-2.317-1.147-8.59 4.595zm-2.095-2.356l.093.13 2.043 1.916 8.545-4.57 1.44.713-1.443-1.86.28-.366-10.63 4.104-.327-.066z"/></g><g fill="#754B28"><path d="M50.313 34.41l-.415 1.18-3.64 1.177 4.367-.93zM46.283 36.893l-.063-.247 3.582-1.158.54-1.53.434 1.98-4.493.955zm4.003-2.025l-.292.824-1.334.433 1.815-.39-.19-.867z"/></g><g fill="#754B28"><path d="M57.054 33l.675 1.1 3.495.32-4.068.104zM57.042 34.655l-.146-2.153.905 1.474 3.435.318-.01.256-4.183.105zm.17-1.156l.06.893 1.77-.043-1.383-.13-.447-.72z"/></g><g fill="#1A1A1A"><path d="M45.953 50.146l4.31-3.204 4.24-.826-.03-1.062-.35.214-4.457.79.152.13-4.182 4.075zM45.114 50.596l4.518-4.4-.25-.22 4.698-.83.512-.312.038 1.39-4.315.84-4.32 3.202-.88.33zm4.837-4.46l.056.05-3.422 3.332 3.657-2.7 4.135-.807-.02-.733-.21.12-4.194.74z"/></g><g fill="#1A1A1A"><path d="M64.68 47.912l-4.898-2.128-4.31.173-.204-1.043.388.13 4.515-.26-.118.162 4.962 3.008zM65.595 48.158l-.965-.127-4.872-2.116-4.39.175-.263-1.364.567.187 4.758-.273-.196.27 5.36 3.248zm-5.792-2.503l.027.012 4.098 1.778-4.06-2.46.043-.058-4.27.243-.208-.067.14.72 4.23-.168z"/></g><g fill="#1A1A1A"><path d="M54.39 52.86l2.506-.303-1.24 1.758zM55.667 54.52l-1.53-1.758 3.027-.367-1.497 2.125zm-1.024-1.56l1.004 1.152.98-1.395-1.984.243z"/></g><g fill="#42210B"><path d="M56.205 40.552l-3.785.325-1.8.952 1.984.625.493-.042.07-.465.833-.097.286.462.377-.034.015-.487 1.12-.092.21.465.382-.032 1.8-.952zM52.585 42.546l-2.21-.7 1.995-1.054 3.854-.33 2.21.697-1.995 1.055-.52.045-.21-.465-.91.074-.015.487-.576.048-.287-.457-.643.075-.07.47-.625.053zm-1.72-.736l1.76.556.358-.03.07-.462 1.02-.12.29.462.178-.015.017-.487 1.327-.11.21.464.25-.02 1.602-.85-1.76-.554-3.72.318-1.602.85z"/></g><g fill="#1A1A1A"><path d="M33.404 42.803l9.922 5.19 2.06 17.597-8.613-6.075zM45.542 65.857l-8.88-6.27-3.432-17.02 10.21 5.342 2.102 17.947zm-8.656-6.42l8.34 5.89-2.017-17.252-9.63-5.04 3.306 16.403z"/></g><g fill="#1A1A1A"><path d="M73.46 36.244l-6.8 7.637 1.593 17.87 1.84-1.17 4.615-7.572zM68.148 61.966l-1.618-18.13 7.035-7.896 1.27 17.096-4.652 7.635-2.035 1.296zM66.79 43.923l1.568 17.614L70 60.493l4.582-7.517-1.223-16.432-6.57 7.38z"/></g><path fill="#603813" stroke="#603813" stroke-miterlimit="10" d="M33.32 45.246l-.748-.75-.285 2.41.713.952v1.884l.702 1.283.89-1.88-.76-3.342zM74.108 37.584l.564-.904.858 2.266-.44 1.083.42 1.835-.447 1.426-1.306-1.618-.012-3.43z"/><path fill="#A67C52" d="M45.67 50.8l5.35 2.04 9.485-1.152 4.37-3.307z"/><path fill="#1A1A1A" d="M33.197 42.51l.077.104 11.11 14.915 4.88 7.03 1.85-2.844 10.598-1.41 1.43 2.257 4.205-10.677 6.35-16.274 1.135 17.545-4.634 7.88-5.71 3.666-6.42 4.646-10.324-2.82-2.435-.58-8.82-6.174z"/><path fill="#754B28" d="M68.47 62.012l-1.684 1.466-.81 15.555 2.86-7.094zM42.2 63.804l1.5 1.34L48.316 83.4l-4.554-4.694-1.81-14.898z"/><path opacity=".6" fill="#1A1A1A" d="M41.953 63.23l3.36 2.29 12.754 3.572 10.403-7.21.06 2.056-10.48 6.938-12.977-3.66-2.933-1.543z"/><path fill="#1B1464" d="M43.325 110.705h-.93V91.18h.93v19.525z"/><path fill="#2E3192" d="M42.86 110.705h-.93V91.18h.93v19.525z"/><path fill="#1B1464" d="M69.336 91.417h1.16v27.26h-1.16v-27.26z"/><path fill="#2E3192" d="M69.336 91.417h.696v27.26h-.696v-27.26z"/></svg>