<svg xmlns="http://www.w3.org/2000/svg" width="126" height="126" viewBox="0 0 126 126"><path d="M120.9 69.4l-20 20-9.9 9.9-1.8 1.8-19.8 19.8c-1.8 1.8-4.1 2.7-6.4 2.7s-4.7-.9-6.4-2.7l-51.5-51.5c-3.6-3.6-3.6-9.3 0-12.9l51.5-51.4c1.8-1.8 4.1-2.7 6.4-2.7s4.7.9 6.4 2.7l51.5 51.5c3.6 3.5 3.6 9.3 0 12.8z" fill="#E74C3C"/><path d="M120.9 69.4l-51.5 51.5c-1.8 1.8-4.1 2.7-6.4 2.7v-121.2c2.3 0 4.7.9 6.4 2.7l51.5 51.5c3.6 3.5 3.6 9.3 0 12.8z" fill="#C0392B"/><g fill="#F1C40F"><path d="M63 63.4v38.5h-8c-11.6 0-12.6-1.2-14.4-3.4-1.4-1.8-1.3-5-.6-7.2 2.5-8.2 6.4-14.3 11.8-19.7 1.9-1.9 3.9-3.6 6.1-5.1 0 0 2.2-1.6 5.1-3.1z"/><path d="M63 33.4v23.8c-3.5-2.8-5.7-7.1-5.7-11.9 0-4.8 2.2-9.1 5.7-11.9z"/><path d="M63 103.4v20.2c-2.3 0-4.7-.9-6.4-2.7l-.8-.8v-16.8h7.2z"/></g><g fill="#c90"><path d="M74.8 96.1c0 3.2-2.6 5.8-5.8 5.8h-6v-38.5c1.8-.9 3.7-1.9 5.5-2.4l4 4.1 4.1-4.1c.7.2 1.4.4 2.1.7l-8.5 24.5-1.2 1.5 1.1 2.7c2.6.5 4.7 2.8 4.7 5.7z"/><path d="M87.8 45.4c0 8.4-6.8 15.3-15.3 15.3-3.6 0-6.9-1.3-9.5-3.4v-23.9c2.6-2.1 5.9-3.4 9.5-3.4 8.5.1 15.3 6.9 15.3 15.4z"/><path d="M100.9 89.5l-9.9 9.8c-.5-3.3-1.1-6.1-1.8-8.5v10.3l-19.8 19.8c-1.8 1.8-4.1 2.7-6.4 2.7v-20.2h6c4 0 7.3-3.3 7.3-7.3 0-1.4-.8-3.8-.8-3.8l4.7-29.9c6.1 3.1 10.4 7.8 13.3 11.5 2.5 3 5.3 7.8 7.4 15.6z"/></g><g><path d="M63 77.3v22.8h-8c-10.8 0-11.6-1-13-2.8-1-1.3-.9-3.8-.3-5.6 2.3-7.6 6-13.6 11.4-19 1.6-1.7 3.5-3.3 5.8-4.9l.4-.3 3.7 9.8z" fill="#ECF0F1"/><path d="M73 96.1c0 2.2-1.8 4-4 4h-6v-22.8l5.3 13.6c.2.6.7 1.1 1.4 1.2 1.9.4 3.3 2 3.3 4z" fill="#BDC3C7"/><path fill="#ECF0F1" d="M44.6 48.9h-5.8v5.8h-5v-5.8h-5.9v-5h5.9v-5.8h5v5.8h5.8z"/></g></svg>