<svg xmlns="http://www.w3.org/2000/svg" width="120" height="120" viewBox="0 0 120 120"><path fill="none" stroke="#231F20" stroke-width=".25" stroke-miterlimit="10" d="M88 105.3c0 5.5.4 10.7-9.8 10.7H41.6c-10.2 0-9.6-5.2-9.6-10.7V14.2C32 8.7 31.3 4 41.6 4h36.6C88.4 4 88 8.7 88 14.2v91.1z"/><path fill="none" stroke="#231F20" stroke-width=".25" stroke-miterlimit="10" d="M60 7.9c.4 0 .7.3.7.7s-.3.7-.7.7-.7-.3-.7-.7.3-.7.7-.7z"/><path fill="none" stroke="#231F20" stroke-width=".25" stroke-miterlimit="10" d="M66.5 13.6c0 .2-.2.4-.4.4H53.9c-.2 0-.4-.2-.4-.4v-.2c0-.2.2-.4.4-.4h12.2c.2 0 .4.2.4.4v.2z"/><path fill="none" stroke="#231F20" stroke-width=".25" stroke-miterlimit="10" d="M84.6 103.8c0 .5-.398.7-.8.7H36.2c-.5 0-.8-.4-.8-.7V21.3c0-.5.4-.7.8-.7h47.6c.5 0 .8.4.8.7v82.5z"/><path fill="none" stroke="#231F20" stroke-width=".25" stroke-miterlimit="10" d="M60 106.8c1.878 0 3.4 1.522 3.4 3.4s-1.522 3.4-3.4 3.4-3.4-1.52-3.4-3.398 1.522-3.4 3.4-3.402z"/><path fill="none" stroke="#231F20" stroke-width=".25" stroke-miterlimit="10" d="M65 50.5l-10.7-3.4c-.5-.5-.8-1.6-.8-2.8 0-1.2.6-2.2 1.1-2.8l5.3-3.1 5.2 3.1v9H65zm-15.8-5.9v12.3l2.9 1.8V48.5c-.5-.6-.9-1.6-.9-2.8 0-1.2.4-2.3.9-2.8l-2.9 1.7zm5.3 6.4v8.9l5.3 3.1 5.3-3.1c1-.6 1-1.6 1-2.8 0-1.2-.2-2.3-.8-2.8L54.5 51zm12.9-8.2V53c.5.6 1 1.6 1 2.8 0 1.2-.3 2.3-.9 2.8l3.3-1.8V44.6l-3.4-1.8z"/><path fill="none" stroke="#231F20" stroke-width=".25" stroke-miterlimit="10" d="M41.2 68v1.8h-.4v-4h.4v1.8h1v-1.8h.4v4h-.4V68h-1zm3.6-1.3l-.4.1v-.1c0-.4-.1-.6-.5-.6s-.5.198-.5.6c0 .9 1.3 1 1.3 2.1 0 .6-.3 1-.9 1-.6 0-.9-.4-.9-1v-.2h.4v.2c0 .4.1.6.5.6s.5-.198.5-.6c0-.9-1.3-1-1.3-2.1 0-.6.3-1 .9-1s.9.4.9 1zm1.3.9h1.1v.4h-1.1v-.4zm3.4-1.9c.6 0 .9.4.9 1v2c0 .6-.3 1-.9 1h-1v-4h1zm0 3.7c.3 0 .5-.2.5-.602v-2.1c0-.4-.1-.602-.5-.602H49v3.2h.5v.104zm2.7-1.8v.4h-1v1.4h1.2v.4h-1.7v-4h1.7v.4h-1.2v1.3h1v.1zm1-1.9l.7 3.5.7-3.5h.4l-.8 4h-.7l-.8-4h.5zm3.5 1.9v.4h-1v1.4h1.2v.4h-1.7v-4h1.7v.4h-1.2v1.3h1v.1zm.6 2.2v-4h.4v3.6h1.1v.4h-1.5zm1.9-3.1c0-.6.3-1 .9-1s.9.4.9 1v2.1c0 .6-.3 1-.9 1s-.9-.4-.9-1v-2.1zm.5 2.1c0 .4.1.6.5.6.3 0 .5-.198.5-.6v-2.1c0-.4-.1-.6-.5-.6-.3 0-.5.198-.5.6v2.1zm2.7-3.1c.6 0 .898.4.898 1v.5c0 .6-.3 1-1 1H62v1.6h-.4v-4h.8v-.1zm-.1 2.1c.3 0 .5-.1.5-.5v-.5c0-.4-.1-.6-.5-.6h-.4v1.6h.4zm3.2-1.6c-.3 0-.5.2-.5.6v.2c0 .3.2.5.5.5h.4V67h.4v.4h.2v.4h-.2v1.4c0 .2 0 .3.1.5H66c0-.1 0-.2-.1-.3-.1.2-.3.4-.6.4-.5 0-.7-.3-.7-.9v-.398c0-.4.102-.7.5-.9-.3-.1-.5-.398-.5-.8v-.1c0-.602.3-1 1-1h.7v.398h-.8v.1zm0 1.7c-.3 0-.5.2-.5.6v.4c0 .3.1.6.5.6.2 0 .4-.1.4-.5v-1.1h-.4zm3.2-2.2c.6 0 .9.4.9 1v2c0 .6-.302 1-.9 1h-1v-4h1zm0 3.7c.3 0 .5-.2.5-.602v-2.1c0-.4-.1-.602-.5-.602h-.5v3.2h.5v.104zm2.8-1.8v.4h-1v1.4h1.2v.4h-1.6v-4h1.7v.4h-1.2v1.3h.9v.1zm2.3-.9l-.4.1v-.1c0-.4-.102-.6-.5-.6-.4 0-.5.198-.5.6 0 .9 1.3 1 1.3 2.1 0 .6-.3 1-.9 1-.6 0-.9-.4-.9-1v-.2h.5v.2c0 .4.102.6.5.6s.5-.198.5-.6c0-.9-1.3-1-1.3-2.1 0-.6.3-1 .9-1 .5 0 .8.4.8 1zm.9-1v4h-.4v-4h.4zm2.2 1v.3h-.4v-.4c0-.398-.1-.6-.5-.6-.3 0-.5.2-.5.6v2.1c0 .4.1.6.5.6.3 0 .5-.2.5-.6V68h-.4v-.4h.9v1.2c0 .6-.3 1-.9 1-.6 0-.898-.4-.898-1v-2.1c0-.6.3-1 .898-1 .6 0 .8.4.8 1zm.9 3.1h-.4v-4h.6l.9 2.9v-2.9h.4v4h-.5l-1-3.3v3.3z"/></svg>