<svg xmlns="http://www.w3.org/2000/svg" height="120" viewBox="0 0 120 120" width="120"><path d="M88 105.3c0 5.5.4 10.7-9.8 10.7H41.6c-10.2 0-9.6-5.2-9.6-10.7V14.2C32 8.7 31.3 4 41.6 4h36.6C88.4 4 88 8.7 88 14.2v91.1z" fill="#545454"/><linearGradient id="a" y2="60" gradientUnits="userSpaceOnUse" x2="88.002" y1="60" x1="31.993"><stop stop-color="#fff" stop-opacity="0" offset="0"/><stop stop-color="#fff" offset="1"/></linearGradient><path opacity=".1" d="M88 105.3V14.2C88 8.7 88.4 4 78.2 4H67.6L32 104.8v.5c0 5.5-.6 10.7 9.6 10.7h36.6c10.2 0 9.8-5.2 9.8-10.7z" enable-background="new" fill="url(#a)"/><g><circle cy="13.5" cx="47.8" r="1.2" fill="#3F3F3F"/><circle cy="13.5" cx="47.8" r=".7" fill="#6D6D6D"/><circle cy="13.5" cx="47.8" r=".2" fill="#5B5B5B"/></g><path d="M60 7.9c.4 0 .7.3.7.7s-.3.7-.7.7-.7-.3-.7-.7.3-.7.7-.7z" fill="#3F3F3F"/><path d="M66.5 13.6c0 .2-.2.4-.4.4H53.9c-.2 0-.4-.2-.4-.4v-.2c0-.2.2-.4.4-.4h12.2c.2 0 .4.2.4.4v.2z" fill="#ddd"/><path d="M84.6 103.8c0 .5-.4.7-.8.7H36.2c-.5 0-.8-.4-.8-.7V21.3c0-.5.4-.7.8-.7h47.6c.5 0 .8.4.8.7v82.5z" fill="#D3D3D3"/><path d="M60 106.8c1.878 0 3.4 1.522 3.4 3.4s-1.522 3.4-3.4 3.4-3.4-1.52-3.4-3.4 1.522-3.4 3.4-3.4z" stroke="#444" stroke-miterlimit="10" stroke-width=".5" fill="none"/><path id="logo" d="M65 50.5l-10.7-3.4c-.5-.5-.8-1.6-.8-2.8s.6-2.2 1.1-2.8l5.3-3.1 5.2 3.1v9H65zm-15.8-5.9v12.3l2.9 1.8V48.5c-.5-.6-.9-1.6-.9-2.8s.4-2.3.9-2.8l-2.9 1.7zm5.3 6.4v8.9l5.3 3.1 5.3-3.1c1-.6 1-1.6 1-2.8s-.2-2.3-.8-2.8L54.5 51zm12.9-8.2V53c.5.6 1 1.6 1 2.8s-.3 2.3-.9 2.8l3.3-1.8V44.6l-3.4-1.8z" fill="#FF302C"/><path id="text" d="M41.2 68v1.8h-.4v-4h.4v1.8h1v-1.8h.4v4h-.4V68h-1zm3.6-1.3l-.4.1v-.1c0-.4-.1-.6-.5-.6s-.5.2-.5.6c0 .9 1.3 1 1.3 2.1 0 .6-.3 1-.9 1s-.9-.4-.9-1v-.2h.4v.2c0 .4.1.6.5.6s.5-.2.5-.6c0-.9-1.3-1-1.3-2.1 0-.6.3-1 .9-1s.9.4.9 1zm1.3.9h1.1v.4h-1.1v-.4zm3.4-1.9c.6 0 .9.4.9 1v2c0 .6-.3 1-.9 1h-1v-4h1zm0 3.7c.3 0 .5-.2.5-.6v-2.1c0-.4-.1-.602-.5-.602H49v3.2h.5v.102zm2.7-1.8v.4h-1v1.4h1.2v.4h-1.7v-4h1.7v.4h-1.2v1.3h1v.1zm1-1.9l.7 3.5.7-3.5h.4l-.8 4h-.7l-.8-4h.5zm3.5 1.9v.4h-1v1.4h1.2v.4h-1.7v-4h1.7v.4h-1.2v1.3h1v.1zm.6 2.2v-4h.4v3.6h1.1v.4h-1.5zm1.9-3.1c0-.6.3-1 .9-1s.9.4.9 1v2.1c0 .6-.3 1-.9 1s-.9-.4-.9-1v-2.1zm.5 2.1c0 .4.1.6.5.6.3 0 .5-.2.5-.6v-2.1c0-.4-.1-.6-.5-.6-.3 0-.5.2-.5.6v2.1zm2.7-3.1c.6 0 .9.4.9 1v.5c0 .6-.3 1-1 1H62v1.6h-.4v-4h.8v-.1zm-.1 2.1c.3 0 .5-.1.5-.5v-.5c0-.4-.1-.6-.5-.6h-.4v1.6h.4zm3.2-1.6c-.3 0-.5.2-.5.6v.2c0 .3.2.5.5.5h.4V67h.4v.4h.2v.4h-.2v1.4c0 .2 0 .3.1.5H66c0-.1 0-.2-.1-.3-.1.2-.3.4-.6.4-.5 0-.7-.3-.7-.9v-.4c0-.4.1-.7.5-.9-.3-.1-.5-.398-.5-.8v-.1c0-.6.3-1 1-1h.7v.4h-.8v.1zm0 1.7c-.3 0-.5.2-.5.6v.4c0 .3.1.6.5.6.2 0 .4-.1.4-.5v-1.1h-.4zm3.2-2.2c.6 0 .9.4.9 1v2c0 .6-.3 1-.9 1h-1v-4h1zm0 3.7c.3 0 .5-.2.5-.6v-2.1c0-.4-.1-.602-.5-.602h-.5v3.2h.5v.102zm2.8-1.8v.4h-1v1.4h1.2v.4h-1.6v-4h1.7v.4h-1.2v1.3h.9v.1zm2.3-.9l-.4.1v-.1c0-.4-.1-.6-.5-.6s-.5.2-.5.6c0 .9 1.3 1 1.3 2.1 0 .6-.3 1-.9 1s-.9-.4-.9-1v-.2h.5v.2c0 .4.1.6.5.6s.5-.2.5-.6c0-.9-1.3-1-1.3-2.1 0-.6.3-1 .9-1 .5 0 .8.4.8 1zm.9-1v4h-.4v-4h.4zm2.2 1v.3h-.4v-.4c0-.4-.1-.6-.5-.6-.3 0-.5.2-.5.6v2.1c0 .4.1.6.5.6.3 0 .5-.2.5-.6V68h-.4v-.4h.9v1.2c0 .6-.3 1-.9 1s-.9-.4-.9-1v-2.1c0-.6.3-1 .9-1 .6 0 .8.4.8 1zm.9 3.1h-.4v-4h.6l.9 2.9v-2.9h.4v4h-.5l-1-3.3v3.3z" fill="#FF302C"/><linearGradient id="b" y2="62.55" gradientUnits="userSpaceOnUse" x2="84.55" y1="62.55" x1="35.4"><stop stop-color="#fff" stop-opacity="0" offset="0"/><stop stop-color="#fff" offset="1"/></linearGradient><path id="reflection" opacity=".6" d="M83.8 20.6h-22L35.4 95.1v8.7c0 .4.3.7.8.7h47.6c.4 0 .8-.3.8-.7V21.3c0-.3-.3-.7-.8-.7z" enable-background="new" fill="url(#b)"/></svg>