<svg xmlns="http://www.w3.org/2000/svg" xmlns:xlink="http://www.w3.org/1999/xlink" width="64" height="64" viewBox="0 0 64 64"><path fill="#EAEAEA" d="M29.63 10.766c3.583 0 6.552 2.646 7.058 6.09l.383-.018c2.467 0 4.475 2.093 4.528 4.692.412-.23.885-.362 1.39-.362 1.58 0 2.86 1.282 2.86 2.86 0 1.578-1.613 3.31-3.19 3.31-13.376.042-22.262.175-35.59.09-1.794 0-3.436-.853-3.436-2.647 0-1.794 1.457-3.25 3.25-3.25.47 0 .913.1 1.315.277.73-1.206 2.05-2.013 3.562-2.013.594 0 1.16.126 1.672.352.286-1.83 1.87-3.235 3.78-3.235 1.508 0 2.813.875 3.437 2.144.556-.33 1.192-.54 1.872-.598-.014-.185-.022-.37-.022-.558-.003-3.937 3.192-7.132 7.13-7.132zm10.218 26.25c-2.645 0-4.834 1.953-5.207 4.494l-.282-.014c-1.817 0-3.3 1.544-3.34 3.462-.304-.17-.653-.267-1.026-.267-1.164 0-2.11.946-2.11 2.11s1.192 2.44 2.356 2.44c9.87.032 16.426.13 26.26.067 1.323 0 2.535-.63 2.535-1.953s-1.075-2.398-2.398-2.398c-.346 0-.673.073-.97.205-.537-.89-1.514-1.484-2.628-1.484-.438 0-.856.093-1.234.26-.21-1.352-1.38-2.388-2.788-2.388-1.113 0-2.076.646-2.537 1.58-.41-.24-.88-.398-1.38-.44l.015-.41c-.004-2.905-2.36-5.262-5.265-5.262z"/><path fill="#CE492A" d="M22.67 40.36c-2.234-2.234-5.792-2.3-7.947-.146-2.503 2.502-.37 6.11-2.03 7.424 1.483.04 2.41-2.71 2.41-2.71.696 3.27-3.71 4.384-3.71 4.384 7.29 3.568 10.868-.453 11.42-1.006 2.156-2.156 2.09-5.71-.143-7.947z"/><path fill="#DA7335" d="M22.552 40.77c-1.384-1.384-3.588-1.424-4.923-.09-1.55 1.55-.23 3.785-1.258 4.6.918.025 1.492-1.678 1.492-1.678.432 2.023-2.297 2.715-2.297 2.715 4.514 2.21 6.73-.28 7.074-.623 1.336-1.337 1.296-3.54-.088-4.924z"/><path fill="#DA9635" d="M22.332 41.39c-.872-.87-2.26-.895-3.102-.056-.977.98-.145 2.386-.792 2.898.58.016.94-1.06.94-1.06.272 1.276-1.447 1.712-1.447 1.712 2.845 1.393 4.242-.177 4.458-.394.84-.84.816-2.226-.056-3.1z"/><path fill="#F1C40F" d="M19.733 35.064c14.46-24.507 26.092-23.967 33.17-23.893.075 7.08.6 18.7-23.91 33.16-3.754-2.144-7.16-5.462-9.26-9.266z"/><path fill="#F06358" d="M19.733 35.064c.51-.862 1.015-1.69 1.517-2.492 2.288 4.265 5.994 7.933 10.24 10.244-.803.5-1.632 1.008-2.496 1.517-3.755-2.147-7.162-5.465-9.26-9.27z"/><path fill="#EE2924" d="M42.835 12.326c3.962-1.278 7.353-1.182 10.07-1.153.028 2.716.12 6.103-1.158 10.062-1.638-1.124-3.28-2.487-4.854-4.062-1.573-1.57-2.935-3.213-4.058-4.847z"/><path fill="#EFF2F7" d="M36.646 27.42c2.345 2.344 6.17 2.345 8.516 0 2.344-2.346 2.344-6.17 0-8.516-2.348-2.345-6.17-2.345-8.516 0-2.344 2.345-2.344 6.17 0 8.515z"/><path fill="#E84C3D" d="M37.686 26.38c1.77 1.774 4.664 1.773 6.438 0 1.77-1.772 1.77-4.664 0-6.437-1.773-1.772-4.666-1.773-6.44 0-1.772 1.773-1.772 4.665.002 6.438z"/><path fill="#EE2924" d="M25.03 27.535c-2.602-.71-11.21 5.875-13.345 8.512-1.157 1.43-.495 1.855.68.952 1.464-1.124 4.18-2.71 7.368-1.936 3.187.778 8.705-6.6 5.298-7.53zm11.36 11.358c.708 2.604-5.876 11.21-8.513 13.347-1.43 1.157-1.856.493-.953-.683 1.124-1.464 2.71-4.18 1.934-7.365-.777-3.19 6.6-8.706 7.53-5.3z"/><ellipse transform="matrix(-.707 -.707 .707 -.707 14.052 84.772)" fill="#EE2924" cx="24.577" cy="39.477" rx=".818" ry="8.665"/><path fill="#F06358" d="M45.425 23.696l-8.88.777c-.147-.484-.21-.985-.19-1.487l9-.786c.104.49.127.998.07 1.496zm-.486 1.574l-7.646.67c-.184-.236-.34-.488-.468-.75l8.44-.737c-.078.28-.19.553-.327.817zm.236-3.68l-8.752.766c.05-.273.123-.545.223-.808l8.17-.716c.144.244.263.497.36.758z"/><defs><path id="a" d="M52.904 11.173S40.124 47.375 8.75 48.25l12.625 9.625 34.25-11.25L60.5 16.25l-2.375-9-5.22 3.923z"/></defs><clipPath id="b"><use xlink:href="#a" overflow="visible"/></clipPath><g clip-path="url(#b)"><path fill="#C9A40A" d="M19.733 35.064c14.46-24.507 26.092-23.967 33.17-23.893.075 7.08.6 18.7-23.91 33.16-3.754-2.144-7.16-5.462-9.26-9.266zm9.454-13.18c10.086-11.1 18.256-10.77 23.717-10.71.06 5.46.38 13.622-10.723 23.704-4.81-3.735-9.258-8.184-12.993-12.995z"/><path fill="#CC2F27" d="M19.733 35.064c.51-.862 1.015-1.69 1.517-2.492 2.288 4.265 5.994 7.933 10.24 10.244-.803.5-1.632 1.008-2.496 1.517-3.755-2.147-7.162-5.465-9.26-9.27z"/><path fill="#BF1010" d="M42.835 12.326c3.962-1.278 7.353-1.182 10.07-1.153.028 2.716.12 6.103-1.158 10.062-1.638-1.124-3.28-2.487-4.854-4.062-1.573-1.57-2.935-3.213-4.058-4.847z"/><path fill="#CFD1D3" d="M36.646 27.42c2.345 2.344 6.17 2.345 8.516 0 2.344-2.346 2.344-6.17 0-8.516-2.348-2.345-6.17-2.345-8.516 0-2.344 2.345-2.344 6.17 0 8.515z"/><path fill="#CC2F27" d="M37.686 26.38c1.77 1.774 4.664 1.773 6.438 0 1.77-1.772 1.77-4.664 0-6.437-1.773-1.772-4.666-1.773-6.44 0-1.772 1.773-1.772 4.665.002 6.438z"/><path fill="#BF1010" d="M25.03 27.535c-2.602-.71-11.21 5.875-13.345 8.512-1.157 1.43-.495 1.855.68.952 1.464-1.124 4.18-2.71 7.368-1.936 3.187.778 8.705-6.6 5.298-7.53zm11.36 11.358c.708 2.604-5.876 11.21-8.513 13.347-1.43 1.157-1.856.493-.953-.683 1.124-1.464 2.71-4.18 1.934-7.365-.777-3.19 6.6-8.706 7.53-5.3z"/><ellipse transform="matrix(-.707 -.707 .707 -.707 14.052 84.772)" fill="#BF1010" cx="24.577" cy="39.477" rx=".818" ry="8.665"/><path fill="#DD5252" d="M45.425 23.696l-8.88.777c-.147-.484-.21-.985-.19-1.487l9-.786c.104.49.127.998.07 1.496zm-.486 1.574l-7.646.67c-.184-.236-.34-.488-.468-.75l8.44-.737c-.078.28-.19.553-.327.817zm.236-3.68l-8.752.766c.05-.273.123-.545.223-.808l8.17-.716c.144.244.263.497.36.758z"/></g></svg>