<svg xmlns="http://www.w3.org/2000/svg" xmlns:xlink="http://www.w3.org/1999/xlink" width="64" height="64" viewBox="0 0 64 64"><path fill="#EAEAEA" d="M29.63 10.766c3.583 0 6.552 2.646 7.058 6.091l.383-.019c2.466 0 4.474 2.093 4.527 4.692.412-.23.885-.362 1.391-.362 1.578 0 2.859 1.282 2.859 2.86 0 1.578-1.613 3.309-3.191 3.309-13.375.043-22.261.176-35.589.09-1.794 0-3.436-.852-3.436-2.646 0-1.795 1.457-3.251 3.251-3.251.468 0 .912.099 1.314.277.729-1.206 2.05-2.013 3.562-2.013.595 0 1.162.126 1.673.352.286-1.831 1.869-3.235 3.78-3.235 1.508 0 2.813.874 3.437 2.143.557-.329 1.193-.541 1.873-.598-.014-.185-.022-.369-.022-.558-.003-3.937 3.192-7.132 7.13-7.132zM39.848 37.016c-2.645 0-4.834 1.953-5.207 4.494l-.283-.014c-1.817 0-3.3 1.544-3.34 3.462-.304-.17-.653-.267-1.026-.267-1.164 0-2.109.945-2.109 2.109s1.191 2.441 2.355 2.441c9.869.031 16.426.13 26.26.066 1.323 0 2.535-.629 2.535-1.953 0-1.323-1.075-2.398-2.398-2.398-.346 0-.673.073-.97.205-.537-.891-1.514-1.485-2.628-1.485-.438 0-.856.093-1.234.261-.211-1.353-1.379-2.389-2.788-2.389-1.113 0-2.076.646-2.537 1.581-.41-.241-.879-.399-1.381-.44l.016-.412c-.004-2.904-2.36-5.261-5.265-5.261z"/><path fill="#CE492A" d="M22.67 40.359c-2.234-2.233-5.792-2.299-7.947-.145-2.503 2.502-.371 6.109-2.029 7.424 1.482.041 2.409-2.709 2.409-2.709.696 3.269-3.709 4.383-3.709 4.383 7.288 3.568 10.867-.453 11.42-1.006 2.155-2.156 2.09-5.711-.144-7.947z"/><path fill="#DA7335" d="M22.552 40.77c-1.384-1.384-3.588-1.424-4.923-.09-1.55 1.551-.229 3.785-1.257 4.6.918.025 1.492-1.678 1.492-1.678.432 2.023-2.297 2.715-2.297 2.715 4.514 2.211 6.731-.28 7.074-.623 1.335-1.337 1.295-3.54-.089-4.924z"/><path fill="#DA9635" d="M22.332 41.391c-.872-.871-2.26-.896-3.102-.057-.977.979-.145 2.386-.792 2.898.579.016.94-1.059.94-1.059.272 1.275-1.447 1.711-1.447 1.711 2.844 1.393 4.241-.177 4.457-.394.841-.84.816-2.226-.056-3.099z"/><path fill="#F1C40F" d="M19.733 35.064c14.46-24.507 26.092-23.967 33.171-23.893.074 7.079.598 18.699-23.91 33.16-3.755-2.145-7.162-5.463-9.261-9.267z"/><path fill="#F06358" d="M19.733 35.064c.509-.862 1.015-1.689 1.517-2.492 2.288 4.265 5.994 7.933 10.24 10.244-.803.5-1.632 1.008-2.496 1.517-3.755-2.147-7.162-5.465-9.261-9.269z"/><path fill="#EE2924" d="M42.835 12.326c3.962-1.278 7.353-1.182 10.069-1.153.029 2.716.121 6.103-1.157 10.062-1.638-1.124-3.281-2.487-4.854-4.062-1.573-1.571-2.935-3.213-4.058-4.847z"/><path fill="#EFF2F7" d="M36.646 27.419c2.345 2.345 6.17 2.346 8.516.001 2.344-2.346 2.344-6.171-.001-8.516-2.347-2.345-6.17-2.345-8.515 0-2.344 2.345-2.344 6.17 0 8.515z"/><path fill="#E84C3D" d="M37.686 26.381c1.771 1.773 4.664 1.772 6.438 0 1.771-1.773 1.771-4.665-.001-6.438-1.772-1.772-4.665-1.773-6.438 0-1.773 1.773-1.773 4.665.001 6.438z"/><path fill="#EE2924" d="M25.031 27.535c-2.603-.71-11.211 5.875-13.346 8.512-1.157 1.43-.495 1.855.681.952 1.463-1.123 4.18-2.71 7.367-1.935 3.187.778 8.705-6.599 5.298-7.529zm11.358 11.358c.709 2.604-5.875 11.211-8.512 13.347-1.429 1.157-1.856.493-.953-.683 1.124-1.464 2.71-4.18 1.934-7.365-.777-3.189 6.601-8.706 7.531-5.299z"/><ellipse transform="matrix(-.707 -.707 .707 -.707 14.052 84.772)" fill="#EE2924" cx="24.577" cy="39.477" rx=".818" ry="8.665"/><path fill="#F06358" d="M45.425 23.696l-8.881.777c-.146-.484-.208-.985-.188-1.487l8.998-.786c.105.491.128.998.071 1.496zm-.486 1.574l-7.645.669c-.184-.235-.339-.487-.468-.748l8.44-.738c-.078.279-.189.553-.327.817zm.237-3.68l-8.752.766c.049-.273.123-.545.223-.808l8.17-.716c.144.244.263.497.359.758z"/><defs><path id="a" d="M52.904 11.173s-12.779 36.202-44.154 37.077l12.625 9.625 34.25-11.25 4.875-30.375-2.375-9-5.221 3.923z"/></defs><clipPath id="b"><use xlink:href="#a" overflow="visible"/></clipPath><g clip-path="url(#b)"><path fill="#C9A40A" d="M19.733 35.064c14.46-24.507 26.092-23.967 33.171-23.893.074 7.079.598 18.699-23.91 33.16-3.755-2.145-7.162-5.463-9.261-9.267zm9.454-13.181c10.086-11.1 18.256-10.769 23.717-10.71.06 5.46.379 13.623-10.723 23.705-4.81-3.735-9.259-8.184-12.994-12.995z"/><path fill="#CC2F27" d="M19.733 35.064c.509-.862 1.015-1.689 1.517-2.492 2.288 4.265 5.994 7.933 10.24 10.244-.803.5-1.632 1.008-2.496 1.517-3.755-2.147-7.162-5.465-9.261-9.269z"/><path fill="#BF1010" d="M42.835 12.326c3.962-1.278 7.353-1.182 10.069-1.153.029 2.716.121 6.103-1.157 10.062-1.638-1.124-3.281-2.487-4.854-4.062-1.573-1.571-2.935-3.213-4.058-4.847z"/><path fill="#CFD1D3" d="M36.646 27.419c2.345 2.345 6.17 2.346 8.516.001 2.344-2.346 2.344-6.171-.001-8.516-2.347-2.345-6.17-2.345-8.515 0-2.344 2.345-2.344 6.17 0 8.515z"/><path fill="#CC2F27" d="M37.686 26.381c1.771 1.773 4.664 1.772 6.438 0 1.771-1.773 1.771-4.665-.001-6.438-1.772-1.772-4.665-1.773-6.438 0-1.773 1.773-1.773 4.665.001 6.438z"/><path fill="#BF1010" d="M25.031 27.535c-2.603-.71-11.211 5.875-13.346 8.512-1.157 1.43-.495 1.855.681.952 1.463-1.123 4.18-2.71 7.367-1.935 3.187.778 8.705-6.599 5.298-7.529zm11.358 11.358c.709 2.604-5.875 11.211-8.512 13.347-1.429 1.157-1.856.493-.953-.683 1.124-1.464 2.71-4.18 1.934-7.365-.777-3.189 6.601-8.706 7.531-5.299z"/><ellipse transform="matrix(-.707 -.707 .707 -.707 14.052 84.772)" fill="#BF1010" cx="24.577" cy="39.477" rx=".818" ry="8.665"/><path fill="#DD5252" d="M45.425 23.696l-8.881.777c-.146-.484-.208-.985-.188-1.487l8.998-.786c.105.491.128.998.071 1.496zm-.486 1.574l-7.645.669c-.184-.235-.339-.487-.468-.748l8.44-.738c-.078.279-.189.553-.327.817zm.237-3.68l-8.752.766c.049-.273.123-.545.223-.808l8.17-.716c.144.244.263.497.359.758z"/></g></svg>