<svg xmlns="http://www.w3.org/2000/svg" xmlns:xlink="http://www.w3.org/1999/xlink" width="64" height="64" viewBox="0 0 64 64"><circle fill="#36445B" cx="32" cy="31.834" r="26.667"/><path fill="#DECBB1" d="M25.012 40.083s6.896 5.157 8.248 4.36c1.35-.8 1.904-2.596 1.904-2.596l-9.738-3.815-.414 2.05z"/><path fill="#F6E0C2" d="M39.512 29.82c-.568.083-5.146.014-5.3.165-.15.15-2.236 3.313-2.236 3.313s-7.327 6.7-8.333 7.837c-.605.686.38 2.645 1.612 1.573 1.235-1.067 3.034-2.713 3.354-3.032.32-.32.624-.02.333.23-.294.253-2.6 2.16-3.418 3.097-.82.935.86 2.63 1.715 1.83.854-.798 3.666-3.41 3.86-3.54.196-.133.463.078.267.25-.195.172-2.805 2.426-3.433 3.206-.628.78.764 2.204 1.864 1.248.743-.645 3.022-2.99 3.208-3.15.184-.164.467.092.21.31-.196.168-1.782 1.688-2.355 2.366-.57.682.462 2.02 1.512 1.115 1.05-.91 10.035-8.564 10.6-10.495.142-.49.972-.975.972-.975l-3.094-6.05c-.002 0-.77.62-1.338.7z"/><path fill="#DECBB1" d="M40.46 38.294c-1.16-.458-1.92 1.01-1.587 1.64.256.484.77.972 1.434 1.15.666.182 1.586-.978 1.357-1.65-.178-.526-.72-.948-1.203-1.14zm-4.196 3.916c-1.16-.46-1.918 1.01-1.586 1.64.256.484 1.04 1.192 1.705 1.37.666.18 1.586-.978 1.36-1.647-.182-.53-.995-1.17-1.48-1.363zm-1.96 1.978c-.956-.377-1.583.832-1.31 1.353.213.4.86.984 1.408 1.133s1.307-.807 1.117-1.36c-.147-.435-.815-.965-1.217-1.125zm4.04-4.018c-1.16-.456-1.922 1.01-1.59 1.64.26.484 1.117 1.29 1.78 1.468.667.18 1.587-.98 1.358-1.65-.18-.524-1.064-1.267-1.548-1.458zm-15.69-10.842l1.4.838s3.435-1.063 6.806-.83c2.832.193 3.353.65 3.353.65s1.584.977 2.316 2.256c.243.426.095 1.527.493 2.45.615 1.425.666 2.433-.238 2.823-1.246.54-3.094-1.246-2.885-3.293-1.417-.205-1.897-1.04-1.925-.925-2.097 1.987-7.258 6.755-7.258 6.755-2.613-2.035-4.288-4.447-4.288-4.447l-.973-.616 3.198-5.662z"/><path d="M39.512 29.82c-.568.083-5.146.014-5.3.165-.15.15-2.236 3.313-2.236 3.313s-7.327 6.7-8.333 7.837c-.605.686.38 2.645 1.612 1.573 1.235-1.067 3.034-2.713 3.354-3.032.32-.32.624-.02.333.23-.294.253-2.6 2.16-3.418 3.097-.82.935.86 2.63 1.715 1.83.854-.798 3.666-3.41 3.86-3.54.196-.133.463.078.267.25-.195.172-2.805 2.426-3.433 3.206-.628.78.764 2.204 1.864 1.248.743-.645 3.022-2.99 3.208-3.15.184-.164.467.092.21.31-.196.168-1.782 1.688-2.355 2.366-.57.682.462 2.02 1.512 1.115 1.05-.91 10.035-8.564 10.6-10.495.142-.49.972-.975.972-.975l-3.094-6.05c-.002 0-.77.62-1.338.7zm-16.857-.492l1.398.838s3.436-1.063 6.807-.83c2.832.193 3.353.65 3.353.65s1.584.977 2.316 2.256c.243.426.095 1.527.493 2.45.615 1.425.666 2.433-.238 2.823-1.246.54-3.094-1.246-2.885-3.293-1.417-.205-1.897-1.04-1.925-.925-2.097 1.987-7.258 6.755-7.258 6.755-2.613-2.035-4.288-4.447-4.288-4.447l-.973-.616 3.198-5.662z" fill="none"/><defs><path id="a" d="M39.512 29.82c-.568.083-5.146.014-5.3.165-.15.15-2.236 3.313-2.236 3.313s-7.327 6.7-8.333 7.837c-.605.686.38 2.645 1.612 1.573 1.235-1.067 3.034-2.713 3.354-3.032.32-.32.624-.02.333.23-.294.253-2.6 2.16-3.418 3.097-.82.935.86 2.63 1.715 1.83.854-.798 3.666-3.41 3.86-3.54.196-.133.463.078.267.25-.195.172-2.805 2.426-3.433 3.206-.628.78.764 2.204 1.864 1.248.743-.645 3.022-2.99 3.208-3.15.184-.164.467.092.21.31-.196.168-1.782 1.688-2.355 2.366-.57.682.462 2.02 1.512 1.115 1.05-.91 10.035-8.564 10.6-10.495.142-.49.972-.975.972-.975l-3.094-6.05c-.002 0-.77.62-1.338.7z"/></defs><clipPath id="b"><use xlink:href="#a" overflow="visible"/></clipPath><path opacity=".1" clip-path="url(#b)" fill="#231F20" enable-background="new" d="M39.455 29.047l4.23 6.94 1.503-.933-4.035-6.852-1.698.845z"/><defs><path id="c" d="M22.655 29.328l1.398.838s3.436-1.063 6.807-.83c2.832.193 3.353.65 3.353.65s1.584.977 2.316 2.256c.243.426.095 1.527.493 2.45.615 1.425.666 2.433-.238 2.823-1.246.54-3.094-1.246-2.885-3.293-1.417-.205-1.897-1.04-1.925-.925-2.097 1.987-7.258 6.755-7.258 6.755-2.613-2.035-4.288-4.447-4.288-4.447l-.973-.616 3.198-5.662z"/></defs><clipPath id="d"><use xlink:href="#c" overflow="visible"/></clipPath><path opacity=".1" clip-path="url(#d)" fill="#231F20" enable-background="new" d="M24.415 29.275l-4.03 7.058-1.532-.89 3.84-6.963 1.722.795z"/><path fill="#fff" d="M24.173 29.12l-4.028 7.058-1.535-.892 3.84-6.96 1.723.795z"/><path fill="#287572" d="M18.61 35.8L3.572 29.12V17.88l19.105 10.046L18.61 35.8z"/><defs><path id="e" d="M24.173 29.12l-4.028 7.058-1.535-.892 3.84-6.96z"/></defs><clipPath id="f"><use xlink:href="#e" overflow="visible"/></clipPath><path opacity=".1" clip-path="url(#f)" fill="#231F20" enable-background="new" d="M18.922 35.885l-15.038-6.68v-11.24l19.104 10.05-4.066 7.87z"/><g fill="#fff"><circle opacity=".1" enable-background="new" cx="17.332" cy="33.297" r=".812"/><circle opacity=".1" enable-background="new" cx="14.949" cy="32.184" r=".812"/></g><path fill="#fff" d="M39.834 28.876l4.227 6.942 1.51-.935-4.036-6.85-1.7.843z"/><path fill="#262625" d="M45.584 35.395l14.844-7.102-.318-11.236L41.297 27.64l4.287 7.755z"/><g fill="#fff"><path opacity=".1" enable-background="new" d="M45.98 32.88c.014.448.385.802.836.788.445-.014.8-.387.787-.834-.017-.45-.388-.8-.836-.788-.447.012-.8.387-.787.835z"/><circle opacity=".1" enable-background="new" cx="49.141" cy="31.677" r=".812"/></g><defs><path id="g" d="M39.77 28.93l4.03 7.058 1.768-1.104-3.87-6.932z"/></defs><clipPath id="h"><use xlink:href="#g" overflow="visible"/></clipPath><path opacity=".1" clip-path="url(#h)" fill="#231F20" enable-background="new" d="M45.234 35.588l14.912-6.623v-11.24L41.04 27.772l4.194 7.816z"/><path fill="#fff" d="M0 0v64h64V0H0zm32 58.5c-14.728 0-26.667-11.937-26.667-26.666C5.333 17.106 17.273 5.167 32 5.167c14.73 0 26.667 11.94 26.667 26.667C58.667 46.564 46.73 58.5 32 58.5z"/></svg>