<svg xmlns="http://www.w3.org/2000/svg" xmlns:xlink="http://www.w3.org/1999/xlink" width="64" height="64" viewBox="0 0 64 64"><path d="M9.973 42.445c.492 1.035 1.056 2.03 1.684 2.98l33.768-33.77c-.95-.626-1.944-1.19-2.98-1.683L9.974 42.445zm43.193-22.528c-.485-.847-1.015-1.666-1.594-2.445l-34.1 34.1c.78.58 1.598 1.108 2.444 1.593l33.25-33.248zm-5.61-6.68l-34.32 34.32c.686.824 1.425 1.6 2.21 2.328l34.44-34.44c-.728-.785-1.504-1.524-2.33-2.21zM39.8 8.906c-2.45-.827-5.07-1.282-7.8-1.282C18.538 7.625 7.625 18.538 7.625 32c0 2.73.455 5.35 1.282 7.8L39.8 8.906zM22.39 54.404c2.95 1.267 6.197 1.97 9.61 1.97 13.462 0 24.375-10.912 24.375-24.374 0-3.414-.704-6.662-1.97-9.61L22.39 54.403z" fill="#D1D1D1"/><path fill="#3F9F91" d="M31.72 22.237L28 19.875l1.74.473.16-4.175-2.217.63.554-2.047H24.16l.553 2.048-2.207-.63.158 4.174 1.732-.473-3.7 2.362 1.732 5.908 3.75.078h.03l3.77-.078zm-2.79 15.63c0-2.24.653-3.32 1.75-6.584h-8.66c1.098 3.264 1.748 4.344 1.748 6.584 0 4.555-2.616 9.74-6.42 11.37h18.006c-3.805-1.63-6.423-6.815-6.423-11.37z"/><path fill="#2E7F72" d="M31.108 31.283h1.732v-3.265H19.78v3.265h10.902zm4.246 17.955H16.516v4.9h19.588v-4.9z"/><defs><path id="a" d="M26.208 13.124H40.39V54.75H26.208z"/></defs><clipPath id="b"><use xlink:href="#a" overflow="visible"/></clipPath><g clip-path="url(#b)"><path fill="#2E7F72" d="M31.72 22.237L28 19.875l1.74.473.16-4.175-2.217.63.554-2.047H24.16l.553 2.048-2.207-.63.158 4.174 1.732-.473-3.7 2.362 1.732 5.908 3.75.078h.03l3.77-.078zm-2.79 15.63c0-2.24.653-3.32 1.75-6.584h-8.66c1.098 3.264 1.748 4.344 1.748 6.584 0 4.555-2.616 9.74-6.42 11.37h18.006c-3.805-1.63-6.423-6.815-6.423-11.37z"/><path fill="#216356" d="M31.108 31.283h1.732v-3.265H19.78v3.265h10.902zm4.246 17.955H16.516v4.9h19.588v-4.9z"/></g><path fill="#C7932F" d="M34.743 24.212v-.456c.915-.268 1.58-1.115 1.58-2.118 0-1.22-.985-2.21-2.206-2.21-1.22 0-2.21.99-2.21 2.21 0 1.003.667 1.85 1.585 2.118v.456c-2.338.12-6.072 3.616-5.037 4.587 1.035.968 1.52 3.622 1.52 3.622h8.282s.484-2.654 1.518-3.623c1.037-.972-2.552-4.46-5.032-4.588zm1.816 17.084c0-2.086.606-3.092 1.627-6.132h-8.063c1.023 3.04 1.63 4.046 1.63 6.132 0 4.24-2.437 9.065-5.978 10.586h16.762c-3.543-1.52-5.98-6.346-5.98-10.586z"/><path fill="#A64429" d="M38.585 35.292h1.61v-3.04H28.04v3.04h10.147zm3.952 16.59H25v4.558h18.236v-4.558z"/><defs><path id="c" d="M34.022 18.45h15.103v40.175H34.022z"/></defs><clipPath id="d"><use xlink:href="#c" overflow="visible"/></clipPath><g clip-path="url(#d)"><path fill="#AF761B" d="M34.743 24.212v-.456c.915-.268 1.58-1.115 1.58-2.118 0-1.22-.985-2.21-2.206-2.21-1.22 0-2.21.99-2.21 2.21 0 1.003.667 1.85 1.585 2.118v.456c-2.338.12-6.072 3.616-5.037 4.587 1.035.968 1.52 3.622 1.52 3.622h8.282s.484-2.654 1.518-3.623c1.037-.972-2.552-4.46-5.032-4.588zm1.816 17.084c0-2.086.606-3.092 1.627-6.132h-8.063c1.023 3.04 1.63 4.046 1.63 6.132 0 4.24-2.437 9.065-5.978 10.586h16.762c-3.543-1.52-5.98-6.346-5.98-10.586z"/><path fill="#6D2013" d="M38.585 35.292h1.61v-3.04H28.04v3.04h10.147zm3.952 16.59H25v4.558h18.236v-4.558z"/></g><path fill="#656565" d="M20.264 36.314h4.566l1.383-4.962h-2.36l-.566 2.607H21.31l.346-2.608h-2.78l.345 2.607h-1.98l-.565-2.608h-2.36l1.387 4.962z"/><path fill="#888" d="M22.443 41.75c0-1.862.542-2.76 1.453-5.473h-7.198c.914 2.714 1.455 3.61 1.455 5.473 0 3.785-2.176 8.093-5.336 9.45h14.965c-3.165-1.357-5.34-5.665-5.34-9.45z"/><path fill="#656565" d="M27.78 51.2H12.126v4.07h16.28V51.2z"/><defs><path id="e" d="M20.434 30.85H34V59H20.434z"/></defs><clipPath id="f"><use xlink:href="#e" overflow="visible"/></clipPath><g clip-path="url(#f)"><path fill="#424242" d="M20.264 36.314h4.566l1.383-4.962h-2.36l-.566 2.607H21.31l.346-2.608h-2.78l.345 2.607h-1.98l-.565-2.608h-2.36l1.387 4.962z"/><path fill="#656565" d="M22.443 41.75c0-1.862.542-2.76 1.453-5.473h-7.198c.914 2.714 1.455 3.61 1.455 5.473 0 3.785-2.176 8.093-5.336 9.45h14.965c-3.165-1.357-5.34-5.665-5.34-9.45z"/><path fill="#424242" d="M27.78 51.2H12.126v4.07h16.28V51.2z"/></g><path fill="#ccc" d="M32.504 42.2h-.037.037zm-6.13 0h-.036.037z"/><path fill="#E74C3C" d="M29.96 34.03c.233-.173.384-.448.384-.76 0-.524-.424-.95-.95-.95-.52 0-.946.426-.946.95 0 .312.152.587.385.76-.31.384-1.062 1.146-1.54 1.99l1.525 1.53-.42.417-1.374-1.375c-.082.22-.145.578-.157.795-.1 1.503.91 2.723.91 2.723h3.237s1.008-1.22.91-2.723c-.08-1.276-1.51-2.79-1.965-3.357zm1.112 12.386c0-1.436.42-2.126 1.12-4.216H26.65c.703 2.09 1.12 2.78 1.12 4.216 0 2.915-1.676 6.234-4.11 7.28h11.526c-2.436-1.046-4.112-4.365-4.112-7.28z"/><path fill="#B5292A" d="M32.467 42.2h1.108v-2.09h-8.36v2.09h6.978zm2.718 11.495h-12.06v3.135h12.54v-3.135z"/><defs><path id="g" d="M29.395 31.75h8.36v26.125h-8.36z"/></defs><clipPath id="h"><use xlink:href="#g" overflow="visible"/></clipPath><g clip-path="url(#h)"><path fill="#D63C34" d="M29.96 34.03c.233-.173.384-.448.384-.76 0-.524-.424-.95-.95-.95-.52 0-.946.426-.946.95 0 .312.152.587.385.76-.31.384-1.062 1.146-1.54 1.99l1.525 1.53-.42.417-1.374-1.375c-.082.22-.145.578-.157.795-.1 1.503.91 2.723.91 2.723h3.237s1.008-1.22.91-2.723c-.08-1.276-1.51-2.79-1.965-3.357zm1.112 12.386c0-1.436.42-2.126 1.12-4.216H26.65c.703 2.09 1.12 2.78 1.12 4.216 0 2.915-1.676 6.234-4.11 7.28h11.526c-2.436-1.046-4.112-4.365-4.112-7.28z"/><path fill="#9B1E24" d="M32.467 42.2h1.108v-2.09h-8.36v2.09h6.978zm2.718 11.495h-12.06v3.135h12.54v-3.135z"/></g><path fill="#44556D" d="M39.074 33.19l.345 1.78-5.31 6.026.226 1.516 1.86 1.554s.188-.075 1.516-1.174c1.325-1.1 4.092-1.403 4.092-1.403l-5.724 7.086 2.24 3.174h-5.066v4.83h14.492v-4.83h-2.46c9.973-14.438-6.212-18.56-6.212-18.56z"/><defs><path id="i" d="M38.898 33.213s10.51 5.303 2.408 14.46v8.907h9.66l-.603-23.75-11.465.383z"/></defs><clipPath id="j"><use xlink:href="#i" overflow="visible"/></clipPath><path clip-path="url(#j)" fill="#36445B" d="M39.074 33.19l.345 1.78-5.31 6.026.226 1.516 1.86 1.554s.188-.075 1.516-1.174c1.325-1.1 4.092-1.403 4.092-1.403l-5.724 7.086 2.24 3.174h-5.066v4.83h14.492v-4.83h-2.46c9.973-14.438-6.212-18.56-6.212-18.56z"/><path fill="#fff" d="M0 0v64h64V0H0zm32 56.375C18.538 56.375 7.625 45.462 7.625 32S18.538 7.625 32 7.625 56.375 18.538 56.375 32 45.462 56.375 32 56.375z"/><path fill="#F9C82E" d="M15.567 46.33c0-.937.272-1.388.73-2.753h-3.62c.46 1.365.73 1.816.73 2.754 0 1.905-1.094 4.074-2.686 4.757h7.53c-1.588-.683-2.683-2.852-2.683-4.756z"/><path fill="#DCA700" d="M16.48 43.577h.722v-1.365H11.74v1.365h4.56zm1.773 7.51h-7.878v2.048h8.192v-2.048z"/><path fill="#F9C82E" d="M13.51 42.225h1.924c.346-.28.568-.71.568-1.19 0-.843-.686-1.528-1.53-1.528s-1.53.686-1.53 1.53c0 .478.222.905.568 1.188z"/><defs><path id="k" d="M14.47 38.798h4.78V54.5h-4.78z"/></defs><clipPath id="l"><use xlink:href="#k" overflow="visible"/></clipPath><g clip-path="url(#l)"><path fill="#DCA700" d="M15.567 46.33c0-.937.272-1.388.73-2.753h-3.62c.46 1.365.73 1.816.73 2.754 0 1.905-1.094 4.074-2.686 4.757h7.53c-1.588-.683-2.683-2.852-2.683-4.756z"/><path fill="#BF8E04" d="M16.48 43.577h.722v-1.365H11.74v1.365h4.56zm1.773 7.51h-7.878v2.048h8.192v-2.048z"/><path fill="#DCA700" d="M13.51 42.225h1.924c.346-.28.568-.71.568-1.19 0-.843-.686-1.528-1.53-1.528s-1.53.686-1.53 1.53c0 .478.222.905.568 1.188z"/></g></svg>