<svg xmlns="http://www.w3.org/2000/svg" height="120" viewBox="0 0 120 120" width="120"><path d="M98.5 110.8c0 4-2.7 7.2-6.5 7.2H28.6c-3.9 0-7.1-3.2-7.1-7.2V10.2c0-4 3.2-7.2 7.1-7.2H92c3.9 0 6.5 3.2 6.5 7.2v100.6z" fill="#565656"/><linearGradient id="a" y2="60.45" gradientUnits="userSpaceOnUse" x2="98.484" y1="60.45" x1="27.5"><stop stop-color="#fff" stop-opacity="0" offset="0"/><stop stop-color="#fff" offset="1"/></linearGradient><path opacity=".1" d="M92 3H80.3L27.5 117.9h.2c3.4 0 44.6-.2 65.7-.1 3-.7 5-3.6 5-7V10.2c.1-4-2.5-7.2-6.4-7.2z" enable-background="new" fill="url(#a)"/><path d="M62.5 112.5c0 1.1-.9 2-2 2h-1c-1.1 0-2-.9-2-2v-1c0-1.1.9-2 2-2h1c1.1 0 2 .9 2 2v1z" stroke="#444344" stroke-miterlimit="10" stroke-width=".5" fill="none"/><circle cy="8.5" stroke="#333" cx="60" stroke-miterlimit="10" stroke-width=".5" fill="#808080"/><path d="M94.5 15v88.8c0 .8 0 2.3-1 2.3H28.3c-1 0-2.8-1.5-2.8-2.3V15c0-.8 1.8-1 2.8-1h65.2c1 0 1 .2 1 1z" fill="#D3D3D3"/><path d="M66 46.8l-13-4.1c-.6-.6-1-1.9-1-3.4 0-1.4.7-2.7 1.3-3.4l6.4-3.8L66 36v10.8zm-19-7.2v14.8l3.5 2.1V44.3c-.6-.7-1-2-1-3.4 0-1.5.5-2.7 1.1-3.4L47 39.6zm6.3 7.7v10.8l6.4 3.8 6.4-3.8c1.2-.7 1.2-1.9 1.2-3.4s-.3-2.7-1-3.3l-13-4.1zM69 37.4v12.3c.6.7 1.2 2 1.2 3.4 0 1.5-.4 2.7-1 3.4l3.9-2.1V39.6L69 37.4z" fill="#FF302C"/><path d="M37.2 67.9v2.2h-.5v-4.9h.5v2.1h1.2v-2.2h.5V70h-.5v-2.2l-1.2.1zm4.4-1.5v.1h-.5v-.2c0-.5-.2-.7-.6-.7s-.6.2-.6.7c0 1.1 1.6 1.2 1.6 2.6 0 .8-.3 1.2-1.1 1.2s-1.1-.5-1.1-1.2v-.3h.5v.3c0 .5.2.7.6.7s.6-.2.6-.7c0-1.1-1.6-1.2-1.6-2.6 0-.8.3-1.2 1.1-1.2.8.1 1.1.6 1.1 1.3zm1.6 1h1.3v.5h-1.3v-.5zm4-2.2c.8 0 1.1.5 1.1 1.2v2.4c0 .8-.3 1.2-1.1 1.2H46v-4.9h1.2v.1zm0 4.4c.4 0 .6-.2.6-.7v-2.5c0-.5-.2-.7-.6-.7h-.6v3.9h.6zm3.4-2.2v.5h-1.2v1.7h1.5v.5h-2v-4.9h2v.5h-1.5v1.6h1.2v.1zm1.2-2.2l.8 4.2.8-4.2h.5l-.9 4.9h-.8l-.9-4.9h.5zm4.2 2.2v.5h-1.2v1.7h1.4v.5h-2v-4.9h2v.5h-1.4v1.6H56v.1zm.8 2.7v-4.9h.5v4.4h1.4v.5h-1.9zm2.3-3.7c0-.8.3-1.2 1.1-1.2s1.1.5 1.1 1.2v2.5c0 .8-.3 1.2-1.1 1.2s-1.1-.5-1.1-1.2v-2.5zm.5 2.6c0 .5.2.7.6.7.4 0 .6-.2.6-.7v-2.6c0-.5-.2-.7-.6-.7s-.6.3-.6.7V69zm3.3-3.8c.8 0 1.1.5 1.1 1.2v.6c0 .8-.3 1.2-1.2 1.2h-.5v1.9h-.5v-4.9h1.1zm-.1 2.5c.4 0 .6-.2.6-.6v-.6c0-.5-.2-.7-.6-.7h-.5v2h.5v-.1zm3.9-2c-.4 0-.6.2-.6.7v.2c0 .4.2.6.6.6h.5v-.5h.5v.5h.2v.5h-.2v1.7c0 .2 0 .4.1.6h-.5c-.1-.1-.1-.2-.1-.4-.1.302-.4.5-.8.5-.6 0-.9-.398-.9-1.1v-.5c0-.5.2-.9.6-1-.4-.1-.6-.5-.6-1v-.1c0-.8.3-1.2 1.2-1.2h.8v.5h-.8zm0 2.1c-.4 0-.6.3-.6.8v.4c0 .4.2.7.6.7.3 0 .5-.2.5-.6v-1.3h-.5zm3.9-2.6c.8 0 1.1.5 1.1 1.2v2.4c0 .8-.3 1.2-1.1 1.2h-1.2v-4.9h1.2v.1zm0 4.4c.4 0 .6-.2.6-.7v-2.5c0-.5-.2-.7-.6-.7H70v3.9h.6zm3.3-2.2v.5h-1.2v1.7h1.5v.5h-2v-4.9h2v.5h-1.4v1.6h1.1v.1zm2.9-1v.1h-.5v-.2c0-.5-.2-.7-.6-.7s-.6.2-.6.7c0 1.1 1.6 1.2 1.6 2.6 0 .8-.3 1.2-1.1 1.2s-1.1-.5-1.1-1.2v-.3h.6v.3c0 .5.2.7.6.7.4 0 .6-.2.6-.7 0-1.1-1.6-1.2-1.6-2.6 0-.8.3-1.2 1.1-1.2.6.1 1 .6 1 1.3zm1-1.2v4.9h-.5v-4.9h.5zm2.7 1.2v.4H80v-.5c0-.5-.2-.7-.6-.7s-.6.3-.6.7v2.6c0 .5.2.7.6.7.4 0 .6-.3.6-.7V68h-.5v-.5h1V69c0 .8-.3 1.2-1.1 1.2s-1.1-.5-1.1-1.2v-2.5c0-.8.3-1.2 1.1-1.2.8-.1 1.1.4 1.1 1.1zm1 3.7H81v-4.9h.7l1.1 3.5v-3.5h.5v4.9h-.6l-1.2-3.9v3.9z" fill="#FF302C"/><linearGradient id="b" y2="60.05" gradientUnits="userSpaceOnUse" x2="94.6" y1="60.05" x1="33"><stop stop-color="#fff" stop-opacity="0" offset="0"/><stop stop-color="#fff" offset="1"/></linearGradient><path opacity=".6" d="M93.5 14H75.3L33 106.1h60.6c1 0 1-1.5 1-2.3V15c-.1-.8-.1-1-1.1-1z" enable-background="new" fill="url(#b)"/></svg>