<svg xmlns="http://www.w3.org/2000/svg" width="120" height="120" viewBox="0 0 120 120"><path fill="none" stroke="#231F20" stroke-width=".25" stroke-miterlimit="10" d="M98.5 110.8c0 4-2.7 7.2-6.5 7.2H28.6c-3.9 0-7.1-3.2-7.1-7.2V10.2c0-4 3.2-7.2 7.1-7.2H92c3.9 0 6.5 3.2 6.5 7.2v100.6z"/><path fill="none" stroke="#231F20" stroke-width=".25" stroke-miterlimit="10" d="M62.5 112.5c0 1.1-.9 2-2 2h-1c-1.1 0-2-.9-2-2v-1c0-1.1.9-2 2-2h1c1.1 0 2 .9 2 2v1z"/><circle fill="none" stroke="#231F20" stroke-width=".25" stroke-miterlimit="10" cx="60" cy="8.781" r=".469"/><path fill="none" stroke="#231F20" stroke-width=".25" stroke-miterlimit="10" d="M94.5 15v88.8c0 .8 0 2.3-1 2.3H28.3c-1 0-2.8-1.5-2.8-2.3V15c0-.8 1.8-1 2.8-1h65.2c1 0 1 .2 1 1z"/><path fill="none" stroke="#231F20" stroke-width=".25" stroke-miterlimit="10" d="M66 46.8l-13-4.1c-.6-.6-1-1.9-1-3.4 0-1.4.7-2.7 1.3-3.4l6.4-3.8L66 36v10.8zm-19-7.2v14.8l3.5 2.1V44.3c-.6-.7-1-2-1-3.4 0-1.5.5-2.7 1.1-3.4L47 39.6zm6.3 7.7v10.8l6.4 3.8 6.4-3.8c1.198-.7 1.198-1.9 1.198-3.4s-.3-2.7-1-3.3L53.3 47.3zM69 37.4v12.3c.6.7 1.2 2 1.2 3.4 0 1.5-.4 2.7-1 3.4l3.9-2.1V39.6L69 37.4z"/><path fill="none" stroke="#231F20" stroke-width=".25" stroke-miterlimit="10" d="M37.2 67.9v2.2h-.5v-4.9h.5v2.1h1.2v-2.2h.5V70h-.5v-2.2l-1.2.1zm4.4-1.5v.1h-.5v-.2c0-.5-.2-.7-.6-.7s-.6.2-.6.7c0 1.1 1.6 1.2 1.6 2.6 0 .802-.3 1.2-1.1 1.2s-1.1-.5-1.1-1.2v-.3h.5v.3c0 .5.2.7.6.7s.6-.2.6-.7c0-1.102-1.6-1.2-1.6-2.602 0-.8.3-1.2 1.1-1.2.8.102 1.1.602 1.1 1.302zm1.6 1h1.3v.5h-1.3v-.5zm4-2.2c.8 0 1.1.5 1.1 1.2v2.4c0 .8-.3 1.2-1.1 1.2H46v-4.9h1.2v.1zm0 4.4c.4 0 .6-.2.6-.7v-2.5c0-.5-.2-.698-.6-.698h-.6V69.6h.6zm3.4-2.2v.5h-1.2v1.7h1.5v.5h-2v-4.9h2v.5h-1.5v1.6h1.2v.1zm1.2-2.2l.8 4.2.8-4.2h.5l-.9 4.9h-.8l-.9-4.9h.5zm4.2 2.2v.5h-1.2v1.7h1.4v.5h-2v-4.9h2v.5h-1.4v1.6H56v.1zm.8 2.7v-4.9h.5v4.4h1.4v.5h-1.9zm2.3-3.7c0-.8.3-1.2 1.1-1.2s1.1.5 1.1 1.2v2.5c0 .8-.3 1.2-1.1 1.2s-1.1-.5-1.1-1.2v-2.5zm.5 2.6c0 .5.2.7.6.7.4 0 .6-.2.6-.7v-2.6c0-.5-.2-.7-.6-.7-.4 0-.6.3-.6.7V69zm3.3-3.8c.8 0 1.1.5 1.1 1.2v.6c0 .8-.3 1.2-1.2 1.2h-.5v1.9h-.5v-4.9h1.1zm-.1 2.5c.4 0 .6-.2.6-.6v-.602c0-.5-.198-.7-.6-.7h-.5v2h.5V67.7zm3.9-2c-.4 0-.6.2-.6.7v.2c0 .4.198.602.6.602h.5v-.5h.5v.5h.2v.5h-.2V69.4c0 .2 0 .4.1.6h-.5c-.1-.1-.1-.2-.1-.398-.1.3-.4.5-.8.5-.602 0-.9-.4-.9-1.1v-.5c0-.5.2-.9.6-1-.398-.102-.6-.5-.6-1V66.4c0-.8.3-1.2 1.2-1.2h.8v.5h-.8zm0 2.1c-.4 0-.6.3-.6.8v.4c0 .4.198.7.6.7.3 0 .5-.2.5-.6v-1.302l-.5.002zm3.9-2.6c.8 0 1.102.5 1.102 1.2v2.4c0 .8-.3 1.2-1.102 1.2h-1.2v-4.9h1.2v.1zm0 4.4c.4 0 .6-.2.6-.7v-2.5c0-.5-.2-.7-.6-.7H70v3.9h.6zm3.3-2.2v.5h-1.2v1.7h1.5v.5h-2v-4.9h2v.5h-1.4v1.6h1.1v.1zm2.9-1v.1h-.5v-.2c0-.5-.2-.7-.6-.7-.4 0-.6.2-.6.7 0 1.1 1.6 1.2 1.6 2.6 0 .802-.3 1.2-1.1 1.2s-1.102-.5-1.102-1.2v-.3h.602v.3c0 .5.2.7.6.7.4 0 .6-.2.6-.7 0-1.102-1.6-1.2-1.6-2.602 0-.8.3-1.2 1.1-1.2.6.102 1 .602 1 1.302zm1-1.2v4.9h-.5v-4.9h.5zm2.7 1.2v.4H80v-.5c0-.5-.2-.7-.6-.7-.4 0-.6.3-.6.7v2.6c0 .5.2.7.6.7.4 0 .602-.302.602-.7V68h-.5v-.5h1V69c0 .8-.3 1.2-1.1 1.2S78.3 69.7 78.3 69v-2.5c0-.8.3-1.2 1.1-1.2.8-.1 1.1.4 1.1 1.1zm1 3.7H81v-4.9h.7l1.1 3.5v-3.5h.5v4.9h-.6l-1.2-3.9v3.9z"/></svg>