<svg xmlns="http://www.w3.org/2000/svg" width="120" height="120" viewBox="0 0 120 120"><g><path fill="#565656" d="M89.414 105.85c0 3.834-2.602 6.9-6.262 6.9H22.088c-3.755 0-6.838-3.066-6.838-6.9V9.404c0-3.835 3.083-6.903 6.838-6.903h61.064c3.758 0 6.262 3.07 6.262 6.904v96.446z"/><path opacity=".1" fill="#fff" enable-background="new" d="M83.152 2.5H71.885L21.03 112.655h.19c3.275 0 42.958-.19 63.28-.098 2.89-.67 4.816-3.45 4.816-6.71V9.404C89.414 5.568 86.91 2.5 83.152 2.5z"/><path fill="none" stroke="#444344" stroke-width=".5" stroke-miterlimit="10" d="M54.74 107.48c0 1.055-.867 1.917-1.926 1.917h-.963c-1.058 0-1.925-.862-1.925-1.918v-.96c0-1.055.867-1.916 1.926-1.916h.964c1.06 0 1.926.86 1.926 1.916v.96z"/><path fill="#D3D3D3" d="M85.563 14.005v85.132c0 .768 0 2.205-.963 2.205H21.8c-.964 0-2.698-1.438-2.698-2.205V14.005c0-.767 1.734-.96 2.697-.96h62.798c.965 0 .965.193.965.96z"/><path fill="#FF302C" d="M58.11 44.492l-12.52-3.93c-.578-.576-.963-1.823-.963-3.26 0-1.343.675-2.588 1.252-3.26l6.164-3.643 6.068 3.737v10.355zm-18.3-6.903v14.187l3.373 2.014V42.096c-.578-.67-.963-1.918-.963-3.26 0-1.438.48-2.588 1.06-3.26l-3.47 2.014zm6.07 7.38v10.355l6.164 3.642 6.163-3.642c1.156-.67 1.156-1.82 1.156-3.26 0-1.438-.29-2.588-.963-3.164l-12.52-3.93zM61 35.48v11.79c.578.672 1.156 1.92 1.156 3.26 0 1.44-.387 2.59-.963 3.26l3.755-2.013V37.59L61 35.48z"/><path fill="#FF302C" d="M30.372 64.72v2.11h-.48v-4.698h.48v2.013h1.156V62.04h.482v4.695h-.482v-2.11l-1.156.095zm4.237-1.438v.096h-.482v-.19c0-.48-.192-.672-.578-.672-.386 0-.578.19-.578.672 0 1.056 1.54 1.15 1.54 2.494 0 .767-.288 1.148-1.06 1.148s-1.06-.48-1.06-1.148v-.29h.482v.286c0 .48.193.672.58.672.384 0 .577-.19.577-.672 0-1.055-1.54-1.147-1.54-2.492 0-.767.29-1.15 1.06-1.15.77.096 1.06.575 1.06 1.246zm1.54.958h1.253v.48H36.15v-.48zm3.853-2.108c.77 0 1.06.48 1.06 1.15v2.3c0 .77-.29 1.15-1.06 1.15h-1.156v-4.695h1.156v.095zm0 4.22c.385 0 .578-.19.578-.67v-2.397c0-.48-.192-.67-.577-.67h-.578v3.737h.578zm3.275-2.112v.48h-1.155v1.63h1.445v.48h-1.926v-4.7h1.926v.48h-1.445v1.533h1.155v.097zm1.156-2.108l.77 4.025.77-4.025h.482l-.866 4.698h-.77l-.868-4.698h.482zm4.045 2.108v.48h-1.157v1.63h1.35v.48h-1.928v-4.7h1.927v.48h-1.35v1.533h1.157v.097zm.77 2.59v-4.698h.482v4.22h1.35v.48H49.25zm2.214-3.548c0-.77.29-1.15 1.06-1.15s1.06.48 1.06 1.15v2.396c0 .77-.288 1.15-1.06 1.15s-1.06-.48-1.06-1.15v-2.396zm.482 2.49c0 .48.193.673.58.673.383 0 .577-.19.577-.672v-2.49c0-.48-.193-.672-.578-.672-.386 0-.58.288-.58.672v2.49zm3.18-3.64c.77 0 1.06.48 1.06 1.15v.575c0 .767-.29 1.15-1.157 1.15h-.483v1.82h-.48V62.13l1.06.002zm-.097 2.397c.385 0 .578-.193.578-.578v-.575c0-.48-.193-.67-.58-.67h-.48v1.916h.48v-.094zm3.755-1.92c-.386 0-.58.19-.58.672v.192c0 .383.194.575.58.575h.482v-.48h.48v.48h.194v.478h-.192v1.63c0 .19 0 .382.096.573h-.482c-.096-.093-.096-.19-.096-.382-.098.29-.386.48-.77.48-.58 0-.868-.384-.868-1.056v-.48c0-.478.193-.86.578-.957-.384-.096-.578-.48-.578-.96v-.095c0-.768.29-1.15 1.156-1.15h.77v.48h-.77zm0 2.014c-.386 0-.58.29-.58.77v.382c0 .383.194.672.58.672.29 0 .482-.192.482-.577v-1.245h-.482zm3.756-2.492c.772 0 1.064.48 1.064 1.15v2.3c0 .77-.29 1.15-1.063 1.15h-1.153v-4.695h1.154v.095zm0 4.22c.387 0 .58-.193.58-.674v-2.396c0-.48-.193-.67-.58-.67h-.576v3.737h.577v.002zm3.18-2.112v.48h-1.155v1.63h1.444v.48h-1.927v-4.7h1.926v.48h-1.35v1.533h1.06v.097zm2.794-.958v.096h-.48v-.19c0-.48-.193-.672-.578-.672-.387 0-.58.19-.58.672 0 1.056 1.544 1.15 1.544 2.494 0 .767-.29 1.148-1.062 1.148-.77 0-1.06-.48-1.06-1.148v-.29h.577v.286c0 .48.19.672.58.672.383 0 .577-.19.577-.672 0-1.055-1.54-1.147-1.54-2.492 0-.767.287-1.15 1.058-1.15.58.096.964.575.964 1.246zm.963-1.15v4.698h-.48v-4.698h.48zm2.6 1.15v.383h-.48v-.48c0-.478-.194-.67-.58-.67-.385 0-.577.287-.577.67v2.492c0 .48.192.67.58.67.383 0 .578-.286.578-.67v-.86h-.48v-.48h.962v1.44c0 .767-.288 1.15-1.06 1.15s-1.062-.48-1.062-1.15V63.38c0-.768.288-1.15 1.062-1.15.768-.098 1.057.38 1.057 1.052zm.964 3.548h-.48v-4.698h.673l1.06 3.354v-3.354h.48v4.698H74.2l-1.155-3.74-.002 3.74z"/><path fill="#3F3F3F" d="M53.234 6.7c.332 0 .582.25.582.58s-.25.58-.582.58-.582-.25-.582-.58c0-.332.25-.58.582-.58z"/><path opacity=".2" fill="#fff" enable-background="new" d="M84.6 13.046H67.068l-40.74 88.296h58.367c.963 0 .963-1.438.963-2.205V14.005c-.095-.767-.095-.96-1.058-.96z"/></g><g><path fill="#545454" d="M113.02 108.54c0 4.554.332 8.86-8.137 8.86H74.488c-8.47 0-7.97-4.308-7.97-8.86V33.096c0-4.555-.583-8.447 7.97-8.447h30.395c8.47 0 8.137 3.892 8.137 8.447v75.442z"/><path opacity=".1" fill="#fff" enable-background="new" d="M113.02 108.54V33.096c0-4.555.332-8.447-8.137-8.447H96.08l-29.563 83.475v.414c0 4.554-.498 8.86 7.972 8.86h30.393c8.47 0 8.137-4.306 8.137-8.86z"/><g><circle fill="#3F3F3F" cx="79.639" cy="32.518" r=".994"/><circle fill="#6D6D6D" cx="79.639" cy="32.518" r=".579"/><circle fill="#5B5B5B" cx="79.639" cy="32.518" r=".166"/></g><path fill="#3F3F3F" d="M89.77 27.88c.332 0 .582.25.582.58s-.25.58-.582.58-.582-.25-.582-.58c0-.332.25-.58.582-.58z"/><path fill="#ddd" d="M95.166 32.6c0 .167-.166.332-.332.332h-10.13c-.167 0-.333-.166-.333-.33v-.167c0-.166.167-.33.334-.33h10.13c.166 0 .332.165.332.33v.166z"/><path fill="#D3D3D3" d="M110.195 107.297c0 .414-.33.58-.663.58H70.005c-.415 0-.664-.33-.664-.58v-68.32c0-.414.334-.58.665-.58h39.527c.415 0 .663.332.663.58v68.32z"/><path fill="none" stroke="#444" stroke-width=".5" stroke-miterlimit="10" d="M89.77 109.78c1.56 0 2.823 1.262 2.823 2.817 0 1.555-1.265 2.814-2.823 2.814-1.56 0-2.824-1.26-2.824-2.813 0-1.553 1.263-2.815 2.824-2.816z"/><path fill="#FF302C" d="M93.92 63.158l-8.884-2.815c-.415-.414-.665-1.325-.665-2.32 0-.992.5-1.82.915-2.317l4.4-2.567 4.317 2.566v7.453l-.08-.002zM80.8 58.272v10.186l2.41 1.49v-8.446c-.416-.497-.75-1.325-.75-2.318 0-.994.334-1.905.75-2.32l-2.41 1.408zm4.4 5.3v7.37l4.4 2.566 4.402-2.567c.83-.495.83-1.323.83-2.316 0-.994-.164-1.905-.665-2.32L85.2 63.573zm10.714-6.79v8.446c.415.496.83 1.324.83 2.317 0 .994-.25 1.905-.747 2.32l2.74-1.492v-10.1l-2.823-1.492z"/><path fill="#FF302C" d="M74.157 77.65v1.49h-.332v-3.313h.332v1.49h.83v-1.49h.33v3.313h-.33v-1.49h-.83zm2.99-1.076l-.333.082v-.082c0-.332-.084-.497-.416-.497s-.414.165-.414.497c0 .744 1.078.828 1.078 1.738 0 .496-.248.828-.746.828s-.748-.332-.748-.828v-.166h.332v.166c0 .332.084.496.416.496s.414-.164.414-.496c0-.746-1.08-.828-1.08-1.738 0-.497.25-.828.748-.828s.748.33.748.828zm1.08.744h.914v.332h-.913v-.332zm2.823-1.572c.498 0 .748.33.748.828v1.656c0 .496-.25.828-.748.828h-.83v-3.313h.83zm0 3.065c.25 0 .415-.165.415-.497v-1.737c0-.332-.083-.5-.415-.5h-.416v2.65h.416v.085zm2.242-1.492v.332h-.83v1.158h.996v.332h-1.412v-3.313h1.412v.332h-.997v1.074h.832v.084zm.83-1.572l.582 2.898.58-2.898h.332l-.664 3.313h-.58l-.665-3.314h.415zm2.905 1.572v.332h-.83v1.158h.998v.332h-1.412v-3.313h1.412v.332h-.997v1.074h.83v.084zm.498 1.823V75.83h.334v2.98h.91v.332h-1.245zm1.58-2.566c0-.497.25-.828.747-.828s.746.33.746.828v1.738c0 .496-.248.828-.746.828s-.748-.332-.748-.828v-1.738zm.415 1.74c0 .33.084.497.416.497.248 0 .416-.165.416-.497v-1.737c0-.332-.084-.497-.416-.497-.248 0-.416.164-.416.496v1.737zm2.244-2.568c.496 0 .744.33.744.828v.414c0 .496-.25.828-.83.828h-.248v1.324h-.332v-3.313h.666v-.08zm-.084 1.738c.248 0 .414-.082.414-.414v-.414c0-.33-.082-.496-.414-.496h-.332v1.324h.332zm2.656-1.324c-.25 0-.415.165-.415.496v.166c0 .248.167.414.416.414h.333v-.414H95v.33h.166v.332H95v1.16c0 .164 0 .248.085.414h-.334c0-.084 0-.166-.08-.25-.085.166-.252.332-.5.332-.416 0-.582-.248-.582-.746v-.33c0-.33.085-.58.416-.744-.25-.082-.416-.33-.416-.663v-.083c0-.497.25-.828.83-.828H95v.33h-.664v.084zm0 1.406c-.25 0-.415.166-.415.498v.33c0 .25.084.498.416.498.166 0 .333-.084.333-.414v-.912h-.334zm2.657-1.82c.498 0 .747.33.747.828v1.656c0 .496-.25.828-.747.828h-.83v-3.313h.83zm0 3.065c.25 0 .416-.165.416-.497v-1.737c0-.332-.086-.5-.417-.5h-.415v2.65h.415v.085zm2.325-1.492v.332h-.83v1.158h.996v.332h-1.328v-3.313h1.41v.332h-.996v1.074h.748v.084zm1.91-.744l-.33.082v-.082c0-.332-.085-.497-.415-.497-.334 0-.416.165-.416.497 0 .744 1.08.828 1.08 1.738 0 .496-.25.828-.748.828s-.747-.332-.747-.828v-.166h.416v.166c0 .332.08.496.413.496.33 0 .416-.164.416-.496 0-.746-1.083-.828-1.083-1.738 0-.497.252-.828.748-.828.414 0 .664.33.664.828zm.75-.828v3.313h-.333v-3.314h.332zm1.825.828v.248h-.332v-.33c0-.332-.08-.498-.415-.498-.248 0-.414.166-.414.497v1.74c0 .33.083.496.415.496.25 0 .416-.166.416-.496v-.58h-.33v-.332h.747v.994c0 .496-.25.828-.748.828s-.747-.332-.747-.828v-1.738c0-.497.248-.828.746-.828s.663.33.663.828zm.747 2.567h-.33V75.83h.496l.748 2.402v-2.402h.33v3.313h-.414l-.83-2.73v2.73z"/><path opacity=".2" fill="#fff" enable-background="new" d="M109.532 38.397h-18.27L69.34 100.09v7.206c0 .332.25.58.664.58h39.527c.333 0 .665-.248.665-.58v-68.32c0-.247-.248-.58-.663-.58z"/></g></svg>