<svg xmlns="http://www.w3.org/2000/svg" width="120" height="120" viewBox="0 0 120 120"><g fill="none" stroke="#FF302C" stroke-miterlimit="10"><path stroke-width=".25" d="M83.183 2.52h-60.84c-3.743 0-6.813 3.072-6.813 6.91v96.537c0 3.838 3.07 6.91 6.813 6.91H66.86c-.226-1.295-.178-2.754-.178-4.243v-7.18H22.054c-.96 0-2.686-1.437-2.686-2.206v-85.21c0-.77 1.727-.96 2.686-.96H84.62c.96 0 .96.192.96.96v10.866h3.84V9.43c0-3.838-2.495-6.91-6.237-6.91z"/><path stroke-width=".25" d="M54.873 107.6c0 1.054-.863 1.918-1.92 1.918h-.958c-1.056 0-1.92-.864-1.92-1.92v-.96c0-1.054.865-1.92 1.92-1.92h.96c1.055 0 1.918.866 1.918 1.92v.96z"/><circle stroke-width=".25" cx="52.475" cy="8.07" r=".45"/><path stroke-width=".15" d="M41.823 62.208h1.92v.48h-1.44v1.535h1.15v.578h-1.15v1.63h1.44v.48h-1.92v-4.702zm-.576 1.152v2.304c0 .768-.288 1.15-1.055 1.15H39.04v-4.7h1.152v.094c.767 0 1.055.48 1.055 1.152zm-.48 0c0-.48-.192-.67-.575-.67h-.576v3.74h.576c.383 0 .575-.19.575-.67v-2.4zm25.916-.69c-.062.165-.103.354-.103.594 0 .203.043.37.103.525v-1.12zm-34.936 1.554h-1.15v-2.016h-.48v4.703h.48V64.8l1.15-.096v2.11h.48v-4.7h-.48v2.11zm13.627 2.015l-.77-4.032h-.478l.864 4.703h.767l.864-4.702h-.478l-.768 4.03zm-9.02-1.44H37.6v-.478h-1.247v.48zm-2.592-2.687c-.768 0-1.056.382-1.056 1.15 0 1.344 1.535 1.438 1.535 2.496 0 .478-.19.67-.575.67-.383 0-.576-.19-.576-.67v-.29h-.48v.29c0 .67.288 1.15 1.055 1.15.77 0 1.056-.383 1.056-1.15 0-1.344-1.534-1.44-1.534-2.496 0-.48.192-.673.576-.673.383 0 .576.193.576.674v.192h.48v-.096c0-.672-.288-1.152-1.056-1.247zm19.96 1.247v2.4c0 .767-.287 1.15-1.056 1.15-.768 0-1.056-.48-1.056-1.15v-2.4c0-.77.288-1.152 1.056-1.152.77 0 1.056.48 1.056 1.152zm-.48 0c0-.48-.192-.672-.576-.672s-.575.288-.575.672v2.495c0 .48.192.672.576.672s.575-.192.575-.672V63.36zm10.46 0v2.304c0 .768-.287 1.15-1.056 1.15h-1.15v-4.7h1.15v.094c.77 0 1.057.48 1.057 1.152zm-.48 0c0-.48-.19-.672-.575-.672h-.575v3.743h.575c.384 0 .575-.19.575-.67v-2.4zm.96 3.55h1.92v-.478h-1.44v-1.63h1.152v-.578h-1.057V62.69h1.345v-.48h-1.92v4.7zm2.5-1.44h-.293v.29c0 .364.094.662.293.867V65.47zm-16.8-3.262h-.478v4.703h1.824v-.478h-1.344v-4.224zM46.91 66.91h1.92v-.478h-1.346v-1.63h1.152v-.578h-1.152V62.69h1.345v-.48h-1.92v4.7zm9.403-3.55v.575c0 .77-.288 1.152-1.152 1.152h-.48v1.823h-.478v-4.703h1.056c.767 0 1.055.48 1.055 1.153zm-.576.095c0-.48-.19-.672-.576-.672h-.48v1.92h.48v-.096c.385 0 .577-.19.577-.575v-.577zm4.127.674h.192v.48h-.192v1.63c0 .19 0 .382.095.575h-.48c-.096-.096-.096-.192-.096-.382-.097.288-.384.48-.768.48-.577 0-.863-.384-.863-1.056v-.48c0-.48.192-.863.575-.96-.382-.096-.575-.48-.575-.96v-.097c0-.77.288-1.15 1.15-1.15h.768v.48h-.766v-.002c-.384 0-.577.192-.577.672v.19c0 .385.19.578.577.578h.48v-.48h.48v.48zm-.48.572h-.48v.002c-.384 0-.577.287-.577.767v.386c0 .384.19.672.577.672.288 0 .48-.192.48-.576v-1.25z"/><path stroke-width=".25" d="M58.232 44.552l-12.475-3.934c-.576-.576-.96-1.824-.96-3.264 0-1.343.672-2.59 1.248-3.262l6.142-3.647 6.045 3.743v10.364zM40 37.644v14.202l3.358 2.015V42.154c-.576-.672-.96-1.92-.96-3.263 0-1.44.48-2.59 1.057-3.263L40 37.644zm6.045 7.388v10.363l6.142 3.648 6.14-3.648c1.152-.67 1.152-1.823 1.152-3.26 0-1.44-.29-2.593-.96-3.168l-12.475-3.935zm15.066-9.5v11.804c.576.67 1.152 1.92 1.152 3.262 0 1.44-.385 2.59-.96 3.263l3.742-2.014V37.644l-3.933-2.112z"/></g><g fill="none" stroke="#FF302C" stroke-miterlimit="10"><path stroke-width=".25" d="M112.97 108.635c0 4.546.332 8.844-8.1 8.844H74.618c-8.43 0-7.936-4.3-7.936-8.845v-75.3c0-4.546-.578-8.43 7.936-8.43h30.252c8.432 0 8.1 3.884 8.1 8.43v75.3z"/><path stroke-width=".25" d="M89.827 28.127c.33 0 .58.25.58.578 0 .33-.25.58-.58.58-.33 0-.578-.25-.578-.58 0-.33.247-.578.577-.578z"/><path stroke-width=".25" d="M95.2 32.84c0 .164-.166.33-.33.33H84.784c-.165 0-.33-.166-.33-.33v-.168c0-.164.165-.33.33-.33H94.87c.164 0 .33.166.33.33v.167z"/><path stroke-width=".25" d="M110.16 107.395c0 .413-.33.578-.662.578H70.155c-.413 0-.662-.33-.662-.578V39.203c0-.414.332-.578.662-.578h39.343c.415 0 .662.33.662.578v68.192z"/><path stroke-width=".25" d="M89.827 109.874c1.553 0 2.81 1.26 2.81 2.81 0 1.554-1.257 2.812-2.81 2.812-1.554 0-2.81-1.258-2.81-2.81 0-1.553 1.256-2.81 2.81-2.81v-.002z"/><path stroke-width=".25" d="M93.96 63.34l-8.845-2.812c-.413-.413-.66-1.322-.66-2.314s.495-1.818.908-2.315l4.382-2.563 4.297 2.562v7.44h-.08zM80.9 58.46V68.63l2.396 1.487v-8.432c-.415-.496-.743-1.323-.743-2.314 0-.99.328-1.9.743-2.313L80.9 58.462zm4.38 5.29v7.354l4.383 2.564 4.38-2.564c.826-.495.826-1.32.826-2.312 0-.992-.166-1.902-.662-2.314l-8.927-2.73zm10.664-6.778v8.43c.412.497.826 1.324.826 2.315 0 .99-.25 1.9-.744 2.313l2.73-1.487V58.462l-2.812-1.488z"/><path stroke-width=".15" d="M74.288 77.804v1.488h-.33v-3.306h.33v1.487h.826v-1.487h.332v3.306h-.332v-1.488h-.826zm2.975-1.075l-.33.082v-.083c0-.332-.082-.496-.414-.496-.33 0-.412.164-.412.495 0 .744 1.073.826 1.073 1.735 0 .496-.246.827-.742.827s-.744-.33-.744-.827V78.3h.33v.165c0 .332.084.496.414.496s.413-.163.413-.495c0-.744-1.073-.826-1.073-1.736 0-.496.247-.827.742-.827s.743.33.743.826zm1.075.744h.91v.33h-.91v-.33zm2.81-1.572c.496 0 .744.33.744.826v1.653c0 .497-.248.827-.744.827h-.826V75.9h.826zm0 3.06c.247 0 .413-.165.413-.498V76.73c0-.332-.08-.498-.412-.498h-.416v2.646h.416v.083zm2.232-1.488v.33h-.826v1.157h.993v.332H82.14v-3.306h1.407v.33h-.993v1.073h.826v.084zm.826-1.572l.58 2.895.577-2.895h.33l-.66 3.306h-.58l-.66-3.306h.413zm2.895 1.572v.33h-.826v1.157h.99v.332H85.86v-3.306h1.405v.33h-.99v1.073h.826v.084zm.496 1.818v-3.306h.33v2.975h.91v.332h-1.24zm1.57-2.563c0-.496.25-.827.743-.827.496 0 .743.33.743.826v1.735c0 .496-.247.827-.744.827-.495 0-.745-.33-.745-.827V76.73zm.414 1.735c0 .332.083.496.412.496.25 0 .414-.163.414-.495V76.73c0-.332-.084-.496-.414-.496-.247 0-.412.164-.412.495v1.735zm2.232-2.563c.495 0 .743.33.743.826v.414c0 .496-.248.826-.827.826h-.248v1.323h-.33v-3.305h.66v-.083zm-.084 1.737c.248 0 .413-.084.413-.415v-.413c0-.33-.08-.495-.412-.495h-.33v1.322h.33zm2.645-1.324c-.247 0-.412.165-.412.495v.167c0 .247.166.412.413.412h.33v-.413h.33v.33h.166v.33h-.166v1.16c0 .163 0 .246.083.41h-.33c0-.083 0-.164-.083-.247-.082.164-.248.33-.496.33-.413 0-.578-.247-.578-.744v-.33c0-.33.083-.578.412-.742-.247-.083-.412-.33-.412-.663v-.08c0-.497.25-.827.826-.827h.578v.33h-.66v.083zm0 1.405c-.247 0-.412.167-.412.496v.33c0 .25.082.498.413.498.165 0 .33-.083.33-.413v-.91h-.33zm2.646-1.818c.494 0 .742.33.742.826v1.653c0 .497-.248.827-.743.827h-.83V75.9h.83zm0 3.06c.247 0 .412-.165.412-.498V76.73c0-.332-.083-.498-.413-.498h-.414v2.646h.413v.083zm2.312-1.488v.33h-.826v1.157h.993v.332h-1.324v-3.306h1.405v.33h-.992v1.073h.744v.084zm1.9-.745l-.328.082v-.083c0-.332-.086-.496-.415-.496-.333 0-.413.164-.413.495 0 .744 1.074.826 1.074 1.735 0 .496-.246.827-.742.827-.497 0-.745-.33-.745-.827V78.3h.414v.165c0 .332.084.496.412.496.33 0 .414-.163.414-.495 0-.744-1.075-.826-1.075-1.736 0-.496.247-.827.742-.827.414 0 .66.33.66.826zm.745-.828v3.306h-.33v-3.306h.33zm1.82.827v.248h-.33v-.33c0-.33-.084-.497-.415-.497-.247 0-.413.167-.413.497v1.735c0 .33.08.496.412.496.248 0 .414-.165.414-.496v-.578h-.33v-.33h.74v.99c0 .497-.245.828-.74.828s-.744-.33-.744-.827V76.73c0-.496.25-.827.743-.827.496 0 .662.33.662.826zm.742 2.562h-.33v-3.306h.495l.744 2.396v-2.396h.33v3.306h-.413l-.828-2.73v2.73z"/></g></svg>