<svg xmlns="http://www.w3.org/2000/svg" xmlns:xlink="http://www.w3.org/1999/xlink" width="64" height="64" viewBox="0 0 64 64"><path fill="#888" d="M25.276 48.028h13.792v4.827H25.276zm-2.758 7.586h19.31v1.378H22.52z"/><path fill="#424242" d="M25.276 47.337h13.792v.69H25.276zm-2.758 8.277h19.31l-2.76-2.76H25.276z"/><path fill="#C2C2C2" d="M62.518 39.75H1.828v4.828c0 1.518 1.242 2.76 2.76 2.76H59.76c1.516 0 2.758-1.242 2.758-2.76V39.75zm-24.72 4.482h-11.25v-1.38h11.25v1.38z"/><path fill="#191919" d="M62.518 39.06V11.474c0-1.518-1.242-2.76-2.758-2.76H4.587c-1.518 0-2.76 1.242-2.76 2.76v28.273h60.69v-.69z"/><defs><path id="a" d="M18.003 49.645L41.543 6 64 7.604v41.25z"/></defs><clipPath id="b"><use xlink:href="#a" overflow="visible"/></clipPath><path fill="#888" d="M62.518 39.75H1.828v4.828c0 1.518 1.242 2.76 2.76 2.76H59.76c1.516 0 2.758-1.242 2.758-2.76V39.75zm-24.72 4.482h-11.25v-1.38h11.25v1.38z" clip-path="url(#b)"/><defs><path id="c" d="M18.003 49.645L41.543 6 64 7.604v41.25z"/></defs><clipPath id="d"><use xlink:href="#c" overflow="visible"/></clipPath><path clip-path="url(#d)" d="M62.518 39.06V11.474c0-1.518-1.242-2.76-2.758-2.76H4.587c-1.518 0-2.76 1.242-2.76 2.76v28.273h60.69v-.69z"/><path fill="#E2E2E2" d="M61.137 38.372H3.207V11.475c0-.762.62-1.38 1.38-1.38H59.76c.762 0 1.377.618 1.377 1.38v26.897z"/><defs><path id="e" d="M40.42 6.062L14.46 44.876 64 46.77V6.855z"/></defs><clipPath id="f"><use xlink:href="#e" overflow="visible"/></clipPath><path clip-path="url(#f)" fill="#D8D8D8" d="M61.137 38.372H3.207V11.475c0-.762.62-1.38 1.38-1.38H59.76c.762 0 1.377.618 1.377 1.38v26.897z"/><path fill="#383838" d="M26.548 42.854h11.25v1.38h-11.25z"/><path d="M44.575 55.74c0 .623-.375 1.127-.84 1.127H8.84c-.464 0-.84-.504-.84-1.126V33.355c0-.623.376-1.127.84-1.127h34.895c.465 0 .84.504.84 1.127V55.74z"/><path fill="#CCC8C8" d="M9.458 33.578h33.76V54.39H9.457z"/><path fill="#5F6767" d="M1.77 57.208s-.303.567 1.86 1.04H48.89s1.515-.098 1.914-.813l.002-.392-49.037.165z"/><linearGradient id="g" gradientUnits="userSpaceOnUse" x1="275.75" y1="-355.771" x2="324.826" y2="-355.771" gradientTransform="matrix(1 0 0 -1 -274 -299)"><stop offset="0" stop-color="#999C9D"/><stop offset=".001" stop-color="#A5A7A9"/><stop offset=".004" stop-color="#C2C3C5"/><stop offset=".007" stop-color="#D9D8DA"/><stop offset=".01" stop-color="#E9E7EA"/><stop offset=".013" stop-color="#F2F0F3"/><stop offset=".018" stop-color="#F5F3F6"/><stop offset=".049" stop-color="#DFE1E3"/><stop offset=".189" stop-color="#D1D1D1"/><stop offset=".506" stop-color="#E3E5E7"/><stop offset=".872" stop-color="#D1D1D1"/><stop offset=".951" stop-color="#DFE1E3"/><stop offset=".988" stop-color="#F5F3F6"/><stop offset="1" stop-color="#999C9D"/></linearGradient><path fill="url(#g)" d="M1.782 56.064h49.04v1.26s.073.168-.505.125H2.243s-.45.125-.493-.17l.032-1.216z"/><path fill="#5F6767" d="M48.544 56.8c0 .048-.03.087-.072.087h-1.668c-.04 0-.072-.04-.072-.088 0-.05.03-.09.072-.09h1.668c.04 0 .072.04.072.09z"/><linearGradient id="h" gradientUnits="userSpaceOnUse" x1="300.289" y1="-355.768" x2="300.289" y2="-355.074" gradientTransform="matrix(1 0 0 -1 -274 -299)"><stop offset=".342" stop-color="#676B6C"/><stop offset=".361" stop-color="#707475"/><stop offset=".457" stop-color="#989B9C"/><stop offset=".552" stop-color="#B7B9BB"/><stop offset=".644" stop-color="#CDCFD1"/><stop offset=".732" stop-color="#DADDDE"/><stop offset=".811" stop-color="#DFE1E3"/><stop offset=".982" stop-color="#E3E5E7"/></linearGradient><path fill="url(#h)" d="M22.972 56.074s-.188.63.44.69H29.1s.605.08.524-.67l-6.652-.02z"/><linearGradient id="i" gradientUnits="userSpaceOnUse" x1="297.106" y1="-355.707" x2="297.106" y2="-355.059" gradientTransform="matrix(1 0 0 -1 -274 -299)"><stop offset=".024" stop-color="#5F6767"/><stop offset=".476" stop-color="#676B6C"/><stop offset=".514" stop-color="#717576"/><stop offset=".619" stop-color="#878A8B"/><stop offset=".72" stop-color="#949899"/><stop offset=".811" stop-color="#999C9D"/></linearGradient><path fill="url(#i)" d="M23.003 56.073h.004l.002-.015h-.07s-.172.547.357.648c-.452-.13-.294-.633-.294-.633z"/><linearGradient id="j" gradientUnits="userSpaceOnUse" x1="300.481" y1="-355.739" x2="300.481" y2="-355.092" gradientTransform="matrix(1 0 0 -1 -274 -299)"><stop offset=".024" stop-color="#5F6767"/><stop offset=".476" stop-color="#676B6C"/><stop offset=".514" stop-color="#717576"/><stop offset=".619" stop-color="#878A8B"/><stop offset=".72" stop-color="#949899"/><stop offset=".811" stop-color="#999C9D"/></linearGradient><path fill="url(#j)" d="M29.658 56.094h-.063v.014c.045.71-.525.613-.525.613h-5.688l-.083-.012.145.026h5.688s.59.102.525-.64z"/><linearGradient id="k" gradientUnits="userSpaceOnUse" x1="303.597" y1="-355.107" x2="303.597" y2="-355.092" gradientTransform="matrix(1 0 0 -1 -274 -299)"><stop offset=".024" stop-color="#5F6767"/><stop offset=".476" stop-color="#676B6C"/><stop offset=".514" stop-color="#717576"/><stop offset=".619" stop-color="#878A8B"/><stop offset=".72" stop-color="#949899"/><stop offset=".811" stop-color="#999C9D"/></linearGradient><path fill="url(#k)" d="M29.597 56.107v-.016.017z"/><linearGradient id="l" gradientUnits="userSpaceOnUse" x1="294.337" y1="-342.332" x2="318.596" y2="-342.332" gradientTransform="matrix(1 0 0 -1 -274 -299)"><stop offset="0" stop-color="#fff" stop-opacity="0"/><stop offset="1" stop-color="#fff"/></linearGradient><path opacity=".6" fill="url(#l)" enable-background="new" d="M35.787 32.2H43.3s1.44.01 1.284 1.27l-.047 20.994h-24.2"/><path fill="#253142" d="M42.83 58.874c0 .82-.555 1.48-1.335 1.48H28.47c-.8 0-1.458-.66-1.458-1.48V38.208c0-.82.657-1.48 1.46-1.48h13.022c.802 0 1.334.66 1.334 1.48v20.666z"/><path fill="#36445B" d="M38.968 36.73L27.012 48.746V38.104c0-.82.76-1.375 1.563-1.375h10.393z"/><path fill="#666" stroke="#061323" stroke-miterlimit="10" d="M35.538 59.223c0 .23-.187.412-.412.412h-.205c-.227 0-.41-.186-.41-.412v-.205c0-.227.186-.41.41-.41h.206c.228 0 .412.186.412.41v.205z"/><circle fill="#253142" stroke="#0A192B" stroke-miterlimit="10" cx="34.98" cy="37.858" r=".103"/><path fill="#D3D3D3" d="M42.01 39.193v18.242c0 .164 0 .473-.208.473H28.41c-.208 0-.577-.31-.577-.473V39.193c0-.164.37-.205.576-.205H41.8c.207 0 .207.04.207.205z"/><path fill="#D8D8D8" d="M39.604 38.988L27.834 50.8V39.194c0-.164.368-.205.575-.205h11.194z"/><path fill="#843232" d="M48.043 59.328c0 1.03.074 2.006-1.838 2.006h-6.86c-1.915 0-1.802-.975-1.802-2.006v-17.08c0-1.032-.13-1.914 1.8-1.914h6.862c1.912 0 1.838.882 1.838 1.913v17.08z"/><path fill="#A74D4B" d="M37.543 51.547v-9.3c0-1.03-.13-1.913 1.8-1.913h6.862c1.05 0 1.5.264 1.688.656l-10.35 10.557z"/><path opacity=".2" fill="#1A1A1A" enable-background="new" d="M43.918 60.378c0-.206.057-.356-.3-.356h-1.84c-.354 0-.298.15-.298.356v.02c0 .206-.076.395.3.395h1.837c.358-.022.3-.21.3-.415z"/><circle fill="#484949" cx="41.012" cy="40.785" r=".225"/><circle fill="#484949" cx="44.404" cy="40.785" r=".225"/><circle fill="#484949" cx="44.93" cy="40.785" r=".225"/><circle fill="#3F3F3F" cx="46.242" cy="40.972" r=".225"/><circle fill="#6D6D6D" cx="46.242" cy="40.972" r=".131"/><circle fill="#5B5B5B" cx="46.242" cy="40.972" r=".038"/><path fill="#ddd" d="M43.918 40.822l-.076.074h-2.287l-.074-.074v-.038l.075-.075h2.287l.076.074v.038z"/><path fill="#D3D3D3" d="M47.705 59.29c0 .094-.074.15-.15.15h-9.522c-.095 0-.15-.075-.15-.15V42.378c0-.094.074-.15.15-.15h9.522c.094 0 .15.075.15.15V59.29z"/><path fill="#D8D8D8" d="M47.668 42.378v1.37l-9.75 9.822V42.378c0-.094.02-.17.113-.17h9.524c.094 0 .114.076.114.17z"/></svg>