<svg xmlns="http://www.w3.org/2000/svg" width="450" height="242" viewBox="0 0 450 242"><path fill="#161616" d="M289.269 181.177s-1.212 19.71-12.131 24.159c-10.914 4.446-13.037 3.231-13.037 3.231s-10.818-.201-16.074-4.447c-5.258-4.245-6.369-15.265-6.369-15.265l37.301-45.992 13.243-3.739-2.933 42.053zM217.198 208.267s-1.314 21.532-13.141 26.281c-11.828 4.751-14.151 3.538-14.151 3.538s-11.828-.305-17.486-4.851c-5.661-4.55-6.874-16.58-6.874-16.58l40.635-49.933 14.456-4.041-3.439 45.586z"/><path fill="#0C0C0C" d="M93.876 195.529s-1.314 21.533-13.14 26.283c-11.826 4.751-14.151 3.537-14.151 3.537s-11.826-.303-17.486-4.852c-5.662-4.549-6.874-16.578-6.874-16.578l40.636-49.935 14.454-4.041-3.439 45.586z"/><ellipse fill="#95A5A6" cx="201.833" cy="201.795" rx="10.109" ry="23.653"/><ellipse fill="#95A5A6" cx="279.566" cy="177.131" rx="5.153" ry="11.929"/><path fill="#161616" d="M22.294 124.367l-7.38-3.841s-2.324-1.414-3.335-2.627c-1.012-1.213-1.314-1.718-1.314-1.718l-.606-9.907-6.671-1.617v-22.744s4.751-1.82 7.58-1.516c2.833.304 6.874 1.113 6.874 1.113l.404 23.552-5.255 1.313v9.097s.102.506 1.416 1.416c1.313.91 3.84 2.326 3.84 2.326l3.944 1.516.503 3.637z"/><path fill="#C0392B" d="M52.435 40.469s-11.423 11.929-15.365 22.238c-3.941 10.31-8.793 23.047-8.793 23.047l-6.064 21.025-2.021 39.422-.81 31.033-2.325 3.336.81 21.934 6.064 5.056 30.325 3.032 52.564 2.729 62.873 3.335 15.869-2.831 7.379-1.716 19.711-44.174 3.236-1.313 2.729 4.749-1.717 37.706 9.401-5.864 33.355-17.183 10.815-.506 2.528-22.035 7.786-17.893s3.538-3.033 4.546 1.313c1.013 4.348 3.54 18.7 3.54 18.7l15.362-10.41 4.244-12.636-1.717-75.004-1.315-18.902s-.198-7.884-5.256-14.454c-5.052-6.57-8.896-9.401-8.896-9.401l-35.377-2.022-38.413-8.592h-10.815l-.506-10.413h-8.391l-.202 8.591-41.141-1.819-20.013 1.819-28 6.773-31.033 10.412-24.967 10.918z"/><path fill="#B22922" d="M136.435 12.367l-28 6.773-31.033 10.411-24.967 10.918s-11.423 11.929-15.365 22.238c-3.941 10.31-8.793 23.047-8.793 23.047l-6.064 21.025-2.021 39.422-.81 31.033-2.325 3.336.81 21.934 5.388 4.492 128.144-195.989-14.964 1.36zM249.501 191.261l10.152-5.23 10.815-.506 2.528-22.035 7.786-17.893s3.538-3.033 4.546 1.313c1.013 4.348 3.54 18.7 3.54 18.7l15.362-10.41 4.244-12.636-1.717-75.004-1.315-18.902s-.198-7.884-5.256-14.454c-5.052-6.57-8.896-9.401-8.896-9.401l-3.213-.184-38.576 166.642z"/><path fill="#2C3E50" d="M19.38 177.233l153.948 8.592 18.802-4.347.807 30.629-23.248 4.547-113.212-5.962-32.548-3.134-6.064-5.056-.81-21.833 2.325-3.436z"/><path fill="#243442" d="M173.329 185.825l-59.542-3.323-15.653 30.384 71.555 3.768 23.249-4.547-.807-30.628z"/><path fill="#F2A56B" d="M186.066 154.693v27.899l-37.301-.809 3.539-16.88 30.828-10.818zM46.167 174.304l-26.685.604.707-28.608 24.159 17.388z"/><path fill="#D89F79" d="M173.18 157.577l-6.855 24.587 19.741.428v-27.899l-2.934-.608zM31.632 154.536l-11.443-8.236-.707 28.608 16.553-.375z"/><circle fill="#16A085" cx="158.268" cy="200.281" r="7.076"/><circle fill="#D35400" cx="139.466" cy="200.28" r="4.953"/><path fill="#F1C40F" d="M67.292 189.565v10.715l47.307 1.212v-10.307l-47.307-1.62z"/><path fill="#ECF0F1" d="M27.67 107.688l8.39-27.292s4.548-13.948 8.895-20.721c4.347-6.772 10.109-15.97 10.109-15.97l4.043-1.819h120.792l2.527 2.021-3.843 66.21-1.818 3.032-147.884-3.032-1.211-2.429zM169.689 162.68l3.64 15.06h-19.611l2.528-11.122z"/><path fill="#DBDBDB" d="M59.106 41.885l-4.043 1.819s-5.762 9.198-10.109 15.97c-4.347 6.773-8.895 20.721-8.895 20.721l-8.39 27.292 1.211 2.428 13.619.279 82.066-68.51h-65.459z"/><path fill="#D35400" d="M173.329 160.554l1.92 7.784h8.086v-10.31l-10.006 2.526zm2.426 10.815l1.011 6.371h6.569v-7.583l-7.58 1.212z"/><path fill="#ECF0F1" d="M40.001 163.182l2.224 6.975h-15.668l2.325-13.646 11.119 6.671z"/><path fill="#D35400" d="M26.557 154.085l-1.921 6.469h-3.334v-9.905l5.255 3.436zm-2.628 10.21l-1.112 5.862h-1.515v-6.872l2.627 1.01z"/><path fill="#7F8C8D" d="M50.919 158.028l97.847 2.525-6.165 19.915-89.661-5.561-2.021-16.879z"/><path fill="#767C7C" d="M142.601 180.469l6.165-19.915-51.937-1.341 2.476 18.57z"/><path fill="#ECF0F1" d="M189.1 59.473h21.529l1.517 44.273s-10.411 0-12.434 6.57c-2.021 6.57-5.762 17.186-5.762 17.186s.203 4.244-2.324 4.044c-2.526-.204-4.347-2.227-4.347-2.227v-67.117l1.821-2.729z"/><path fill="#DBDBDB" d="M210.629 59.473h-7.799l-15.551 50.242v19.604s1.821 2.022 4.347 2.227c2.527.2 2.324-4.044 2.324-4.044s3.74-10.616 5.762-17.186c2.023-6.57 12.434-6.57 12.434-6.57l-1.517-44.273z"/><path fill="#16A085" d="M230.036 26.318s5.358 3.538 6.369 8.389c1.012 4.853 0 10.412 0 10.412h-24.26s.504-3.032-2.324-5.054l-2.833-2.021 23.048-11.726z"/><path fill="#161616" d="M246.676 45.018l1.52 39.927v56.406l-1.52 23.955-1.716 8.59v19.309l8.593-3.942 1.515-17.894 4.345-8.187v-119.378zM168.441 114.359l2.122 5.562h10.006l5.864-4.146 3.134-3.942 6.976-.707 3.536-6.47v-19.711l-4.043-3.132h-10.412l-2.021 4.447-.102 22.238 4.043 2.628-2.426 3.131-4.851 3.236-7.985-.403z"/><path fill="#ECF0F1" d="M215.885 56.136l23.349-2.729v40.637l-20.014 4.346-3.335-42.254zm23.347 42.253l1.72 24.059s-2.527 7.38-6.875 13.95c-4.347 6.57-10.613 13.645-10.613 13.645h-1.513l-1.216-45.69 18.497-5.964z"/><path fill="#16A085" d="M262.687 30.665s3.636 7.075 4.043 13.141c.404 6.064 0 12.636 0 12.636h11.321s1.312-9.098 0-12.939c-1.315-3.841-5.059-12.939-5.059-12.939l-10.305.101zm18.495.201s3.64 7.076 4.041 13.141c.406 6.065 0 12.635 0 12.635h11.323s1.313-9.098 0-12.938c-1.315-3.841-5.053-12.938-5.053-12.938h-10.313l.002.1z"/><path fill="#ECF0F1" d="M267.942 64.222l33.155-2.223 1.212 31.336-34.367 5.054v-34.167z"/><path fill="#212A31" d="M269.718 83.124c-1.716-.303-2.526-1.515-3.638-1.819-.708-.204-4.853-1.82-6.568-3.236-1.013-.91-1.416-1.516-1.717-2.223v-.809c.2-3.941 2.626-3.233 2.626-4.65.204-1.415 6.27-13.848-7.681-14.051-.402 0-10.11-.404-5.459 4.346.201.405.201.607.304.607-.103.202-.708 1.112-.708 2.526 0 .809-.201 1.517-.505 2.124l.808 6.974c1.012.911 1.313 1.92.909 2.123l-.606.406.911 8.49v56.1c.101-.302.2-.604.403-.604.708 0 .708 7.277 1.113 10.313.404 2.02.404 2.626 1.11 3.738 0 .708-.808 7.784-1.013 14.759.102 2.123.102 4.144 0 6.267.102 2.427.307 4.449.708 5.864.404 1.515-.708 4.446-.201 6.568-.507 1.012-1.718 3.034.102 3.438l6.165-1.013c.506-.304 1.014-.606 1.416-1.013 1.112-1.111.708-5.054-.708-6.166.201-1.11 4.447-4.145 2.221-10.818 1.52-2.625.408-4.142-.4-12.128-2.426-18.902 4.752-20.722 3.943-27.09-1.111-8.896 7.277-6.974 7.582-17.286-.201-5.561.202-25.068.401-27.089.098-2.221-.808-4.544-1.518-4.648zm-5.153 34.168c-.911.506-1.519 2.832-1.519 2.832l.307-19.208c1.212-1.314 1.716 15.567 1.212 16.376zm84.909 13.848c.201-2.324-.809-4.649-1.416-4.75-1.717-.304-2.526-1.517-3.638-1.819-.707-.203-4.856-1.821-6.571-3.236-1.014-.908-1.415-1.515-1.717-2.221v-.81c.203-3.943 2.627-3.233 2.627-4.649.201-1.416 6.268-13.847-7.68-14.05-.406 0-10.11-.404-5.459 4.347.202.403.202.606.303.606-.101.202-.708 1.111-.708 2.525 0 2.225-1.717 3.64-.706 3.437 1.013-.201-1.012 3.538-.507 4.751 2.324.809 3.132 2.729 2.528 3.133-1.011.71-2.428.911-2.428.911s-9.703 1.921-11.622 2.729c.201 0-3.033 2.629-2.628 5.461 0 1.717-.203 2.628-.403 3.538-.202.909-6.367 25.069-5.765 34.164-.603.206-2.422 3.54 1.517 3.743l.202 1.111-.907 1.111s-2.227 1.82-2.835 13.243c0 .202-2.021 3.13-1.312 5.56.911 1.111 3.538 5.559 5.054 9.906 1.113 4.146 2.022 5.055 2.424 5.561.403.604 3.742.404 5.259 0 .604-2.628 2.021-18.7.705-21.631-.605-1.113-3.334-5.459-3.334-6.874-.2-1.516-.402-3.538-.402-3.538s-.605-2.831-.605-4.447c0-1.718 2.628-22.846 4.344-24.057.205-.403.407-.202.407 3.134-.407 3.031-4.651 23.754-3.035 27.997.404.911 2.021 2.225 3.035 2.225.199 1.314 3.032 32.547 3.538 37.197-.201 2.628-.201 6.771 1.82 7.481.201.605-3.134 3.335-1.316 4.446 1.718 1.112 5.561 1.721 7.077.607.404-1.717-.202-6.57.404-7.074.604-.607.91-4.855 1.111-6.168.204-1.313 0-6.569-1.312-10.312.401-4.447 1.11-16.477.606-17.185.402-.707.402-4.346 1.109-4.448.705 0 .705 7.28 1.111 10.314.402 2.021.402 2.626 1.109 3.739 0 1.112-2.221 20.518-.401 26.889.401 1.515-.708 4.447-.2 6.568-.607 1.113-1.819 3.337.602 3.537 1.821.202 4.855 0 7.078-2.02 1.113-1.112.709-5.057-.707-6.168.198-1.11 4.447-4.145 2.223-10.815 1.514-2.627.404-4.145-.402-12.13-2.426-18.902 4.747-20.724 3.941-27.091-1.113-8.895 7.279-6.976 7.582-17.284-.305-5.764.098-25.173.3-27.194zm-6.672 29.414c-.908.507-1.517 2.834-1.517 2.834l.305-19.208c1.212-1.317 1.719 15.565 1.212 16.374zm8.491-58.02c-.403.202-1.516 1.517-1.516 2.022 0 .604 1.313 1.514 2.224 1.717.908.203 1.315.404 2.426 1.315 1.111.91 3.537 5.658 4.647 7.278.913 2.02 13.85 18.497 14.76 19.408.909.909 1.72 2.424 2.021 5.964.405 3.537 4.145 18.498 4.348 20.721.404 2.021.706 23.351.706 24.462 0 1.112-1.11 3.335-1.11 3.335s-1.315 1.719-1.718 2.428c-.401.707-.401 1.921-1.922 3.738-1.514 1.921-2.425 8.087-2.831 12.735-1.923 5.765-3.741 15.163-3.741 15.163s1.314.203 2.427.605c.404.708.707 2.627.303 3.235-1.514.406-4.245.202-6.672 0-6.369-.201-3.538 3.537-2.628 4.349 1.515 1.514 3.639 2.019 5.561 2.224 2.729-.205 3.034-.307 5.964-.71 1.92-.203 2.021-3.741 2.021-4.851 1.313-5.966 13.243-28.608 13.243-28.608s1.109 1.313 1.716 2.021c1.111.604 21.128-1.516 22.442-1.717 1.112.201 1.518 2.425 3.334 3.033 1.923.604 1.112 4.447 2.628 5.66 3.032 1.11.708-5.965 2.427-5.255 1.717.708 9.398 4.85 11.018 5.76 4.65-4.853 13.645-26.178 13.645-26.178s-.605-2.021-3.942-3.336c-9.905-7.077-14.05-8.592-14.759-8.087-.602.909-4.446 8.389-4.446 8.389-1.013.402-1.716-.708-1.716-.708-.203-3.944-3.032-15.568-5.054-20.014-1.923-5.963-7.078-8.792-8.188-10.107-1.113-1.313-1.514-4.448-1.922-6.168 0-2.02-3.335-2.02-4.447-2.02-2.021-.911-7.48-6.165-8.186-6.876-.71-.709-.404-1.717.2-2.224 1.92-2.221 2.022-5.457 2.424-6.366-.907-8.189-9.702-6.875-12.13-6.167-2.628.606-3.13 5.459-4.144 6.167-1.112 1.111-.709 2.627-.709 2.627l-.708 2.021-.403.201c-1.717-1.719-14.556-16.072-16.275-16.983-1.514-1.313-4.649-6.57-5.054-7.48 0-3.538.202-8.997-1.111-8.997-1.717 0-.908 5.662-1.514 5.662-.709-1.315-4.348-.707-5.459-.203-.808.41 1.617.41 1.82.815zm52.26 75.002c.201-4.146 3.032-19.61 2.628-20.622 0 0 9.906 11.623 10.512 20.925 0 .907-.908 1.112.912 1.112-.405.707-.708 2.222.707 4.447.203.708.203 5.057 1.315 3.741.604-1.112 1.11-3.033 1.309-4.145.205-.605 1.922.202 1.922.202s-4.343 6.873-4.647 7.883c-.405.909-9.503 1.818-13.848-.707-.708-1.314-.91-4.65-2.022-5.966-.505-1.815 1.012-2.724 1.212-6.87zM269.718 83.124c-1.716-.303-2.526-1.515-3.638-1.819-.708-.204-4.853-1.82-6.568-3.236-1.013-.91-1.416-1.516-1.717-2.223v-.809c.2-3.941 2.626-3.233 2.626-4.65.204-1.415 6.27-13.848-7.681-14.051-.402 0-10.11-.404-5.459 4.346.201.405.201.607.304.607-.103.202-.708 1.112-.708 2.526 0 .809-.201 1.517-.505 2.124l.808 6.974c1.012.911 1.313 1.92.909 2.123l-.606.406.911 8.49v56.1c.101-.302.2-.604.403-.604.708 0 .708 7.277 1.113 10.313.404 2.02.404 2.626 1.11 3.738 0 .708-.808 7.784-1.013 14.759.102 2.123.102 4.144 0 6.267.102 2.427.307 4.449.708 5.864.404 1.515-.708 4.446-.201 6.568-.507 1.012-1.718 3.034.102 3.438l6.165-1.013c.506-.304 1.014-.606 1.416-1.013 1.112-1.111.708-5.054-.708-6.166.201-1.11 4.447-4.145 2.221-10.818 1.52-2.625.408-4.142-.4-12.128-2.426-18.902 4.752-20.722 3.943-27.09-1.111-8.896 7.277-6.974 7.582-17.286-.201-5.561.202-25.068.401-27.089.098-2.221-.808-4.544-1.518-4.648zm-5.153 34.168c-.911.506-1.519 2.832-1.519 2.832l.307-19.208c1.212-1.314 1.716 15.567 1.212 16.376zm84.909 13.848c.201-2.324-.809-4.649-1.416-4.75-1.717-.304-2.526-1.517-3.638-1.819-.707-.203-4.856-1.821-6.571-3.236-1.014-.908-1.415-1.515-1.717-2.221v-.81c.203-3.943 2.627-3.233 2.627-4.649.201-1.416 6.268-13.847-7.68-14.05-.406 0-10.11-.404-5.459 4.347.202.403.202.606.303.606-.101.202-.708 1.111-.708 2.525 0 2.225-1.717 3.64-.706 3.437 1.013-.201-1.012 3.538-.507 4.751 2.324.809 3.132 2.729 2.528 3.133-1.011.71-2.428.911-2.428.911s-9.703 1.921-11.622 2.729c.201 0-3.033 2.629-2.628 5.461 0 1.717-.203 2.628-.403 3.538-.202.909-6.367 25.069-5.765 34.164-.603.206-2.422 3.54 1.517 3.743l.202 1.111-.907 1.111s-2.227 1.82-2.835 13.243c0 .202-2.021 3.13-1.312 5.56.911 1.111 3.538 5.559 5.054 9.906 1.113 4.146 2.022 5.055 2.424 5.561.403.604 3.742.404 5.259 0 .604-2.628 2.021-18.7.705-21.631-.605-1.113-3.334-5.459-3.334-6.874-.2-1.516-.402-3.538-.402-3.538s-.605-2.831-.605-4.447c0-1.718 2.628-22.846 4.344-24.057.205-.403.407-.202.407 3.134-.407 3.031-4.651 23.754-3.035 27.997.404.911 2.021 2.225 3.035 2.225.199 1.314 3.032 32.547 3.538 37.197-.201 2.628-.201 6.771 1.82 7.481.201.605-3.134 3.335-1.316 4.446 1.718 1.112 5.561 1.721 7.077.607.404-1.717-.202-6.57.404-7.074.604-.607.91-4.855 1.111-6.168.204-1.313 0-6.569-1.312-10.312.401-4.447 1.11-16.477.606-17.185.402-.707.402-4.346 1.109-4.448.705 0 .705 7.28 1.111 10.314.402 2.021.402 2.626 1.109 3.739 0 1.112-2.221 20.518-.401 26.889.401 1.515-.708 4.447-.2 6.568-.607 1.113-1.819 3.337.602 3.537 1.821.202 4.855 0 7.078-2.02 1.113-1.112.709-5.057-.707-6.168.198-1.11 4.447-4.145 2.223-10.815 1.514-2.627.404-4.145-.402-12.13-2.426-18.902 4.747-20.724 3.941-27.091-1.113-8.895 7.279-6.976 7.582-17.284-.305-5.764.098-25.173.3-27.194zm-6.672 29.414c-.908.507-1.517 2.834-1.517 2.834l.305-19.208c1.212-1.317 1.719 15.565 1.212 16.374zm8.491-58.02c-.403.202-1.516 1.517-1.516 2.022 0 .604 1.313 1.514 2.224 1.717.908.203 1.315.404 2.426 1.315 1.111.91 3.537 5.658 4.647 7.278.913 2.02 13.85 18.497 14.76 19.408.909.909 1.72 2.424 2.021 5.964.405 3.537 4.145 18.498 4.348 20.721.404 2.021.706 23.351.706 24.462 0 1.112-1.11 3.335-1.11 3.335s-1.315 1.719-1.718 2.428c-.401.707-.401 1.921-1.922 3.738-1.514 1.921-2.425 8.087-2.831 12.735-1.923 5.765-3.741 15.163-3.741 15.163s1.314.203 2.427.605c.404.708.707 2.627.303 3.235-1.514.406-4.245.202-6.672 0-6.369-.201-3.538 3.537-2.628 4.349 1.515 1.514 3.639 2.019 5.561 2.224 2.729-.205 3.034-.307 5.964-.71 1.92-.203 2.021-3.741 2.021-4.851 1.313-5.966 13.243-28.608 13.243-28.608s1.109 1.313 1.716 2.021c1.111.604 21.128-1.516 22.442-1.717 1.112.201 1.518 2.425 3.334 3.033 1.923.604 1.112 4.447 2.628 5.66 3.032 1.11.708-5.965 2.427-5.255 1.717.708 9.398 4.85 11.018 5.76 4.65-4.853 13.645-26.178 13.645-26.178s-.605-2.021-3.942-3.336c-9.905-7.077-14.05-8.592-14.759-8.087-.602.909-4.446 8.389-4.446 8.389-1.013.402-1.716-.708-1.716-.708-.203-3.944-3.032-15.568-5.054-20.014-1.923-5.963-7.078-8.792-8.188-10.107-1.113-1.313-1.514-4.448-1.922-6.168 0-2.02-3.335-2.02-4.447-2.02-2.021-.911-7.48-6.165-8.186-6.876-.71-.709-.404-1.717.2-2.224 1.92-2.221 2.022-5.457 2.424-6.366-.907-8.189-9.702-6.875-12.13-6.167-2.628.606-3.13 5.459-4.144 6.167-1.112 1.111-.709 2.627-.709 2.627l-.708 2.021-.403.201c-1.717-1.719-14.556-16.072-16.275-16.983-1.514-1.313-4.649-6.57-5.054-7.48 0-3.538.202-8.997-1.111-8.997-1.717 0-.908 5.662-1.514 5.662-.709-1.315-4.348-.707-5.459-.203-.808.41 1.617.41 1.82.815zm52.26 75.002c.201-4.146 3.032-19.61 2.628-20.622 0 0 9.906 11.623 10.512 20.925 0 .907-.908 1.112.912 1.112-.405.707-.708 2.222.707 4.447.203.708.203 5.057 1.315 3.741.604-1.112 1.11-3.033 1.309-4.145.205-.605 1.922.202 1.922.202s-4.343 6.873-4.647 7.883c-.405.909-9.503 1.818-13.848-.707-.708-1.314-.91-4.65-2.022-5.966-.505-1.815 1.012-2.724 1.212-6.87z"/><path fill="#F1C40F" d="M72.607 161.146c2.001.076 2.754 1.062 2.682 2.952l-.023.605c-.052 1.358-.47 2.189-1.603 2.494 1.235.396 1.675 1.406 1.621 2.82l-.042 1.083c-.073 1.928-1.051 2.975-3.052 2.898l-2.956-.112.49-12.851 2.883.111zm-.367 11.55c1.046.04 1.545-.491 1.591-1.686l.043-1.138c.055-1.433-.497-1.932-1.727-1.979l-1.248-.047-.183 4.791 1.524.059zm-.19-6.109c1.139.043 1.74-.303 1.791-1.643l.029-.752c.043-1.14-.321-1.704-1.35-1.743l-1.413-.054-.158 4.149 1.101.043zM81.276 167.176l-.049 1.286-3.14-.119-.174 4.57 3.855.146-.05 1.304-5.287-.201.49-12.851 5.287.201-.05 1.304-3.855-.146-.168 4.387 3.141.119zM86.414 161.673c2.001.076 2.754 1.062 2.683 2.952l-.023.605c-.052 1.358-.47 2.189-1.603 2.494 1.235.396 1.675 1.406 1.621 2.82l-.042 1.083c-.073 1.928-1.051 2.975-3.052 2.898l-2.956-.112.49-12.851 2.882.111zm-.366 11.55c1.046.04 1.545-.491 1.59-1.686l.044-1.138c.055-1.433-.497-1.932-1.727-1.979l-1.248-.047-.183 4.791 1.524.059zm-.191-6.11c1.139.043 1.74-.303 1.791-1.643l.028-.752c.044-1.14-.32-1.704-1.349-1.743l-1.413-.054-.158 4.149 1.101.043zM91.788 172.154l-.594 2.57-1.321-.051 2.949-12.757 2.075.079 1.97 12.945-1.433-.055-.396-2.608-3.25-.123zm.232-1.221l2.863.108-1.167-7.471-1.696 7.363z"/><path fill="#E4BA0F" d="M104.206 162.352c2.001.076 2.754 1.062 2.683 2.952l-.023.605c-.052 1.358-.47 2.189-1.603 2.494 1.234.396 1.674 1.406 1.62 2.82l-.041 1.082c-.073 1.928-1.051 2.976-3.052 2.899l-2.956-.113.49-12.851 2.882.112zm-.366 11.549c1.046.04 1.545-.492 1.59-1.687l.044-1.138c.055-1.433-.497-1.931-1.728-1.978l-1.248-.048-.183 4.791 1.525.06zm-.191-6.11c1.139.044 1.74-.302 1.791-1.642l.028-.752c.044-1.14-.321-1.704-1.349-1.744l-1.414-.054-.158 4.149 1.102.043zM109.953 162.57l-.49 12.851-1.432-.055.49-12.851 1.432.055zM115.67 175.64l-1.377-.053-1.74-10.306-.391 10.243-1.248-.048.49-12.851 2.001.076 1.72 10.343 2.43-10.185 2.001.076-.49 12.851-1.358-.052.394-10.335-2.432 10.241zM122.084 173.31l-.595 2.57-1.321-.051 2.95-12.757 2.074.079 1.97 12.944-1.432-.055-.397-2.607-3.249-.123zm.23-1.223l2.863.109-1.167-7.471-1.696 7.362z"/><path fill="#B22922" d="M99 4"/><path fill="#DBDBDB" d="M164.072 164.325l-7.826 2.293-2.528 11.122h6.346zM38.418 170.156h3.807l-2.224-6.974-4.05-2.43z"/><g fill="#DBDBDB"><path d="M223.464 150.043s6.267-7.074 10.613-13.645c4.348-6.57 6.875-13.95 6.875-13.95l-1.72-24.059-13.772 4.44-3.783 36.921.274 10.293h1.513zM239.234 53.407l-8.816 1.031-4.351 42.464 13.167-2.859z"/></g><path fill="#DBDBDB" d="M283.386 96.118l18.924-2.783-1.212-31.336-11.285.756z"/><g fill="#0F8770"><path d="M285.223 44.007c.406 6.065 0 12.635 0 12.635h11.323s1.313-9.098 0-12.938c-.766-2.235-2.348-6.241-3.539-9.208l-8.652 4.659c.429 1.59.762 3.255.868 4.852zM278.051 56.441s1.312-9.098 0-12.939l-.281-.801-10.868 5.852c.047 4.311-.172 7.889-.172 7.889h11.321z"/></g><path fill="#0F8770" d="M212.146 45.119h24.26s1.012-5.56 0-10.412c-.108-.522-.276-1.026-.474-1.515l-24.952 7.963c1.507 1.869 1.166 3.964 1.166 3.964z"/><path fill="#BA4504" d="M139.466 205.232c2.735 0 4.953-2.218 4.953-4.953 0-2.373-1.672-4.352-3.901-4.835l-3.109 9.329c.628.289 1.321.459 2.057.459z"/><path fill="#0F8770" d="M158.268 207.357c3.908 0 7.076-3.169 7.076-7.077 0-2.333-1.135-4.396-2.877-5.686l-8.005 11.645c1.099.704 2.403 1.118 3.806 1.118z"/><circle fill="#16A085" cx="28.653" cy="192.832" r="7.075"/><circle fill="#D35400" cx="47.386" cy="194.446" r="4.953"/><path fill="#BA4504" d="M46.96 199.381c-2.725-.234-4.744-2.635-4.509-5.36.204-2.364 2.039-4.191 4.301-4.481l2.297 9.561c-.651.232-1.355.343-2.089.28z"/><path fill="#0F8770" d="M28.046 199.884c-3.894-.336-6.778-3.765-6.442-7.659.201-2.324 1.509-4.283 3.355-5.417l6.976 12.289c-1.157.606-2.491.907-3.889.787z"/><path d="M200.079 84.945l-4.043-3.132h-3.545l-4.908 32.517 1.984-2.497 6.976-.707 3.536-6.47z"/></svg>