<?xml version="1.0" encoding="UTF-8" standalone="no"?>
<!-- Generator: Adobe Illustrator 16.0.0, SVG Export Plug-In . SVG Version: 6.00 Build 0)  -->

<svg
   xmlns:dc="http://purl.org/dc/elements/1.1/"
   xmlns:cc="http://creativecommons.org/ns#"
   xmlns:rdf="http://www.w3.org/1999/02/22-rdf-syntax-ns#"
   xmlns:svg="http://www.w3.org/2000/svg"
   xmlns="http://www.w3.org/2000/svg"
   xmlns:sodipodi="http://sodipodi.sourceforge.net/DTD/sodipodi-0.dtd"
   xmlns:inkscape="http://www.inkscape.org/namespaces/inkscape"
   version="1.1"
   id="Logo"
   x="0px"
   y="0px"
   width="64px"
   height="64px"
   viewBox="64 40 64 64"
   enable-background="new 64 40 64 64"
   xml:space="preserve"
   inkscape:version="0.48.4 r9939"
   sodipodi:docname="bimatele_logo.svg"><metadata
     id="metadata3090"><rdf:RDF><cc:Work
         rdf:about=""><dc:format>image/svg+xml</dc:format><dc:type
           rdf:resource="http://purl.org/dc/dcmitype/StillImage" /></cc:Work></rdf:RDF></metadata><defs
     id="defs3088" /><sodipodi:namedview
     pagecolor="#ffffff"
     bordercolor="#666666"
     borderopacity="1"
     objecttolerance="10"
     gridtolerance="10"
     guidetolerance="10"
     inkscape:pageopacity="0"
     inkscape:pageshadow="2"
     inkscape:window-width="1024"
     inkscape:window-height="582"
     id="namedview3086"
     showgrid="false"
     inkscape:zoom="6.921875"
     inkscape:cx="32"
     inkscape:cy="32"
     inkscape:window-x="0"
     inkscape:window-y="18"
     inkscape:window-maximized="1"
     inkscape:current-layer="Logo" /><path
     id="B_1_"
     d="M114.324,69.153c5.613-4.009,6.334-10.426,4.09-15.96c-2.084-5.214-6.578-9.224-13.635-9.224  h-5.598v7.699h5.598c8.824,0,8.662,14.599-0.16,14.599h-7.98v8.02h10.145c5.455,0,8.18,4.493,8.18,8.903  c0,4.409-2.725,8.981-8.18,8.981H89.458V80.988l-8.021,8.02v11.023h25.345c10.746,0,16.281-8.502,16.281-16.922  C123.066,77.815,120.738,71.881,114.324,69.153z"
     fill="#F1C40F" /><path
     style="fill:#ffffff"
     d="m 97.357,43.969 0,7.7 -7.899,0 0,26.78 -8.01,8.012 0,-34.807 -12.512,0 0,-7.685 z"
     id="T" /></svg>