<?xml version="1.0" encoding="utf-8"?>
<!-- Generator: Adobe Illustrator 16.0.0, SVG Export Plug-In . SVG Version: 6.00 Build 0)  -->
<!DOCTYPE svg PUBLIC "-//W3C//DTD SVG 1.1//EN" "http://www.w3.org/Graphics/SVG/1.1/DTD/svg11.dtd">
<svg version="1.1" xmlns="http://www.w3.org/2000/svg" xmlns:xlink="http://www.w3.org/1999/xlink" x="0px" y="0px" width="120px"
	 height="120px" viewBox="0 0 120 120" enable-background="new 0 0 120 120" xml:space="preserve">
<g id="laptop_1_">
	<path id="text_1_" fill="none" stroke="#FF302C" stroke-width="0.15" stroke-miterlimit="10" d="M63.272,80.905v1.257h-0.285v-2.8
		h0.285v1.2h0.686v-1.257h0.287v2.799h-0.287V80.85L63.272,80.905z M65.785,80.049v0.057H65.5v-0.113c0-0.287-0.115-0.4-0.344-0.4
		c-0.228,0-0.342,0.113-0.342,0.4c0,0.628,0.914,0.685,0.914,1.485c0,0.457-0.172,0.685-0.63,0.685
		c-0.457,0-0.628-0.286-0.628-0.685v-0.173h0.286v0.173c0,0.285,0.113,0.398,0.342,0.398c0.229,0,0.344-0.113,0.344-0.398
		c0-0.628-0.913-0.687-0.913-1.485c0-0.457,0.171-0.687,0.627-0.687C65.614,79.362,65.785,79.649,65.785,80.049z M66.699,80.62
		h0.742v0.285h-0.742V80.62z M68.983,79.362c0.457,0,0.629,0.287,0.629,0.687v1.371c0,0.456-0.172,0.685-0.629,0.685h-0.685v-2.799
		h0.685V79.362z M68.983,81.876c0.229,0,0.344-0.113,0.344-0.398v-1.429c0-0.285-0.115-0.399-0.344-0.399h-0.343v2.227H68.983z
		 M70.925,80.62v0.285h-0.686v0.971h0.857v0.286h-1.143v-2.8h1.143v0.287h-0.857v0.913h0.686V80.62z M71.612,79.362l0.455,2.4
		l0.458-2.4h0.284l-0.513,2.8h-0.458l-0.513-2.8H71.612z M74.009,80.62v0.285h-0.684v0.971h0.8v0.286H72.98v-2.8h1.145v0.287h-0.8
		v0.913h0.684V80.62z M74.466,82.162v-2.8h0.287v2.514h0.8v0.286H74.466z M75.779,80.049c0-0.457,0.174-0.687,0.63-0.687
		s0.628,0.287,0.628,0.687v1.429c0,0.457-0.172,0.685-0.628,0.685s-0.63-0.286-0.63-0.685V80.049z M76.065,81.533
		c0,0.287,0.114,0.401,0.344,0.401c0.229,0,0.342-0.114,0.342-0.401v-1.484c0-0.285-0.113-0.399-0.342-0.399
		c-0.229,0-0.344,0.171-0.344,0.399V81.533z M77.951,79.362c0.457,0,0.628,0.287,0.628,0.687v0.344c0,0.457-0.171,0.684-0.686,0.684
		h-0.286v1.085h-0.284v-2.799H77.951z M77.894,80.791c0.229,0,0.343-0.114,0.343-0.342v-0.344c0-0.285-0.111-0.4-0.343-0.4h-0.286
		v1.145h0.286V80.791L77.894,80.791z M80.121,79.649c-0.228,0-0.343,0.114-0.343,0.399v0.113c0,0.23,0.112,0.344,0.343,0.344h0.285
		v-0.285h0.287v0.285h0.113v0.285h-0.113v0.972c0,0.113,0,0.229,0.057,0.342h-0.285c-0.059-0.057-0.059-0.112-0.059-0.228
		c-0.056,0.173-0.228,0.287-0.457,0.287c-0.344,0-0.514-0.228-0.514-0.631v-0.229c0-0.284,0.115-0.514,0.343-0.569
		c-0.226-0.059-0.343-0.286-0.343-0.573v-0.057c0-0.456,0.172-0.685,0.686-0.685h0.457v0.284h-0.457V79.649L80.121,79.649z
		 M80.121,80.85c-0.228,0-0.343,0.171-0.343,0.455v0.287c0,0.229,0.112,0.399,0.343,0.399c0.172,0,0.285-0.115,0.285-0.343v-0.744
		L80.121,80.85z M82.35,79.362c0.456,0,0.63,0.287,0.63,0.687v1.371c0,0.456-0.174,0.685-0.63,0.685h-0.686v-2.799h0.686V79.362z
		 M82.35,81.876c0.228,0,0.345-0.113,0.345-0.398v-1.429c0-0.285-0.116-0.399-0.345-0.399h-0.345v2.227H82.35z M84.234,80.62v0.285
		h-0.686v0.971h0.799v0.286h-1.143v-2.8h1.143v0.287h-0.799v0.913h0.686V80.62z M85.89,80.049v0.057h-0.285v-0.113
		c0-0.287-0.113-0.4-0.342-0.4s-0.343,0.113-0.343,0.4c0,0.628,0.914,0.685,0.914,1.485c0,0.457-0.172,0.685-0.63,0.685
		s-0.629-0.286-0.629-0.685v-0.173h0.345v0.173c0,0.285,0.113,0.398,0.343,0.398c0.229,0,0.343-0.113,0.343-0.398
		c0-0.628-0.913-0.687-0.913-1.485c0-0.457,0.171-0.687,0.629-0.687C85.662,79.362,85.89,79.649,85.89,80.049z M86.461,79.362v2.8
		h-0.286v-2.8H86.461z M88.004,80.049v0.229H87.72v-0.285c0-0.287-0.116-0.4-0.344-0.4c-0.23,0-0.344,0.172-0.344,0.4v1.485
		c0,0.285,0.113,0.398,0.344,0.398c0.228,0,0.345-0.171,0.345-0.398v-0.515h-0.287v-0.286h0.571v0.856
		c0,0.458-0.171,0.687-0.629,0.687c-0.459,0-0.629-0.285-0.629-0.687v-1.428c0-0.456,0.17-0.685,0.629-0.685
		C87.833,79.362,88.004,79.649,88.004,80.049z M88.574,82.162h-0.285v-2.8h0.4l0.627,2v-2h0.286v2.8H89.26l-0.686-2.229V82.162z"/>
	<path id="logo_1_" fill="none" stroke="#FF302C" stroke-width="0.25" stroke-miterlimit="10" d="M79.713,68.928l-7.379-2.314
		c-0.361-0.361-0.578-1.085-0.578-1.881s0.36-1.52,0.725-1.88l3.615-2.171l3.617,2.171V68.928z M68.937,64.877v8.463l1.952,1.229
		v-7.017c-0.361-0.36-0.578-1.084-0.578-1.953c0-0.794,0.289-1.519,0.649-1.953L68.937,64.877L68.937,64.877z M72.553,69.216v6.148
		l3.616,2.17l3.616-2.17c0.649-0.362,0.649-1.086,0.649-1.879c0-0.798-0.145-1.593-0.506-1.954L72.553,69.216L72.553,69.216z
		 M81.448,63.575v7.016c0.361,0.362,0.65,1.085,0.65,1.952c0,0.869-0.217,1.52-0.578,1.954l2.241-1.229v-8.462L81.448,63.575z"/>
		<path id="screen_1_" fill="none" stroke="#FF302C" stroke-width="0.5" stroke-miterlimit="10" d="M47.671,54.462h56.921v35.079H47.671V54.462z"/>
	<path id="keypad" fill="none" stroke="#FF302C" stroke-width="0.25" stroke-miterlimit="10" d="M117.396,94.386v-0.434v-1.663
		H34.725v1.953c0,0-0.507,0.939,3.11,1.735h76.304c0,0,2.533-0.144,3.257-1.374v-0.152
		C117.404,94.416,117.396,94.386,117.396,94.386z"/>
	<path id="button" fill="none" stroke="#FF302C" stroke-width="0.25" stroke-miterlimit="10" d="M70.455,92.361
		c0,0-0.291,1.086,0.723,1.158h9.62c0,0,1.012,0.145,0.867-1.158H70.455z"/>
	<path id="back_4_" fill="none" stroke="#FF302C" stroke-width="0.25" stroke-miterlimit="10" d="M105.461,52.148H46.659
		c-0.796,0-1.446,0.795-1.446,1.88v37.754c0,0.176,0.025,0.343,0.062,0.507h61.498c0.036-0.164,0.062-0.331,0.062-0.507h0.073
		V54.028C106.907,53.016,106.257,52.148,105.461,52.148z"/>
	<path id="button2" fill="none" stroke="#FF302C" stroke-width="0.25" stroke-miterlimit="10" d="M115.656,93.813
		c0,0.068-0.068,0.138-0.138,0.138h-2.681c-0.07,0-0.138-0.069-0.138-0.138s0.068-0.138,0.138-0.138h2.68
		C115.587,93.675,115.655,93.675,115.656,93.813L115.656,93.813z"/>
</g>
<g id="desktop_1_">
	<path id="text" fill="none" stroke="#FF302C" stroke-width="0.15" stroke-miterlimit="10" d="M40.993,64.482h-1.57v-3.847h1.57
		v0.392h-1.178v1.257h0.942v0.078v0.394h-0.942v1.334h1.178V64.482z M42.642,64.482l0.707-3.847h-0.392l-0.628,3.297L41.7,60.636
		h-0.393l0.707,3.847H42.642z M45.155,64.09h-1.1v-1.334h0.942v-0.394v-0.078h-0.942v-1.257h1.1v-0.392h-1.571v3.847h1.571V64.09z
		 M31.179,62.284h-0.942v-1.648h-0.393v3.847h0.393v-1.727l0.942-0.079v1.728h0.393v-3.847h-0.393V62.284z M32.828,60.558
		c-0.628,0-0.864,0.313-0.864,0.941c0,1.099,1.256,1.178,1.256,2.042c0,0.392-0.157,0.549-0.471,0.549
		c-0.314,0-0.472-0.157-0.472-0.549v-0.236h-0.392v0.236c0,0.549,0.236,0.941,0.864,0.941c0.628,0,0.864-0.314,0.864-0.941
		c0-1.1-1.256-1.179-1.256-2.042c0-0.393,0.157-0.55,0.471-0.55c0.314,0,0.471,0.157,0.471,0.55v0.158h0.393v-0.08
		C33.691,61.027,33.456,60.636,32.828,60.558z M35.968,62.362h-1.021v0.394h1.021V62.362z M38.088,64.404h-0.942v-3.847h0.942v0.078
		c0.628,0,0.863,0.392,0.863,0.941v1.885C38.952,64.09,38.716,64.404,38.088,64.404z M37.617,64.09h0.471
		c0.314,0,0.47-0.157,0.47-0.549v-1.964c0-0.393-0.156-0.55-0.47-0.55h-0.471V64.09z"/>
	<path id="logo" fill="none" stroke="#FF302C" stroke-width="0.25" stroke-miterlimit="10" d="M42.877,46.661l10.285,3.14
		c0.426,0.497,0.646,1.325,0.687,2.347h-7.19c-0.796,0-1.446,0.795-1.446,1.88v2.499l-2.335-1.387V46.661z M56.052,52.148h2.371
		V40.537l-3.219-1.728v9.657c0.472,0.55,0.943,1.57,0.943,2.669C56.147,51.5,56.108,51.833,56.052,52.148z M40.679,44.227
		c-0.471-0.55-0.785-1.57-0.785-2.669c0-1.178,0.392-2.12,0.863-2.669l-2.826,1.649v11.619l2.748,1.649V44.227z M52.849,46.189
		v-8.558l-4.946-2.983l-5.025,2.983c-0.471,0.55-1.021,1.57-1.021,2.67c0,1.177,0.314,2.198,0.785,2.669L52.849,46.189z"/>
	<path id="back" fill="none" stroke="#FF302C" stroke-width="0.25" stroke-miterlimit="10" d="M90.377,24.05H5.898
		c-1.492,0-3.298-0.314-3.298,1.177v51.424v4.711c0,1.492,1.806,3.927,3.298,3.927h33.289h6.025V72.727H7.311V26.405h80.868v25.744
		h4.711V25.227C92.89,23.735,91.869,24.05,90.377,24.05z"/>
	<path id="stand" fill="none" stroke="#FF302C" stroke-width="0.25" stroke-miterlimit="10" d="M36.57,92.289
		c0.197-0.185,0.392-0.372,0.576-0.563c1.963-2.041,2.042-6.438,2.042-6.438h6.025v6.493c0,0.176,0.025,0.343,0.062,0.507H36.57z
		 M34.725,94.242v-0.154c-0.525,0.685-0.407,1.174,1.248,1.342C34.43,94.806,34.725,94.242,34.725,94.242z"/>
</g>
</svg>
