<?xml version="1.0" encoding="utf-8"?>
<!-- Generator: Adobe Illustrator 16.0.0, SVG Export Plug-In . SVG Version: 6.00 Build 0)  -->
<!DOCTYPE svg PUBLIC "-//W3C//DTD SVG 1.1//EN" "http://www.w3.org/Graphics/SVG/1.1/DTD/svg11.dtd">
<svg version="1.1" xmlns="http://www.w3.org/2000/svg" xmlns:xlink="http://www.w3.org/1999/xlink" x="0px" y="0px" width="120px"
	 height="120px" viewBox="0 0 120 120" enable-background="new 0 0 120 120" xml:space="preserve">
<g id="desktop">
	<g>
		<path id="desktop-stand" fill="#B2B2B2" d="M59.475,91.972c-1.962-2.047-2.041-6.454-2.041-6.454H39.07
			c0,0-0.078,4.407-2.04,6.454c-1.962,2.046-5.101,3.778,0.314,3.778h10.595h0.706H59.24C64.576,95.75,61.437,93.94,59.475,91.972z"
			/>
		<path id="desktop-shadow" opacity="0.5" fill="#7C7C7C" enable-background="new    " d="M57.827,88.665
			c-0.392-1.573-0.392-3.147-0.392-3.147H39.07c0,0,0,1.574-0.392,3.147H57.827z"/>
		<path id="desktop-back-bt" fill="#B2B2B2" d="M2.5,81.582c0,1.494,1.805,3.936,3.296,3.936h84.442
			c1.492,0,2.512-2.441,2.512-3.936v-4.724H2.5V81.582z"/>
		<path id="desktop-back-black" fill="#231F20" d="M90.238,24.12H5.796C4.305,24.12,2.5,23.805,2.5,25.3v51.558h90.25V25.3
			C92.75,23.805,91.73,24.12,90.238,24.12L90.238,24.12z"/>
		<path id="desktop-screen_1_" fill="#D3D3D3" d="M7.208,26.481h80.833v46.441H7.208V26.481z"/>
		<path id="desktop-logo" fill="#FF302C" d="M52.726,46.317L42.524,43.09c-0.471-0.472-0.785-1.495-0.785-2.676
			c0-1.102,0.549-2.125,1.02-2.676l5.023-2.991l4.944,2.991V46.317z M37.815,40.649v11.649l2.747,1.654V44.35
			c-0.471-0.552-0.785-1.575-0.785-2.677c0-1.181,0.393-2.125,0.863-2.676L37.815,40.649z M42.759,46.79v8.501l5.023,2.99
			l5.021-2.99c0.941-0.551,0.941-1.495,0.941-2.676c0-1.181-0.234-2.125-0.705-2.677L42.759,46.79L42.759,46.79z M55.081,38.918
			v9.683c0.471,0.551,0.941,1.574,0.941,2.675c0,1.182-0.313,2.126-0.785,2.677l3.06-1.654V40.649L55.081,38.918z"/>
		<path id="desktop-text" fill="#FF302C" d="M30.125,62.926v1.731h-0.392V60.8h0.392v1.654h0.941v-1.732h0.393v3.856h-0.393v-1.73
			L30.125,62.926z M33.577,61.745v0.078h-0.393v-0.156c0-0.394-0.156-0.551-0.47-0.551s-0.471,0.157-0.471,0.551
			c0,0.865,1.255,0.943,1.255,2.046c0,0.63-0.235,0.944-0.863,0.944s-0.863-0.394-0.863-0.944v-0.236h0.392v0.236
			c0,0.394,0.157,0.551,0.471,0.551s0.471-0.157,0.471-0.551c0-0.865-1.255-0.944-1.255-2.046c0-0.631,0.235-0.945,0.863-0.945
			C33.342,60.8,33.577,61.193,33.577,61.745z M34.833,62.532h1.02v0.394h-1.02V62.532z M37.973,60.8
			c0.627,0,0.862,0.394,0.862,0.945v1.889c0,0.63-0.235,0.944-0.862,0.944H37.03v-3.856h0.942V60.8z M37.973,64.264
			c0.313,0,0.47-0.157,0.47-0.551v-1.968c0-0.395-0.157-0.552-0.47-0.552h-0.472v3.07H37.973z M40.64,62.532v0.394h-0.941v1.338
			h1.177v0.394h-1.569V60.8h1.569v0.394h-1.177v1.261h0.941V62.532z M41.582,60.8l0.628,3.307l0.628-3.307h0.393l-0.706,3.857
			h-0.628L41.19,60.8H41.582z M44.878,62.532v0.394h-0.942v1.338h1.099v0.394h-1.569V60.8h1.569v0.394h-1.099v1.261h0.942V62.532z
			 M45.506,64.657V60.8h0.393v3.464h1.099v0.394H45.506z M47.311,61.745c0-0.629,0.236-0.945,0.864-0.945
			c0.627,0,0.862,0.394,0.862,0.945v1.968c0,0.63-0.235,0.944-0.862,0.944c-0.628,0-0.864-0.394-0.864-0.944V61.745z M47.704,63.792
			c0,0.394,0.157,0.55,0.471,0.55c0.312,0,0.47-0.156,0.47-0.55v-2.047c0-0.395-0.157-0.552-0.47-0.552
			c-0.314,0-0.471,0.237-0.471,0.552V63.792z M50.293,60.8c0.628,0,0.863,0.394,0.863,0.945v0.472c0,0.631-0.235,0.944-0.942,0.944
			h-0.393v1.495H49.43V60.8H50.293z M50.215,62.769c0.314,0,0.472-0.157,0.472-0.472v-0.474c0-0.394-0.156-0.55-0.472-0.55h-0.393
			v1.574h0.393V62.769L50.215,62.769z M53.275,61.193c-0.314,0-0.472,0.157-0.472,0.552v0.158c0,0.313,0.156,0.472,0.472,0.472
			h0.393V61.98h0.393v0.395h0.157v0.394h-0.157v1.338c0,0.157,0,0.315,0.078,0.474h-0.392c-0.078-0.08-0.078-0.157-0.078-0.314
			c-0.08,0.236-0.314,0.394-0.628,0.394c-0.473,0-0.707-0.314-0.707-0.866v-0.316c0-0.394,0.158-0.708,0.471-0.787
			c-0.312-0.079-0.471-0.393-0.471-0.786v-0.08c0-0.63,0.235-0.943,0.942-0.943h0.628v0.394h-0.628V61.193L53.275,61.193z
			 M53.275,62.848c-0.314,0-0.472,0.235-0.472,0.629v0.394c0,0.315,0.156,0.552,0.472,0.552c0.235,0,0.393-0.158,0.393-0.474v-1.024
			L53.275,62.848z M56.336,60.8c0.629,0,0.865,0.394,0.865,0.945v1.889c0,0.63-0.236,0.944-0.865,0.944h-0.941v-3.856h0.941V60.8z
			 M56.336,64.264c0.314,0,0.473-0.157,0.473-0.551v-1.968c0-0.395-0.157-0.552-0.473-0.552h-0.471v3.07H56.336z M58.926,62.532
			v0.394h-0.942v1.338h1.098v0.394h-1.569V60.8h1.569v0.394h-1.098v1.261h0.942V62.532z M61.201,61.745v0.078H60.81v-0.156
			c0-0.394-0.157-0.551-0.471-0.551s-0.472,0.157-0.472,0.551c0,0.865,1.256,0.943,1.256,2.046c0,0.63-0.234,0.944-0.864,0.944
			c-0.628,0-0.864-0.394-0.864-0.944v-0.236h0.473v0.236c0,0.394,0.156,0.551,0.472,0.551c0.313,0,0.471-0.157,0.471-0.551
			c0-0.865-1.256-0.944-1.256-2.046c0-0.631,0.235-0.945,0.863-0.945C60.889,60.8,61.201,61.193,61.201,61.745z M61.986,60.8v3.857
			h-0.393V60.8H61.986z M64.105,61.745v0.315h-0.393v-0.394c0-0.394-0.156-0.551-0.471-0.551c-0.313,0-0.471,0.234-0.471,0.551
			v2.046c0,0.394,0.157,0.551,0.472,0.551c0.313,0,0.471-0.236,0.471-0.551v-0.708h-0.392V62.61h0.785v1.182
			c0,0.63-0.235,0.943-0.864,0.943c-0.63,0-0.865-0.393-0.865-0.943v-1.969c0-0.63,0.235-0.943,0.865-0.943
			C63.87,60.8,64.105,61.193,64.105,61.745z M64.89,64.657h-0.392V60.8h0.549l0.863,2.756V60.8h0.393v3.857h-0.471l-0.942-3.07
			V64.657z"/>
		
			<linearGradient id="desktop-screen-reflection_1_" gradientUnits="userSpaceOnUse" x1="-128.936" y1="-486.2012" x2="-85.459" y2="-486.2012" gradientTransform="matrix(1 0 0 -1 173.5 -436.5)">
			<stop  offset="0" style="stop-color:#FFFFFF;stop-opacity:0"/>
			<stop  offset="1" style="stop-color:#FFFFFF"/>
		</linearGradient>
		<path id="desktop-screen-reflection" opacity="0.6" fill="url(#desktop-screen-reflection_1_)" enable-background="new    " d="
			M44.564,72.922h43.477V26.481H72.268L44.564,72.922z"/>
	</g>
</g>
<g id="laptop">
	<g>
		<path id="laptop-back_1_" d="M106.705,92.028c0,1.02-0.649,1.893-1.443,1.893H46.609c-0.794,0-1.445-0.872-1.445-1.893V54.042
			c0-1.092,0.65-1.892,1.445-1.892h58.724c0.796,0,1.445,0.873,1.445,1.892v37.986H106.705z"/>
		<g id="laptop-bottom">
			<path fill="#5F6767" d="M34.69,94.503c0,0-0.506,0.946,3.106,1.746h76.205c0,0,2.528-0.146,3.251-1.382v-0.655L34.69,94.503z"/>
			
				<linearGradient id="SVGID_1_" gradientUnits="userSpaceOnUse" x1="107.1904" y1="985.2266" x2="189.7588" y2="985.2266" gradientTransform="matrix(1 0 0 1 -72.5 -891.5)">
				<stop  offset="0" style="stop-color:#999C9D"/>
				<stop  offset="9.591100e-004" style="stop-color:#A5A7A9"/>
				<stop  offset="0.0037" style="stop-color:#C2C3C5"/>
				<stop  offset="0.0067" style="stop-color:#D9D8DA"/>
				<stop  offset="0.0099" style="stop-color:#E9E7EA"/>
				<stop  offset="0.0134" style="stop-color:#F2F0F3"/>
				<stop  offset="0.0183" style="stop-color:#F5F3F6"/>
				<stop  offset="0.0488" style="stop-color:#DFE1E3"/>
				<stop  offset="0.189" style="stop-color:#D1D1D1"/>
				<stop  offset="0.5061" style="stop-color:#E3E5E7"/>
				<stop  offset="0.872" style="stop-color:#D1D1D1"/>
				<stop  offset="0.9512" style="stop-color:#DFE1E3"/>
				<stop  offset="0.9878" style="stop-color:#F5F3F6"/>
				<stop  offset="1" style="stop-color:#999C9D"/>
			</linearGradient>
			<path fill="url(#SVGID_1_)" d="M34.69,92.538h82.562v2.111c0,0,0.145,0.291-0.865,0.219H35.484c0,0-0.794,0.218-0.794-0.292
				V92.538z"/>
			<path fill="#5F6767" d="M113.424,93.849c0,0.072-0.072,0.146-0.145,0.146h-2.817c-0.073,0-0.144-0.074-0.144-0.146
				c0-0.073,0.072-0.146,0.144-0.146h2.816C113.351,93.703,113.423,93.703,113.424,93.849L113.424,93.849z"/>
			<path fill="#5F6767" d="M70.374,92.611c0,0-0.289,1.092,0.723,1.165h9.605c0,0,1.01,0.145,0.867-1.165H70.374z"/>
		</g>
		<path id="laptop-screen_1_" fill="#CCC8C8" d="M47.62,54.479h56.847v35.293H47.62V54.479z"/>
		<path id="laptop-logo" fill="#FF302C" d="M79.619,69.033l-7.368-2.328c-0.361-0.364-0.578-1.092-0.578-1.893
			s0.361-1.528,0.723-1.893l3.611-2.183l3.612,2.183V69.033z M68.856,64.958v8.515l1.95,1.237v-7.06
			c-0.361-0.363-0.578-1.092-0.578-1.965c0-0.8,0.289-1.527,0.649-1.964L68.856,64.958L68.856,64.958z M72.468,69.324v6.186
			l3.612,2.183l3.61-2.183c0.651-0.364,0.651-1.092,0.651-1.892s-0.145-1.601-0.506-1.965L72.468,69.324L72.468,69.324z
			 M81.352,63.648v7.059c0.361,0.364,0.651,1.092,0.651,1.965c0,0.874-0.218,1.528-0.578,1.966l2.239-1.238v-8.514L81.352,63.648z"
			/>
		<path id="laptop-text" fill="#FF302C" d="M63.294,81.113v1.237h-0.288v-2.766h0.288v1.237h0.723v-1.237h0.288v2.766h-0.288v-1.237
			H63.294z M65.821,80.24l-0.287,0.072V80.24c0-0.29-0.073-0.364-0.361-0.364c-0.217,0-0.36,0.146-0.36,0.364
			c0,0.654,0.938,0.728,0.938,1.455c0,0.438-0.216,0.729-0.649,0.729s-0.65-0.291-0.65-0.729V81.55h0.288v0.146
			c0,0.291,0.074,0.364,0.362,0.364c0.217,0,0.36-0.146,0.36-0.364c0-0.653-0.938-0.728-0.938-1.455c0-0.437,0.216-0.729,0.65-0.729
			C65.606,79.585,65.821,79.804,65.821,80.24z M66.689,80.822h0.723v0.291h-0.723V80.822z M69,79.585
			c0.434,0,0.651,0.291,0.651,0.728v1.383c0,0.438-0.218,0.729-0.651,0.729h-0.649v-2.767H69V79.585z M69,82.06
			c0.218,0,0.362-0.146,0.362-0.364V80.24c0-0.29-0.072-0.364-0.362-0.364h-0.36v2.256H69V82.06z M70.878,80.822v0.291h-0.722v1.019
			h0.794v0.292h-1.155v-2.767h1.155v0.291h-0.794v0.946h0.722V80.822z M71.528,79.585l0.434,2.401l0.434-2.401h0.288l-0.504,2.766
			h-0.435l-0.506-2.766H71.528z M73.984,80.822v0.291h-0.722v1.019h0.795v0.292h-1.156v-2.767h1.156v0.291h-0.795v0.946h0.722
			V80.822z M74.347,82.351v-2.766h0.289v2.475h0.866v0.291H74.347L74.347,82.351z M75.718,80.24c0-0.437,0.218-0.729,0.649-0.729
			c0.434,0,0.65,0.292,0.65,0.729v1.455c0,0.438-0.218,0.729-0.65,0.729c-0.432,0-0.649-0.291-0.649-0.729V80.24z M76.007,81.695
			c0,0.291,0.073,0.364,0.36,0.364c0.289,0,0.362-0.146,0.362-0.364V80.24c0-0.29-0.073-0.364-0.362-0.364
			c-0.287,0-0.36,0.146-0.36,0.364V81.695z M77.886,79.585c0.435,0,0.649,0.291,0.649,0.728v0.364c0,0.437-0.216,0.654-0.649,0.654
			h-0.289v1.092h-0.289v-2.766h0.578V79.585z M77.813,80.968c0.216,0,0.361-0.073,0.361-0.364V80.24c0-0.29-0.074-0.364-0.361-0.364
			h-0.29v1.092H77.813z M79.98,79.876c-0.217,0-0.361,0.146-0.361,0.364v0.146c0,0.218,0.145,0.363,0.361,0.363h0.288v-0.29h0.289
			v0.29h0.145v0.291h-0.145v0.946c0,0.146,0,0.219,0.071,0.364h-0.287c0-0.074,0-0.146-0.073-0.219
			c-0.071,0.146-0.216,0.292-0.433,0.292c-0.361,0-0.506-0.219-0.506-0.654v-0.293c0-0.29,0.072-0.509,0.36-0.582
			c-0.216-0.073-0.36-0.291-0.36-0.582V80.24c0-0.437,0.216-0.729,0.65-0.729h0.433v0.292H79.98V79.876z M79.98,81.04
			c-0.217,0-0.361,0.146-0.361,0.437v0.292c0,0.218,0.071,0.363,0.361,0.363c0.145,0,0.288-0.073,0.288-0.363V81.04H79.98z
			 M82.218,79.585c0.436,0,0.651,0.291,0.651,0.728v1.383c0,0.438-0.217,0.729-0.651,0.729h-0.648v-2.767h0.648V79.585z
			 M82.218,82.06c0.218,0,0.363-0.146,0.363-0.364V80.24c0-0.29-0.073-0.364-0.363-0.364h-0.36v2.256h0.36V82.06z M84.098,80.822
			v0.291h-0.723v1.019h0.795v0.292h-1.084v-2.767h1.156v0.291h-0.795v0.946h0.65V80.822z M85.76,80.24l-0.291,0.072V80.24
			c0-0.29-0.071-0.364-0.36-0.364c-0.288,0-0.36,0.146-0.36,0.364c0,0.654,0.938,0.728,0.938,1.455c0,0.438-0.217,0.729-0.647,0.729
			c-0.435,0-0.651-0.291-0.651-0.729V81.55h0.361v0.146c0,0.291,0.072,0.364,0.361,0.364s0.361-0.146,0.361-0.364
			c0-0.653-0.939-0.728-0.939-1.455c0-0.437,0.217-0.729,0.65-0.729C85.542,79.585,85.76,79.804,85.76,80.24z M86.336,79.585v2.766
			h-0.289v-2.766H86.336z M87.854,80.24v0.219h-0.289v-0.292c0-0.291-0.073-0.363-0.361-0.363c-0.289,0-0.36,0.145-0.36,0.363v1.456
			c0,0.29,0.071,0.363,0.36,0.363c0.288,0,0.361-0.146,0.361-0.363v-0.51h-0.289v-0.291h0.578v0.801
			c0,0.437-0.218,0.728-0.648,0.728c-0.436,0-0.651-0.291-0.651-0.728v-1.456c0-0.438,0.218-0.728,0.651-0.728
			C87.636,79.585,87.854,79.804,87.854,80.24z M88.432,82.351h-0.289v-2.766h0.36l0.651,2.038v-2.038h0.289v2.766h-0.362
			l-0.723-2.257v2.257H88.432z"/>
		
			<linearGradient id="laptop-reflection_2_" gradientUnits="userSpaceOnUse" x1="-108.9775" y1="-508.5171" x2="-69.1045" y2="-508.5171" gradientTransform="matrix(1 0 0 -1 173.5 -436.5)">
			<stop  offset="0" style="stop-color:#FFFFFF;stop-opacity:0"/>
			<stop  offset="1" style="stop-color:#FFFFFF"/>
		</linearGradient>
		<path id="laptop-reflection_1_" opacity="0.6" fill="url(#laptop-reflection_2_)" enable-background="new    " d="M64.522,89.482
			h39.873V54.552H88.792L64.522,89.482z"/>
	</g>
</g>
</svg>
