<svg xmlns="http://www.w3.org/2000/svg" xmlns:xlink="http://www.w3.org/1999/xlink" id="graphic-Layer_1" xml:space="preserve" height="120" viewBox="0 0 120 120" width="120" version="1.1" y="0px" x="0px" enable-background="new 0 0 120 120"><polygon id="graphic-back" points="13 33.1 59.5 6.1 106 33.1 106 87 59.5 113.9 13 87" fill="#ddd"/><g id="graphic-eye">	<path d="m73.6 59.4c-0.2-0.4-6.1-9.1-13.6-9.1s-13.3 8.7-13.6 9.1l-0.4 0.6 0.4 0.6c0.2 0.4 6.1 9.1 13.6 9.1s13.3-8.7 13.6-9.1l0.4-0.6-0.4-0.6z" fill="#fff"/>	<circle cy="60" cx="60" r="7" fill="#ddd"/>	<circle cy="60" cx="60" r="3" fill="#fff"/>	<circle cy="59" cx="61" r=".8" fill="#ddd"/></g><g id="graphic-pencil">	<path d="m73.5 67.3c0.8 0.8 0.7 2.5-0.3 3.5l-2.2 2.2c-1 1-2.8 1.3-3.6 0.4l-3-3c-0.801-0.801 0.1-2 1.1-3l2.1-2.101c1-1 2-1.899 2.9-1l3 3.001z" fill="#4889F8"/>		<rect transform="matrix(.707 -.7072 .7072 .707 -29.118 70.483)" height="4.301" width="8.601" y="68.235" x="66.212" fill="#666"/>		<rect transform="matrix(.707 -.7072 .7072 .707 -36.806 89.103)" height="48.4" width="8.601" y="64.775" x="84.841" fill="#BD3D33"/>		<rect transform="matrix(.7071 -.7071 .7071 .7071 -38.395 88.457)" height="48.399" width="4.299" y="66.376" x="85.429" fill="#DE483C"/>	<polygon points="115 115 109.2 112 103.4 109 106.2 106.2 109 103.4 112 109.2" fill="#C8A856"/>	<polygon points="114.8 114.8 111.5 113.1 112.3 112.3 113.1 111.5" fill="#666"/></g><g id="graphic-paint">		<rect transform="matrix(-.707 -.7072 .7072 -.707 104.68 207)" height="7.799" width="6" y="77.919" x="92.217" fill="#EAB229"/>		<rect transform="matrix(-.7071 -.7071 .7071 -.7071 103.45 204.11)" height="7.8" width="2.599" y="76.728" x="92.696" fill="#FFD97D"/>	<path d="m107.7 78.3c-3.7 3.4-8.1 4.6-10.4 1.6-2.1-2.601-1.8-6.7 1.601-10.4 6.1-6.6 16.1-7.3 16.1-7.3s-1.5 10.7-7.3 16.1z" fill="#37353A"/>	<path d="m66.9 114.2c-1 1-2.4 1.1-3.4 0.1l-0.6-0.6c-1-1-1.101-2.5-0.101-3.5l29.4-31.9c0.6-0.6 7.2 6 6.6 6.601l-31.899 29.299z" fill="#4B4555"/>	<path d="m92.4 78.2l-25.8 36.3c0.101-0.1 0.2-0.2 0.301-0.3l31.899-29.4c0.7-0.6-5.4-6.7-6.4-6.6z" fill="#665E73"/></g></svg>