<?xml version="1.0" encoding="utf-8"?>
<!-- Generator: Adobe Illustrator 16.0.0, SVG Export Plug-In . SVG Version: 6.00 Build 0)  -->
<!DOCTYPE svg PUBLIC "-//W3C//DTD SVG 1.1//EN" "http://www.w3.org/Graphics/SVG/1.1/DTD/svg11.dtd">
<svg version="1.1" id="graphic" xmlns="http://www.w3.org/2000/svg" xmlns:xlink="http://www.w3.org/1999/xlink" x="0px" y="0px"
	 width="120px" height="120px" viewBox="0 0 120 120" enable-background="new 0 0 120 120" xml:space="preserve">
<polygon id="back" fill="none" stroke="#FF302C" stroke-width="0.25" stroke-miterlimit="10" points="59.5,6.1 13,33.1 13,87 
	59.5,113.9 106,87 106,33.1 "/>
<g id="eye">
	<path id="eyeball" fill="none" stroke="#FF302C" stroke-width="0.25" stroke-miterlimit="10" d="M73.6,60.6
		C73.3,61,67.5,69.7,60,69.7S46.6,61,46.4,60.6L46,60l0.4-0.6C46.7,59,52.5,50.3,60,50.3S73.4,59,73.6,59.4L74,60L73.6,60.6z"/>
	<circle id="iris" fill="none" stroke="#FF302C" stroke-width="0.25" stroke-miterlimit="10" cx="60" cy="60" r="7"/>
	<circle id="pupil" fill="none" stroke="#FF302C" stroke-width="0.25" stroke-miterlimit="10" cx="60" cy="60" r="3"/>
	<circle id="reflection" fill="none" stroke="#FF302C" stroke-width="0.25" stroke-miterlimit="10" cx="61" cy="59" r="0.8"/>
</g>
<g id="pencil">
	<polygon id="rubberholder" fill="none" stroke="#FF302C" stroke-width="0.25" stroke-miterlimit="10" points="46.5,40.266 
		43.482,37.249 37.4,43.332 40.442,46.373 40.46,46.354 40.437,46.331 	"/>
	<path id="rubber" fill="none" stroke="#FF302C" stroke-width="0.25" stroke-miterlimit="10" d="M41.951,35.73
		c-0.9-0.898-1.9,0-2.9,1l-2.1,2.102c-1,1-1.9,2.199-1.1,3l1.549,1.5l6.075-6.077L41.951,35.73z"/>
	<polygon id="penhandle" fill="none" stroke="#FF302C" stroke-width="0.25" stroke-miterlimit="10" points="77.726,77.454 
		80.646,74.504 80.668,74.545 80.746,74.467 46.518,40.248 46.5,40.266 46.523,40.29 40.46,46.354 74.665,80.549 74.808,80.406 
		74.805,80.405 	"/>
	<path id="pentip" fill="none" stroke="#FF302C" stroke-width="0.25" stroke-miterlimit="10" d="M86.904,86.729l-3.129-6.113
		l-3.107-6.07l-5.86,5.861l6.047,3.161L86.904,86.729z M84.204,84.027l0.8-0.799l1.7,3.299l-3.3-1.699L84.204,84.027z"/>
</g>
<g id="brush">
	<path id="tip" fill="none" stroke="#FF302C" stroke-width="0.25" stroke-miterlimit="10" d="M70.164,40.869
		c-2.313,2.517-3.188,5.217-2.853,7.506c0.038,0.262,0.093,0.518,0.163,0.769c0.007,0.026,0.017,0.05,0.024,0.076
		c0.061,0.207,0.133,0.41,0.215,0.607c0.025,0.063,0.054,0.124,0.081,0.185c0.075,0.165,0.158,0.325,0.248,0.481
		c0.034,0.06,0.066,0.122,0.104,0.181c0.127,0.205,0.264,0.405,0.417,0.595c0.165,0.215,0.344,0.403,0.528,0.575
		c0.058,0.054,0.119,0.099,0.179,0.149c0.134,0.112,0.272,0.216,0.416,0.309c0.069,0.045,0.141,0.088,0.212,0.128
		c0.149,0.083,0.304,0.156,0.462,0.22c0.065,0.026,0.129,0.057,0.196,0.08c0.226,0.078,0.457,0.142,0.696,0.183
		c2.296,0.39,5.169-0.908,7.711-3.244h0.001c5.8-5.399,7.3-16.1,7.3-16.1S76.265,34.269,70.164,40.869z"/>
	<path id="handle" fill="none" stroke="#FF302C" stroke-width="0.25" stroke-miterlimit="10" d="M68.032,53.026
		c-0.002-0.002-0.004-0.004-0.006-0.006c-0.918-0.961-1.954-1.93-2.782-2.584v0c-0.641-0.506-1.158-0.828-1.393-0.804
		c0,0-0.17,0.068-0.201,0.1l-29.4,31.9c-1,1-0.898,2.5,0.102,3.5l0.6,0.6c0.93,0.93,2.201,0.898,3.18,0.088l-0.08,0.113
		c0.102-0.1,0.2-0.201,0.301-0.301L70.25,56.332c0.038-0.038,0.046-0.104,0.028-0.188c0.071-0.231-0.256-0.78-0.793-1.464l0,0
		C69.092,54.179,68.583,53.604,68.032,53.026z"/>
	<path id="neck" fill="none" stroke="#FF302C" stroke-width="0.25" stroke-miterlimit="10" d="M70.36,52.649
		c-0.158-0.064-0.313-0.136-0.462-0.22c-0.071-0.041-0.143-0.083-0.212-0.128c-0.144-0.092-0.282-0.196-0.416-0.309
		c-0.06-0.05-0.121-0.095-0.179-0.149c-0.185-0.172-0.363-0.36-0.528-0.575c-0.153-0.19-0.29-0.39-0.417-0.595
		c-0.037-0.059-0.069-0.12-0.104-0.181c-0.09-0.157-0.173-0.317-0.248-0.481c-0.027-0.062-0.056-0.122-0.081-0.185
		c-0.082-0.198-0.154-0.4-0.215-0.607c-0.008-0.026-0.018-0.05-0.024-0.076c-0.07-0.25-0.125-0.507-0.163-0.769
		c0-0.001-0.001-0.003-0.001-0.004l-2.066,2.065c0.828,0.655,1.862,1.622,2.782,2.585c0.002,0.002,0.004,0.004,0.006,0.006
		c0.552,0.579,1.06,1.152,1.453,1.654l1.769-1.768c0,0,0,0-0.001,0c-0.239-0.041-0.471-0.105-0.696-0.183
		C70.489,52.706,70.426,52.676,70.36,52.649z"/>
</g>
</svg>
