<?xml version="1.0"?>
<!--Icons from directory ""-->
<svg xmlns="http://www.w3.org/2000/svg" width="300" height="900" viewBox="0 0 300 900"><svg xmlns:xlink="http://www.w3.org/1999/xlink" xml:space="preserve" height="300" width="300" version="1.1" y="0" x="0px" viewBox="-140 -140 400 400" enable-background="new -140 -140 400 400" id="desk_lap_color_big"><g id="desk_lap_color_big-laptop">			<path id="desk_lap_color_big-desktop-stand" d="m58.673 164.37c-6.441-6.718-6.697-21.183-6.697-21.183h-60.274s-0.254 14.465-6.695 21.183c-6.439 6.715-16.742 12.401 1.032 12.401h71.861c17.514 0.01 7.209-5.93 0.773-12.4z" fill="#B2B2B2"/>			<path id="desk_lap_color_big-desktop-shadow" opacity=".5" d="m53.262 153.52c-1.287-5.163-1.287-10.33-1.287-10.33h-60.273s0 5.167-1.287 10.33h62.847z" enable-background="new    " fill="#7C7C7C"/>			<path id="desk_lap_color_big-desktop-back-bt" d="m-128.32 130.27c0 4.904 5.925 12.917 10.819 12.917h277.15c4.896 0 8.244-8.013 8.244-12.917v-15.503h-296.21v15.5z" fill="#B2B2B2"/>			<path id="desk_lap_color_big-desktop-back-black" d="m159.64-58.322h-277.15c-4.894 0-10.819-1.034-10.819 3.875v169.22h296.21v-169.22c0-4.906-3.34-3.872-8.24-3.872z" fill="#231F20"/>			<path id="desk_lap_color_big-desktop-screen_1_" d="m-112.87-50.572h265.3v152.42h-265.3v-152.42z" fill="#D3D3D3"/>			<path id="desk_lap_color_big-desktop-logo" d="m36.52 14.533l-33.481-10.594c-1.546-1.549-2.577-4.906-2.577-8.783 0-3.617 1.803-6.977 3.346-8.784l16.486-9.817 16.226 9.817v28.161zm-48.938-18.603v38.235l9.016 5.428v-31.519c-1.545-1.811-2.577-5.168-2.577-8.785 0-3.875 1.288-6.975 2.833-8.784l-9.272 5.425zm16.226 20.153v27.901l16.486 9.814 16.481-9.814c3.09-1.808 3.09-4.907 3.09-8.782 0-3.876-0.768-6.976-2.313-8.785l-33.744-10.334zm40.442-25.836v31.779c1.545 1.808 3.09 5.165 3.09 8.781 0 3.878-1.029 6.978-2.576 8.785l10.043-5.428v-38.234l-10.557-5.683z" fill="#FF302C"/>			<path id="desk_lap_color_big-desktop-text" d="m-37.659 69.043v5.683h-1.287v-12.66h1.287v5.43h3.09v-5.687h1.29v12.658h-1.29v-5.68l-3.09 0.256zm11.332-3.875v0.256h-1.289v-0.512c0-1.292-0.511-1.809-1.543-1.809s-1.544 0.517-1.544 1.809c0 2.84 4.12 3.096 4.12 6.715 0 2.066-0.772 3.099-2.833 3.099s-2.833-1.292-2.833-3.099v-0.776h1.287v0.776c0 1.291 0.516 1.807 1.546 1.807s1.545-0.516 1.545-1.807c0-2.84-4.12-3.1-4.12-6.715 0-2.071 0.772-3.104 2.833-3.104 2.059 0.257 2.831 1.549 2.831 3.36zm4.122 2.584h3.348v1.291h-3.348v-1.291zm10.305-5.687c2.06 0 2.83 1.292 2.83 3.103v6.199c0 2.066-0.771 3.1-2.83 3.1h-3.093v-12.658h3.093v0.256zm0 11.369c1.027 0 1.543-0.516 1.543-1.807v-6.459c0-1.295-0.516-1.811-1.543-1.811h-1.548v10.076h1.548zm8.754-5.682v1.291h-3.088v4.391h3.862v1.292h-5.151v-12.66h5.151v1.292h-3.862v4.138h3.088v0.256zm3.092-5.687l2.061 10.853 2.061-10.853h1.289l-2.317 12.66h-2.062l-2.319-12.66h1.287zm10.819 5.687v1.291h-3.091v4.391h3.605v1.292h-5.15v-12.66h5.15v1.292h-3.605v4.138h3.091v0.256zm2.059 6.974v-12.66h1.289v11.368h3.606v1.292h-4.895zm5.924-9.558c0-2.064 0.775-3.103 2.836-3.103 2.06 0 2.83 1.292 2.83 3.103v6.459c0 2.066-0.771 3.099-2.83 3.099-2.061 0-2.836-1.292-2.836-3.099v-6.459zm1.29 6.718c0 1.292 0.515 1.805 1.546 1.805 1.024 0 1.543-0.513 1.543-1.805v-6.718c0-1.295-0.515-1.811-1.543-1.811-1.032 0-1.546 0.778-1.546 1.811v6.718zm8.5-9.821c2.061 0 2.833 1.292 2.833 3.103v1.548c0 2.071-0.772 3.1-3.091 3.1h-1.289v4.907h-1.287v-12.658h2.834zm-0.258 6.462c1.03 0 1.55-0.517 1.55-1.549v-1.555c0-1.291-0.513-1.804-1.55-1.804h-1.289v5.167h1.289v-0.259zm10.045-5.17c-1.03 0-1.55 0.516-1.55 1.811v0.52c0 1.028 0.513 1.548 1.55 1.548h1.289v-1.296h1.289v1.295h0.516v1.292h-0.516v4.391c0 0.516 0 1.035 0.254 1.555h-1.287c-0.256-0.263-0.256-0.516-0.256-1.032-0.261 0.776-1.032 1.292-2.061 1.292-1.551 0-2.319-1.032-2.319-2.844v-1.038c0-1.292 0.518-2.323 1.545-2.583-1.022-0.26-1.545-1.289-1.545-2.58v-0.264c0-2.066 0.772-3.096 3.091-3.096h2.061v1.292h-2.061v-0.263zm0 5.43c-1.03 0-1.55 0.771-1.55 2.063v1.292c0 1.035 0.513 1.811 1.55 1.811 0.772 0 1.289-0.52 1.289-1.555v-3.361l-1.289-0.25zm10.045-6.722c2.064 0 2.84 1.292 2.84 3.103v6.199c0 2.066-0.776 3.1-2.84 3.1h-3.09v-12.658h3.09v0.256zm0 11.369c1.03 0 1.551-0.516 1.551-1.807v-6.459c0-1.295-0.514-1.811-1.551-1.811h-1.545v10.076h1.545zm8.502-5.682v1.291h-3.092v4.391h3.603v1.292h-5.151v-12.66h5.151v1.292h-3.603v4.138h3.092v0.256zm7.466-2.584v0.256h-1.285v-0.512c0-1.292-0.516-1.809-1.547-1.809-1.03 0-1.548 0.517-1.548 1.809 0 2.84 4.125 3.096 4.125 6.715 0 2.066-0.77 3.099-2.838 3.099-2.062 0-2.836-1.292-2.836-3.099v-0.776h1.553v0.776c0 1.291 0.511 1.807 1.548 1.807 1.027 0 1.547-0.516 1.547-1.807 0-2.84-4.123-3.1-4.123-6.715 0-2.071 0.772-3.104 2.833-3.104 1.546 0.257 2.571 1.549 2.571 3.36zm2.576-3.103v12.66h-1.287v-12.66h1.287zm6.955 3.103v1.035h-1.287v-1.291c0-1.292-0.514-1.809-1.545-1.809-1.029 0-1.545 0.77-1.545 1.809v6.715c0 1.291 0.516 1.807 1.547 1.807 1.029 0 1.545-0.775 1.545-1.807v-2.324h-1.285v-1.295h2.578v3.878c0 2.067-0.773 3.097-2.838 3.097-2.066 0-2.84-1.289-2.84-3.097v-6.462c0-2.066 0.773-3.096 2.84-3.096 2.059-0.263 2.83 1.029 2.83 2.84zm2.574 9.558h-1.285v-12.66h1.801l2.834 9.045v-9.045h1.289v12.66h-1.545l-3.094-10.077v10.077z" fill="#FF302C"/>				<linearGradient id="desk_lap_color_big-desktop-screen-reflection_1_" y2="-462.14" gradientUnits="userSpaceOnUse" x2="-21.072" gradientTransform="matrix(1 0 0 -1 173.5 -436.5)" y1="-462.14" x1="-163.77">				<stop stop-color="#fff" stop-opacity="0" offset="0"/>				<stop stop-color="#fff" offset="1"/>			</linearGradient>			<path id="desk_lap_color_big-desktop-screen-reflection" opacity=".6" d="m9.733 101.85h142.7v-152.42h-51.77l-90.927 152.42z" enable-background="new    " fill="url(#desk_lap_color_big-desktop-screen-reflection_1_)"/>			<path id="desk_lap_color_big-laptop-back_1_" d="m213.69 164.56c0 3.346-2.131 6.211-4.736 6.211h-192.5c-2.607 0-4.742-2.862-4.742-6.211v-124.67c0-3.583 2.135-6.208 4.742-6.208h192.74c2.613 0 4.744 2.865 4.744 6.208v124.68h-0.24z"/>			<g id="desk_lap_color_big-laptop-bottom">				<path d="m-22.673 172.68s-1.66 3.106 10.194 5.731h250.11s8.299-0.478 10.67-4.535v-2.151l-270.97 0.95z" fill="#5F6767"/>					<linearGradient id="desk_lap_color_big-SVGID_1_" y2="1061.6" gradientUnits="userSpaceOnUse" x2="320.82" gradientTransform="translate(-72.5 -891.5)" y1="1061.6" x1="49.827">					<stop stop-color="#999C9D" offset="0"/>					<stop stop-color="#A5A7A9" offset=".00095911"/>					<stop stop-color="#C2C3C5" offset=".0037"/>					<stop stop-color="#D9D8DA" offset=".0067"/>					<stop stop-color="#E9E7EA" offset=".0099"/>					<stop stop-color="#F2F0F3" offset=".0134"/>					<stop stop-color="#F5F3F6" offset=".0183"/>					<stop stop-color="#DFE1E3" offset=".0488"/>					<stop stop-color="#D1D1D1" offset=".189"/>					<stop stop-color="#E3E5E7" offset=".5061"/>					<stop stop-color="#D1D1D1" offset=".872"/>					<stop stop-color="#DFE1E3" offset=".9512"/>					<stop stop-color="#F5F3F6" offset=".9878"/>					<stop stop-color="#999C9D" offset="1"/>				</linearGradient>				<path d="m-22.673 166.23h270.97v6.93s0.475 0.955-2.84 0.718h-265.53s-2.606 0.715-2.606-0.958v-6.69z" fill="url(#desk_lap_color_big-SVGID_1_)"/>				<path d="m235.74 170.53c0 0.237-0.236 0.478-0.473 0.478h-9.248c-0.24 0-0.471-0.243-0.471-0.478 0-0.24 0.236-0.478 0.471-0.478h9.244c0.236 0 0.475 0 0.475 0.478z" fill="#5F6767"/>				<path d="m94.443 166.47s-0.947 3.583 2.373 3.823h31.525s3.314 0.475 2.846-3.823h-36.747z" fill="#5F6767"/>			</g>			<path id="desk_lap_color_big-laptop-screen_1_" d="m19.764 41.32h186.58v115.84h-186.58v-115.84z" fill="#CCC8C8"/>			<path id="desk_lap_color_big-laptop-logo" d="m124.79 89.088l-24.184-7.641c-1.186-1.195-1.896-3.584-1.896-6.212s1.186-5.017 2.371-6.212l11.854-7.163 11.855 7.163v20.065zm-35.327-13.375v27.945l6.4 4.062v-23.17c-1.186-1.192-1.896-3.583-1.896-6.449 0-2.625 0.949-5.013 2.131-6.445l-6.635 4.057zm11.857 14.33v20.302l11.855 7.163 11.85-7.163c2.137-1.195 2.137-3.583 2.137-6.208s-0.473-5.254-1.66-6.449l-24.19-7.638zm29.15-18.628v23.167c1.186 1.195 2.139 3.583 2.139 6.449 0 2.868-0.715 5.016-1.898 6.451l7.35-4.064v-27.944l-7.59-4.061z" fill="#FF302C"/>			<path id="desk_lap_color_big-laptop-text" d="m71.207 128.74v4.061h-0.945v-9.077h0.945v4.062h2.371v-4.062h0.945v9.077h-0.945v-4.061h-2.371zm8.295-2.87l-0.943 0.236v-0.236c0-0.952-0.24-1.196-1.186-1.196-0.711 0-1.182 0.478-1.182 1.196 0 2.146 3.076 2.388 3.076 4.775 0 1.436-0.709 2.391-2.131 2.391-1.424 0-2.135-0.955-2.135-2.391v-0.478h0.945v0.478c0 0.955 0.244 1.195 1.189 1.195 0.711 0 1.182-0.478 1.182-1.195 0-2.145-3.08-2.388-3.08-4.775 0-1.434 0.709-2.392 2.135-2.392 1.425 0.25 2.13 0.97 2.13 2.4zm2.85 1.91h2.371v0.955h-2.371v-0.96zm7.582-4.06c1.424 0 2.139 0.955 2.139 2.388v4.539c0 1.436-0.715 2.391-2.139 2.391h-2.131v-9.08h2.131v-0.24zm0 8.12c0.715 0 1.189-0.478 1.189-1.195v-4.775c0-0.952-0.236-1.196-1.189-1.196h-1.182v7.404h1.182v-0.22zm6.164-4.06v0.955h-2.369v3.343h2.607v0.958h-3.793v-9.08h3.793v0.955h-2.607v3.105h2.369v-0.24zm2.134-4.06l1.424 7.882 1.422-7.882h0.945l-1.652 9.077h-1.428l-1.66-9.077h0.95zm8.058 4.06v0.955h-2.367v3.343h2.607v0.958h-3.795v-9.08h3.795v0.955h-2.607v3.105h2.367v-0.24zm1.19 5.02v-9.077h0.949v8.122h2.842v0.955h-3.79zm4.5-6.93c0-1.434 0.715-2.392 2.131-2.392 1.424 0 2.135 0.958 2.135 2.392v4.775c0 1.436-0.715 2.391-2.135 2.391-1.416 0-2.131-0.955-2.131-2.391v-4.77zm0.95 4.78c0 0.955 0.24 1.195 1.182 1.195 0.949 0 1.189-0.478 1.189-1.195v-4.775c0-0.952-0.24-1.196-1.189-1.196-0.941 0-1.182 0.478-1.182 1.196v4.79zm6.17-6.93c1.426 0 2.133 0.955 2.133 2.388v1.196c0 1.433-0.709 2.147-2.133 2.147h-0.949v3.583h-0.947v-9.077h1.896v-0.24zm-0.24 4.54c0.707 0 1.186-0.241 1.186-1.196v-1.191c0-0.952-0.244-1.196-1.186-1.196h-0.953v3.584h0.95zm7.11-3.58c-0.711 0-1.186 0.478-1.186 1.196v0.477c0 0.715 0.475 1.193 1.186 1.193h0.945v-0.952h0.949v0.952h0.475v0.955h-0.475v3.105c0 0.478 0 0.718 0.234 1.195h-0.943c0-0.243 0-0.478-0.24-0.718-0.232 0.478-0.707 0.958-1.42 0.958-1.186 0-1.66-0.718-1.66-2.147v-0.961c0-0.952 0.238-1.67 1.184-1.911-0.709-0.24-1.184-0.955-1.184-1.91v-0.236c0-1.434 0.709-2.392 2.135-2.392h1.42v0.958h-1.42v0.24zm0 3.82c-0.711 0-1.186 0.478-1.186 1.433v0.958c0 0.715 0.234 1.192 1.186 1.192 0.475 0 0.945-0.24 0.945-1.192v-2.391h-0.95zm7.35-4.78c1.43 0 2.137 0.955 2.137 2.388v4.539c0 1.436-0.711 2.391-2.137 2.391h-2.129v-9.08h2.129v-0.24zm0 8.12c0.715 0 1.191-0.478 1.191-1.195v-4.775c0-0.952-0.24-1.196-1.191-1.196h-1.184v7.404h1.184v-0.22zm6.17-4.06v0.955h-2.371v3.343h2.607v0.958h-3.557v-9.08h3.795v0.955h-2.609v3.105h2.135v-0.24zm5.45-1.91l-0.955 0.236v-0.236c0-0.952-0.234-1.196-1.184-1.196-0.945 0-1.182 0.478-1.182 1.196 0 2.146 3.076 2.388 3.076 4.775 0 1.436-0.711 2.391-2.125 2.391-1.426 0-2.137-0.955-2.137-2.391v-0.478h1.186v0.478c0 0.955 0.236 1.195 1.186 1.195s1.186-0.478 1.186-1.195c0-2.145-3.082-2.388-3.082-4.775 0-1.434 0.711-2.392 2.133-2.392 1.17 0.25 1.88 0.97 1.88 2.4zm1.89-2.15v9.077h-0.949v-9.077h0.95zm4.98 2.15v0.718h-0.947v-0.959c0-0.955-0.24-1.192-1.188-1.192s-1.182 0.475-1.182 1.192v4.779c0 0.952 0.234 1.192 1.182 1.192s1.188-0.478 1.188-1.192v-1.673h-0.949v-0.955h1.896v2.628c0 1.433-0.715 2.388-2.127 2.388-1.43 0-2.139-0.955-2.139-2.388v-4.779c0-1.436 0.715-2.388 2.139-2.388 1.42 0.48 2.13 1.2 2.13 2.63zm1.9 6.93h-0.949v-9.077h1.184l2.137 6.689v-6.689h0.949v9.077h-1.189l-2.371-7.407v7.407h0.24z" fill="#FF302C"/>				<linearGradient id="desk_lap_color_big-laptop-reflection_2_" y2="-535.38" gradientUnits="userSpaceOnUse" x2="32.606" gradientTransform="matrix(1 0 0 -1 173.5 -436.5)" y1="-535.38" x1="-98.262">				<stop stop-color="#fff" stop-opacity="0" offset="0"/>				<stop stop-color="#fff" offset="1"/>			</linearGradient>			<path id="desk_lap_color_big-laptop-reflection_1_" opacity=".6" d="m75.238 156.2h130.87v-114.64h-51.213l-79.662 114.64z" enable-background="new    " fill="url(#desk_lap_color_big-laptop-reflection_2_)"/></g></svg><svg width="300" height="300" viewBox="-140 -140 400 400" enable-background="new -140 -140 400 400" id="graphic_big" y="300"><polygon fill="#ddd" points="-100.446,-26.359 45.841,-111.301 192.129,-26.359 192.129,143.208 45.841,227.836 -100.446,143.208"/><g><path fill="#fff" d="M90.198 56.379c-.627-1.258-19.189-28.629-42.783-28.629-23.595 0-41.841 27.371-42.786 28.628l-1.258 1.888 1.258 1.886c.63 1.259 19.191 28.63 42.786 28.63 23.594 0 41.84-27.371 42.784-28.63l1.26-1.886-1.261-1.887z"/><circle fill="#ddd" cx="47.415" cy="58.267" r="22.021"/><circle fill="#fff" cx="47.415" cy="58.267" r="9.438"/><circle fill="#ddd" cx="50.561" cy="55.121" r="2.516"/></g><g><path fill="#4889F8" d="M89.885 81.231c2.517 2.516 2.203 7.865-.942 11.011l-6.922 6.922c-3.146 3.146-8.809 4.089-11.324 1.26l-9.438-9.438c-2.519-2.519.313-6.291 3.459-9.438l6.605-6.611c3.146-3.146 6.292-5.973 9.125-3.146l9.437 9.44z"/><rect x="66.95" y="84.155" transform="matrix(-.707 .707 -.707 -.707 201.68 98.289)" fill="#666" width="27.062" height="13.53"/><rect x="125.559" y="73.265" transform="matrix(-.707 .707 -.707 -.707 343.08 156.654)" fill="#BD3D33" width="27.059" height="152.263"/><rect x="127.411" y="78.329" transform="matrix(-.707 .707 -.707 -.707 338.265 168.823)" fill="#DE483C" width="13.523" height="152.259"/><polygon fill="#C8A856" points="220.443,231.295 202.197,221.857 183.951,212.419 192.759,203.611 201.567,194.803 211.005,213.049"/><polygon fill="#666" points="219.813,230.665 209.433,225.316 211.948,222.8 214.464,220.284"/></g><g><rect x="148.789" y="114.634" transform="matrix(.707 .707 -.707 .707 136.099 -74.717)" fill="#EAB229" width="18.876" height="24.535"/><rect x="150.281" y="110.911" transform="matrix(.707 .707 -.707 .707 132.315 -73.078)" fill="#FFD97D" width="8.177" height="24.537"/><path fill="#37353A" d="M197.478 115.837c-11.641 10.697-25.483 14.474-32.719 5.035-6.605-8.184-5.662-21.078 5.035-32.719 19.192-20.763 50.652-22.965 50.652-22.965s-4.719 33.662-22.965 50.648h-.003z"/><path fill="#4B4555" d="M69.123 228.778c-3.146 3.146-7.552 3.46-10.698.313l-1.886-1.886c-3.146-3.146-3.466-7.865-.319-11.012l92.492-100.357c1.887-1.887 22.648 18.876 20.763 20.766l-100.352 92.176z"/><path fill="#665E73" d="M149.345 115.523l-81.168 114.199.946-.943 100.354-92.492c2.204-1.888-16.986-21.08-20.132-20.764z"/></g></svg><svg xmlns:xlink="http://www.w3.org/1999/xlink" id="tab_phone_color_big" xml:space="preserve" height="300" viewBox="-140 -140 400 400" width="300" version="1.1" y="600" x="0px" enable-background="new -140 -140 400 400"><g id="tab_phone_color_big-phone">		<path id="tab_phone_color_big-tab-back" d="m141.45 207.9c0 12.354-8.383 22.238-20.177 22.238h-196.76c-12.099 0-22.033-9.885-22.033-22.238v-310.77c0-12.357 9.934-22.243 22.033-22.243h196.76c12.109 0 20.177 9.885 20.177 22.243v310.77z" fill="#565656"/>		<path id="tab_phone_color_big-back-reflection_1_" opacity=".1" d="m121.28-125.12h-36.31l-163.87 354.94h0.62c10.549 0 138.42-0.613 203.9-0.314 9.312-2.16 15.517-11.113 15.517-21.617v-310.77c0.31-12.35-7.75-22.24-19.86-22.24z" enable-background="new    " fill="#fff"/>		<path id="tab_phone_color_big-tab-button" d="m29.726 213.15c0 3.4-2.794 6.18-6.207 6.18h-3.103c-3.413 0-6.207-2.779-6.207-6.18v-3.092c0-3.398 2.794-6.174 6.207-6.174h3.103c3.413 0 6.207 2.775 6.207 6.174v3.09z" stroke="#444344" stroke-miterlimit="10" stroke-width=".5" fill="none"/>			<circle id="tab_phone_color_big-tab-camera" r="0" cy="-108.13" stroke="#333" cx="21.966" stroke-miterlimit="10" stroke-width=".5" fill="#808080"/>		<path id="tab_phone_color_big-tab-screen_1_" d="m129.04-88.048v274.31c0 2.475 0 7.105-3.103 7.105h-202.36c-3.103 0-8.69-4.631-8.69-7.105v-274.31c0-2.472 5.587-3.09 8.69-3.09h202.35c3.11 0.001 3.11 0.62 3.11 3.092z" fill="#D3D3D3"/>		<path id="tab_phone_color_big-tab-logo" d="m40.587 10.189l-40.346-12.667c-1.861-1.854-3.102-5.871-3.102-10.502 0-4.327 2.174-8.339 4.034-10.503l19.865-11.739 19.552 12.045v33.366h-0.003zm-58.966-22.244v45.717l10.865 6.49v-37.689c-1.863-2.162-3.103-6.18-3.103-10.503 0-4.633 1.55-8.339 3.411-10.504l-11.173 6.489zm19.551 23.787v33.363l19.866 11.735 19.859-11.734c3.724-2.163 3.724-5.869 3.724-10.505 0-4.634-0.93-8.339-3.103-10.196l-40.346-12.663zm48.724-30.586v37.997c1.863 2.162 3.726 6.18 3.726 10.505 0 4.632-1.246 8.339-3.103 10.504l12.1-6.49v-45.717l-12.723-6.799z" fill="#FF302C"/>		<path id="tab_phone_color_big-tab-text" d="m-48.794 75.367v6.799h-1.55v-15.139h1.55v6.486h3.724v-6.787h1.553v15.133h-1.553v-6.797l-3.724 0.305zm13.652-4.633v0.309h-1.55v-0.613c0-1.545-0.618-2.164-1.863-2.164-1.243 0-1.861 0.615-1.861 2.164 0 3.402 4.965 3.703 4.965 8.037 0 2.469-0.931 3.699-3.416 3.699s-3.416-1.541-3.416-3.699v-0.932h1.549v0.918c0 1.545 0.622 2.166 1.866 2.166 1.24 0 1.861-0.617 1.861-2.166 0-3.398-4.964-3.697-4.964-8.029 0-2.471 0.93-3.707 3.414-3.707 2.487 0.31 3.415 1.855 3.415 4.017zm4.969 3.088h4.034v1.541h-4.034v-1.541zm12.412-6.795c2.484 0 3.416 1.545 3.416 3.707v7.414c0 2.477-0.931 3.703-3.416 3.703h-3.724v-15.128h3.724v0.304zm0 13.598c1.241 0 1.863-0.613 1.863-2.158v-7.727c0-1.545-0.622-2.16-1.863-2.16h-1.863v12.045h1.863zm10.553-6.803v1.541h-3.721v5.256h4.656v1.545h-6.206v-15.139h6.206v1.541h-4.656v4.941h3.721v0.315zm3.725-6.795l2.481 12.971 2.484-12.971h1.55l-2.791 15.139h-2.484l-2.793-15.139h1.553zm13.034 6.795v1.541h-3.724v5.256h4.346v1.545h-6.209v-15.139h6.208v1.541h-4.345v4.941h3.724v0.315zm2.484 8.344v-15.139h1.553v13.598h4.347v1.541h-5.9zm7.133-11.432c0-2.477 0.935-3.707 3.419-3.707s3.416 1.545 3.416 3.707v7.719c0 2.48-0.932 3.707-3.416 3.707s-3.419-1.541-3.419-3.707v-7.719zm1.554 8.028c0 1.545 0.623 2.166 1.866 2.166 1.238 0 1.863-0.617 1.863-2.166v-8.027c0-1.545-0.621-2.162-1.863-2.162-1.243 0-1.866 0.926-1.866 2.162v8.027zm10.247-11.735c2.481 0 3.413 1.545 3.413 3.707v1.854c0 2.471-0.931 3.703-3.726 3.703h-1.553v5.873h-1.55v-15.139h3.416v0.002zm-0.313 7.727c1.245 0 1.866-0.621 1.866-1.861v-1.852c0-1.543-0.621-2.162-1.866-2.162h-1.553v6.176h1.553v-0.301zm12.104-6.182c-1.245 0-1.866 0.615-1.866 2.162v0.621c0 1.232 0.622 1.854 1.866 1.854h1.553v-1.545h1.55v1.545h0.622v1.545h-0.622v5.252c0 0.613 0 1.23 0.308 1.846h-1.553c-0.309-0.301-0.309-0.613-0.309-1.232-0.316 0.932-1.244 1.541-2.484 1.541-1.866 0-2.794-1.232-2.794-3.398v-1.545c0-1.545 0.622-2.777 1.863-3.086-1.238-0.309-1.863-1.543-1.863-3.09v-0.309c0-2.475 0.931-3.707 3.726-3.707h2.484v1.541l-2.481 0.005zm0 6.487c-1.245 0-1.866 0.932-1.866 2.477v1.232c0 1.234 0.622 2.166 1.866 2.166 0.931 0 1.553-0.621 1.553-1.859v-4.016h-1.553zm12.102-8.032c2.486 0 3.424 1.545 3.424 3.707v7.414c0 2.477-0.932 3.703-3.424 3.703h-3.719v-15.128h3.719v0.304zm0 13.598c1.243 0 1.863-0.623 1.863-2.172v-7.719c0-1.545-0.62-2.162-1.866-2.162h-1.856v12.047h1.86v0.006zm10.245-6.803v1.541h-3.726v5.256h4.654v1.545h-6.206v-15.139h6.206v1.541h-4.345v4.941h3.417v0.315zm9-3.088v0.309h-1.547v-0.613c0-1.545-0.623-2.164-1.863-2.164-1.246 0-1.866 0.615-1.866 2.164 0 3.402 4.972 3.703 4.972 8.037 0 2.469-0.931 3.699-3.42 3.699-2.486 0-3.418-1.541-3.418-3.699v-0.932h1.863v0.918c0 1.545 0.617 2.166 1.866 2.166 1.236 0 1.862-0.617 1.862-2.166 0-3.398-4.965-3.697-4.965-8.029 0-2.471 0.928-3.707 3.411-3.707 1.865 0.31 3.105 1.855 3.105 4.017zm3.103-3.707v15.139h-1.552v-15.139h1.552zm8.38 3.707v1.234h-1.552v-1.545c0-1.543-0.623-2.158-1.862-2.158-1.243 0-1.863 0.922-1.863 2.158v8.027c0 1.545 0.62 2.162 1.869 2.162 1.233 0 1.863-0.926 1.863-2.162v-2.773h-1.552v-1.545h3.104v4.635c0 2.475-0.929 3.707-3.415 3.707-2.489 0-3.42-1.541-3.42-3.707v-7.721c0-2.475 0.928-3.707 3.42-3.707 2.476-0.312 3.408 1.233 3.408 3.395zm3.105 11.432h-1.554v-15.139h2.171l3.417 10.811v-10.811h1.549v15.139h-1.856l-3.723-12.049v12.049h-0.004z" fill="#FF302C"/>		<path id="tab_phone_color_big-tab-dot" d="m24.874-111.59c1.07 0 1.875 0.802 1.875 1.869s-0.806 1.869-1.875 1.869-1.875-0.802-1.875-1.869c-0.001-1.07 0.805-1.87 1.875-1.87z" fill="#3F3F3F"/>		<path id="tab_phone_color_big-screen-reflection_1_" opacity=".2" d="m125.94-91.139h-56.49l-131.28 284.51h188.08c3.103 0 3.103-4.631 3.103-7.105v-274.31c-0.31-2.47-0.31-3.089-3.41-3.089z" enable-background="new    " fill="#fff"/>		<path id="tab_phone_color_big-phone-back_2_" d="m217.52 216.56c0 14.676 1.07 28.555-26.218 28.555h-97.941c-27.289 0-25.684-13.881-25.684-28.555v-243.09c0-14.678-1.876-27.219 25.684-27.219h97.938c27.288 0 26.218 12.541 26.218 27.219v243.09z" fill="#545454"/>		<path id="tab_phone_color_big-back-reflection_2_" opacity=".1" d="m217.52 216.56v-243.09c0-14.678 1.07-27.219-26.218-27.219h-28.365l-95.264 268.98v1.334c0 14.676-1.605 28.555 25.687 28.555h97.936c27.29 0 26.22-13.88 26.22-28.56z" enable-background="new    " fill="#fff"/>		<g id="tab_phone_color_big-phone-camera_1_">			<circle cy="-28.395" cx="109.96" r="3.203" fill="#3F3F3F"/>			<circle cy="-28.395" cx="109.96" r="1.866" fill="#6D6D6D"/>			<circle cy="-28.395" cx="109.96" r=".535" fill="#5B5B5B"/>		</g>		<path id="tab_phone_color_big-phone-dot_1_" d="m142.6-43.34c1.07 0 1.876 0.802 1.876 1.869s-0.806 1.869-1.876 1.869c-1.069 0-1.875-0.802-1.875-1.869 0-1.07 0.81-1.869 1.88-1.869z" fill="#3F3F3F"/>		<path id="tab_phone_color_big-phone-speaker_2_" d="m159.99-28.127c0 0.535-0.534 1.066-1.069 1.066h-32.641c-0.538 0-1.073-0.535-1.073-1.066v-0.535c0-0.535 0.535-1.067 1.073-1.067h32.641c0.535 0 1.069 0.535 1.069 1.067v0.535z" fill="#ddd"/>		<path id="tab_phone_color_big-phone-screen_2_" d="m208.42 212.56c0 1.334-1.064 1.869-2.137 1.869h-127.37c-1.337 0-2.14-1.066-2.14-1.869v-220.14c0-1.334 1.073-1.866 2.14-1.866h127.37c1.337 0 2.137 1.067 2.137 1.866v220.14z" fill="#D3D3D3"/>		<path id="tab_phone_color_big-phone-button_2_" d="m142.6 220.57c5.025 0 9.098 4.063 9.098 9.074 0 5.01-4.075 9.068-9.098 9.068-5.025 0-9.1-4.059-9.1-9.068 0-5 4.07-9.07 9.1-9.07z" stroke="#444" stroke-miterlimit="10" stroke-width=".5" fill="none"/>		<path id="tab_phone_color_big-phone-logo_1_" d="m155.98 70.336l-28.629-9.072c-1.337-1.333-2.143-4.269-2.143-7.472 0-3.199 1.604-5.867 2.945-7.469l14.179-8.271 13.912 8.271v24.015h-0.265v-0.002zm-42.28-15.746v32.822l7.76 4.805v-27.219c-1.337-1.602-2.41-4.27-2.41-7.468 0-3.204 1.073-6.14 2.41-7.472l-7.76 4.532zm14.18 17.08v23.744l14.179 8.273 14.183-8.273c2.675-1.598 2.675-4.266 2.675-7.467 0-3.203-0.529-6.139-2.144-7.473l-28.9-8.807zm34.52-21.883v27.219c1.337 1.6 2.678 4.268 2.678 7.467 0 3.203-0.813 6.141-2.41 7.475l8.826-4.805v-32.553l-9.1-4.803z" fill="#FF302C"/>		<path id="tab_phone_color_big-phone-text_1_" d="m92.292 117.03v4.801h-1.069v-10.676h1.069v4.805h2.672v-4.805h1.07v10.676h-1.07v-4.801h-2.672zm9.628-3.47l-1.07 0.264v-0.264c0-1.07-0.271-1.602-1.341-1.602-1.069 0-1.334 0.531-1.334 1.602 0 2.398 3.475 2.668 3.475 5.602 0 1.598-0.8 2.668-2.404 2.668-1.605 0-2.41-1.07-2.41-2.668v-0.535h1.069v0.535c0 1.07 0.271 1.598 1.341 1.598 1.069 0 1.334-0.527 1.334-1.598 0-2.404-3.48-2.668-3.48-5.602 0-1.602 0.806-2.668 2.41-2.668 1.61 0.01 2.41 1.07 2.41 2.67zm3.48 2.4h2.945v1.07h-2.945v-1.07zm9.1-5.06c1.604 0 2.41 1.066 2.41 2.668v5.338c0 1.598-0.806 2.668-2.41 2.668h-2.678v-10.678h2.678zm0 9.87c0.803 0 1.337-0.535 1.337-1.605v-5.598c0-1.07-0.267-1.611-1.337-1.611h-1.341v8.537h1.341v0.28zm7.23-4.81v1.07h-2.678v3.73h3.213v1.07h-4.55v-10.676h4.55v1.068h-3.213v3.465h2.678v0.28zm2.67-5.06l1.876 9.34 1.872-9.34h1.066l-2.14 10.674h-1.872l-2.14-10.674h1.33zm9.36 5.06v1.07h-2.671v3.73h3.213v1.07h-4.551v-10.676h4.551v1.068h-3.213v3.465h2.671v0.28zm1.61 5.87v-10.67h1.076v9.604h2.938v1.07h-4.02zm5.08-8.27c0-1.602 0.806-2.668 2.41-2.668s2.404 1.066 2.404 2.668v5.602c0 1.598-0.8 2.668-2.404 2.668s-2.41-1.07-2.41-2.668v-5.6zm1.34 5.61c0 1.07 0.271 1.605 1.341 1.605 0.8 0 1.341-0.535 1.341-1.605v-5.598c0-1.07-0.271-1.602-1.341-1.602-0.799 0-1.341 0.531-1.341 1.602v5.59zm7.23-8.27c1.599 0 2.397 1.066 2.397 2.668v1.334c0 1.6-0.802 2.668-2.674 2.668h-0.8v4.268h-1.069v-10.676h2.146v-0.26zm-0.27 5.6c0.799 0 1.334-0.266 1.334-1.334v-1.336c0-1.066-0.264-1.598-1.334-1.598h-1.07v4.268h1.07zm8.56-4.27c-0.802 0-1.337 0.531-1.337 1.598v0.535c0 0.801 0.535 1.334 1.337 1.334h1.073v-1.334h1.067v1.064h0.534v1.07h-0.534v3.738c0 0.527 0 0.799 0.273 1.334h-1.076c0-0.271 0-0.535-0.265-0.807-0.271 0.535-0.809 1.07-1.611 1.07-1.337 0-1.872-0.799-1.872-2.404v-1.063c0-1.064 0.274-1.869 1.341-2.398-0.806-0.264-1.341-1.064-1.341-2.137v-0.268c0-1.602 0.809-2.668 2.675-2.668h1.876v1.066h-2.141v0.28h-0.01zm0 4.53c-0.802 0-1.337 0.535-1.337 1.605v1.063c0 0.807 0.268 1.605 1.337 1.605 0.535 0 1.073-0.271 1.073-1.334v-2.939h-1.07zm8.57-5.86c1.605 0 2.407 1.066 2.407 2.668v5.338c0 1.598-0.806 2.668-2.407 2.668h-2.68v-10.678h2.675zm0 9.87c0.803 0 1.341-0.535 1.341-1.605v-5.598c0-1.07-0.273-1.611-1.341-1.611h-1.337v8.537h1.337v0.28zm7.49-4.81v1.07h-2.675v3.73h3.21v1.07h-4.279v-10.676h4.544v1.068h-3.21v3.465h2.41v0.28zm6.15-2.4l-1.07 0.264v-0.264c0-1.07-0.271-1.602-1.334-1.602-1.076 0-1.34 0.531-1.34 1.602 0 2.398 3.479 2.668 3.479 5.602 0 1.598-0.806 2.668-2.41 2.668s-2.404-1.07-2.404-2.668v-0.535h1.341v0.535c0 1.07 0.265 1.598 1.334 1.598 1.063 0 1.341-0.527 1.341-1.598 0-2.404-3.486-2.668-3.486-5.602 0-1.602 0.812-2.668 2.41-2.668 1.34 0.01 2.14 1.07 2.14 2.67zm2.41-2.66v10.674h-1.069v-10.674h1.07zm5.89 2.66v0.799h-1.07v-1.066c0-1.066-0.264-1.602-1.34-1.602-0.8 0-1.335 0.535-1.335 1.602v5.605c0 1.063 0.265 1.598 1.335 1.598 0.806 0 1.34-0.535 1.34-1.598v-1.869h-1.069v-1.07h2.41v3.203c0 1.598-0.806 2.668-2.41 2.668-1.605 0-2.404-1.07-2.404-2.668v-5.602c0-1.602 0.799-2.668 2.404-2.668 1.59 0.01 2.13 1.07 2.13 2.67zm2.4 8.27h-1.066v-10.67h1.602l2.41 7.742v-7.742h1.066v10.674h-1.337l-2.675-8.801v8.8z" fill="#FF302C"/>		<path id="tab_phone_color_big-screen-reflection_2_" opacity=".2" d="m206.28-9.452h-58.872l-70.64 198.79v23.217c0 1.07 0.803 1.869 2.14 1.869h127.37c1.07 0 2.141-0.799 2.141-1.869v-220.14c0-0.801-0.8-1.872-2.14-1.872z" enable-background="new    " fill="#fff"/></g></svg></svg>
