<?xml version="1.0"?>
<!--Icons from directory ""-->
<svg xmlns="http://www.w3.org/2000/svg" width="120" height="600" viewBox="0 0 120 600"><svg xmlns:xlink="http://www.w3.org/1999/xlink" id="desktop" xml:space="preserve" height="120" viewBox="0 0 120 120" width="120" version="1.1" y="0" x="0px" enable-background="new 0 0 120 120"><path id="desktop-stand" d="m74.6 101.2c-2.5-2.6-2.6-8.2-2.6-8.2h-23.4s-0.1 5.6-2.6 8.2-6.5 4.8 0.4 4.8h13.5 0.9 13.5c6.8 0 2.8-2.3 0.3-4.8z" fill="#B2B2B2"/><path id="desktop-shadow" opacity=".5" d="m72.5 97c-0.5-2-0.5-4-0.5-4h-23.4s0 2-0.5 4h24.4z" enable-background="new    " fill="#7C7C7C"/><path id="desktop-back-bt" d="m2 88c0 1.9 2.3 5 4.2 5h107.6c1.9 0 3.2-3.1 3.2-5v-6h-115v6z" fill="#B2B2B2"/><path id="desktop-back-black" d="m113.8 15h-107.6c-1.9 0-4.2-0.4-4.2 1.5v65.5h115v-65.5c0-1.9-1.3-1.5-3.2-1.5z" fill="#231F20"/><path id="desktop-screen_1_" d="m8 18h103v59h-103v-59z" fill="#D3D3D3"/><path id="desktop-logo" d="m66 43.2l-13-4.1c-0.6-0.6-1-1.9-1-3.4 0-1.4 0.7-2.7 1.3-3.4l6.4-3.8 6.3 3.8v10.9zm-19-7.2v14.8l3.5 2.1v-12.2c-0.6-0.7-1-2-1-3.4 0-1.5 0.5-2.7 1.1-3.4l-3.6 2.1zm6.3 7.8v10.8l6.4 3.8 6.399-3.8c1.199-0.7 1.199-1.9 1.199-3.4s-0.298-2.7-0.898-3.4l-13.1-4zm15.7-10v12.3c0.6 0.7 1.2 2 1.2 3.4 0 1.5-0.4 2.7-1 3.4l3.899-2.1v-14.8l-4.099-2.2z" fill="#FF302C"/><path id="desktop-text" d="m37.2 64.3v2.2h-0.5v-4.9h0.5v2.1h1.2v-2.2h0.5v4.9h-0.5v-2.2l-1.2 0.1zm4.4-1.5v0.1h-0.5v-0.2c0-0.5-0.2-0.7-0.6-0.7s-0.6 0.2-0.6 0.7c0 1.1 1.6 1.2 1.6 2.6 0 0.8-0.3 1.2-1.1 1.2s-1.1-0.5-1.1-1.2v-0.3h0.5v0.3c0 0.5 0.2 0.7 0.6 0.7s0.6-0.2 0.6-0.7c0-1.1-1.6-1.2-1.6-2.6 0-0.8 0.3-1.2 1.1-1.2 0.8 0.1 1.1 0.6 1.1 1.3zm1.6 1h1.3v0.5h-1.3v-0.5zm4-2.2c0.8 0 1.1 0.5 1.1 1.2v2.4c0 0.8-0.3 1.2-1.1 1.2h-1.2v-4.9h1.2v0.1zm0 4.4c0.4 0 0.6-0.2 0.6-0.7v-2.5c0-0.5-0.2-0.7-0.6-0.7h-0.6v3.9h0.6zm3.4-2.2v0.5h-1.2v1.7h1.5v0.5h-2v-4.9h2v0.5h-1.5v1.6h1.2v0.1zm1.2-2.2l0.8 4.2 0.8-4.2h0.5l-0.9 4.9h-0.8l-0.9-4.9h0.5zm4.2 2.2v0.5h-1.2v1.7h1.4v0.5h-2v-4.9h2v0.5h-1.4v1.6h1.2v0.1zm0.8 2.7v-4.9h0.5v4.4h1.4v0.5h-1.9zm2.3-3.7c0-0.8 0.3-1.2 1.1-1.2s1.1 0.5 1.1 1.2v2.5c0 0.8-0.3 1.2-1.1 1.2s-1.1-0.5-1.1-1.2v-2.5zm0.5 2.6c0 0.5 0.2 0.699 0.6 0.699 0.399 0 0.6-0.199 0.6-0.699v-2.6c0-0.5-0.2-0.7-0.6-0.7s-0.6 0.301-0.6 0.7v2.6zm3.3-3.8c0.8 0 1.1 0.5 1.1 1.2v0.6c0 0.8-0.3 1.199-1.2 1.199h-0.5v1.899h-0.5v-4.898h1.1zm-0.1 2.5c0.4 0 0.601-0.199 0.601-0.6v-0.6c0-0.5-0.199-0.7-0.601-0.7h-0.5v2h0.5v-0.1zm3.9-2c-0.4 0-0.601 0.2-0.601 0.7v0.2c0 0.4 0.199 0.6 0.601 0.6h0.5v-0.5h0.5v0.5h0.2v0.5h-0.2v1.7c0 0.2 0 0.4 0.1 0.601h-0.5c-0.1-0.101-0.1-0.199-0.1-0.399-0.101 0.3-0.4 0.5-0.8 0.5-0.602 0-0.9-0.399-0.9-1.101v-0.401c0-0.5 0.2-0.9 0.6-1-0.398-0.1-0.6-0.5-0.6-1v-0.1c0-0.801 0.3-1.2 1.2-1.2h0.8v0.5h-0.8v-0.1zm0 2.1c-0.4 0-0.601 0.3-0.601 0.8v0.5c0 0.4 0.199 0.7 0.601 0.7 0.3 0 0.5-0.2 0.5-0.601v-1.301l-0.5-0.098zm3.9-2.6c0.801 0 1.102 0.5 1.102 1.2v2.4c0 0.8-0.301 1.2-1.102 1.2h-1.2v-4.9h1.2v0.1zm0 4.4c0.4 0 0.602-0.2 0.602-0.7v-2.5c0-0.5-0.2-0.7-0.602-0.7h-0.6v3.9h0.6zm3.3-2.2v0.5h-1.2v1.7h1.4v0.5h-2v-4.9h2v0.5h-1.4v1.6h1.2v0.1zm2.9-1v0.1h-0.5v-0.2c0-0.5-0.2-0.7-0.6-0.7s-0.601 0.2-0.601 0.7c0 1.1 1.601 1.2 1.601 2.6 0 0.8-0.3 1.2-1.101 1.2s-1.101-0.5-1.101-1.2v-0.3h0.602v0.3c0 0.5 0.199 0.7 0.601 0.7 0.399 0 0.6-0.2 0.6-0.7 0-1.1-1.6-1.2-1.6-2.6 0-0.8 0.3-1.2 1.1-1.2 0.599 0.1 0.999 0.6 0.999 1.3zm1-1.2v4.9h-0.5v-4.9h0.5zm2.7 1.2v0.4h-0.5v-0.5c0-0.5-0.2-0.7-0.6-0.7s-0.6 0.3-0.6 0.7v2.6c0 0.5 0.2 0.7 0.601 0.7 0.399 0 0.601-0.3 0.601-0.7v-0.9h-0.5v-0.5h1v1.5c0 0.8-0.3 1.199-1.101 1.199s-1.101-0.499-1.101-1.199v-2.5c0-0.801 0.3-1.2 1.101-1.2 0.799-0.1 1.099 0.4 1.099 1.1zm1 3.7h-0.5v-4.9h0.7l1.1 3.5v-3.5h0.5v4.9h-0.6l-1.2-3.9v3.9z" fill="#FF302C"/><linearGradient id="desktop-screen-reflection_2_" y2="47.5" gradientUnits="userSpaceOnUse" x2="111" y1="47.5" x1="55.6">	<stop stop-color="#fff" stop-opacity="0" offset="0"/>	<stop stop-color="#fff" offset="1"/></linearGradient><path id="desktop-screen-reflection" opacity=".6" d="m55.6 77h55.4v-59h-20.1l-35.3 59z" enable-background="new    " fill="url(#desktop-screen-reflection_2_)"/></svg><svg xmlns:xlink="http://www.w3.org/1999/xlink" id="graphic" xml:space="preserve" height="120" viewBox="0 0 120 120" width="120" version="1.1" y="120" x="0px" enable-background="new 0 0 120 120"><polygon id="graphic-back" points="13 33.1 59.5 6.1 106 33.1 106 87 59.5 113.9 13 87" fill="#ddd"/><g id="graphic-eye">	<path d="m73.6 59.4c-0.2-0.4-6.1-9.1-13.6-9.1s-13.3 8.7-13.6 9.1l-0.4 0.6 0.4 0.6c0.2 0.4 6.1 9.1 13.6 9.1s13.3-8.7 13.6-9.1l0.4-0.6-0.4-0.6z" fill="#fff"/>	<circle cy="60" cx="60" r="7" fill="#ddd"/>	<circle cy="60" cx="60" r="3" fill="#fff"/>	<circle cy="59" cx="61" r=".8" fill="#ddd"/></g><g id="graphic-pencil">	<path d="m73.5 67.3c0.8 0.8 0.7 2.5-0.3 3.5l-2.2 2.2c-1 1-2.8 1.3-3.6 0.4l-3-3c-0.801-0.801 0.1-2 1.1-3l2.1-2.101c1-1 2-1.899 2.9-1l3 3.001z" fill="#4889F8"/>		<rect transform="matrix(.707 -.7072 .7072 .707 -29.118 70.483)" height="4.301" width="8.601" y="68.235" x="66.212" fill="#666"/>		<rect transform="matrix(.707 -.7072 .7072 .707 -36.806 89.103)" height="48.4" width="8.601" y="64.775" x="84.841" fill="#BD3D33"/>		<rect transform="matrix(.7071 -.7071 .7071 .7071 -38.395 88.457)" height="48.399" width="4.299" y="66.376" x="85.429" fill="#DE483C"/>	<polygon points="115 115 109.2 112 103.4 109 106.2 106.2 109 103.4 112 109.2" fill="#C8A856"/>	<polygon points="114.8 114.8 111.5 113.1 112.3 112.3 113.1 111.5" fill="#666"/></g><g id="graphic-paint">		<rect transform="matrix(-.707 -.7072 .7072 -.707 104.68 207)" height="7.799" width="6" y="77.919" x="92.217" fill="#EAB229"/>		<rect transform="matrix(-.7071 -.7071 .7071 -.7071 103.45 204.11)" height="7.8" width="2.599" y="76.728" x="92.696" fill="#FFD97D"/>	<path d="m107.7 78.3c-3.7 3.4-8.1 4.6-10.4 1.6-2.1-2.601-1.8-6.7 1.601-10.4 6.1-6.6 16.1-7.3 16.1-7.3s-1.5 10.7-7.3 16.1z" fill="#37353A"/>	<path d="m66.9 114.2c-1 1-2.4 1.1-3.4 0.1l-0.6-0.6c-1-1-1.101-2.5-0.101-3.5l29.4-31.9c0.6-0.6 7.2 6 6.6 6.601l-31.899 29.299z" fill="#4B4555"/>	<path d="m92.4 78.2l-25.8 36.3c0.101-0.1 0.2-0.2 0.301-0.3l31.899-29.4c0.7-0.6-5.4-6.7-6.4-6.6z" fill="#665E73"/></g></svg><svg xmlns:xlink="http://www.w3.org/1999/xlink" id="laptop" xml:space="preserve" height="120" viewBox="0 0 120 120" width="120" version="1.1" y="240" x="0px" enable-background="new 0 0 120 120"><path id="laptop-back_1_" d="m102.2 79.5c0 1.4-0.9 2.6-2 2.6h-81.2c-1.1 0-2-1.199-2-2.6v-52.2c0-1.5 0.9-2.6 2-2.6h81.3c1.101 0 2 1.2 2 2.6v52.2h-0.1z"/><g id="laptop-bottom">	<path d="m2.5 82.9s-0.7 1.3 4.3 2.399h105.5s3.5-0.2 4.5-1.899v-0.9l-114.3 0.4z" fill="#5F6767"/>		<linearGradient id="laptop-SVGID_1_" y2="-296.83" gradientUnits="userSpaceOnUse" x2="362.81" gradientTransform="matrix(1 0 0 -1 -246 -215)" y1="-296.83" x1="248.5">		<stop stop-color="#999C9D" offset="0"/>		<stop stop-color="#A5A7A9" offset=".00095911"/>		<stop stop-color="#C2C3C5" offset=".0037"/>		<stop stop-color="#D9D8DA" offset=".0067"/>		<stop stop-color="#E9E7EA" offset=".0099"/>		<stop stop-color="#F2F0F3" offset=".0134"/>		<stop stop-color="#F5F3F6" offset=".0183"/>		<stop stop-color="#DFE1E3" offset=".0488"/>		<stop stop-color="#D1D1D1" offset=".189"/>		<stop stop-color="#E3E5E7" offset=".5061"/>		<stop stop-color="#D1D1D1" offset=".872"/>		<stop stop-color="#DFE1E3" offset=".9512"/>		<stop stop-color="#F5F3F6" offset=".9878"/>		<stop stop-color="#999C9D" offset="1"/>	</linearGradient>	<path d="m2.5 80.2h114.3v2.9s0.2 0.4-1.2 0.301h-112s-1.1 0.3-1.1-0.4v-2.801z" fill="url(#laptop-SVGID_1_)"/>	<path d="m111.5 82c0 0.1-0.1 0.2-0.2 0.2h-3.9c-0.101 0-0.2-0.101-0.2-0.2 0-0.1 0.1-0.2 0.2-0.2h3.899c0.1 0 0.2 0 0.2 0.2z" fill="#5F6767"/>	<path d="m51.9 80.3s-0.4 1.5 1 1.601h13.3s1.399 0.199 1.2-1.601h-15.5z" fill="#5F6767"/></g><path id="laptop-screen_1_" d="m20.4 27.9h78.7v48.5h-78.7v-48.5z" fill="#CCC8C8"/><path id="laptop-logo" d="m64.7 47.9l-10.2-3.2c-0.5-0.5-0.8-1.5-0.8-2.6s0.5-2.1 1-2.6l5-3 5 3v8.4zm-14.9-5.6v11.7l2.7 1.7v-9.7c-0.5-0.5-0.8-1.5-0.8-2.7 0-1.1 0.4-2.1 0.9-2.7l-2.8 1.7zm5 6v8.5l5 3 5-3c0.9-0.5 0.9-1.5 0.9-2.6s-0.2-2.2-0.7-2.7l-10.2-3.2zm12.3-7.8v9.7c0.5 0.5 0.9 1.5 0.9 2.7s-0.3 2.1-0.8 2.7l3.1-1.7v-11.7l-3.2-1.7z" fill="#FF302C"/><path id="laptop-text" d="m42.1 64.5v1.7h-0.4v-3.8h0.4v1.7h1v-1.7h0.4v3.8h-0.4v-1.7h-1zm3.5-1.2l-0.4 0.1v-0.1c0-0.399-0.1-0.5-0.5-0.5-0.3 0-0.5 0.2-0.5 0.5 0 0.9 1.3 1 1.3 2 0 0.601-0.3 1-0.9 1s-0.9-0.399-0.9-1v-0.2h0.4v0.2c0 0.4 0.1 0.5 0.5 0.5 0.3 0 0.5-0.2 0.5-0.5 0-0.899-1.3-1-1.3-2 0-0.6 0.3-1 0.9-1 0.6 0.1 0.9 0.4 0.9 1zm1.2 0.8h1v0.4h-1v-0.4zm3.2-1.7c0.6 0 0.9 0.399 0.9 1v1.9c0 0.601-0.3 1-0.9 1h-0.9v-3.8h0.9v-0.1zm0 3.4c0.3 0 0.5-0.2 0.5-0.5v-2c0-0.399-0.1-0.5-0.5-0.5h-0.5v3.1h0.5v-0.1zm2.6-1.7v0.4h-1v1.4h1.1v0.4h-1.6v-3.8h1.6v0.4h-1.1v1.3h1v-0.1zm0.9-1.7l0.6 3.3 0.6-3.3h0.4l-0.7 3.8h-0.6l-0.7-3.8h0.4zm3.4 1.7v0.4h-1v1.4h1.1v0.4h-1.6v-3.8h1.6v0.4h-1.1v1.3h1v-0.1zm0.5 2.1v-3.8h0.4v3.4h1.2v0.4h-1.6zm1.9-2.9c0-0.6 0.3-1 0.9-1s0.899 0.4 0.899 1v2c0 0.601-0.3 1-0.899 1-0.6 0-0.9-0.399-0.9-1v-2zm0.4 2c0 0.4 0.1 0.5 0.5 0.5 0.399 0 0.5-0.2 0.5-0.5v-2c0-0.399-0.101-0.5-0.5-0.5-0.4 0-0.5 0.2-0.5 0.5v2zm2.6-2.9c0.601 0 0.9 0.399 0.9 1v0.5c0 0.6-0.3 0.899-0.9 0.899h-0.4v1.5h-0.4v-3.8h0.8v-0.099zm-0.1 1.9c0.3 0 0.5-0.1 0.5-0.5v-0.5c0-0.399-0.101-0.5-0.5-0.5h-0.4v1.5h0.4zm3-1.5c-0.3 0-0.5 0.2-0.5 0.5v0.2c0 0.3 0.2 0.5 0.5 0.5h0.4v-0.4h0.4v0.4h0.2v0.4h-0.2v1.3c0 0.2 0 0.3 0.1 0.5h-0.4c0-0.101 0-0.2-0.101-0.3-0.099 0.2-0.299 0.4-0.599 0.4-0.5 0-0.7-0.3-0.7-0.899v-0.401c0-0.4 0.101-0.7 0.5-0.8-0.3-0.101-0.5-0.4-0.5-0.8v-0.1c0-0.6 0.3-1 0.9-1h0.6v0.4h-0.6v0.1zm0 1.6c-0.3 0-0.5 0.199-0.5 0.6v0.4c0 0.3 0.1 0.5 0.5 0.5 0.2 0 0.399-0.101 0.399-0.5v-1h-0.399zm3.1-2c0.601 0 0.9 0.399 0.9 1v1.9c0 0.601-0.3 1-0.9 1h-0.9v-3.8h0.9v-0.1zm0 3.4c0.3 0 0.5-0.2 0.5-0.5v-2c0-0.399-0.1-0.5-0.5-0.5h-0.5v3.1h0.5v-0.1zm2.6-1.7v0.4h-1v1.4h1.1v0.4h-1.5v-3.8h1.6v0.4h-1.1v1.3h0.9v-0.1zm2.3-0.8l-0.4 0.1v-0.1c0-0.399-0.1-0.5-0.5-0.5-0.399 0-0.5 0.2-0.5 0.5 0 0.9 1.3 1 1.3 2 0 0.601-0.3 1-0.899 1-0.601 0-0.9-0.399-0.9-1v-0.2h0.5v0.2c0 0.4 0.101 0.5 0.5 0.5 0.4 0 0.5-0.2 0.5-0.5 0-0.899-1.3-1-1.3-2 0-0.6 0.3-1 0.9-1 0.499 0.1 0.799 0.4 0.799 1zm0.8-0.9v3.8h-0.4v-3.8h0.4zm2.1 0.9v0.3h-0.4v-0.4c0-0.4-0.101-0.5-0.5-0.5-0.4 0-0.5 0.2-0.5 0.5v2c0 0.399 0.1 0.5 0.5 0.5 0.399 0 0.5-0.2 0.5-0.5v-0.7h-0.4v-0.4h0.8v1.1c0 0.6-0.3 1-0.899 1-0.601 0-0.9-0.4-0.9-1v-2c0-0.601 0.3-1 0.9-1 0.599 0.2 0.899 0.5 0.899 1.1zm0.8 2.9h-0.4v-3.8h0.5l0.9 2.8v-2.8h0.4v3.8h-0.5l-1-3.101v3.101h0.1z" fill="#FF302C"/><linearGradient id="laptop-reflection_2_" y2="52" gradientUnits="userSpaceOnUse" x2="99" y1="52" x1="43.8">	<stop stop-color="#fff" stop-opacity="0" offset="0"/>	<stop stop-color="#fff" offset="1"/></linearGradient><path id="laptop-reflection_1_" opacity=".6" d="m43.8 76h55.2v-48h-21.6l-33.6 48z" enable-background="new    " fill="url(#laptop-reflection_2_)"/></svg><svg xmlns:xlink="http://www.w3.org/1999/xlink" id="phone" xml:space="preserve" height="120" viewBox="0 0 120 120" width="120" version="1.1" y="360" x="0px" enable-background="new 0 0 120 120"><path id="phone-back_1_" d="m88 105.3c0 5.5 0.4 10.7-9.8 10.7h-36.6c-10.2 0-9.6-5.2-9.6-10.7v-91.1c0-5.5-0.7-10.2 9.6-10.2h36.6c10.2 0 9.8 4.7 9.8 10.2v91.1z" fill="#545454"/><linearGradient id="phone-refelction-back_1_" y2="60" gradientUnits="userSpaceOnUse" x2="88.002" y1="60" x1="31.993">	<stop stop-color="#fff" stop-opacity="0" offset="0"/>	<stop stop-color="#fff" offset="1"/></linearGradient><path id="phone-refelction-back" opacity=".1" d="m88 105.3v-91.1c0-5.5 0.4-10.2-9.8-10.2h-10.6l-35.6 100.8v0.5c0 5.5-0.6 10.7 9.6 10.7h36.6c10.2 0 9.8-5.2 9.8-10.7z" enable-background="new    " fill="url(#phone-refelction-back_1_)"/><g id="phone-camera">	<circle cy="13.5" cx="47.8" r="1.2" fill="#3F3F3F"/>	<circle cy="13.5" cx="47.8" r=".7" fill="#6D6D6D"/>	<circle cy="13.5" cx="47.8" r=".2" fill="#5B5B5B"/></g><path id="phone-dot" d="m60 7.9c0.4 0 0.7 0.3 0.7 0.7s-0.3 0.7-0.7 0.7-0.7-0.3-0.7-0.7 0.3-0.7 0.7-0.7z" fill="#3F3F3F"/><path id="phone-speaker_1_" d="m66.5 13.6c0 0.2-0.2 0.4-0.4 0.4h-12.2c-0.2 0-0.4-0.2-0.4-0.4v-0.2c0-0.2 0.2-0.4 0.4-0.4h12.2c0.2 0 0.4 0.2 0.4 0.4v0.2z" fill="#ddd"/><path id="phone-screen_1_" d="m84.6 103.8c0 0.5-0.399 0.7-0.8 0.7h-47.6c-0.5 0-0.8-0.4-0.8-0.7v-82.5c0-0.5 0.4-0.7 0.8-0.7h47.6c0.5 0 0.8 0.4 0.8 0.7v82.5z" fill="#D3D3D3"/><path id="phone-button_1_" d="m60 106.8c1.878 0 3.4 1.522 3.4 3.4s-1.522 3.4-3.4 3.4-3.4-1.521-3.4-3.399 1.522-3.4 3.4-3.4z" stroke="#444" stroke-miterlimit="10" stroke-width=".5" fill="none"/><path id="phone-logo" d="m65 50.5l-10.7-3.4c-0.5-0.5-0.8-1.6-0.8-2.8s0.6-2.2 1.1-2.8l5.3-3.1 5.2 3.1v9h-0.1zm-15.8-5.9v12.3l2.9 1.8v-10.2c-0.5-0.6-0.9-1.6-0.9-2.8s0.4-2.3 0.9-2.8l-2.9 1.7zm5.3 6.4v8.9l5.3 3.1 5.3-3.1c1-0.6 1-1.6 1-2.8s-0.199-2.3-0.8-2.8l-10.8-3.3zm12.9-8.2v10.2c0.5 0.6 1 1.6 1 2.8s-0.301 2.3-0.9 2.8l3.3-1.8v-12.2l-3.4-1.8z" fill="#FF302C"/><path id="phone-text" d="m41.2 68v1.8h-0.4v-4h0.4v1.8h1v-1.8h0.4v4h-0.4v-1.8h-1zm3.6-1.3l-0.4 0.1v-0.1c0-0.4-0.1-0.601-0.5-0.601s-0.5 0.2-0.5 0.601c0 0.899 1.3 1 1.3 2.1 0 0.601-0.3 1-0.9 1s-0.9-0.399-0.9-1v-0.2h0.4v0.2c0 0.4 0.1 0.601 0.5 0.601s0.5-0.2 0.5-0.601c0-0.899-1.3-1-1.3-2.1 0-0.601 0.3-1 0.9-1s0.9 0.4 0.9 1zm1.3 0.9h1.1v0.4h-1.1v-0.4zm3.4-1.9c0.6 0 0.9 0.399 0.9 1v2c0 0.6-0.3 1-0.9 1h-1v-4h1zm0 3.7c0.3 0 0.5-0.2 0.5-0.601v-2.1c0-0.4-0.1-0.601-0.5-0.601h-0.5v3.2h0.5v0.102zm2.7-1.8v0.4h-1v1.4h1.2v0.4h-1.7v-4h1.7v0.4h-1.2v1.3h1v0.1zm1-1.9l0.7 3.5 0.7-3.5h0.4l-0.8 4h-0.7l-0.8-4h0.5zm3.5 1.9v0.4h-1v1.4h1.2v0.4h-1.7v-4h1.7v0.4h-1.2v1.3h1v0.1zm0.6 2.2v-4h0.4v3.6h1.1v0.4h-1.5zm1.9-3.1c0-0.601 0.3-1 0.9-1s0.9 0.399 0.9 1v2.1c0 0.601-0.3 1-0.9 1s-0.9-0.399-0.9-1v-2.1zm0.5 2.1c0 0.4 0.1 0.601 0.5 0.601 0.3 0 0.5-0.2 0.5-0.601v-2.1c0-0.4-0.101-0.601-0.5-0.601-0.3 0-0.5 0.2-0.5 0.601v2.1zm2.7-3.1c0.6 0 0.899 0.399 0.899 1v0.5c0 0.6-0.3 1-1 1h-0.299v1.6h-0.4v-4h0.8v-0.1zm-0.1 2.1c0.3 0 0.5-0.1 0.5-0.5v-0.5c0-0.399-0.1-0.6-0.5-0.6h-0.4v1.6h0.4zm3.2-1.6c-0.3 0-0.5 0.2-0.5 0.6v0.2c0 0.3 0.2 0.5 0.5 0.5h0.4v-0.5h0.4v0.4h0.2v0.4h-0.2v1.4c0 0.2 0 0.3 0.101 0.5h-0.401c0-0.101 0-0.2-0.1-0.3-0.1 0.2-0.3 0.4-0.6 0.4-0.5 0-0.7-0.3-0.7-0.899v-0.4c0-0.4 0.101-0.7 0.5-0.9-0.3-0.1-0.5-0.399-0.5-0.8v-0.1c0-0.601 0.301-1 1-1h0.7v0.399h-0.8v0.1zm0 1.7c-0.3 0-0.5 0.199-0.5 0.6v0.4c0 0.3 0.1 0.6 0.5 0.6 0.2 0 0.4-0.1 0.4-0.5v-1.1h-0.4zm3.2-2.2c0.6 0 0.899 0.399 0.899 1v2c0 0.6-0.3 1-0.899 1h-1v-4h1zm0 3.7c0.3 0 0.5-0.2 0.5-0.601v-2.1c0-0.4-0.101-0.601-0.5-0.601h-0.5v3.2h0.5v0.102zm2.8-1.8v0.4h-1v1.4h1.2v0.4h-1.6v-4h1.7v0.4h-1.2v1.3h0.9v0.1zm2.3-0.9l-0.4 0.1v-0.1c0-0.4-0.101-0.601-0.5-0.601-0.4 0-0.5 0.2-0.5 0.601 0 0.899 1.3 1 1.3 2.1 0 0.601-0.3 1-0.9 1s-0.899-0.399-0.899-1v-0.2h0.5v0.2c0 0.4 0.1 0.601 0.5 0.601 0.399 0 0.5-0.2 0.5-0.601 0-0.899-1.301-1-1.301-2.1 0-0.601 0.301-1 0.9-1 0.5 0 0.8 0.4 0.8 1zm0.9-1v4h-0.4v-4h0.4zm2.2 1v0.3h-0.4v-0.4c0-0.399-0.1-0.6-0.5-0.6-0.3 0-0.5 0.2-0.5 0.6v2.1c0 0.399 0.1 0.6 0.5 0.6 0.3 0 0.5-0.2 0.5-0.6v-0.7h-0.4v-0.4h0.9v1.2c0 0.601-0.3 1-0.9 1s-0.899-0.399-0.899-1v-2.1c0-0.601 0.3-1 0.899-1 0.6 0 0.8 0.4 0.8 1zm0.9 3.1h-0.4v-4h0.6l0.9 2.9v-2.9h0.4v4h-0.5l-1-3.3v3.3z" fill="#FF302C"/><linearGradient id="phone-reflection-screen_2_" y2="62.55" gradientUnits="userSpaceOnUse" x2="84.55" y1="62.55" x1="35.4">	<stop stop-color="#fff" stop-opacity="0" offset="0"/>	<stop stop-color="#fff" offset="1"/></linearGradient><path id="phone-reflection-screen_1_" opacity=".6" d="m83.8 20.6h-22l-26.4 74.5v8.7c0 0.4 0.3 0.7 0.8 0.7h47.6c0.4 0 0.8-0.3 0.8-0.7v-82.5c0-0.3-0.3-0.7-0.8-0.7z" enable-background="new    " fill="url(#phone-reflection-screen_2_)"/></svg><svg xmlns:xlink="http://www.w3.org/1999/xlink" id="tab" xml:space="preserve" height="120" viewBox="0 0 120 120" width="120" version="1.1" y="480" x="0px" enable-background="new 0 0 120 120"><path id="tab-back" d="m98.5 110.8c0 4-2.7 7.2-6.5 7.2h-63.4c-3.9 0-7.1-3.2-7.1-7.2v-100.6c0-4 3.2-7.2 7.1-7.2h63.4c3.9 0 6.5 3.2 6.5 7.2v100.6z" fill="#565656"/><linearGradient id="tab-reflection-back_2_" y2="60.45" gradientUnits="userSpaceOnUse" x2="98.484" y1="60.45" x1="27.5">	<stop stop-color="#fff" stop-opacity="0" offset="0"/>	<stop stop-color="#fff" offset="1"/></linearGradient><path id="tab-reflection-back_1_" opacity=".1" d="m92 3h-11.7l-52.8 114.9h0.2c3.4 0 44.6-0.2 65.7-0.101 3-0.7 5-3.6 5-7v-100.6c0.1-4-2.5-7.2-6.4-7.2z" enable-background="new    " fill="url(#tab-reflection-back_2_)"/><path id="tab-button" d="m62.5 112.5c0 1.1-0.9 2-2 2h-1c-1.1 0-2-0.9-2-2v-1c0-1.1 0.9-2 2-2h1c1.1 0 2 0.9 2 2v1z" stroke="#444344" stroke-miterlimit="10" stroke-width=".5" fill="none"/><circle id="tab-camera" cy="8.5" stroke="#333" cx="60" stroke-miterlimit="10" stroke-width=".5" fill="#808080"/><path id="tab-screen_1_" d="m94.5 15v88.8c0 0.8 0 2.3-1 2.3h-65.2c-1 0-2.8-1.5-2.8-2.3v-88.8c0-0.8 1.8-1 2.8-1h65.2c1 0 1 0.2 1 1z" fill="#D3D3D3"/><path id="tab-logo" d="m66 46.8l-13-4.1c-0.6-0.6-1-1.9-1-3.4 0-1.4 0.7-2.7 1.3-3.4l6.4-3.8 6.3 3.9v10.8zm-19-7.2v14.8l3.5 2.1v-12.2c-0.6-0.7-1-2-1-3.4 0-1.5 0.5-2.7 1.1-3.4l-3.6 2.1zm6.3 7.7v10.8l6.4 3.8 6.399-3.8c1.2-0.7 1.2-1.9 1.2-3.4s-0.3-2.7-1-3.3l-12.999-4.1zm15.7-9.9v12.3c0.6 0.7 1.2 2 1.2 3.4 0 1.5-0.4 2.7-1 3.4l3.899-2.1v-14.8l-4.099-2.2z" fill="#FF302C"/><path id="tab-text" d="m37.2 67.9v2.2h-0.5v-4.9h0.5v2.1h1.2v-2.2h0.5v4.9h-0.5v-2.2l-1.2 0.1zm4.4-1.5v0.1h-0.5v-0.2c0-0.5-0.2-0.7-0.6-0.7s-0.6 0.2-0.6 0.7c0 1.101 1.6 1.2 1.6 2.601 0 0.8-0.3 1.199-1.1 1.199s-1.1-0.5-1.1-1.199v-0.301h0.5v0.3c0 0.5 0.2 0.699 0.6 0.699s0.6-0.199 0.6-0.699c0-1.101-1.6-1.2-1.6-2.601 0-0.8 0.3-1.2 1.1-1.2 0.8 0.101 1.1 0.601 1.1 1.301zm1.6 1h1.3v0.5h-1.3v-0.5zm4-2.2c0.8 0 1.1 0.5 1.1 1.2v2.4c0 0.8-0.3 1.2-1.1 1.2h-1.2v-4.9h1.2v0.1zm0 4.4c0.4 0 0.6-0.199 0.6-0.699v-2.5c0-0.5-0.2-0.7-0.6-0.7h-0.6v3.899h0.6zm3.4-2.2v0.5h-1.2v1.7h1.5v0.5h-2v-4.9h2v0.5h-1.5v1.6h1.2v0.1zm1.2-2.2l0.8 4.2 0.8-4.2h0.5l-0.9 4.9h-0.8l-0.9-4.9h0.5zm4.2 2.2v0.5h-1.2v1.7h1.4v0.5h-2v-4.9h2v0.5h-1.4v1.6h1.2v0.1zm0.8 2.7v-4.9h0.5v4.4h1.4v0.5h-1.9zm2.3-3.7c0-0.801 0.3-1.2 1.1-1.2s1.1 0.5 1.1 1.2v2.5c0 0.8-0.3 1.199-1.1 1.199s-1.1-0.5-1.1-1.199v-2.5zm0.5 2.6c0 0.5 0.2 0.7 0.6 0.7 0.399 0 0.6-0.2 0.6-0.7v-2.6c0-0.5-0.2-0.7-0.6-0.7s-0.6 0.3-0.6 0.7v2.6zm3.3-3.8c0.8 0 1.1 0.5 1.1 1.2v0.6c0 0.8-0.3 1.2-1.2 1.2h-0.5v1.9h-0.5v-4.9h1.1zm-0.1 2.5c0.4 0 0.601-0.2 0.601-0.601v-0.6c0-0.5-0.2-0.7-0.601-0.7h-0.5v2h0.5v-0.099zm3.9-2c-0.4 0-0.601 0.2-0.601 0.7v0.2c0 0.4 0.2 0.601 0.601 0.601h0.5v-0.5h0.5v0.5h0.2v0.5h-0.2v1.7c0 0.199 0 0.399 0.1 0.6h-0.5c-0.1-0.1-0.1-0.2-0.1-0.4-0.101 0.301-0.4 0.5-0.8 0.5-0.601 0-0.9-0.399-0.9-1.1v-0.5c0-0.5 0.2-0.9 0.6-1-0.399-0.1-0.6-0.5-0.6-1v-0.1c0-0.801 0.3-1.2 1.2-1.2h0.8v0.5h-0.8v-0.001zm0 2.1c-0.4 0-0.601 0.3-0.601 0.8v0.4c0 0.4 0.2 0.7 0.601 0.7 0.3 0 0.5-0.2 0.5-0.601v-1.3h-0.5v0.001zm3.9-2.6c0.801 0 1.101 0.5 1.101 1.2v2.4c0 0.8-0.3 1.2-1.101 1.2h-1.2v-4.9h1.2v0.1zm0 4.4c0.4 0 0.6-0.2 0.6-0.7v-2.5c0-0.5-0.2-0.7-0.601-0.7h-0.599v3.9h0.6zm3.3-2.2v0.5h-1.2v1.7h1.5v0.5h-2v-4.9h2v0.5h-1.4v1.6h1.1v0.1zm2.9-1v0.1h-0.5v-0.2c0-0.5-0.2-0.7-0.6-0.7s-0.601 0.2-0.601 0.7c0 1.101 1.601 1.2 1.601 2.601 0 0.8-0.3 1.199-1.101 1.199-0.8 0-1.1-0.5-1.1-1.199v-0.301h0.6v0.3c0 0.5 0.2 0.699 0.601 0.699 0.399 0 0.6-0.199 0.6-0.699 0-1.101-1.6-1.2-1.6-2.601 0-0.8 0.3-1.2 1.1-1.2 0.6 0.101 1 0.601 1 1.301zm1-1.2v4.9h-0.5v-4.9h0.5zm2.7 1.2v0.4h-0.5v-0.5c0-0.5-0.2-0.7-0.6-0.7s-0.6 0.3-0.6 0.7v2.6c0 0.5 0.2 0.699 0.601 0.699 0.399 0 0.6-0.3 0.6-0.699v-0.9h-0.5v-0.5h1v1.5c0 0.8-0.3 1.2-1.1 1.2-0.801 0-1.101-0.5-1.101-1.2v-2.5c0-0.8 0.3-1.2 1.101-1.2 0.799-0.1 1.099 0.4 1.099 1.1zm1 3.7h-0.5v-4.9h0.7l1.1 3.5v-3.5h0.5v4.9h-0.6l-1.2-3.9v3.9z" fill="#FF302C"/><linearGradient id="tab-reflection-screen_2_" y2="60.05" gradientUnits="userSpaceOnUse" x2="94.6" y1="60.05" x1="33">	<stop stop-color="#fff" stop-opacity="0" offset="0"/>	<stop stop-color="#fff" offset="1"/></linearGradient><path id="tab-reflection-screen_1_" opacity=".6" d="m93.5 14h-18.2l-42.3 92.1h60.6c1 0 1-1.5 1-2.3v-88.8c-0.1-0.8-0.1-1-1.1-1z" enable-background="new    " fill="url(#tab-reflection-screen_2_)"/></svg></svg>
