<?xml version="1.0" encoding="utf-8"?>
<!-- Generator: Adobe Illustrator 16.0.0, SVG Export Plug-In . SVG Version: 6.00 Build 0)  -->
<!DOCTYPE svg PUBLIC "-//W3C//DTD SVG 1.1//EN" "http://www.w3.org/Graphics/SVG/1.1/DTD/svg11.dtd">
<svg version="1.1" id="Layer_1" xmlns="http://www.w3.org/2000/svg" xmlns:xlink="http://www.w3.org/1999/xlink" x="0px" y="0px"
	 width="64px" height="64px" viewBox="0 0 64 64" enable-background="new 0 0 64 64" xml:space="preserve">
<g>
	<g id="light">
		<g>
			<path fill="#FFDB4B" d="M32,2.688c-10.726,0-21.362,9.721-21.362,20.513c0,9.589,8.739,15.415,9.777,21.241h23.17
				c1.038-5.826,9.777-11.652,9.777-21.241C53.362,12.408,42.726,2.688,32,2.688z"/>
		</g>
	</g>
	<g id="bottom_part">
		<g>
			<path fill-rule="evenodd" clip-rule="evenodd" fill="#8C8C8C" d="M40.679,45.533H23.322c-1.308,0-2.368,1.06-2.368,2.367
				s1.06,2.368,2.368,2.368h17.356c1.307,0,2.366-1.061,2.366-2.368S41.985,45.533,40.679,45.533z M39.101,51.845H24.899
				c-1.307,0-2.367,1.061-2.367,2.368c0,1.307,1.061,2.365,2.367,2.365h14.201c1.308,0,2.368-1.059,2.368-2.365
				C41.469,52.905,40.408,51.845,39.101,51.845z M32,61.313c2.335,0,5.157-1.271,6.249-3.155H25.75
				C26.843,60.041,29.665,61.313,32,61.313z"/>
		</g>
	</g>
	<g>
		<path fill="#EB6D3F" d="M26.676,33.064c0.835-0.121,1.67-0.182,2.505-0.264l-0.244,0.164c0.403-1.271,0.851-2.523,1.317-3.769
			l0.47-1.253l0.406,1.3c0.543,1.741,1.047,3.492,1.491,5.261l-0.768-0.18c0.644-0.672,1.306-1.327,1.975-1.976l0.119-0.115
			l0.123,0.011c0.543,0.048,1.085,0.097,1.628,0.167c0.542,0.065,1.084,0.123,1.626,0.214c-0.545,0.071-1.089,0.107-1.633,0.152
			c-0.545,0.05-1.089,0.078-1.633,0.105l0.242-0.104c-0.582,0.728-1.172,1.449-1.78,2.153l-0.518,0.599l-0.25-0.778
			c-0.559-1.736-1.056-3.49-1.515-5.254l0.875,0.047c-0.535,1.217-1.09,2.427-1.688,3.618l-0.09,0.179l-0.154-0.015
			C28.346,33.247,27.511,33.185,26.676,33.064z"/>
	</g>
	<g id="Ellipse_14" opacity="0.4">
		<g>
			<ellipse fill="#FFFFFF" cx="31.5" cy="9.5" rx="7.333" ry="4.667"/>
		</g>
	</g>
</g>
<g>
	<defs>
		<polygon id="SVGID_1_" points="35.833,-1.833 23.833,67 58.833,69.167 62.167,0 		"/>
	</defs>
	<clipPath id="SVGID_2_">
		<use xlink:href="#SVGID_1_"  overflow="visible"/>
	</clipPath>
	<g clip-path="url(#SVGID_2_)">
		<g id="light_4_">
			<g>
				<path fill="#D1AF1C" d="M32,2.688c-10.726,0-21.362,9.721-21.362,20.513c0,9.589,8.739,15.415,9.777,21.241h23.17
					c1.038-5.826,9.777-11.652,9.777-21.241C53.362,12.408,42.726,2.688,32,2.688z"/>
			</g>
		</g>
		<g id="bottom_part_4_">
			<g>
				<path fill-rule="evenodd" clip-rule="evenodd" fill="#666666" d="M40.679,45.533H23.322c-1.308,0-2.368,1.06-2.368,2.367
					s1.06,2.368,2.368,2.368h17.356c1.307,0,2.366-1.061,2.366-2.368S41.985,45.533,40.679,45.533z M39.101,51.845H24.899
					c-1.307,0-2.367,1.061-2.367,2.368c0,1.307,1.061,2.365,2.367,2.365h14.201c1.308,0,2.368-1.059,2.368-2.365
					C41.469,52.905,40.408,51.845,39.101,51.845z M32,61.313c2.335,0,5.157-1.271,6.249-3.155H25.75
					C26.843,60.041,29.665,61.313,32,61.313z"/>
			</g>
		</g>
		<g>
			<path fill="#D64C22" d="M26.676,33.064c0.835-0.121,1.67-0.182,2.505-0.264l-0.244,0.164c0.403-1.271,0.851-2.523,1.317-3.769
				l0.47-1.253l0.406,1.3c0.543,1.741,1.047,3.492,1.491,5.261l-0.768-0.18c0.644-0.672,1.306-1.327,1.975-1.976l0.119-0.115
				l0.123,0.011c0.543,0.048,1.085,0.097,1.628,0.167c0.542,0.065,1.084,0.123,1.626,0.214c-0.545,0.071-1.089,0.107-1.633,0.152
				c-0.545,0.05-1.089,0.078-1.633,0.105l0.242-0.104c-0.582,0.728-1.172,1.449-1.78,2.153l-0.518,0.599l-0.25-0.778
				c-0.559-1.736-1.056-3.49-1.515-5.254l0.875,0.047c-0.535,1.217-1.09,2.427-1.688,3.618l-0.09,0.179l-0.154-0.015
				C28.346,33.247,27.511,33.185,26.676,33.064z"/>
		</g>
		<g id="Ellipse_14_4_" opacity="0.4">
			<g>
				<ellipse fill="#E5E4DF" cx="31.5" cy="9.5" rx="7.333" ry="4.667"/>
			</g>
		</g>
	</g>
</g>
</svg>
