<svg xmlns="http://www.w3.org/2000/svg" xmlns:xlink="http://www.w3.org/1999/xlink" id="laptop-Layer_1" xml:space="preserve" height="120" viewBox="0 0 120 120" width="120" version="1.1" y="0px" x="0px" enable-background="new 0 0 120 120"><path id="laptop-back_1_" d="m102.2 79.5c0 1.4-0.9 2.6-2 2.6h-81.2c-1.1 0-2-1.199-2-2.6v-52.2c0-1.5 0.9-2.6 2-2.6h81.3c1.101 0 2 1.2 2 2.6v52.2h-0.1z"/><g id="laptop-bottom">	<path d="m2.5 82.9s-0.7 1.3 4.3 2.399h105.5s3.5-0.2 4.5-1.899v-0.9l-114.3 0.4z" fill="#5F6767"/>		<linearGradient id="laptop-SVGID_1_" y2="-296.83" gradientUnits="userSpaceOnUse" x2="362.81" gradientTransform="matrix(1 0 0 -1 -246 -215)" y1="-296.83" x1="248.5">		<stop stop-color="#999C9D" offset="0"/>		<stop stop-color="#A5A7A9" offset=".00095911"/>		<stop stop-color="#C2C3C5" offset=".0037"/>		<stop stop-color="#D9D8DA" offset=".0067"/>		<stop stop-color="#E9E7EA" offset=".0099"/>		<stop stop-color="#F2F0F3" offset=".0134"/>		<stop stop-color="#F5F3F6" offset=".0183"/>		<stop stop-color="#DFE1E3" offset=".0488"/>		<stop stop-color="#D1D1D1" offset=".189"/>		<stop stop-color="#E3E5E7" offset=".5061"/>		<stop stop-color="#D1D1D1" offset=".872"/>		<stop stop-color="#DFE1E3" offset=".9512"/>		<stop stop-color="#F5F3F6" offset=".9878"/>		<stop stop-color="#999C9D" offset="1"/>	</linearGradient>	<path d="m2.5 80.2h114.3v2.9s0.2 0.4-1.2 0.301h-112s-1.1 0.3-1.1-0.4v-2.801z" fill="url(#laptop-SVGID_1_)"/>	<path d="m111.5 82c0 0.1-0.1 0.2-0.2 0.2h-3.9c-0.101 0-0.2-0.101-0.2-0.2 0-0.1 0.1-0.2 0.2-0.2h3.899c0.1 0 0.2 0 0.2 0.2z" fill="#5F6767"/>	<path d="m51.9 80.3s-0.4 1.5 1 1.601h13.3s1.399 0.199 1.2-1.601h-15.5z" fill="#5F6767"/></g><path id="laptop-screen_1_" d="m20.4 27.9h78.7v48.5h-78.7v-48.5z" fill="#CCC8C8"/><path id="laptop-logo" d="m64.7 47.9l-10.2-3.2c-0.5-0.5-0.8-1.5-0.8-2.6s0.5-2.1 1-2.6l5-3 5 3v8.4zm-14.9-5.6v11.7l2.7 1.7v-9.7c-0.5-0.5-0.8-1.5-0.8-2.7 0-1.1 0.4-2.1 0.9-2.7l-2.8 1.7zm5 6v8.5l5 3 5-3c0.9-0.5 0.9-1.5 0.9-2.6s-0.2-2.2-0.7-2.7l-10.2-3.2zm12.3-7.8v9.7c0.5 0.5 0.9 1.5 0.9 2.7s-0.3 2.1-0.8 2.7l3.1-1.7v-11.7l-3.2-1.7z" fill="#FF302C"/><path id="laptop-text" d="m42.1 64.5v1.7h-0.4v-3.8h0.4v1.7h1v-1.7h0.4v3.8h-0.4v-1.7h-1zm3.5-1.2l-0.4 0.1v-0.1c0-0.399-0.1-0.5-0.5-0.5-0.3 0-0.5 0.2-0.5 0.5 0 0.9 1.3 1 1.3 2 0 0.601-0.3 1-0.9 1s-0.9-0.399-0.9-1v-0.2h0.4v0.2c0 0.4 0.1 0.5 0.5 0.5 0.3 0 0.5-0.2 0.5-0.5 0-0.899-1.3-1-1.3-2 0-0.6 0.3-1 0.9-1 0.6 0.1 0.9 0.4 0.9 1zm1.2 0.8h1v0.4h-1v-0.4zm3.2-1.7c0.6 0 0.9 0.399 0.9 1v1.9c0 0.601-0.3 1-0.9 1h-0.9v-3.8h0.9v-0.1zm0 3.4c0.3 0 0.5-0.2 0.5-0.5v-2c0-0.399-0.1-0.5-0.5-0.5h-0.5v3.1h0.5v-0.1zm2.6-1.7v0.4h-1v1.4h1.1v0.4h-1.6v-3.8h1.6v0.4h-1.1v1.3h1v-0.1zm0.9-1.7l0.6 3.3 0.6-3.3h0.4l-0.7 3.8h-0.6l-0.7-3.8h0.4zm3.4 1.7v0.4h-1v1.4h1.1v0.4h-1.6v-3.8h1.6v0.4h-1.1v1.3h1v-0.1zm0.5 2.1v-3.8h0.4v3.4h1.2v0.4h-1.6zm1.9-2.9c0-0.6 0.3-1 0.9-1s0.899 0.4 0.899 1v2c0 0.601-0.3 1-0.899 1-0.6 0-0.9-0.399-0.9-1v-2zm0.4 2c0 0.4 0.1 0.5 0.5 0.5 0.399 0 0.5-0.2 0.5-0.5v-2c0-0.399-0.101-0.5-0.5-0.5-0.4 0-0.5 0.2-0.5 0.5v2zm2.6-2.9c0.601 0 0.9 0.399 0.9 1v0.5c0 0.6-0.3 0.899-0.9 0.899h-0.4v1.5h-0.4v-3.8h0.8v-0.099zm-0.1 1.9c0.3 0 0.5-0.1 0.5-0.5v-0.5c0-0.399-0.101-0.5-0.5-0.5h-0.4v1.5h0.4zm3-1.5c-0.3 0-0.5 0.2-0.5 0.5v0.2c0 0.3 0.2 0.5 0.5 0.5h0.4v-0.4h0.4v0.4h0.2v0.4h-0.2v1.3c0 0.2 0 0.3 0.1 0.5h-0.4c0-0.101 0-0.2-0.101-0.3-0.099 0.2-0.299 0.4-0.599 0.4-0.5 0-0.7-0.3-0.7-0.899v-0.401c0-0.4 0.101-0.7 0.5-0.8-0.3-0.101-0.5-0.4-0.5-0.8v-0.1c0-0.6 0.3-1 0.9-1h0.6v0.4h-0.6v0.1zm0 1.6c-0.3 0-0.5 0.199-0.5 0.6v0.4c0 0.3 0.1 0.5 0.5 0.5 0.2 0 0.399-0.101 0.399-0.5v-1h-0.399zm3.1-2c0.601 0 0.9 0.399 0.9 1v1.9c0 0.601-0.3 1-0.9 1h-0.9v-3.8h0.9v-0.1zm0 3.4c0.3 0 0.5-0.2 0.5-0.5v-2c0-0.399-0.1-0.5-0.5-0.5h-0.5v3.1h0.5v-0.1zm2.6-1.7v0.4h-1v1.4h1.1v0.4h-1.5v-3.8h1.6v0.4h-1.1v1.3h0.9v-0.1zm2.3-0.8l-0.4 0.1v-0.1c0-0.399-0.1-0.5-0.5-0.5-0.399 0-0.5 0.2-0.5 0.5 0 0.9 1.3 1 1.3 2 0 0.601-0.3 1-0.899 1-0.601 0-0.9-0.399-0.9-1v-0.2h0.5v0.2c0 0.4 0.101 0.5 0.5 0.5 0.4 0 0.5-0.2 0.5-0.5 0-0.899-1.3-1-1.3-2 0-0.6 0.3-1 0.9-1 0.499 0.1 0.799 0.4 0.799 1zm0.8-0.9v3.8h-0.4v-3.8h0.4zm2.1 0.9v0.3h-0.4v-0.4c0-0.4-0.101-0.5-0.5-0.5-0.4 0-0.5 0.2-0.5 0.5v2c0 0.399 0.1 0.5 0.5 0.5 0.399 0 0.5-0.2 0.5-0.5v-0.7h-0.4v-0.4h0.8v1.1c0 0.6-0.3 1-0.899 1-0.601 0-0.9-0.4-0.9-1v-2c0-0.601 0.3-1 0.9-1 0.599 0.2 0.899 0.5 0.899 1.1zm0.8 2.9h-0.4v-3.8h0.5l0.9 2.8v-2.8h0.4v3.8h-0.5l-1-3.101v3.101h0.1z" fill="#FF302C"/><linearGradient id="laptop-reflection_2_" y2="52" gradientUnits="userSpaceOnUse" x2="99" y1="52" x1="43.8">	<stop stop-color="#fff" stop-opacity="0" offset="0"/>	<stop stop-color="#fff" offset="1"/></linearGradient><path id="laptop-reflection_1_" opacity=".6" d="m43.8 76h55.2v-48h-21.6l-33.6 48z" enable-background="new    " fill="url(#laptop-reflection_2_)"/></svg>