<?xml version="1.0" encoding="utf-8"?>
<!-- Generator: Adobe Illustrator 16.0.0, SVG Export Plug-In . SVG Version: 6.00 Build 0)  -->
<!DOCTYPE svg PUBLIC "-//W3C//DTD SVG 1.1//EN" "http://www.w3.org/Graphics/SVG/1.1/DTD/svg11.dtd">
<svg version="1.1" id="laptop" xmlns="http://www.w3.org/2000/svg" xmlns:xlink="http://www.w3.org/1999/xlink" x="0px" y="0px"
	 width="120px" height="120px" viewBox="0 0 120 120" enable-background="new 0 0 120 120" xml:space="preserve">
<path id="keypad" fill="none" stroke="#FF302C" stroke-width="0.25" stroke-miterlimit="10" d="M116.8,83.1v-0.6v-2.3H2.5v2.7
	c0,0-0.7,1.3,4.3,2.397h105.5c0,0,3.5-0.198,4.5-1.897v-0.211C116.814,83.141,116.8,83.1,116.8,83.1z"/>
<path id="button2" fill="none" stroke="#FF302C" stroke-width="0.25" stroke-miterlimit="10" d="M111.5,82c0,0.1-0.1,0.2-0.2,0.2
	H107.4c-0.103,0-0.2-0.101-0.2-0.2s0.1-0.2,0.2-0.2h3.897C111.398,81.8,111.499,81.8,111.5,82L111.5,82z"/>
<path id="button1" fill="none" stroke="#FF302C" stroke-width="0.25" stroke-miterlimit="10" d="M51.9,80.3c0,0-0.4,1.5,1,1.601
	h13.3c0,0,1.399,0.199,1.2-1.601H51.9z"/>
<path id="back" fill="none" stroke="#FF302C" stroke-width="0.25" stroke-miterlimit="10" d="M100.3,24.7H19c-1.1,0-2,1.1-2,2.6
	v52.2c0,0.242,0.036,0.475,0.086,0.7h85.027c0.051-0.226,0.087-0.458,0.087-0.7h0.1V27.3C102.3,25.9,101.4,24.7,100.3,24.7z"/>
<rect id="screen" x="20.4" y="27.9" fill="none" stroke="#FF302C" stroke-width="0.25" stroke-miterlimit="10" width="78.7" height="48.5"/>
<path id="logo" fill="none" stroke="#FF302C" stroke-width="0.25" stroke-miterlimit="10" d="M64.7,47.9l-10.2-3.2
	c-0.5-0.5-0.8-1.5-0.8-2.6s0.5-2.1,1-2.6l5-3l5,3V47.9z M49.8,42.3V54l2.7,1.7V46c-0.5-0.5-0.8-1.5-0.8-2.7c0-1.1,0.4-2.1,0.9-2.7
	L49.8,42.3L49.8,42.3z M54.8,48.3v8.5l5,3l5-3c0.9-0.5,0.9-1.5,0.9-2.6c0-1.1-0.2-2.2-0.7-2.7L54.8,48.3L54.8,48.3z M67.1,40.5v9.7
	c0.5,0.5,0.9,1.5,0.9,2.7c0,1.2-0.3,2.1-0.8,2.7l3.1-1.7V42.2L67.1,40.5z"/>
<path id="text" fill="none" stroke="#FF302C" stroke-width="0.15" stroke-miterlimit="10" d="M41.97,64.461v1.737h-0.395v-3.869
	h0.395v1.657h0.947V62.25h0.395v3.87h-0.395v-1.737L41.97,64.461z M45.445,63.275v0.08H45.05v-0.157
	c0-0.396-0.158-0.554-0.474-0.554c-0.315,0-0.474,0.157-0.474,0.554c0,0.868,1.264,0.946,1.264,2.053
	c0,0.632-0.237,0.947-0.869,0.947s-0.869-0.396-0.869-0.947v-0.237h0.395v0.237c0,0.396,0.158,0.554,0.474,0.554
	c0.315,0,0.474-0.158,0.474-0.554c0-0.868-1.264-0.948-1.264-2.053c0-0.632,0.237-0.948,0.869-0.948
	C45.208,62.329,45.445,62.725,45.445,63.275z M46.708,64.066h1.027v0.395h-1.027V64.066z M49.867,62.329
	c0.631,0,0.868,0.396,0.868,0.946v1.896c0,0.633-0.237,0.948-0.868,0.948h-0.948v-3.87h0.948V62.329z M49.867,65.805
	c0.315,0,0.474-0.158,0.474-0.554v-1.976c0-0.395-0.158-0.553-0.474-0.553h-0.475v3.08h0.475V65.805z M52.552,64.066v0.395h-0.947
	v1.344h1.185v0.395h-1.58V62.33h1.579v0.395h-1.185v1.265h0.947L52.552,64.066L52.552,64.066z M53.5,62.329l0.631,3.315l0.632-3.315
	h0.395l-0.711,3.869h-0.632l-0.711-3.869H53.5z M56.816,64.066v0.395h-0.948v1.344h1.106v0.395h-1.58V62.33h1.58v0.395h-1.106v1.265
	h0.948V64.066z M57.448,66.198v-3.869h0.395v3.476h1.106v0.395L57.448,66.198L57.448,66.198z M59.264,63.275
	c0-0.631,0.237-0.946,0.869-0.946c0.631,0,0.869,0.396,0.869,0.946v1.976c0,0.632-0.236,0.947-0.869,0.947
	c-0.632,0-0.869-0.396-0.869-0.947V63.275z M59.659,65.33c0,0.395,0.158,0.553,0.475,0.553c0.315,0,0.474-0.158,0.474-0.553v-2.055
	c0-0.395-0.158-0.553-0.474-0.553c-0.316,0-0.475,0.237-0.475,0.553V65.33z M62.266,62.329c0.633,0,0.868,0.396,0.868,0.946v0.476
	c0,0.632-0.235,0.946-0.946,0.946h-0.396v1.498h-0.395v-3.866H62.266z M62.188,64.303c0.314,0,0.474-0.156,0.474-0.474v-0.474
	c0-0.396-0.155-0.554-0.474-0.554h-0.396v1.58h0.396V64.303L62.188,64.303z M65.268,62.725c-0.316,0-0.476,0.157-0.476,0.553v0.158
	c0,0.315,0.155,0.474,0.476,0.474h0.395v-0.396h0.395v0.396h0.158v0.396h-0.158v1.342c0,0.158,0,0.316,0.079,0.476H65.74
	c-0.079-0.08-0.079-0.156-0.079-0.313c-0.079,0.236-0.315,0.396-0.632,0.396c-0.478,0-0.711-0.313-0.711-0.871v-0.315
	c0-0.396,0.158-0.711,0.474-0.789c-0.313-0.08-0.474-0.396-0.474-0.791v-0.078c0-0.633,0.236-0.947,0.947-0.947h0.631v0.395h-0.631
	v-0.082H65.268z M65.268,64.383c-0.316,0-0.476,0.236-0.476,0.631v0.396c0,0.314,0.155,0.553,0.476,0.553
	c0.235,0,0.395-0.158,0.395-0.475V64.46L65.268,64.383z M68.346,62.329c0.633,0,0.871,0.396,0.871,0.946v1.896
	c0,0.633-0.238,0.948-0.871,0.948h-0.947v-3.87h0.947V62.329z M68.346,65.805c0.316,0,0.478-0.158,0.478-0.554v-1.976
	c0-0.395-0.158-0.553-0.478-0.553h-0.474v3.08h0.474V65.805z M70.952,64.066v0.395h-0.947v1.344h1.104v0.395h-1.58V62.33h1.58v0.395
	h-1.104v1.265h0.947V64.066z M73.242,63.275v0.08h-0.396v-0.157c0-0.396-0.156-0.554-0.473-0.554s-0.475,0.157-0.475,0.554
	c0,0.868,1.264,0.946,1.264,2.053c0,0.632-0.236,0.947-0.869,0.947c-0.634,0-0.87-0.396-0.87-0.947v-0.237h0.476v0.237
	c0,0.396,0.158,0.554,0.477,0.554c0.314,0,0.475-0.158,0.475-0.554c0-0.868-1.265-0.948-1.265-2.053
	c0-0.632,0.237-0.948,0.869-0.948C72.927,62.329,73.242,62.725,73.242,63.275z M74.031,62.329v3.869h-0.395v-3.869H74.031z
	 M76.164,63.275v0.316H75.77v-0.395c0-0.396-0.158-0.555-0.474-0.555s-0.476,0.237-0.476,0.555v2.053
	c0,0.395,0.158,0.553,0.476,0.553c0.315,0,0.476-0.236,0.476-0.553v-0.71h-0.395v-0.396h0.789v1.186c0,0.632-0.236,0.947-0.87,0.947
	c-0.633,0-0.869-0.396-0.869-0.947v-1.975c0-0.633,0.236-0.947,0.869-0.947C75.928,62.329,76.164,62.725,76.164,63.275z
	 M76.954,66.198h-0.396v-3.869h0.553l0.869,2.764v-2.764h0.395v3.869H77.9l-0.946-3.08V66.198z"/>
</svg>
