<?xml version="1.0" encoding="utf-8"?>
<!-- Generator: Adobe Illustrator 16.0.0, SVG Export Plug-In . SVG Version: 6.00 Build 0)  -->
<!DOCTYPE svg PUBLIC "-//W3C//DTD SVG 1.1//EN" "http://www.w3.org/Graphics/SVG/1.1/DTD/svg11.dtd">
<svg version="1.1" id="Logo" xmlns="http://www.w3.org/2000/svg" xmlns:xlink="http://www.w3.org/1999/xlink" x="0px" y="0px"
	 width="192px" height="144px" viewBox="0 0 192 144" enable-background="new 0 0 192 144" xml:space="preserve">
<path id="bimatele" fill="#F1C40F" d="M92.121,53.17h1.561h2.677c1.754,0,3.155,0.398,4.198,1.193
	c1.047,0.796,1.568,1.862,1.568,3.201c0,1.278-0.525,2.301-1.574,3.065l-0.311,0.211c0.408,0.18,0.783,0.395,1.127,0.648
	c1.166,0.855,1.75,2.003,1.75,3.446c0,1.562-0.564,2.806-1.694,3.736c-1.13,0.928-2.64,1.394-4.526,1.394h-3.209h-1.561V53.17
	H92.121z M95.243,59.75h1.115c0.876,0,1.533-0.153,1.974-0.458c0.438-0.305,0.659-0.763,0.659-1.371c0-0.61-0.222-1.07-0.659-1.378
	s-1.098-0.462-1.974-0.462h-1.115V59.75z M95.243,67.152h1.651c1.023,0,1.797-0.186,2.313-0.562s0.773-0.936,0.773-1.678
	c0-0.752-0.275-1.314-0.828-1.689c-0.555-0.376-1.387-0.562-2.493-0.562h-1.416V67.152L95.243,67.152L95.243,67.152z M104.986,53.17
	h3.046v2.788h-3.046V53.17z M104.986,57.397h1.518h1.528v12.667h-1.519h-1.529V57.397H104.986z M110.497,57.397h1.414h1.415v1.049
	c0.929-0.989,2.025-1.479,3.295-1.472c1.402,0,2.572,0.535,3.508,1.606l0.223,0.268l0.246-0.268c0.988-1.07,2.271-1.606,3.84-1.606
	c1.558,0,2.789,0.486,3.701,1.46c0.911,0.975,1.367,2.292,1.367,3.958v7.672h-1.516h-1.528v-7.17c0-1.033-0.208-1.818-0.62-2.353
	c-0.412-0.536-1.015-0.803-1.804-0.803c-0.845,0-1.472,0.305-1.89,0.914c-0.418,0.61-0.627,1.523-0.627,2.742v6.668h-1.518h-1.525
	v-6.825c0-1.146-0.213-2.015-0.637-2.609c-0.421-0.594-1.043-0.892-1.857-0.892c-0.815,0-1.426,0.305-1.834,0.914
	c-0.406,0.608-0.612,1.524-0.612,2.743v6.668h-1.517h-1.526V57.397H110.497z M137.624,70.488c-1.737,0-3.222-0.656-4.447-1.969
	c-1.228-1.312-1.841-2.904-1.841-4.777c0-1.874,0.613-3.469,1.841-4.79c1.228-1.319,2.712-1.979,4.458-1.979
	c1.689,0,3.12,0.605,4.292,1.817v-1.393h2.8v12.667h-1.394h-1.406V68.68C140.74,69.877,139.307,70.479,137.624,70.488z
	 M138.126,59.729c-1.062,0-1.95,0.384-2.662,1.154c-0.715,0.768-1.071,1.722-1.071,2.86c0,1.129,0.356,2.078,1.071,2.843
	c0.712,0.765,1.597,1.149,2.654,1.149c1.062,0,1.95-0.382,2.668-1.149c0.716-0.766,1.077-1.717,1.077-2.854
	c0-1.139-0.356-2.09-1.07-2.854C140.078,60.111,139.189,59.729,138.126,59.729z M147.736,70.064v-9.991h-1.459v-2.677h1.459v-4.248
	h3.045v4.248h1.842v2.677h-1.842v9.991H147.736z M159.96,70.488c-1.828,0-3.392-0.656-4.677-1.969
	c-1.291-1.312-1.936-2.904-1.936-4.777c0-1.874,0.646-3.469,1.936-4.79c1.289-1.319,2.848-1.979,4.677-1.979
	c1.836,0,3.397,0.659,4.688,1.979c1.291,1.32,1.935,2.916,1.935,4.79c0,0.454-0.037,0.899-0.11,1.338h-9.881
	c0.174,0.551,0.458,1.049,0.859,1.494c0.691,0.759,1.553,1.138,2.587,1.138c0.64,0,1.226-0.149,1.758-0.447
	c0.531-0.297,0.923-0.694,1.177-1.193h3.209c-0.408,1.344-1.178,2.417-2.308,3.217C162.745,70.088,161.438,70.488,159.96,70.488z
	 M163.404,62.649c-0.149-0.669-0.45-1.252-0.903-1.751c-0.683-0.765-1.532-1.148-2.543-1.148c-1.01,0-1.854,0.383-2.54,1.148
	c-0.439,0.506-0.744,1.09-0.916,1.751H163.404z M168.502,53.17h1.516h1.527v16.894h-1.516h-1.527V53.17L168.502,53.17z
	 M180.063,70.488c-1.828,0-3.39-0.656-4.676-1.969c-1.291-1.312-1.937-2.904-1.937-4.777c0-1.874,0.646-3.469,1.937-4.79
	c1.286-1.32,2.848-1.979,4.676-1.979c1.836,0,3.398,0.659,4.688,1.979c1.289,1.319,1.935,2.916,1.935,4.79
	c0,0.454-0.037,0.899-0.108,1.338h-9.882c0.173,0.551,0.455,1.049,0.859,1.494c0.69,0.759,1.553,1.138,2.586,1.138
	c0.644,0,1.227-0.149,1.756-0.447c0.533-0.297,0.924-0.694,1.18-1.193h3.211c-0.408,1.344-1.182,2.417-2.311,3.217
	C182.848,70.088,181.541,70.488,180.063,70.488z M183.51,62.649c-0.15-0.669-0.449-1.252-0.904-1.751
	c-0.684-0.765-1.529-1.148-2.541-1.148c-1.013,0-1.856,0.383-2.543,1.148c-0.438,0.506-0.744,1.09-0.916,1.751H183.51z"/>
<path id="investments" fill="#F1C40F" d="M94.829,71.383v12.57h-1.624v-12.57H94.829z M97.795,77.368
	c0-0.933-0.02-1.696-0.074-2.444h1.453l0.094,1.493h0.039c0.447-0.856,1.491-1.694,2.984-1.694c1.248,0,3.188,0.743,3.188,3.84
	v5.394h-1.642v-5.202c0-1.455-0.54-2.667-2.088-2.667c-1.083,0-1.922,0.767-2.203,1.681c-0.071,0.202-0.11,0.485-0.11,0.764v5.43
	h-1.642L97.795,77.368L97.795,77.368z M108.537,74.924l1.771,5.074c0.299,0.82,0.541,1.568,0.729,2.313h0.055
	c0.207-0.744,0.467-1.492,0.766-2.313l1.754-5.074h1.718l-3.544,9.027h-1.566l-3.433-9.027H108.537z M117.604,79.738
	c0.037,2.218,1.453,3.133,3.098,3.133c1.174,0,1.885-0.207,2.5-0.467l0.277,1.175c-0.578,0.26-1.564,0.558-3.002,0.558
	c-2.781,0-4.438-1.826-4.438-4.55c0-2.726,1.604-4.866,4.23-4.866c2.945,0,3.729,2.592,3.729,4.248c0,0.338-0.037,0.598-0.059,0.766
	h-6.34v0.007L117.604,79.738L117.604,79.738z M122.415,78.561c0.021-1.043-0.429-2.664-2.274-2.664c-1.66,0-2.389,1.529-2.52,2.664
	H122.415z M125.811,82.273c0.486,0.314,1.342,0.652,2.164,0.652c1.193,0,1.754-0.599,1.754-1.345c0-0.781-0.467-1.212-1.68-1.66
	c-1.621-0.578-2.386-1.471-2.386-2.554c0-1.452,1.174-2.648,3.112-2.648c0.914,0,1.715,0.262,2.219,0.563l-0.408,1.192
	c-0.354-0.228-1.01-0.522-1.848-0.522c-0.971,0-1.512,0.558-1.512,1.231c0,0.742,0.543,1.082,1.715,1.525
	c1.565,0.602,2.369,1.381,2.369,2.725c0,1.588-1.23,2.707-3.375,2.707c-0.988,0-1.9-0.242-2.535-0.617L125.811,82.273z
	 M135.396,72.335v2.593h2.349v1.249h-2.349v4.868c0,1.12,0.313,1.753,1.229,1.753c0.43,0,0.744-0.056,0.949-0.11l0.074,1.23
	c-0.314,0.132-0.816,0.223-1.453,0.223c-0.764,0-1.381-0.24-1.77-0.688c-0.469-0.487-0.636-1.287-0.636-2.354v-4.924h-1.397v-1.249
	h1.397v-2.161L135.396,72.335z M139.598,77.368c0-0.933-0.021-1.696-0.076-2.444h1.438l0.074,1.455h0.057
	c0.505-0.857,1.347-1.658,2.834-1.658c1.229,0,2.164,0.744,2.56,1.812h0.035c0.276-0.501,0.635-0.896,1.01-1.177
	c0.537-0.412,1.135-0.635,1.992-0.635c1.191,0,2.967,0.78,2.967,3.916v5.314h-1.606v-5.109c0-1.732-0.633-2.777-1.957-2.777
	c-0.932,0-1.659,0.689-1.938,1.492c-0.073,0.227-0.131,0.523-0.131,0.819v5.577h-1.604v-5.409c0-1.437-0.636-2.479-1.882-2.479
	c-1.027,0-1.771,0.818-2.033,1.645c-0.096,0.242-0.133,0.521-0.133,0.8v5.447H139.6V77.37v-0.002H139.598z M156.064,79.738
	c0.039,2.218,1.455,3.133,3.096,3.133c1.177,0,1.884-0.207,2.499-0.467l0.282,1.175c-0.58,0.26-1.567,0.558-3.006,0.558
	c-2.775,0-4.438-1.826-4.438-4.55c0-2.726,1.604-4.866,4.231-4.866c2.946,0,3.729,2.592,3.729,4.248
	c0,0.338-0.035,0.598-0.055,0.766h-6.344v0.007L156.064,79.738L156.064,79.738z M160.876,78.561
	c0.021-1.043-0.431-2.664-2.276-2.664c-1.658,0-2.387,1.529-2.518,2.664H160.876z M164.497,77.368c0-0.933-0.021-1.696-0.074-2.444
	h1.452l0.093,1.493h0.038c0.447-0.856,1.492-1.694,2.982-1.694c1.25,0,3.188,0.743,3.188,3.84v5.394h-1.641v-5.202
	c0-1.455-0.541-2.667-2.09-2.667c-1.08,0-1.922,0.767-2.2,1.681c-0.073,0.202-0.111,0.485-0.111,0.764v5.43h-1.641V77.37h0.003
	L164.497,77.368L164.497,77.368z M176.75,72.335v2.593h2.35v1.249h-2.35v4.868c0,1.12,0.316,1.753,1.23,1.753
	c0.43,0,0.746-0.056,0.951-0.11l0.074,1.23c-0.316,0.132-0.818,0.223-1.457,0.223c-0.763,0-1.38-0.24-1.77-0.688
	c-0.471-0.487-0.637-1.287-0.637-2.354v-4.924h-1.396v-1.249h1.396v-2.161L176.75,72.335z M180.725,82.273
	c0.484,0.314,1.344,0.652,2.164,0.652c1.191,0,1.754-0.599,1.754-1.345c0-0.781-0.467-1.212-1.678-1.66
	c-1.625-0.578-2.389-1.471-2.389-2.554c0-1.452,1.176-2.648,3.113-2.648c0.912,0,1.717,0.262,2.218,0.563l-0.408,1.192
	c-0.354-0.228-1.008-0.522-1.847-0.522c-0.971,0-1.51,0.558-1.51,1.231c0,0.742,0.539,1.082,1.715,1.525
	c1.564,0.602,2.369,1.381,2.369,2.725c0,1.588-1.232,2.707-3.377,2.707c-0.988,0-1.901-0.242-2.537-0.617L180.725,82.273z"/>
<path id="affordable" fill="#FFFFFF" d="M94.549,89.206h-1.505c-0.162,0.384-0.372,0.888-0.503,1.235h-0.654l1.685-4.252h0.444
	l1.685,4.252h-0.648L94.549,89.206z M93.272,88.637h1.043L93.8,87.154L93.272,88.637z M96.35,90.441h-0.606V86.25h2.501v0.605H96.35
	v1.182h1.679v0.611H96.35V90.441z M99.044,90.441h-0.604V86.25h2.5v0.605h-1.896v1.182h1.679v0.611h-1.679V90.441z M101.672,86.825
	c0.385-0.39,0.924-0.636,1.512-0.636c0.594,0,1.127,0.246,1.518,0.636c0.378,0.39,0.624,0.924,0.624,1.518
	c0,0.595-0.246,1.128-0.624,1.517c-0.391,0.396-0.924,0.637-1.518,0.637c-0.588,0-1.127-0.239-1.512-0.637
	c-0.378-0.389-0.623-0.922-0.623-1.517C101.049,87.749,101.294,87.215,101.672,86.825z M104.27,87.257
	c-0.281-0.28-0.672-0.455-1.086-0.455s-0.797,0.175-1.072,0.455c-0.276,0.276-0.45,0.66-0.45,1.086c0,0.427,0.174,0.81,0.45,1.085
	c0.275,0.282,0.658,0.456,1.072,0.456s0.805-0.174,1.086-0.456c0.271-0.275,0.443-0.652,0.443-1.085
	C104.713,87.911,104.539,87.533,104.27,87.257z M106.532,88.313h0.706c0.511,0,0.763-0.364,0.763-0.73
	c0-0.359-0.252-0.727-0.763-0.727h-0.93v3.586h-0.6v-4.196h1.529c0.912,0,1.367,0.671,1.367,1.337c0,0.594-0.365,1.157-1.086,1.283
	l1.326,1.576h-0.785l-1.529-1.84L106.532,88.313L106.532,88.313z M110.378,86.25c1.373,0,2.063,1.049,2.063,2.1
	c0,1.049-0.689,2.092-2.063,2.092h-1.506V86.25H110.378z M110.378,89.836c0.972,0,1.463-0.744,1.463-1.486
	c0-0.744-0.491-1.494-1.463-1.494h-0.899v2.98H110.378z M114.895,89.206h-1.504c-0.162,0.384-0.373,0.888-0.504,1.235h-0.654
	l1.686-4.252h0.443l1.686,4.252H115.4L114.895,89.206z M113.617,88.637h1.044l-0.517-1.48L113.617,88.637z M117.859,86.25
	c0.527,0,0.863,0.3,1.02,0.689c0.168,0.414,0.114,0.894-0.306,1.192c0.479,0.204,0.653,0.647,0.653,1.043
	c0,0.63-0.414,1.267-1.218,1.267h-1.896V86.25H117.859z M116.714,87.917h1.134c0.659,0,0.672-1.092,0.012-1.092h-1.146V87.917z
	 M116.714,89.854h1.296c0.407,0,0.611-0.342,0.611-0.672c0-0.328-0.204-0.664-0.611-0.664h-1.296V89.854z M120.122,89.836h1.974
	v0.605h-2.578V86.25h0.604V89.836z M122.941,89.836h1.949v0.605h-2.562V86.25h2.555v0.605h-1.942v1.182h1.9v0.611h-1.9V89.836z
	 M129.582,89.206h-1.505c-0.162,0.384-0.372,0.888-0.504,1.235h-0.653l1.686-4.252h0.443l1.686,4.252h-0.647L129.582,89.206z
	 M128.305,88.637h1.045l-0.517-1.48L128.305,88.637z M131.264,86.85c0.366-0.377,0.883-0.623,1.452-0.623
	c0.959,0,1.716,0.6,1.954,1.547h-0.6c-0.223-0.629-0.737-0.947-1.354-0.947c-0.401,0-0.769,0.174-1.032,0.449
	s-0.432,0.647-0.432,1.08c0,0.42,0.168,0.791,0.432,1.066c0.266,0.276,0.631,0.45,1.032,0.45c0.636,0,1.175-0.366,1.392-1.002h0.594
	c-0.24,0.954-1.008,1.603-1.984,1.603c-0.57,0-1.086-0.24-1.451-0.625c-0.359-0.384-0.601-0.91-0.601-1.492
	C130.664,87.761,130.904,87.232,131.264,86.85z M135.523,86.85c0.365-0.377,0.881-0.623,1.451-0.623c0.959,0,1.715,0.6,1.955,1.547
	h-0.601c-0.222-0.629-0.737-0.947-1.354-0.947c-0.402,0-0.768,0.174-1.031,0.449s-0.433,0.647-0.433,1.08
	c0,0.42,0.169,0.791,0.433,1.066c0.265,0.276,0.629,0.45,1.031,0.45c0.635,0,1.176-0.366,1.392-1.002h0.594
	c-0.24,0.954-1.008,1.603-1.983,1.603c-0.57,0-1.086-0.24-1.453-0.625c-0.358-0.384-0.6-0.91-0.6-1.492
	C134.924,87.761,135.164,87.232,135.523,86.85z M139.85,89.836h1.949v0.605h-2.561V86.25h2.555v0.605h-1.943v1.182h1.901v0.611
	h-1.901V89.836z M144.359,87.329c-0.084-0.378-0.491-0.54-0.856-0.534c-0.282,0.007-0.594,0.104-0.762,0.318
	c-0.084,0.107-0.114,0.246-0.103,0.39c0.029,0.433,0.504,0.485,0.953,0.526c0.575,0.072,1.289,0.224,1.451,0.895
	c0.018,0.092,0.03,0.192,0.03,0.276c0,0.81-0.804,1.276-1.56,1.276c-0.647,0-1.434-0.384-1.512-1.134l-0.006-0.112l0.611-0.014
	l0.006,0.09v-0.022c0.041,0.39,0.516,0.594,0.904,0.594c0.45,0,0.941-0.252,0.941-0.685c0-0.041-0.006-0.09-0.018-0.145
	c-0.072-0.316-0.504-0.371-0.924-0.413c-0.654-0.065-1.422-0.21-1.488-1.086v0.007c-0.022-0.281,0.05-0.563,0.229-0.798
	c0.281-0.366,0.785-0.558,1.271-0.558c0.647,0,1.318,0.335,1.428,1.104L144.359,87.329z M147.686,87.329
	c-0.084-0.378-0.492-0.54-0.857-0.534c-0.282,0.007-0.594,0.104-0.762,0.318c-0.084,0.107-0.114,0.246-0.103,0.39
	c0.029,0.433,0.503,0.485,0.953,0.526c0.575,0.072,1.289,0.224,1.451,0.895c0.019,0.092,0.03,0.192,0.03,0.276
	c0,0.81-0.805,1.276-1.561,1.276c-0.646,0-1.434-0.384-1.511-1.134l-0.007-0.112l0.611-0.014l0.006,0.09v-0.022
	c0.043,0.39,0.517,0.594,0.905,0.594c0.45,0,0.941-0.252,0.941-0.685c0-0.041-0.007-0.09-0.019-0.145
	c-0.072-0.316-0.504-0.371-0.924-0.413c-0.652-0.065-1.421-0.21-1.486-1.086v0.007c-0.023-0.281,0.049-0.563,0.229-0.798
	c0.281-0.366,0.785-0.558,1.271-0.558c0.646,0,1.317,0.335,1.427,1.104L147.686,87.329z M150.625,86.85h-0.779v2.986h0.779v0.605
	h-2.165v-0.605h0.779V86.85h-0.779v-0.6h2.165V86.85z M152.671,86.25c0.528,0,0.863,0.3,1.021,0.689
	c0.168,0.414,0.113,0.894-0.307,1.192c0.479,0.204,0.653,0.647,0.653,1.043c0,0.63-0.413,1.267-1.218,1.267h-1.896V86.25H152.671z
	 M151.525,87.917h1.134c0.659,0,0.672-1.092,0.012-1.092h-1.146V87.917z M151.525,89.854h1.295c0.408,0,0.611-0.342,0.611-0.672
	c0-0.328-0.203-0.664-0.611-0.664h-1.295V89.854z M154.934,89.836h1.974v0.605h-2.578V86.25h0.604V89.836z M157.753,89.836h1.949
	v0.605h-2.562V86.25h2.555v0.605h-1.942v1.182h1.901v0.611h-1.901V89.836z M164.395,89.206h-1.506
	c-0.162,0.384-0.371,0.888-0.504,1.235h-0.652l1.685-4.252h0.444l1.685,4.252h-0.647L164.395,89.206z M163.116,88.637h1.044
	l-0.516-1.48L163.116,88.637z M167.844,87.329c-0.084-0.378-0.492-0.54-0.857-0.534c-0.281,0.007-0.594,0.104-0.762,0.318
	c-0.084,0.107-0.113,0.246-0.102,0.39c0.029,0.433,0.503,0.485,0.953,0.526c0.574,0.072,1.289,0.224,1.451,0.895
	c0.018,0.092,0.029,0.192,0.029,0.276c0,0.81-0.804,1.276-1.56,1.276c-0.647,0-1.433-0.384-1.511-1.134l-0.006-0.112l0.61-0.014
	l0.007,0.09v-0.022c0.041,0.39,0.516,0.594,0.904,0.594c0.45,0,0.941-0.252,0.941-0.685c0-0.041-0.006-0.09-0.019-0.145
	c-0.071-0.316-0.504-0.371-0.924-0.413c-0.653-0.065-1.421-0.21-1.487-1.086v0.007c-0.022-0.281,0.049-0.563,0.229-0.798
	c0.28-0.366,0.784-0.558,1.271-0.558c0.647,0,1.319,0.335,1.428,1.104L167.844,87.329z M171.168,87.329
	c-0.084-0.378-0.492-0.54-0.857-0.534c-0.281,0.007-0.594,0.104-0.762,0.318c-0.084,0.107-0.113,0.246-0.102,0.39
	c0.029,0.433,0.503,0.485,0.953,0.526c0.574,0.072,1.289,0.224,1.451,0.895c0.018,0.092,0.029,0.192,0.029,0.276
	c0,0.81-0.804,1.276-1.561,1.276c-0.646,0-1.432-0.384-1.51-1.134l-0.006-0.112l0.61-0.014l0.006,0.09v-0.022
	c0.042,0.39,0.517,0.594,0.905,0.594c0.449,0,0.941-0.252,0.941-0.685c0-0.041-0.006-0.09-0.019-0.145
	c-0.072-0.316-0.504-0.371-0.924-0.413c-0.653-0.065-1.421-0.21-1.487-1.086v0.007c-0.023-0.281,0.049-0.563,0.229-0.798
	c0.281-0.366,0.785-0.558,1.271-0.558c0.646,0,1.319,0.335,1.428,1.104L171.168,87.329z M172.214,89.182V86.25h0.611v2.938
	c0,0.461,0.498,0.689,0.94,0.689c0.438,0,0.937-0.234,0.937-0.695V86.25h0.61v2.938c0,0.853-0.826,1.295-1.547,1.295
	C173.029,90.482,172.214,90.04,172.214,89.182z M176.563,88.313h0.707c0.51,0,0.763-0.364,0.763-0.73
	c0-0.359-0.253-0.727-0.763-0.727h-0.93v3.586h-0.6v-4.196h1.529c0.912,0,1.367,0.671,1.367,1.337c0,0.594-0.365,1.157-1.086,1.283
	l1.325,1.576h-0.785l-1.528-1.84V88.313L176.563,88.313z M179.545,89.836h1.949v0.605h-2.561V86.25h2.555v0.605h-1.943v1.182h1.9
	v0.611h-1.9V89.836z M183.275,86.25c1.373,0,2.063,1.049,2.063,2.1c0,1.049-0.688,2.092-2.063,2.092h-1.506V86.25H183.275z
	 M183.275,89.836c0.972,0,1.464-0.744,1.464-1.486c0-0.744-0.492-1.494-1.464-1.494h-0.898v2.98H183.275z"/>
<path id="b" fill="#F1C40F" d="M68.062,69.946c7.503-5.358,8.466-13.933,5.466-21.33c-2.786-6.967-8.789-12.326-18.221-12.326h-7.48
	v10.289h7.48c11.792,0,11.576,19.51-0.214,19.51H44.428v10.718h13.557c7.289,0,10.932,6.004,10.932,11.897
	s-3.644,12.003-10.932,12.003H34.832V85.761L24.114,96.479v14.731h33.87c14.362,0,21.758-11.36,21.758-22.614
	C79.744,81.521,76.634,73.591,68.062,69.946z"/>
<polygon id="t" fill="#FFFFFF" points="45.388,36.289 45.388,46.579 34.832,46.579 34.832,82.369 24.127,93.076 24.127,46.559 
	7.406,46.559 7.406,36.289 "/>
</svg>
