<?xml version="1.0" encoding="utf-8"?>
<!-- Generator: Adobe Illustrator 16.0.0, SVG Export Plug-In . SVG Version: 6.00 Build 0)  -->
<!DOCTYPE svg PUBLIC "-//W3C//DTD SVG 1.1//EN" "http://www.w3.org/Graphics/SVG/1.1/DTD/svg11.dtd">
<svg version="1.1" id="Layer_1" xmlns="http://www.w3.org/2000/svg" xmlns:xlink="http://www.w3.org/1999/xlink" x="0px" y="0px"
	 width="120px" height="120px" viewBox="0 0 120 120" enable-background="new 0 0 120 120" xml:space="preserve">
<g>
	<g>
		<path fill="#FF302C" d="M60,12.072l-16.098,9.512l0,0c-1.463,1.756-3.22,4.83-3.22,8.488c0,3.659,0.878,6.878,2.489,8.487
			l32.782,10.244v-27.22L60,12.072z"/>
		<path fill="#FF302C" d="M36.731,25.39l-8.927,5.414v37.464l8.78,5.415V42.658c-1.463-1.757-2.633-4.977-2.633-8.635
			C33.951,30.364,35.122,27.146,36.731,25.39z"/>
		<path fill="#FF302C" d="M60,87.002l16.1-9.516l0,0c2.924-1.756,2.924-4.828,2.924-8.486s-0.73-6.879-2.34-8.488L43.902,50.268
			v27.219L60,87.002z"/>
		<path fill="#FF302C" d="M83.707,73.536l9.951-5.416V30.657l-10.242-5.415v31.025c1.463,1.757,2.926,4.978,2.926,8.635
			C86.342,68.708,85.316,71.78,83.707,73.536z"/>
	</g>
	<g>
		<path fill="#FF302C" d="M2.487,102.22v5.561H1.169V95.489h1.317v5.413H5.56v-5.561h1.318v12.292H5.56v-5.562H2.487V102.22z"/>
		<path fill="#FF302C" d="M13.609,98.412v0.295h-1.317v-0.439c0-1.171-0.439-1.756-1.463-1.756c-1.024,0-1.463,0.585-1.463,1.756
			c0,2.782,4.097,3.073,4.097,6.438c0,1.904-0.878,3.074-2.781,3.074c-1.902,0-2.78-1.17-2.78-3.074v-0.733h1.317v0.733
			c0,1.171,0.439,1.757,1.463,1.757c1.025,0,1.464-0.586,1.464-1.757c0-2.779-4.098-3.071-4.098-6.438
			c0-1.901,0.878-3.073,2.78-3.073C12.731,95.342,13.609,96.512,13.609,98.412z"/>
		<path fill="#FF302C" d="M17.561,100.902h3.365v1.17h-3.365V100.902z"/>
		<path fill="#FF302C" d="M27.805,95.342c1.902,0,2.78,1.17,2.78,3.07v6.15c0,1.9-0.878,3.071-2.78,3.071h-2.927V95.342H27.805
			L27.805,95.342z M27.805,106.463c1.025,0,1.463-0.586,1.463-1.757v-6.294c0-1.167-0.438-1.755-1.463-1.755H26.34v9.806H27.805z"/>
		<path fill="#FF302C" d="M36.292,100.902v1.17H33.22v4.391h3.658v1.317h-5.122V95.489h5.122v1.317H33.22v4.096H36.292z"/>
		<path fill="#FF302C" d="M39.219,95.342l2.049,10.682l2.049-10.682h1.316l-2.341,12.292h-2.049l-2.342-12.292H39.219z"/>
		<path fill="#FF302C" d="M49.902,100.902v1.17h-3.073v4.391h3.659v1.317h-5.122V95.489h5.122v1.317h-3.659v4.096H49.902z"/>
		<path fill="#FF302C" d="M51.804,107.634V95.342h1.317v10.976h3.513v1.316H51.804z"/>
		<path fill="#FF302C" d="M57.659,98.412c0-1.9,0.877-3.07,2.78-3.07s2.78,1.17,2.78,3.07v6.294c0,1.904-0.877,3.074-2.78,3.074
			s-2.78-1.17-2.78-3.074V98.412z M58.975,104.855c0,1.168,0.439,1.755,1.464,1.755c1.025,0,1.462-0.587,1.462-1.755v-6.443
			c0-1.167-0.438-1.755-1.462-1.755c-1.024,0-1.464,0.733-1.464,1.755V104.855z"/>
		<path fill="#FF302C" d="M67.316,95.342c1.902,0,2.781,1.17,2.781,3.07v1.465c0,1.902-0.879,2.929-2.926,2.929H66v4.828h-1.316
			V95.342H67.316z M67.172,101.635c1.021,0,1.465-0.439,1.465-1.61v-1.612c0-1.167-0.443-1.755-1.465-1.755h-1.32v4.978H67.172z"/>
		<path fill="#FF302C" d="M76.83,96.657c-1.025,0-1.611,0.588-1.611,1.755V99c0,1.024,0.586,1.61,1.465,1.61H78v-1.315h1.318v1.315
			h0.584v1.169h-0.584v4.244c0,0.587,0,1.026,0.293,1.61h-1.318c-0.146-0.294-0.146-0.584-0.293-1.023
			c-0.293,0.729-1.023,1.17-1.9,1.17c-1.465,0-2.197-1.025-2.197-2.78v-1.17c0-1.173,0.439-2.195,1.463-2.635
			c-1.023-0.293-1.463-1.318-1.463-2.488v-0.295c0-1.9,0.877-3.07,2.928-3.07h2.051v1.315H76.83z M76.83,101.927
			c-1.025,0-1.465,0.73-1.465,1.903V105c0,1.023,0.439,1.755,1.465,1.755c0.73,0,1.316-0.438,1.316-1.462v-3.221H76.83V101.927z"/>
		<path fill="#FF302C" d="M86.635,95.342c1.902,0,2.779,1.17,2.779,3.07v6.15c0,1.9-0.877,3.071-2.779,3.071h-2.928V95.342H86.635
			L86.635,95.342z M86.635,106.463c1.025,0,1.463-0.586,1.463-1.757v-6.294c0-1.167-0.438-1.755-1.463-1.755h-1.463v9.806H86.635z"
			/>
		<path fill="#FF302C" d="M95.123,100.902v1.17h-3.074v4.391h3.66v1.317h-4.977V95.489h5.121v1.317h-3.656v4.096H95.123z"/>
		<path fill="#FF302C" d="M102.293,98.412v0.295h-1.316v-0.439c0-1.171-0.439-1.756-1.463-1.756c-1.025,0-1.463,0.585-1.463,1.756
			c0,2.782,4.096,3.073,4.096,6.438c0,1.904-0.877,3.074-2.777,3.074c-1.904,0-2.783-1.17-2.783-3.074v-0.733h1.465v0.733
			c0,1.171,0.438,1.757,1.463,1.757c1.023,0,1.463-0.586,1.463-1.757c0-2.779-4.098-3.071-4.098-6.438
			c0-1.901,0.877-3.073,2.779-3.073C101.414,95.342,102.293,96.512,102.293,98.412z"/>
		<path fill="#FF302C" d="M104.93,95.342v12.292h-1.318V95.342H104.93z"/>
		<path fill="#FF302C" d="M111.807,98.412v1.027h-1.316v-1.172c0-1.171-0.439-1.756-1.465-1.756s-1.465,0.733-1.465,1.756v6.438
			c0,1.171,0.439,1.757,1.465,1.757s1.465-0.73,1.465-1.757v-2.339h-1.318v-1.172h2.635v3.66c0,1.899-0.879,3.072-2.781,3.072
			s-2.781-1.173-2.781-3.072v-6.294c0-1.904,0.879-3.072,2.781-3.072C110.928,95.342,111.807,96.512,111.807,98.412z"/>
		<path fill="#FF302C" d="M114.293,107.634h-1.17V95.342h1.754l2.785,8.926v-8.926h1.168v12.292h-1.463l-3.074-9.951V107.634z"/>
	</g>
</g>
</svg>
