<?xml version="1.0" encoding="utf-8"?>
<!-- Generator: Adobe Illustrator 16.0.0, SVG Export Plug-In . SVG Version: 6.00 Build 0)  -->
<!DOCTYPE svg PUBLIC "-//W3C//DTD SVG 1.1//EN" "http://www.w3.org/Graphics/SVG/1.1/DTD/svg11.dtd">
<svg version="1.1" id="draw_copy" xmlns="http://www.w3.org/2000/svg" xmlns:xlink="http://www.w3.org/1999/xlink" x="0px" y="0px"
	 width="120px" height="120px" viewBox="0 0 120 120" enable-background="new 0 0 120 120" xml:space="preserve">
<g>
	<polygon fill="#B3B3B3" points="119.5,92.428 118.371,88.371 106.808,76.329 89.315,71.116 59.5,70.219 59.5,69.956 30.432,70.858 
		13.692,76.071 1.814,88.114 0.5,91.525 0.5,120 119.5,120 	"/>
	<polygon fill="#722626" points="15.269,83.657 7.213,120 112.581,120 99.127,82.987 75.334,75.951 34.735,78.715 	"/>
	<polygon fill="#999999" points="50.979,120 61.698,120 61.856,89 50.126,89 	"/>
	<g>
		<polygon fill="#333333" points="32.074,50.941 21.425,60.706 25.584,72.867 57.363,93.765 86.149,65.844 87.146,55.91 
			75.334,49.571 		"/>
		<path fill="#333333" d="M57.38,93.926l-0.083-0.054l-31.816-20.92L21.28,60.667l0.063-0.964L32.025,49h0.046l43.292-0.464
			l11.918,6.848L86.269,65.68L57.38,93.926z M25.688,72.783l31.66,20.82l28.681-27.819l0.985-9.802l-11.71-6.28l-43.182,1.365
			L21.57,60.744L25.688,72.783z"/>
	</g>
	<g>
		<polygon fill="#B3B3B3" points="35.697,54.363 26.666,62.644 30.193,72.958 57.145,90.682 81.558,67.002 82.404,58.576 
			72.386,53.202 		"/>
		<path fill="#B3B3B3" d="M57.16,90.844l-0.082-0.054L30.09,73.042l-3.57-10.056L35.647,55h0.046l36.722-1.546l10.122,5.238
			l-0.858,8.468L57.16,90.844z M30.297,72.873l26.834,17.646l24.307-23.576l0.835-8.292l-9.916-5.32l-36.611,1.16l-8.934,8.191
			L30.297,72.873z"/>
	</g>
	<g>
		<polygon fill="#666666" points="42.294,58.764 36.067,66.061 38.499,75.149 57.084,90.769 73.918,69.902 74.502,62.477 
			67.594,57.74 		"/>
		<path fill="#666666" d="M57.101,90.947L38.389,75.225l-0.009-0.041l-2.451-8.976L42.235,59h0.054l25.339-1.208l7.004,4.711
			l-0.006,0.03l-0.588,7.441L57.101,90.947z M38.609,75.076l18.458,15.51l16.729-20.735l0.575-7.309l-6.813-4.671l-25.206,1.02
			l-6.147,7.203L38.609,75.076z"/>
	</g>
	<g>
		<path fill="#8C6239" d="M31.532,28.159c0,6.039,5.241,31.347,5.241,31.347l8.611,6.167l12.604,3.211l12.104-7.965l4.616-7.836
			l-2.245-30.576C72.463,22.507,47.755-13.336,31.532,28.159z"/>
		<path fill="#8C6239" d="M58.009,69.022l-12.696-3.244l-8.651-6.196l-0.01-0.05c-0.052-0.254-5.244-25.392-5.244-31.373
			l0.009-0.048C36.634,14.767,43.277,8,51.161,8c11.323,0,20.763,14.288,20.862,14.432L71.5,22.463v0.034l2.793,30.618l-4.382,7.896
			L58.009,69.022z M45.437,65.554l12.529,3.192L70,60.829l4.582-7.779l-2.24-30.497c-0.509-0.72-10.229-14.296-21.181-14.296
			c-7.768,0-14.33,6.705-19.503,19.928c0.014,5.873,4.968,29.982,5.228,31.244L45.437,65.554z"/>
	</g>
	<g>
		<path fill="#8C6239" d="M57.988,68.884l-12.604-3.211l-3.345-2.396c0.914,7.69,1.901,14.985,1.901,14.985l5.624,6.168l8.232,3.211
			l7.905-7.965l3.016-7.837l-0.465-9.711L57.988,68.884z"/>
		<path fill="#8C6239" d="M57.829,87.789l-8.336-3.249l-0.019-0.023l-5.652-6.196l-0.005-0.04c-0.01-0.073-0.997-7.382-1.901-14.987
			l-0.034-0.284l3.554,2.545l12.529,3.192l10.401-6.844l0.479,9.959l-0.01,0.024l-3.025,7.863l-0.021,0.02L57.829,87.789z
			 M49.637,84.318l8.13,3.174l7.83-7.889l2.997-7.785l-0.455-9.461l-10.13,6.665l-12.696-3.244l-3.114-2.229
			c0.858,7.204,1.78,14.066,1.861,14.656L49.637,84.318z"/>
	</g>
	<g>
		<polygon fill="#8C6239" points="73.461,35.738 75.083,34.84 76.205,37.152 76.332,46.917 75.083,48.458 74.336,47.688 		"/>
		<path fill="#8C6239" d="M74.734,48.647L73.5,47.745v-0.048l-0.523-12.031l1.984-1.001l1.282,2.485l-0.008,9.811L74.734,48.647z
			 M74.457,47.63l0.617,0.638l1.131-1.396l-0.122-9.688l-1.054-2.168l-1.438,0.799L74.457,47.63z"/>
	</g>
	<g>
		<polygon fill="#8C6239" points="33.35,42.753 31.556,42.321 31.06,44.856 33.421,54.313 35.018,55.464 35.543,54.52 		"/>
		<path fill="#8C6239" d="M35.057,55.65l-1.746-1.26l-2.38-9.53l0.528-2.693l1.998,0.48l2.217,11.895L35.057,55.65z M33.53,54.237
			l1.447,1.043l0.436-0.784l-2.171-11.638l-1.589-0.38l-0.466,2.374L33.53,54.237z"/>
	</g>
	<g>
		<polygon fill="#1A1A1A" points="43.97,92.483 41.902,93.516 40.072,92.021 40.309,89.495 42.377,88.464 44.208,89.958 		"/>
		<path fill="#1A1A1A" d="M41.887,93.677l-1.947-1.589l0.252-2.688l2.201-1.097l1.947,1.588l-0.254,2.689L41.887,93.677z
			 M40.204,91.955l1.712,1.398l1.938-0.966l0.222-2.364l-1.713-1.398l-1.937,0.966L40.204,91.955z"/>
	</g>
	<g>
		<polygon fill="#666666" points="43.486,92.121 41.965,92.902 40.619,91.771 40.794,89.858 42.315,89.078 43.661,90.208 		"/>
		<path fill="#666666" d="M41.954,93.023l-1.431-1.202l0.186-2.034l1.617-0.832l1.432,1.203l-0.187,2.033L41.954,93.023z
			 M40.716,91.722l1.261,1.058l1.423-0.731l0.164-1.79l-1.26-1.059l-1.424,0.732L40.716,91.722z"/>
	</g>
	<g>
		<polygon fill="#1A1A1A" points="71.173,92.483 69.105,93.516 67.275,92.021 67.513,89.495 69.58,88.464 71.411,89.958 		"/>
		<path fill="#1A1A1A" d="M69.09,93.677l-1.946-1.589l0.253-2.688l2.2-1.097l1.947,1.588L71.29,92.58L69.09,93.677z M67.406,91.955
			l1.715,1.398l1.936-0.966l0.223-2.364l-1.713-1.398l-1.938,0.966L67.406,91.955z"/>
	</g>
	<g>
		<polygon fill="#666666" points="70.689,92.121 69.168,92.902 67.823,91.771 67.998,89.858 69.519,89.078 70.865,90.208 		"/>
		<path fill="#666666" d="M69.156,93.023l-1.431-1.202l0.188-2.034l1.615-0.832l1.433,1.203l-0.185,2.033L69.156,93.023z
			 M67.92,91.722l1.261,1.058l1.423-0.731l0.164-1.79l-1.261-1.059l-1.424,0.732L67.92,91.722z"/>
	</g>
	<g>
		<path fill="#666666" d="M69.156,93.023l-1.431-1.202l0.188-2.034l1.615-0.832l1.433,1.203l-0.185,2.033L69.156,93.023z
			 M67.92,91.722l1.261,1.058l1.423-0.731l0.164-1.79l-0.784-0.659L67.92,91.722z"/>
	</g>
	<g>
		<polygon fill="#999999" points="87.146,55.91 86.149,65.844 80.99,70.983 89.143,71.154 94.302,72.182 		"/>
		<path fill="#999999" d="M94.515,72.354l-5.395-1.073l-8.434-0.177l5.343-5.32l1.041-10.36L94.515,72.354z M81.291,70.86
			l7.854,0.165l4.943,0.983l-6.865-15.613l-0.954,9.508L81.291,70.86z"/>
	</g>
	<g>
		<polygon fill="#42210B" points="59.431,46.444 56.357,46.831 55.477,48.027 54.334,47.084 50.089,47.616 45.93,50.761 
			51.114,52.735 60.455,51.563 64.615,48.419 		"/>
		<path fill="#42210B" d="M51.099,52.865l-5.429-2.066l4.372-3.306l4.328-0.543l1.087,0.895l0.833-1.135l3.157-0.396l5.429,2.066
			l-4.37,3.308L51.099,52.865z M46.191,50.724l4.94,1.881l9.279-1.164l3.945-2.982l-4.939-1.883l-2.99,0.377l-0.926,1.26
			l-1.205-0.995l-4.16,0.522L46.191,50.724z"/>
	</g>
	<g>
		<polygon fill="#42210B" points="57.692,32.677 57.925,32.848 66.707,32.865 67.175,32.015 		"/>
		<path fill="#42210B" d="M66.78,32.994l-8.895-0.018l-0.551-0.401l10.062-0.707L66.78,32.994z M58.9,32.723l7.734,0.014
			l0.318-0.578L58.9,32.723z"/>
	</g>
	<g>
		<polygon fill="#42210B" points="49.51,34.137 49.207,34.438 40.486,35.69 39.971,34.632 		"/>
		<path fill="#42210B" d="M40.416,35.831l-0.641-1.317l10.061-0.521l-0.572,0.566L40.416,35.831z M40.168,34.749l0.389,0.802
			l8.591-1.233l0.034-0.034L40.168,34.749z"/>
	</g>
	<g>
		<polygon fill="#754B28" points="57.514,28.993 57.692,32.677 61.772,30 62.854,26.103 		"/>
		<path fill="#754B28" d="M57.578,32.905l-0.193-3.989l5.669-3.067l-1.175,4.233L57.578,32.905z M57.643,29.068l0.164,3.382
			l3.858-2.533l0.989-3.561L57.643,29.068z"/>
	</g>
	<g>
		<polygon fill="#754B28" points="47.381,29.766 49.544,34.164 44.553,32.013 41.974,28.373 		"/>
		<path fill="#754B28" d="M49.809,34.417l-5.336-2.301l-2.802-3.955l5.796,1.493L49.809,34.417z M44.633,31.909l4.647,2.001
			l-1.985-4.033l-5.018-1.293L44.633,31.909z"/>
	</g>
	<g>
		<polygon fill="#1A1A1A" points="57.656,32.712 59.871,29.935 64.664,29.585 67.238,32.015 		"/>
		<path fill="#1A1A1A" d="M57.374,32.861l2.436-3.05l4.898-0.357l2.829,2.668L57.374,32.861z M59.934,30.06l-2,2.504l9.007-0.656
			l-2.321-2.19L59.934,30.06z"/>
	</g>
	<g>
		<polygon fill="#BDCCD4" points="57.692,32.677 59.801,30.432 64.353,30.036 66.797,31.888 		"/>
		<path fill="#BDCCD4" d="M57.372,32.835l2.372-2.526l4.646-0.403l2.749,2.082L57.372,32.835z M59.857,30.557l-1.844,1.965
			l8.442-0.731l-2.139-1.619L59.857,30.557z"/>
	</g>
	<g>
		<path fill="#666666" d="M63.872,30.881c-0.161-0.559-0.925-0.887-1.704-0.731c-0.778,0.157-1.28,0.737-1.119,1.299
			c0.161,0.559,0.924,0.885,1.703,0.728C63.531,32.021,64.032,31.44,63.872,30.881z"/>
		<path fill="#666666" d="M62.359,32.345L62.359,32.345c-0.696,0-1.283-0.354-1.432-0.86c-0.069-0.25-0.034-0.505,0.107-0.745
			c0.205-0.35,0.621-0.617,1.109-0.715c0.136-0.028,0.277-0.042,0.415-0.042c0.698,0,1.286,0.355,1.433,0.86
			c0.071,0.25,0.034,0.507-0.105,0.745c-0.208,0.35-0.621,0.616-1.109,0.715C62.638,32.329,62.499,32.345,62.359,32.345z
			 M62.56,30.239c-0.122,0-0.246,0.014-0.367,0.037c-0.422,0.084-0.773,0.309-0.944,0.597c-0.104,0.175-0.13,0.361-0.08,0.538
			c0.116,0.397,0.604,0.676,1.191,0.676l0,0c0.123,0,0.249-0.011,0.369-0.036c0.421-0.084,0.774-0.308,0.943-0.598
			c0.104-0.175,0.131-0.358,0.079-0.535C63.638,30.519,63.147,30.239,62.56,30.239z"/>
	</g>
	<g>
		<path fill="#603813" d="M61.778,31.403c0.092,0.397,0.489,0.638,0.893,0.532c0.402-0.104,0.656-0.513,0.566-0.912
			c-0.09-0.397-0.489-0.638-0.892-0.532C61.941,30.595,61.688,31.004,61.778,31.403z"/>
		<path fill="#603813" d="M62.48,32.089L62.48,32.089c-0.396,0-0.735-0.271-0.822-0.656c-0.104-0.467,0.188-0.945,0.656-1.066
			c0.072-0.019,0.148-0.028,0.221-0.028c0.398,0,0.736,0.271,0.824,0.656c0.104,0.467-0.19,0.945-0.658,1.066
			C62.628,32.08,62.555,32.089,62.48,32.089z M62.535,30.595c-0.053,0-0.105,0.006-0.159,0.021
			c-0.336,0.086-0.551,0.427-0.475,0.757c0.061,0.271,0.298,0.459,0.579,0.459l0,0c0.053,0,0.107-0.006,0.16-0.02
			c0.337-0.088,0.55-0.428,0.476-0.759C63.054,30.783,62.817,30.595,62.535,30.595z"/>
	</g>
	<g>
		<path fill="#1A1A1A" d="M62.066,31.27c0.046,0.209,0.245,0.336,0.442,0.284c0.197-0.05,0.321-0.262,0.273-0.469
			c-0.049-0.21-0.246-0.338-0.443-0.286S62.019,31.062,62.066,31.27z"/>
		<path fill="#1A1A1A" d="M62.421,31.693c-0.229,0-0.424-0.163-0.478-0.396c-0.062-0.276,0.103-0.555,0.364-0.622
			c0.263-0.069,0.534,0.105,0.595,0.378c0.063,0.277-0.101,0.558-0.363,0.625C62.501,31.688,62.461,31.693,62.421,31.693z
			 M62.429,30.916c-0.02,0-0.04,0.002-0.06,0.008c-0.131,0.034-0.213,0.177-0.181,0.316c0.029,0.137,0.162,0.223,0.29,0.19
			c0.133-0.035,0.214-0.177,0.183-0.317C62.634,30.996,62.538,30.916,62.429,30.916z"/>
	</g>
	<g>
		<path fill="#FFFFFF" d="M62.707,30.908c0.067,0.255,0.353,0.409,0.641,0.346c0.29-0.067,0.469-0.327,0.403-0.582
			c-0.064-0.254-0.353-0.409-0.641-0.342C62.822,30.394,62.642,30.654,62.707,30.908z"/>
		<path fill="#FFFFFF" d="M63.215,31.396L63.215,31.396c-0.302,0-0.56-0.186-0.628-0.453c-0.038-0.146-0.015-0.3,0.064-0.432
			c0.09-0.154,0.248-0.266,0.432-0.308c0.35-0.079,0.709,0.121,0.789,0.436c0.037,0.146,0.016,0.3-0.063,0.433
			c-0.09,0.151-0.248,0.265-0.434,0.306C63.322,31.39,63.269,31.396,63.215,31.396z M63.244,30.443
			c-0.034,0-0.071,0.004-0.105,0.012c-0.119,0.026-0.219,0.096-0.274,0.189c-0.03,0.051-0.063,0.133-0.036,0.23
			c0.04,0.156,0.2,0.264,0.387,0.264l0,0c0.036,0,0.071-0.004,0.106-0.012c0.119-0.026,0.219-0.096,0.273-0.19
			c0.031-0.052,0.063-0.132,0.037-0.232C63.591,30.551,63.433,30.443,63.244,30.443z"/>
	</g>
	<g>
		<polygon fill="#1A1A1A" points="39.916,34.693 42.173,31.949 46.969,31.671 49.51,34.137 		"/>
		<path fill="#1A1A1A" d="M39.634,34.838l2.478-3.014l4.904-0.284l2.79,2.708L39.634,34.838z M42.233,32.076l-2.034,2.474
			l9.015-0.522l-2.292-2.227L42.233,32.076z"/>
	</g>
	<g>
		<polygon fill="#BDCCD4" points="40.413,34.506 42.623,32.366 47.188,32.195 49.544,34.164 		"/>
		<path fill="#BDCCD4" d="M40.085,34.647l2.486-2.408l4.659-0.175l2.65,2.215L40.085,34.647z M42.674,32.492l-1.934,1.873
			l8.468-0.318l-2.063-1.722L42.674,32.492z"/>
	</g>
	<g>
		<path fill="#666666" d="M46.159,32.953c-0.153-0.563-0.913-0.898-1.694-0.754c-0.781,0.146-1.291,0.718-1.136,1.28
			c0.153,0.562,0.91,0.899,1.692,0.755C45.803,34.089,46.312,33.517,46.159,32.953z"/>
		<path fill="#666666" d="M44.657,34.396c-0.711,0-1.308-0.363-1.449-0.882c-0.068-0.25-0.028-0.505,0.116-0.743
			c0.21-0.346,0.627-0.607,1.119-0.699c0.126-0.023,0.256-0.035,0.386-0.035c0.712,0,1.308,0.361,1.45,0.882
			c0.067,0.248,0.028,0.505-0.117,0.741c-0.21,0.348-0.629,0.609-1.12,0.699C44.915,34.385,44.786,34.396,44.657,34.396z
			 M44.83,32.295c-0.114,0-0.229,0.01-0.342,0.03c-0.422,0.079-0.778,0.296-0.951,0.582c-0.106,0.175-0.137,0.359-0.088,0.536
			c0.112,0.411,0.61,0.695,1.209,0.695c0.114,0,0.229-0.01,0.342-0.032c0.421-0.077,0.778-0.296,0.952-0.582
			c0.106-0.173,0.135-0.359,0.086-0.536C45.926,32.579,45.429,32.295,44.83,32.295z"/>
	</g>
	<g>
		<path fill="#603813" d="M44.06,33.445c0.084,0.399,0.48,0.646,0.884,0.548c0.405-0.101,0.663-0.504,0.578-0.905
			c-0.083-0.399-0.48-0.646-0.884-0.547C44.233,32.641,43.975,33.046,44.06,33.445z"/>
		<path fill="#603813" d="M44.764,34.143L44.764,34.143c-0.403,0-0.744-0.274-0.826-0.67c-0.099-0.467,0.203-0.941,0.672-1.057
			c0.068-0.018,0.138-0.025,0.208-0.025c0.404,0,0.745,0.276,0.827,0.671c0.099,0.467-0.203,0.94-0.672,1.056
			C44.904,34.133,44.833,34.143,44.764,34.143z M44.817,32.648c-0.05,0-0.1,0.006-0.151,0.019c-0.337,0.083-0.555,0.419-0.485,0.751
			c0.058,0.275,0.297,0.467,0.583,0.467l0,0c0.05,0,0.101-0.006,0.15-0.017c0.339-0.083,0.556-0.421,0.487-0.753
			C45.343,32.84,45.103,32.648,44.817,32.648z"/>
	</g>
	<g>
		<path fill="#1A1A1A" d="M44.348,33.316c0.045,0.208,0.24,0.34,0.439,0.29c0.199-0.048,0.324-0.257,0.279-0.465
			c-0.044-0.209-0.24-0.34-0.439-0.292C44.428,32.897,44.303,33.107,44.348,33.316z"/>
		<path fill="#1A1A1A" d="M44.704,33.745L44.704,33.745c-0.231,0-0.428-0.165-0.477-0.401c-0.058-0.276,0.108-0.556,0.372-0.619
			c0.263-0.063,0.531,0.113,0.589,0.389c0.058,0.276-0.108,0.555-0.372,0.618C44.779,33.741,44.741,33.745,44.704,33.745z
			 M44.71,32.969c-0.019,0-0.035,0.002-0.054,0.006c-0.133,0.033-0.215,0.175-0.187,0.313c0.03,0.138,0.16,0.227,0.289,0.193
			c0.133-0.03,0.216-0.173,0.186-0.313C44.919,33.05,44.823,32.969,44.71,32.969z"/>
	</g>
	<g>
		<path fill="#FFFFFF" d="M44.994,32.965c0.063,0.256,0.347,0.413,0.638,0.354c0.288-0.062,0.473-0.318,0.41-0.574
			c-0.062-0.255-0.347-0.415-0.635-0.354C45.117,32.452,44.933,32.71,44.994,32.965z"/>
		<path fill="#FFFFFF" d="M45.506,33.459L45.506,33.459c-0.307,0-0.567-0.19-0.633-0.463c-0.035-0.146-0.012-0.3,0.07-0.431
			c0.093-0.151,0.252-0.261,0.437-0.3c0.35-0.074,0.705,0.129,0.782,0.448c0.035,0.144,0.01,0.297-0.071,0.43
			c-0.092,0.152-0.252,0.262-0.437,0.3C45.605,33.455,45.556,33.459,45.506,33.459z M45.531,32.506c-0.033,0-0.066,0.004-0.1,0.012
			c-0.119,0.023-0.22,0.092-0.277,0.185c-0.031,0.052-0.063,0.133-0.038,0.232c0.037,0.155,0.2,0.267,0.39,0.269l0,0
			c0.033,0,0.066-0.004,0.099-0.012c0.119-0.024,0.219-0.092,0.276-0.186c0.031-0.051,0.063-0.131,0.038-0.23
			C45.884,32.619,45.72,32.506,45.531,32.506z"/>
	</g>
	<g>
		<polygon fill="#603813" points="50.264,32.199 52.178,34.508 50.882,40.992 51.295,34.874 		"/>
		<path fill="#603813" d="M51.005,41.019l-0.247-0.034l0.409-6.089l-1.297-3.369l2.442,2.946L51.005,41.019z M50.657,32.871
			l0.763,1.982l-0.282,4.231l0.905-4.541L50.657,32.871z"/>
	</g>
	<g>
		<polygon fill="#603813" points="56.734,31.554 55.153,34.113 57.315,40.349 56.079,34.35 		"/>
		<path fill="#603813" d="M57.198,40.393l-2.183-6.294l2.019-3.268l-0.829,3.521l1.231,5.972L57.198,40.393z M55.292,34.129
			l1.513,4.368l-0.855-4.149l0.488-2.072L55.292,34.129z"/>
	</g>
	<g>
		<line fill="#603813" x1="52.551" y1="39.993" x2="52.893" y2="36.701"/>
		
			<rect x="52.598" y="36.693" transform="matrix(0.9932 0.1168 -0.1168 0.9932 4.8418 -5.8976)" fill="#603813" width="0.251" height="3.31"/>
	</g>
	<g>
		<polygon fill="#754B28" points="51.114,52.735 51.492,53.699 60.205,52.567 60.455,51.563 		"/>
		<path fill="#754B28" d="M51.413,53.839l-0.476-1.212l9.687-1.214l-0.319,1.27L51.413,53.839z M51.292,52.843l0.281,0.716
			l8.531-1.108l0.186-0.735L51.292,52.843z"/>
	</g>
	<g>
		<polygon fill="#1A1A1A" points="49.004,27.324 47.381,29.766 38.022,27.324 36.4,28.674 37.585,26.104 36.961,25.59 
			48.629,27.132 49.189,26.875 		"/>
		<path fill="#1A1A1A" d="M47.435,29.913l-9.383-2.447l-2.001,1.662l1.378-2.987l-0.893-0.735l12.074,1.594l0.82-0.374l-0.313,0.749
			L47.435,29.913z M37.992,27.184l9.334,2.436l1.573-2.366l0.053-0.129l-0.305,0.139l-0.034-0.004l-11.228-1.482l0.355,0.291
			l-0.993,2.151L37.992,27.184z"/>
	</g>
	<g>
		<polygon fill="#1A1A1A" points="55.393,26.999 57.514,28.993 66.082,24.41 67.96,25.34 66.234,23.119 66.728,22.473 
			55.713,26.723 55.109,26.605 		"/>
		<path fill="#1A1A1A" d="M57.493,29.148l-2.186-2.055l-0.488-0.677l0.883,0.173l11.398-4.399l-0.708,0.927l2.007,2.584
			l-2.316-1.148L57.493,29.148z M55.398,26.792l0.093,0.131l2.042,1.915l8.545-4.571l1.441,0.714l-1.444-1.861l0.28-0.366
			l-10.631,4.104L55.398,26.792z"/>
	</g>
	<g>
		<polygon fill="#754B28" points="50.313,34.411 49.898,35.589 46.257,36.767 50.625,35.837 		"/>
		<path fill="#754B28" d="M46.283,36.893l-0.063-0.247l3.582-1.158l0.54-1.531l0.434,1.98L46.283,36.893z M50.286,34.868
			l-0.292,0.824l-1.334,0.433l1.815-0.389L50.286,34.868z"/>
	</g>
	<g>
		<polygon fill="#754B28" points="57.054,33 57.729,34.099 61.225,34.421 57.157,34.524 		"/>
		<path fill="#754B28" d="M57.042,34.655l-0.146-2.153l0.905,1.474l3.434,0.318l-0.009,0.256L57.042,34.655z M57.213,33.499
			l0.06,0.894l1.77-0.043l-1.384-0.13L57.213,33.499z"/>
	</g>
	<g>
		<polygon fill="#1A1A1A" points="45.953,50.146 50.264,46.942 54.503,46.116 54.473,45.054 54.123,45.268 49.666,46.057 
			49.818,46.189 45.636,50.263 		"/>
		<path fill="#1A1A1A" d="M45.114,50.596l4.518-4.4l-0.249-0.22l4.697-0.829l0.512-0.313l0.038,1.389l-4.315,0.842l-4.32,3.201
			L45.114,50.596z M49.951,46.136l0.055,0.05l-3.422,3.332l3.657-2.7l4.134-0.807l-0.021-0.734l-0.21,0.119L49.951,46.136z"/>
	</g>
	<g>
		<polygon fill="#1A1A1A" points="64.681,47.912 59.782,45.784 55.471,45.957 55.268,44.914 55.656,45.043 60.171,44.783 
			60.052,44.946 65.014,47.954 		"/>
		<path fill="#1A1A1A" d="M65.595,48.158l-0.965-0.127l-4.872-2.117l-4.39,0.175l-0.263-1.363l0.567,0.187l4.758-0.273l-0.196,0.271
			L65.595,48.158z M59.803,45.655l0.027,0.012l4.098,1.778l-4.06-2.459l0.043-0.059l-4.271,0.243l-0.208-0.067l0.141,0.721
			L59.803,45.655z"/>
	</g>
	<g>
		<polygon fill="#1A1A1A" points="54.391,52.859 56.896,52.557 55.656,54.315 		"/>
		<path fill="#1A1A1A" d="M55.667,54.52l-1.531-1.758l3.028-0.367L55.667,54.52z M54.643,52.96l1.004,1.152l0.981-1.395
			L54.643,52.96z"/>
	</g>
	<g>
		<polygon fill="#42210B" points="56.205,40.552 52.42,40.877 50.619,41.829 52.604,42.455 53.097,42.413 53.168,41.948 54,41.851 
			54.286,42.312 54.663,42.278 54.678,41.791 55.797,41.698 56.007,42.163 56.39,42.131 58.189,41.178 		"/>
		<path fill="#42210B" d="M52.585,42.546l-2.211-0.699l1.996-1.055l3.854-0.33l2.211,0.697l-1.996,1.056L55.92,42.26l-0.211-0.465
			l-0.908,0.074l-0.016,0.488l-0.576,0.048l-0.286-0.457l-0.643,0.075l-0.069,0.469L52.585,42.546z M50.864,41.81l1.76,0.556
			l0.359-0.031l0.07-0.461l1.021-0.121l0.289,0.463l0.178-0.015l0.016-0.488l1.327-0.109l0.21,0.463l0.249-0.02l1.603-0.849
			l-1.76-0.555l-3.719,0.318L50.864,41.81z"/>
	</g>
	<g>
		<polygon fill="#1A1A1A" points="33.404,42.803 43.326,47.993 45.385,65.59 36.773,59.515 		"/>
		<path fill="#1A1A1A" d="M45.542,65.857l-8.88-6.27l-3.432-17.02l10.211,5.342L45.542,65.857z M36.886,59.438l8.341,5.889
			l-2.018-17.252l-9.63-5.04L36.886,59.438z"/>
	</g>
	<g>
		<polygon fill="#1A1A1A" points="73.461,36.244 66.66,43.881 68.253,61.751 70.092,60.581 74.708,53.008 		"/>
		<path fill="#1A1A1A" d="M68.148,61.966l-1.618-18.13l7.035-7.896l1.271,17.096l-4.653,7.635L68.148,61.966z M66.79,43.923
			l1.568,17.614L70,60.493l4.582-7.517l-1.223-16.432L66.79,43.923z"/>
	</g>
	<polygon fill="#603813" stroke="#603813" stroke-miterlimit="10" points="33.321,45.246 32.572,44.497 32.287,46.905 33,47.858 
		33,49.742 33.702,51.025 34.593,49.144 33.832,45.803 	"/>
	<polygon fill="#603813" stroke="#603813" stroke-miterlimit="10" points="74.108,37.584 74.672,36.68 75.53,38.946 75.091,40.029 
		75.509,41.865 75.063,43.291 73.757,41.672 73.745,38.243 	"/>
	<polygon fill="#A67C52" points="45.669,50.799 51.021,52.839 60.505,51.688 64.875,48.381 	"/>
	<polygon fill="#1A1A1A" points="33.197,42.511 33.274,42.614 44.385,57.529 49.263,64.561 51.113,61.716 61.712,60.307 
		63.142,62.563 67.347,51.886 73.698,35.612 74.832,53.157 70.198,61.038 64.487,64.703 58.067,69.349 47.744,66.529 45.309,65.949 
		36.49,59.776 	"/>
	<polygon fill="#754B28" points="68.47,62.012 66.786,63.478 65.975,79.033 68.836,71.939 	"/>
	<polygon fill="#754B28" points="42.199,63.804 43.7,65.143 48.316,83.402 43.762,78.708 41.953,63.81 	"/>
	<polygon opacity="0.6" fill="#1A1A1A" points="41.953,63.231 45.313,65.521 58.067,69.092 68.47,61.883 68.531,63.938 
		58.051,70.876 45.073,67.215 42.14,65.673 	"/>
	<path id="kamba-right2" fill="#1B1464" d="M43.325,110.705h-0.929V91.179h0.929V110.705z"/>
	<path id="kamba-right1" fill="#2E3192" d="M42.86,110.705h-0.929V91.179h0.929V110.705z"/>
	<path id="kamba-left2" fill="#1B1464" d="M69.336,91.417h1.161v27.259h-1.161V91.417z"/>
	<path id="kamba-left1" fill="#2E3192" d="M69.336,91.417h0.696v27.259h-0.696V91.417z"/>
</g>
</svg>
