<?xml version="1.0" encoding="utf-8"?>
<!-- Generator: Adobe Illustrator 16.0.0, SVG Export Plug-In . SVG Version: 6.00 Build 0)  -->
<!DOCTYPE svg PUBLIC "-//W3C//DTD SVG 1.1//EN" "http://www.w3.org/Graphics/SVG/1.1/DTD/svg11.dtd">
<svg version="1.1" id="phone" xmlns="http://www.w3.org/2000/svg" xmlns:xlink="http://www.w3.org/1999/xlink" x="0px" y="0px"
	 width="120px" height="120px" viewBox="0 0 120 120" enable-background="new 0 0 120 120" xml:space="preserve">
<path id="back" fill="none" stroke="#231F20" stroke-width="0.25" stroke-miterlimit="10" d="M88,105.3c0,5.5,0.4,10.7-9.8,10.7
	H41.6c-10.2,0-9.6-5.2-9.6-10.7V14.2C32,8.7,31.3,4,41.6,4h36.6C88.4,4,88,8.7,88,14.2V105.3z"/>
<path id="speak" fill="none" stroke="#231F20" stroke-width="0.25" stroke-miterlimit="10" d="M60,7.9c0.4,0,0.7,0.3,0.7,0.7
	S60.4,9.3,60,9.3S59.3,9,59.3,8.6S59.6,7.9,60,7.9z"/>
<path id="speaker" fill="none" stroke="#231F20" stroke-width="0.25" stroke-miterlimit="10" d="M66.5,13.6c0,0.2-0.2,0.4-0.4,0.4
	H53.9c-0.2,0-0.4-0.2-0.4-0.4v-0.2c0-0.2,0.2-0.4,0.4-0.4h12.2c0.2,0,0.4,0.2,0.4,0.4V13.6z"/>
<path id="screen" fill="none" stroke="#231F20" stroke-width="0.25" stroke-miterlimit="10" d="M84.6,103.8c0,0.5-0.398,0.7-0.8,0.7
	H36.2c-0.5,0-0.8-0.4-0.8-0.7V21.3c0-0.5,0.4-0.7,0.8-0.7h47.6c0.5,0,0.8,0.4,0.8,0.7V103.8z"/>
<path id="button" fill="none" stroke="#231F20" stroke-width="0.25" stroke-miterlimit="10" d="M60,106.8c1.878,0,3.4,1.522,3.4,3.4
	S61.878,113.6,60,113.6s-3.4-1.521-3.4-3.398S58.122,106.801,60,106.8L60,106.8z"/>
<path id="logo" fill="none" stroke="#231F20" stroke-width="0.25" stroke-miterlimit="10" d="M65,50.5l-10.7-3.4
	c-0.5-0.5-0.8-1.6-0.8-2.8c0-1.2,0.6-2.2,1.1-2.8l5.3-3.1l5.2,3.1v9H65z M49.2,44.6v12.3l2.9,1.8V48.5c-0.5-0.6-0.9-1.6-0.9-2.8
	c0-1.2,0.4-2.3,0.9-2.8L49.2,44.6z M54.5,51v8.9l5.3,3.1l5.3-3.1c1-0.6,1-1.6,1-2.8c0-1.2-0.199-2.3-0.8-2.8L54.5,51z M67.4,42.8V53
	c0.5,0.6,1,1.6,1,2.8c0,1.2-0.301,2.3-0.9,2.8l3.3-1.8V44.6L67.4,42.8z"/>
<path id="text" fill="none" stroke="#231F20" stroke-width="0.25" stroke-miterlimit="10" d="M41.2,68v1.8h-0.4v-4h0.4v1.8h1v-1.8
	h0.4v4h-0.4V68H41.2z M44.8,66.7l-0.4,0.1v-0.1c0-0.4-0.1-0.601-0.5-0.601s-0.5,0.199-0.5,0.601c0,0.899,1.3,1,1.3,2.1
	c0,0.601-0.3,1-0.9,1c-0.6,0-0.9-0.399-0.9-1v-0.2h0.4v0.2c0,0.4,0.1,0.601,0.5,0.601c0.4,0,0.5-0.199,0.5-0.601
	c0-0.899-1.3-1-1.3-2.1c0-0.601,0.3-1,0.9-1S44.8,66.1,44.8,66.7z M46.1,67.6h1.1V68h-1.1V67.6z M49.5,65.7c0.6,0,0.9,0.399,0.9,1v2
	c0,0.6-0.3,1-0.9,1h-1v-4H49.5z M49.5,69.4c0.3,0,0.5-0.2,0.5-0.602v-2.1c0-0.4-0.1-0.602-0.5-0.602H49v3.2h0.5V69.4z M52.2,67.6V68
	h-1v1.4h1.2V69.8h-1.7v-4h1.7v0.4h-1.2v1.3h1V67.6z M53.2,65.7l0.7,3.5l0.7-3.5H55l-0.8,4h-0.7l-0.8-4H53.2L53.2,65.7z M56.7,67.6
	V68h-1v1.4h1.2V69.8h-1.7v-4h1.7v0.4h-1.2v1.3h1V67.6z M57.3,69.8v-4h0.4V69.4h1.1V69.8H57.3z M59.2,66.7c0-0.601,0.3-1,0.9-1
	s0.9,0.399,0.9,1v2.1c0,0.601-0.3,1-0.9,1s-0.9-0.399-0.9-1V66.7z M59.7,68.8c0,0.4,0.1,0.601,0.5,0.601c0.3,0,0.5-0.199,0.5-0.601
	v-2.1c0-0.4-0.101-0.601-0.5-0.601c-0.3,0-0.5,0.199-0.5,0.601V68.8z M62.4,65.7c0.6,0,0.898,0.399,0.898,1v0.5c0,0.6-0.3,1-1,1H62
	v1.6h-0.4v-4H62.4V65.7z M62.3,67.8c0.3,0,0.5-0.1,0.5-0.5v-0.5c0-0.399-0.1-0.6-0.5-0.6H61.9v1.6H62.3z M65.5,66.2
	c-0.3,0-0.5,0.2-0.5,0.6V67c0,0.3,0.2,0.5,0.5,0.5h0.4V67H66.3v0.4h0.2V67.8h-0.2v1.4c0,0.2,0,0.3,0.101,0.5H66
	c0-0.101,0-0.2-0.1-0.3C65.8,69.6,65.6,69.8,65.3,69.8c-0.5,0-0.7-0.3-0.7-0.899v-0.399c0-0.399,0.102-0.7,0.5-0.899
	c-0.3-0.101-0.5-0.399-0.5-0.801v-0.1c0-0.602,0.301-1,1-1h0.7V66.1h-0.8V66.2L65.5,66.2z M65.5,67.9c-0.3,0-0.5,0.199-0.5,0.6v0.4
	c0,0.3,0.1,0.6,0.5,0.6c0.2,0,0.4-0.1,0.4-0.5v-1.1H65.5z M68.7,65.7c0.6,0,0.899,0.399,0.899,1v2c0,0.6-0.301,1-0.899,1h-1v-4H68.7
	z M68.7,69.4c0.3,0,0.5-0.2,0.5-0.602v-2.1c0-0.4-0.101-0.602-0.5-0.602h-0.5v3.2h0.5V69.4z M71.5,67.6V68h-1v1.4h1.2V69.8H70.1v-4
	h1.7v0.4h-1.2v1.3h0.9V67.6z M73.8,66.7L73.4,66.8v-0.1c0-0.4-0.102-0.601-0.5-0.601c-0.4,0-0.5,0.199-0.5,0.601
	c0,0.899,1.3,1,1.3,2.1c0,0.601-0.3,1-0.9,1c-0.6,0-0.899-0.399-0.899-1v-0.2h0.5v0.2c0,0.4,0.101,0.601,0.5,0.601
	s0.5-0.199,0.5-0.601c0-0.899-1.301-1-1.301-2.1c0-0.601,0.301-1,0.9-1C73.5,65.7,73.8,66.1,73.8,66.7z M74.7,65.7v4h-0.4v-4H74.7z
	 M76.9,66.7V67h-0.4v-0.4c0-0.398-0.1-0.6-0.5-0.6c-0.3,0-0.5,0.2-0.5,0.6V68.7c0,0.399,0.1,0.6,0.5,0.6c0.3,0,0.5-0.2,0.5-0.6V68
	h-0.4v-0.4H77v1.2c0,0.601-0.3,1-0.9,1c-0.6,0-0.898-0.399-0.898-1v-2.1c0-0.601,0.3-1,0.898-1C76.7,65.7,76.9,66.1,76.9,66.7z
	 M77.8,69.8H77.4v-4H78l0.9,2.9v-2.9H79.3v4h-0.5l-1-3.3V69.8z"/>
</svg>
