<svg xmlns="http://www.w3.org/2000/svg" xmlns:xlink="http://www.w3.org/1999/xlink" width="64" height="64" viewBox="0 0 64 64"><circle fill="#36445B" cx="32" cy="31.834" r="26.667"/><path fill="#DECBB1" d="M25.012 40.083s6.896 5.157 8.248 4.36c1.35-.799 1.904-2.596 1.904-2.596l-9.738-3.815-.414 2.051z"/><path fill="#F6E0C2" d="M39.512 29.82c-.568.083-5.146.014-5.299.165-.15.15-2.237 3.313-2.237 3.313s-7.327 6.7-8.333 7.837c-.605.686.379 2.645 1.612 1.573 1.235-1.067 3.034-2.713 3.354-3.032.32-.32.625-.021.334.23-.294.253-2.599 2.16-3.418 3.097-.819.935.859 2.629 1.715 1.83.854-.798 3.666-3.411 3.86-3.541.196-.132.463.079.267.25-.195.173-2.805 2.427-3.433 3.207-.628.781.764 2.205 1.864 1.249.743-.645 3.022-2.99 3.208-3.15.184-.164.467.092.211.31-.197.168-1.783 1.688-2.356 2.366-.572.682.461 2.021 1.511 1.115 1.051-.908 10.035-8.563 10.599-10.494.143-.49.973-.975.973-.975l-3.094-6.05c-.002.001-.77.62-1.338.7z"/><path fill="#DECBB1" d="M40.461 38.294c-1.162-.458-1.92 1.011-1.588 1.64.256.484.77.972 1.434 1.151.666.181 1.586-.979 1.357-1.651-.178-.526-.719-.948-1.203-1.14zm-4.197 3.916c-1.16-.459-1.918 1.009-1.586 1.64.256.484 1.041 1.192 1.705 1.371.666.18 1.586-.979 1.359-1.648-.181-.529-.994-1.171-1.478-1.363zm-1.961 1.978c-.955-.377-1.582.832-1.308 1.353.212.399.858.983 1.407 1.132s1.307-.807 1.117-1.359c-.146-.436-.814-.966-1.216-1.126zm4.041-4.018c-1.16-.456-1.922 1.01-1.59 1.639.26.485 1.117 1.291 1.781 1.469.666.181 1.586-.979 1.357-1.649-.179-.525-1.064-1.268-1.548-1.459zM22.655 29.328l1.398.838s3.436-1.063 6.807-.831c2.832.194 3.353.65 3.353.65s1.584.978 2.316 2.257c.244.426.096 1.527.494 2.449.615 1.426.666 2.434-.238 2.824-1.246.541-3.094-1.246-2.885-3.293-1.417-.205-1.897-1.041-1.925-.925-2.097 1.987-7.258 6.755-7.258 6.755-2.613-2.035-4.288-4.447-4.288-4.447l-.972-.616 3.198-5.661z"/><path d="M39.512 29.82c-.568.083-5.146.014-5.299.165-.15.15-2.237 3.313-2.237 3.313s-7.327 6.7-8.333 7.837c-.605.686.379 2.645 1.612 1.573 1.235-1.067 3.034-2.713 3.354-3.032.32-.32.625-.021.334.23-.294.253-2.599 2.16-3.418 3.097-.819.935.859 2.629 1.715 1.83.854-.798 3.666-3.411 3.86-3.541.196-.132.463.079.267.25-.195.173-2.805 2.427-3.433 3.207-.628.781.764 2.205 1.864 1.249.743-.645 3.022-2.99 3.208-3.15.184-.164.467.092.211.31-.197.168-1.783 1.688-2.356 2.366-.572.682.461 2.021 1.511 1.115 1.051-.908 10.035-8.563 10.599-10.494.143-.49.973-.975.973-.975l-3.094-6.05c-.002.001-.77.62-1.338.7zm-16.857-.492l1.398.838s3.436-1.063 6.807-.831c2.832.194 3.353.65 3.353.65s1.584.978 2.316 2.257c.244.426.096 1.527.494 2.449.615 1.426.666 2.434-.238 2.824-1.246.541-3.094-1.246-2.885-3.293-1.417-.205-1.897-1.041-1.925-.925-2.097 1.987-7.258 6.755-7.258 6.755-2.613-2.035-4.288-4.447-4.288-4.447l-.972-.616 3.198-5.661z" fill="none"/><defs><path id="a" d="M39.512 29.82c-.568.083-5.146.014-5.299.165-.15.15-2.237 3.313-2.237 3.313s-7.327 6.7-8.333 7.837c-.605.686.379 2.645 1.612 1.573 1.235-1.067 3.034-2.713 3.354-3.032.32-.32.625-.021.334.23-.294.253-2.599 2.16-3.418 3.097-.819.935.859 2.629 1.715 1.83.854-.798 3.666-3.411 3.86-3.541.196-.132.463.079.267.25-.195.173-2.805 2.427-3.433 3.207-.628.781.764 2.205 1.864 1.249.743-.645 3.022-2.99 3.208-3.15.184-.164.467.092.211.31-.197.168-1.783 1.688-2.356 2.366-.572.682.461 2.021 1.511 1.115 1.051-.908 10.035-8.563 10.599-10.494.143-.49.973-.975.973-.975l-3.094-6.05c-.002.001-.77.62-1.338.7z"/></defs><clipPath id="b"><use xlink:href="#a" overflow="visible"/></clipPath><path opacity=".1" clip-path="url(#b)" fill="#231F20" enable-background="new" d="M39.455 29.047l4.229 6.941 1.504-.934-4.035-6.852-1.698.845z"/><defs><path id="c" d="M22.655 29.328l1.398.838s3.436-1.063 6.807-.831c2.832.194 3.353.65 3.353.65s1.584.978 2.316 2.257c.244.426.096 1.527.494 2.449.615 1.426.666 2.434-.238 2.824-1.246.541-3.094-1.246-2.885-3.293-1.417-.205-1.897-1.041-1.925-.925-2.097 1.987-7.258 6.755-7.258 6.755-2.613-2.035-4.288-4.447-4.288-4.447l-.972-.616 3.198-5.661z"/></defs><clipPath id="d"><use xlink:href="#c" overflow="visible"/></clipPath><path opacity=".1" clip-path="url(#d)" fill="#231F20" enable-background="new" d="M24.415 29.275l-4.029 7.058-1.533-.89 3.839-6.963 1.723.795z"/><path fill="#fff" d="M24.173 29.121l-4.028 7.057-1.535-.892 3.84-6.961 1.723.796z"/><path fill="#287572" d="M18.61 35.8l-15.038-6.679v-11.241l19.105 10.046-4.067 7.874z"/><defs><path id="e" d="M24.173 29.121l-4.028 7.057-1.535-.892 3.84-6.961z"/></defs><clipPath id="f"><use xlink:href="#e" overflow="visible"/></clipPath><path opacity=".1" clip-path="url(#f)" fill="#231F20" enable-background="new" d="M18.922 35.885l-15.038-6.679v-11.241l19.104 10.049-4.066 7.871z"/><g fill="#fff"><circle opacity=".1" enable-background="new" cx="17.332" cy="33.297" r=".812"/><circle opacity=".1" enable-background="new" cx="14.949" cy="32.184" r=".812"/></g><path fill="#fff" d="M39.834 28.876l4.227 6.942 1.508-.935-4.035-6.851-1.7.844z"/><path fill="#262625" d="M45.584 35.395l14.844-7.102-.318-11.236-18.813 10.584 4.287 7.754z"/><g fill="#fff"><path opacity=".1" enable-background="new" d="M45.98 32.881c.014.447.385.801.836.787.445-.014.799-.387.787-.834-.017-.449-.388-.801-.836-.788-.447.012-.8.387-.787.835z"/><circle opacity=".1" enable-background="new" cx="49.141" cy="31.677" r=".812"/></g><defs><path id="g" d="M39.771 28.931l4.028 7.057 1.769-1.104-3.871-6.932z"/></defs><clipPath id="h"><use xlink:href="#g" overflow="visible"/></clipPath><path opacity=".1" clip-path="url(#h)" fill="#231F20" enable-background="new" d="M45.234 35.588l14.912-6.623v-11.24l-19.105 10.047 4.193 7.816z"/><path fill="#fff" d="M0 0v64h64v-64h-64zm32 58.501c-14.728 0-26.667-11.938-26.667-26.667 0-14.728 11.939-26.667 26.667-26.667 14.729 0 26.667 11.939 26.667 26.667 0 14.729-11.938 26.667-26.667 26.667z"/></svg>