<svg xmlns="http://www.w3.org/2000/svg" xmlns:xlink="http://www.w3.org/1999/xlink" width="64" height="64" viewBox="0 0 64 64"><g fill="#D1D1D1"><path d="M9.973 42.445c.492 1.035 1.056 2.03 1.684 2.979l33.768-33.768c-.949-.627-1.944-1.192-2.979-1.684l-32.473 32.473zM53.166 19.917c-.485-.847-1.015-1.666-1.594-2.445l-34.1 34.1c.779.579 1.598 1.108 2.444 1.593l33.25-33.248zM47.557 13.236l-34.32 34.32c.685.825 1.424 1.602 2.209 2.329l34.44-34.439c-.728-.786-1.504-1.525-2.329-2.21zM39.8 8.907c-2.45-.827-5.071-1.282-7.8-1.282-13.462 0-24.375 10.913-24.375 24.375 0 2.729.455 5.35 1.282 7.799l30.893-30.892zM22.39 54.404c2.949 1.267 6.197 1.971 9.61 1.971 13.462 0 24.375-10.913 24.375-24.375 0-3.414-.704-6.662-1.971-9.611l-32.014 32.015z"/></g><path fill="#3F9F91" d="M31.721 22.237l-3.721-2.362 1.741.473.159-4.175-2.217.631.554-2.048h-4.076l.552 2.048-2.207-.631.158 4.175 1.732-.473-3.701 2.362 1.733 5.908 3.75.078h.03l3.771-.078zM28.931 37.867c0-2.24.652-3.32 1.749-6.584h-8.661c1.099 3.264 1.749 4.344 1.749 6.584 0 4.555-2.616 9.74-6.42 11.371h18.006c-3.805-1.631-6.423-6.816-6.423-11.371z"/><path fill="#2E7F72" d="M31.108 31.283h1.732v-3.265h-13.06v3.265h10.902000000000001zM35.354 49.238h-18.838v4.899h19.588v-4.899z"/><defs><path id="a" d="M26.208 13.124h14.182v41.625h-14.182z"/></defs><clipPath id="b"><use xlink:href="#a" overflow="visible"/></clipPath><g clip-path="url(#b)"><path fill="#2E7F72" d="M31.721 22.237l-3.721-2.362 1.741.473.159-4.175-2.217.631.554-2.048h-4.076l.552 2.048-2.207-.631.158 4.175 1.732-.473-3.701 2.362 1.733 5.908 3.75.078h.03l3.771-.078zM28.931 37.867c0-2.24.652-3.32 1.749-6.584h-8.661c1.099 3.264 1.749 4.344 1.749 6.584 0 4.555-2.616 9.74-6.42 11.371h18.006c-3.805-1.631-6.423-6.816-6.423-11.371z"/><path fill="#216356" d="M31.108 31.283h1.732v-3.265h-13.06v3.265h10.902000000000001zM35.354 49.238h-18.838v4.899h19.588v-4.899z"/></g><path fill="#C7932F" d="M34.743 24.212v-.456c.915-.268 1.58-1.115 1.58-2.118 0-1.221-.985-2.21-2.206-2.21-1.22 0-2.211.99-2.211 2.21 0 1.003.668 1.85 1.586 2.118v.456c-2.338.12-6.072 3.616-5.037 4.587 1.035.969 1.521 3.623 1.521 3.623h8.280999999999999s.484-2.654 1.518-3.623c1.037-.971-2.552-4.459-5.032-4.587zM36.559 41.296c0-2.086.607-3.092 1.628-6.132h-8.063c1.023 3.04 1.629 4.046 1.629 6.132 0 4.24-2.436 9.065-5.977 10.586h16.762c-3.543-1.521-5.979-6.346-5.979-10.586z"/><path fill="#A64429" d="M38.585 35.292h1.611v-3.039h-12.157v3.039h10.148zM42.537 51.882h-17.537v4.558h18.236v-4.558z"/><defs><path id="c" d="M34.022 18.449h15.103v40.176h-15.103z"/></defs><clipPath id="d"><use xlink:href="#c" overflow="visible"/></clipPath><g clip-path="url(#d)"><path fill="#AF761B" d="M34.743 24.212v-.456c.915-.268 1.58-1.115 1.58-2.118 0-1.221-.985-2.21-2.206-2.21-1.22 0-2.211.99-2.211 2.21 0 1.003.668 1.85 1.586 2.118v.456c-2.338.12-6.072 3.616-5.037 4.587 1.035.969 1.521 3.623 1.521 3.623h8.280999999999999s.484-2.654 1.518-3.623c1.037-.971-2.552-4.459-5.032-4.587zM36.559 41.296c0-2.086.607-3.092 1.628-6.132h-8.063c1.023 3.04 1.629 4.046 1.629 6.132 0 4.24-2.436 9.065-5.977 10.586h16.762c-3.543-1.521-5.979-6.346-5.979-10.586z"/><path fill="#6D2013" d="M38.585 35.292h1.611v-3.039h-12.157v3.039h10.148zM42.537 51.882h-17.537v4.558h18.236v-4.558z"/></g><path fill="#656565" d="M20.264 36.314h4.566l1.383-4.962h-2.359l-.567 2.607h-1.977l.346-2.607h-2.78l.345 2.607h-1.982l-.564-2.607h-2.359l1.386 4.962z"/><path fill="#888" d="M22.443 41.75c0-1.862.542-2.759 1.453-5.473h-7.198c.914 2.714 1.455 3.61 1.455 5.473 0 3.785-2.176 8.093-5.336 9.45h14.965c-3.165-1.357-5.339-5.665-5.339-9.45z"/><path fill="#656565" d="M27.781 51.2h-15.656v4.07h16.279v-4.07z"/><defs><path id="e" d="M20.434 30.851h13.566v28.149h-13.566z"/></defs><clipPath id="f"><use xlink:href="#e" overflow="visible"/></clipPath><g clip-path="url(#f)"><path fill="#424242" d="M20.264 36.314h4.566l1.383-4.962h-2.359l-.567 2.607h-1.977l.346-2.607h-2.78l.345 2.607h-1.982l-.564-2.607h-2.359l1.386 4.962z"/><path fill="#656565" d="M22.443 41.75c0-1.862.542-2.759 1.453-5.473h-7.198c.914 2.714 1.455 3.61 1.455 5.473 0 3.785-2.176 8.093-5.336 9.45h14.965c-3.165-1.357-5.339-5.665-5.339-9.45z"/><path fill="#424242" d="M27.781 51.2h-15.656v4.07h16.279v-4.07z"/></g><path fill="#ccc" d="M32.504 42.2h-.037.037zM26.375 42.2h-.037.037z"/><path fill="#E74C3C" d="M29.959 34.03c.234-.173.385-.448.385-.761 0-.523-.424-.948-.949-.948-.521 0-.947.425-.947.948 0 .313.152.588.385.761-.31.384-1.062 1.146-1.541 1.991l1.526 1.528-.419.418-1.375-1.375c-.082.219-.145.578-.157.795-.099 1.503.91 2.723.91 2.723h3.237s1.008-1.22.91-2.723c-.08-1.276-1.511-2.79-1.965-3.357zM31.072 46.416c0-1.436.419-2.126 1.121-4.216h-5.545c.703 2.09 1.12 2.78 1.12 4.216 0 2.915-1.676 6.234-4.111 7.279h11.527c-2.436-1.045-4.112-4.364-4.112-7.279z"/><path fill="#B5292A" d="M32.467 42.2h1.1079999999999999v-2.09h-8.36v2.09h6.978zM35.185 53.695h-12.059999999999999v3.135h12.54v-3.135z"/><defs><path id="g" d="M29.395 31.75h8.36v26.125h-8.36z"/></defs><clipPath id="h"><use xlink:href="#g" overflow="visible"/></clipPath><g clip-path="url(#h)"><path fill="#D63C34" d="M29.959 34.03c.234-.173.385-.448.385-.761 0-.523-.424-.948-.949-.948-.521 0-.947.425-.947.948 0 .313.152.588.385.761-.31.384-1.062 1.146-1.541 1.991l1.526 1.528-.419.418-1.375-1.375c-.082.219-.145.578-.157.795-.099 1.503.91 2.723.91 2.723h3.237s1.008-1.22.91-2.723c-.08-1.276-1.511-2.79-1.965-3.357zM31.072 46.416c0-1.436.419-2.126 1.121-4.216h-5.545c.703 2.09 1.12 2.78 1.12 4.216 0 2.915-1.676 6.234-4.111 7.279h11.527c-2.436-1.045-4.112-4.364-4.112-7.279z"/><path fill="#9B1E24" d="M32.467 42.2h1.1079999999999999v-2.09h-8.36v2.09h6.978zM35.185 53.695h-12.059999999999999v3.135h12.54v-3.135z"/></g><path fill="#44556D" d="M39.074 33.189l.345 1.78-5.308 6.027.225 1.516 1.86 1.554s.188-.075 1.516-1.174c1.325-1.1 4.092-1.403 4.092-1.403l-5.724 7.087 2.241 3.174h-5.067v4.83h14.492v-4.83h-2.459c9.972-14.438-6.213-18.561-6.213-18.561z"/><defs><path id="i" d="M38.898 33.213s10.509 5.303 2.408 14.461v8.906h9.661l-.604-23.75-11.465.383z"/></defs><clipPath id="j"><use xlink:href="#i" overflow="visible"/></clipPath><path clip-path="url(#j)" fill="#36445B" d="M39.074 33.189l.345 1.78-5.308 6.027.225 1.516 1.86 1.554s.188-.075 1.516-1.174c1.325-1.1 4.092-1.403 4.092-1.403l-5.724 7.087 2.241 3.174h-5.067v4.83h14.492v-4.83h-2.459c9.972-14.438-6.213-18.561-6.213-18.561z"/><path fill="#fff" d="M0 0v64h64v-64h-64zm32 56.375c-13.462 0-24.375-10.913-24.375-24.375s10.913-24.375 24.375-24.375 24.375 10.913 24.375 24.375-10.913 24.375-24.375 24.375z"/><path fill="#F9C82E" d="M15.567 46.331c0-.938.272-1.389.731-2.754h-3.621c.459 1.365.73 1.816.73 2.754 0 1.904-1.094 4.073-2.686 4.756h7.53c-1.589-.683-2.684-2.852-2.684-4.756z"/><path fill="#DCA700" d="M16.479 43.577h.723v-1.365h-5.462v1.365h4.559zM18.253 51.087h-7.878v2.048h8.192v-2.048z"/><path fill="#F9C82E" d="M13.51 42.225h1.924c.346-.281.568-.709.568-1.189 0-.844-.686-1.529-1.53-1.529s-1.53.686-1.53 1.529c-.001.479.222.906.568 1.189z"/><defs><path id="k" d="M14.471 38.798h4.779v15.702h-4.779z"/></defs><clipPath id="l"><use xlink:href="#k" overflow="visible"/></clipPath><g clip-path="url(#l)"><path fill="#DCA700" d="M15.567 46.331c0-.938.272-1.389.731-2.754h-3.621c.459 1.365.73 1.816.73 2.754 0 1.904-1.094 4.073-2.686 4.756h7.53c-1.589-.683-2.684-2.852-2.684-4.756z"/><path fill="#BF8E04" d="M16.479 43.577h.723v-1.365h-5.462v1.365h4.559zM18.253 51.087h-7.878v2.048h8.192v-2.048z"/><path fill="#DCA700" d="M13.51 42.225h1.924c.346-.281.568-.709.568-1.189 0-.844-.686-1.529-1.53-1.529s-1.53.686-1.53 1.529c-.001.479.222.906.568 1.189z"/></g></svg>