<svg xmlns="http://www.w3.org/2000/svg" width="126" height="126" viewBox="0 0 126 126"><path d="M9.5 79.5v8.4c0 .7.6 1.3 1.3 1.3h19.5c-1.9-3.7-3.2-7.5-4.2-11h-15.3c-.7 0-1.3.5-1.3 1.3z" fill="#34495E"/><path d="M14.4 60.2h9.1v-11h-9.1c-.7 0-1.3.6-1.3 1.3v8.4c0 .8.6 1.3 1.3 1.3z" fill="#34495E"/><path d="M46.6 107.7h-35.8c-.7 0-1.3.6-1.3 1.3v8.4c0 .7.6 1.3 1.3 1.3h38.2c.7 0 1.3-.6 1.3-1.3v-7c-1.2-.8-2.4-1.7-3.7-2.7z" fill="#34495E"/><path d="M23.6 63.3h-20.3c-.7 0-1.3.6-1.3 1.3v8.4c0 .7.6 1.3 1.3 1.3h21.9c-1-4.5-1.4-8.4-1.6-11z" fill="#34495E"/><path d="M36.7 98.6c-1.6-1.8-3-3.8-4.3-5.7h-25.8c-.7 0-1.3.6-1.3 1.3v8.4c0 .7.6 1.3 1.3 1.3h35.3c-1.8-1.7-3.6-3.5-5.2-5.3z" fill="#34495E"/><path d="M75.9 7.2c-13 .3-25.2 1.9-34 3.3-8.2 1.3-13.4 2.5-13.4 2.5v47.2s-.6 21.1 11.8 35.1 35.6 23.7 35.6 23.7" fill="#22B573"/><path d="M75.9 7.2c25.1.6 45.6 5.9 45.6 5.9v47.2s2.5 21.1-10 35.1c-12.4 14-35.7 23.7-35.7 23.7" fill="#006837"/><path d="M110.3 60.1c-2.1-4.2-5.1-7.5-9.4-9.4.1-2.7.5-5.2 2.1-6.6-3.8-.3-7.1 2.3-9.2 4.7-1.9-1.9-4.6-3.5-7.9-4.6l-2 3.6c-2.6-.9-5.3-1.4-8-1.5v34.9c2 0 4.1-.1 6.1-.2 1 1.6 1.9 3.3 3.1 4.7h8.7c-.3-2.3-.7-4.7 0-7.1 2.1-.4 12.9-3.1 20.2-10.7 1.4-1.5 1.5-4.2 1.3-7.9-1.7 0-4.1.3-5 .1zm-8.4.5c-1.2 0-2.2-1-2.2-2.2 0-1.2 1-2.2 2.2-2.2 1.2 0 2.2 1 2.2 2.2 0 1.3-1 2.2-2.2 2.2z" fill="#BDC3C7"/><path d="M75.9 81.3v-34.9c-3.6-.2-7.2.3-10.6 1.5l-2.6-3.5c-4.1 1.4-7.9 3.5-10.9 6.6-1.9-.1-1.7-4 .8-3.4-4-2.8-6.3 4.8-2.4 5.8-3.2 4.6-3.6 14.6.8 18.3.6 5.5 1.6 10.7 4.3 14.2h8.8c-.2-1.8-.5-3.7-.3-5.8 3.7.8 7.8 1.2 12.1 1.2z" fill="#ECF0F1"/><path d="M75.8 31.2v14.1c1.5.1 3 .4 4.5.8 1.8-1.6 3-3.9 3-6.5.1-4.3-3.2-7.9-7.5-8.4z" fill="#95A5A6"/><path d="M75.9 45.3v-14.1l-1-.1c-4.7 0-8.5 3.8-8.5 8.5 0 2.4 1 4.5 2.6 6.1 1.9-.4 3.9-.6 5.9-.5.3 0 .6 0 1 .1z" fill="#BDC3C7"/><path d="M82.2 25c-2.4 0-4.4 2-4.4 4.4 0 .4.1.7.2 1.1 1.9.5 3.6 1.7 4.8 3.2 2.1-.3 3.8-2.1 3.8-4.3 0-2.5-2-4.4-4.4-4.4z" fill="#95A5A6"/><ellipse cx="70.3" cy="22.6" rx="4.4" ry="4.4" fill="#BDC3C7"/></svg>