<?xml version="1.0" encoding="utf-8"?>
<!-- Generator: Adobe Illustrator 16.0.0, SVG Export Plug-In . SVG Version: 6.00 Build 0)  -->
<!DOCTYPE svg PUBLIC "-//W3C//DTD SVG 1.1//EN" "http://www.w3.org/Graphics/SVG/1.1/DTD/svg11.dtd">
<svg version="1.1" id="tab" xmlns="http://www.w3.org/2000/svg" xmlns:xlink="http://www.w3.org/1999/xlink" x="0px" y="0px"
	 width="120px" height="120px" viewBox="0 0 120 120" enable-background="new 0 0 120 120" xml:space="preserve">
<path id="back" fill="none" stroke="#231F20" stroke-width="0.25" stroke-miterlimit="10" d="M98.5,110.8c0,4-2.7,7.2-6.5,7.2H28.6
	c-3.9,0-7.1-3.2-7.1-7.2V10.2c0-4,3.2-7.2,7.1-7.2H92c3.9,0,6.5,3.2,6.5,7.2V110.8z"/>
<path id="button" fill="none" stroke="#231F20" stroke-width="0.25" stroke-miterlimit="10" d="M62.5,112.5c0,1.1-0.9,2-2,2h-1
	c-1.1,0-2-0.9-2-2v-1c0-1.1,0.9-2,2-2h1c1.1,0,2,0.9,2,2V112.5z"/>
<circle id="camera" fill="none" stroke="#231F20" stroke-width="0.25" stroke-miterlimit="10" cx="60" cy="8.781" r="0.469"/>
<path id="screen" fill="none" stroke="#231F20" stroke-width="0.25" stroke-miterlimit="10" d="M94.5,15v88.8c0,0.8,0,2.3-1,2.3
	H28.3c-1,0-2.8-1.5-2.8-2.3V15c0-0.8,1.8-1,2.8-1h65.2C94.5,14,94.5,14.2,94.5,15z"/>
<path id="logo" fill="none" stroke="#231F20" stroke-width="0.25" stroke-miterlimit="10" d="M66,46.8l-13-4.1c-0.6-0.6-1-1.9-1-3.4
	c0-1.4,0.7-2.7,1.3-3.4l6.4-3.8L66,36V46.8z M47,39.6v14.8l3.5,2.1V44.3c-0.6-0.7-1-2-1-3.4c0-1.5,0.5-2.7,1.1-3.4L47,39.6z
	 M53.3,47.3v10.8l6.4,3.8l6.399-3.8c1.199-0.7,1.199-1.9,1.199-3.4s-0.3-2.7-1-3.3L53.3,47.3L53.3,47.3z M69,37.4v12.3
	c0.6,0.7,1.2,2,1.2,3.4c0,1.5-0.4,2.7-1,3.4l3.899-2.1V39.6L69,37.4z"/>
<path id="text" fill="none" stroke="#231F20" stroke-width="0.25" stroke-miterlimit="10" d="M37.2,67.9V70.1h-0.5V65.2h0.5v2.1h1.2
	v-2.2h0.5V70h-0.5v-2.2L37.2,67.9z M41.6,66.4v0.1h-0.5v-0.2c0-0.5-0.2-0.7-0.6-0.7s-0.6,0.2-0.6,0.7c0,1.101,1.6,1.2,1.6,2.601
	c0,0.801-0.3,1.199-1.1,1.199c-0.8,0-1.1-0.5-1.1-1.199V68.6h0.5V68.9c0,0.5,0.2,0.699,0.6,0.699S41,69.4,41,68.9
	c0-1.102-1.6-1.2-1.6-2.602c0-0.8,0.3-1.199,1.1-1.199C41.3,65.2,41.6,65.7,41.6,66.4z M43.2,67.4h1.3v0.5h-1.3V67.4z M47.2,65.2
	c0.8,0,1.1,0.5,1.1,1.2V68.8c0,0.8-0.3,1.2-1.1,1.2H46v-4.9h1.2V65.2z M47.2,69.6c0.4,0,0.6-0.199,0.6-0.699v-2.5
	c0-0.5-0.2-0.699-0.6-0.699h-0.6V69.6H47.2L47.2,69.6z M50.6,67.4v0.5h-1.2V69.6h1.5v0.5h-2V65.2h2v0.5h-1.5v1.6h1.2V67.4z
	 M51.8,65.2l0.8,4.2l0.8-4.2h0.5L53,70.1h-0.8L51.3,65.2H51.8z M56,67.4v0.5h-1.2V69.6h1.4v0.5h-2V65.2h2v0.5h-1.4v1.6H56V67.4z
	 M56.8,70.1V65.2h0.5V69.6h1.4v0.5H56.8z M59.1,66.4c0-0.801,0.3-1.2,1.1-1.2c0.8,0,1.1,0.5,1.1,1.2v2.5c0,0.8-0.3,1.199-1.1,1.199
	c-0.8,0-1.1-0.5-1.1-1.199V66.4z M59.6,69c0,0.5,0.2,0.7,0.6,0.7c0.399,0,0.6-0.2,0.6-0.7v-2.6c0-0.5-0.2-0.7-0.6-0.7
	c-0.4,0-0.6,0.3-0.6,0.7V69z M62.9,65.2c0.8,0,1.1,0.5,1.1,1.2V67c0,0.8-0.3,1.2-1.2,1.2h-0.5V70.1h-0.5V65.2H62.9z M62.8,67.7
	c0.4,0,0.601-0.2,0.601-0.601v-0.601c0-0.5-0.199-0.7-0.601-0.7h-0.5v2h0.5V67.7z M66.7,65.7c-0.4,0-0.601,0.2-0.601,0.7V66.6
	c0,0.4,0.199,0.602,0.601,0.602h0.5v-0.5h0.5v0.5h0.2v0.5h-0.2V69.4c0,0.199,0,0.399,0.1,0.601h-0.5c-0.1-0.101-0.1-0.2-0.1-0.399
	c-0.101,0.301-0.4,0.5-0.8,0.5c-0.602,0-0.9-0.399-0.9-1.101v-0.5c0-0.5,0.2-0.899,0.6-1c-0.398-0.101-0.6-0.5-0.6-1V66.4
	c0-0.801,0.3-1.199,1.2-1.199h0.8v0.5L66.7,65.7L66.7,65.7L66.7,65.7z M66.7,67.8c-0.4,0-0.601,0.3-0.601,0.8V69
	c0,0.4,0.199,0.7,0.601,0.7c0.3,0,0.5-0.2,0.5-0.601v-1.301L66.7,67.8L66.7,67.8z M70.6,65.2c0.801,0,1.102,0.5,1.102,1.2V68.8
	c0,0.8-0.301,1.2-1.102,1.2H69.4v-4.9H70.6V65.2z M70.6,69.6C71,69.6,71.2,69.4,71.2,68.9v-2.5c0-0.5-0.2-0.7-0.601-0.7H70V69.6
	H70.6L70.6,69.6z M73.9,67.4v0.5h-1.2V69.6h1.5v0.5h-2V65.2h2v0.5h-1.4v1.6H73.9V67.4z M76.8,66.4v0.1h-0.5v-0.2
	c0-0.5-0.2-0.7-0.6-0.7c-0.4,0-0.601,0.2-0.601,0.7c0,1.101,1.601,1.2,1.601,2.601c0,0.801-0.3,1.199-1.101,1.199
	s-1.101-0.5-1.101-1.199V68.6H75.1V68.9c0,0.5,0.199,0.699,0.601,0.699c0.399,0,0.6-0.199,0.6-0.699c0-1.102-1.6-1.2-1.6-2.602
	c0-0.8,0.3-1.199,1.1-1.199C76.4,65.2,76.8,65.7,76.8,66.4z M77.8,65.2V70.1h-0.5V65.2H77.8z M80.5,66.4V66.8H80v-0.5
	c0-0.5-0.2-0.7-0.6-0.7C79,65.6,78.8,65.9,78.8,66.3V68.9c0,0.5,0.2,0.699,0.601,0.699c0.399,0,0.601-0.301,0.601-0.699V68h-0.5
	v-0.5h1V69c0,0.8-0.3,1.2-1.101,1.2S78.3,69.7,78.3,69v-2.5c0-0.8,0.3-1.2,1.101-1.2C80.2,65.2,80.5,65.7,80.5,66.4z M81.5,70.1H81
	V65.2h0.7l1.1,3.5v-3.5h0.5V70.1h-0.6L81.5,66.2V70.1z"/>
</svg>
