<svg xmlns="http://www.w3.org/2000/svg" xmlns:xlink="http://www.w3.org/1999/xlink" id="tab-Layer_1" xml:space="preserve" height="120" viewBox="0 0 120 120" width="120" version="1.1" y="0px" x="0px" enable-background="new 0 0 120 120"><path id="tab-back" d="m98.5 110.8c0 4-2.7 7.2-6.5 7.2h-63.4c-3.9 0-7.1-3.2-7.1-7.2v-100.6c0-4 3.2-7.2 7.1-7.2h63.4c3.9 0 6.5 3.2 6.5 7.2v100.6z" fill="#565656"/><linearGradient id="tab-reflection-back_2_" y2="60.45" gradientUnits="userSpaceOnUse" x2="98.484" y1="60.45" x1="27.5">	<stop stop-color="#fff" stop-opacity="0" offset="0"/>	<stop stop-color="#fff" offset="1"/></linearGradient><path id="tab-reflection-back_1_" opacity=".1" d="m92 3h-11.7l-52.8 114.9h0.2c3.4 0 44.6-0.2 65.7-0.101 3-0.7 5-3.6 5-7v-100.6c0.1-4-2.5-7.2-6.4-7.2z" enable-background="new    " fill="url(#tab-reflection-back_2_)"/><path id="tab-button" d="m62.5 112.5c0 1.1-0.9 2-2 2h-1c-1.1 0-2-0.9-2-2v-1c0-1.1 0.9-2 2-2h1c1.1 0 2 0.9 2 2v1z" stroke="#444344" stroke-miterlimit="10" stroke-width=".5" fill="none"/><circle id="tab-camera" cy="8.5" stroke="#333" cx="60" stroke-miterlimit="10" stroke-width=".5" fill="#808080"/><path id="tab-screen_1_" d="m94.5 15v88.8c0 0.8 0 2.3-1 2.3h-65.2c-1 0-2.8-1.5-2.8-2.3v-88.8c0-0.8 1.8-1 2.8-1h65.2c1 0 1 0.2 1 1z" fill="#D3D3D3"/><path id="tab-logo" d="m66 46.8l-13-4.1c-0.6-0.6-1-1.9-1-3.4 0-1.4 0.7-2.7 1.3-3.4l6.4-3.8 6.3 3.9v10.8zm-19-7.2v14.8l3.5 2.1v-12.2c-0.6-0.7-1-2-1-3.4 0-1.5 0.5-2.7 1.1-3.4l-3.6 2.1zm6.3 7.7v10.8l6.4 3.8 6.399-3.8c1.2-0.7 1.2-1.9 1.2-3.4s-0.3-2.7-1-3.3l-12.999-4.1zm15.7-9.9v12.3c0.6 0.7 1.2 2 1.2 3.4 0 1.5-0.4 2.7-1 3.4l3.899-2.1v-14.8l-4.099-2.2z" fill="#FF302C"/><path id="tab-text" d="m37.2 67.9v2.2h-0.5v-4.9h0.5v2.1h1.2v-2.2h0.5v4.9h-0.5v-2.2l-1.2 0.1zm4.4-1.5v0.1h-0.5v-0.2c0-0.5-0.2-0.7-0.6-0.7s-0.6 0.2-0.6 0.7c0 1.101 1.6 1.2 1.6 2.601 0 0.8-0.3 1.199-1.1 1.199s-1.1-0.5-1.1-1.199v-0.301h0.5v0.3c0 0.5 0.2 0.699 0.6 0.699s0.6-0.199 0.6-0.699c0-1.101-1.6-1.2-1.6-2.601 0-0.8 0.3-1.2 1.1-1.2 0.8 0.101 1.1 0.601 1.1 1.301zm1.6 1h1.3v0.5h-1.3v-0.5zm4-2.2c0.8 0 1.1 0.5 1.1 1.2v2.4c0 0.8-0.3 1.2-1.1 1.2h-1.2v-4.9h1.2v0.1zm0 4.4c0.4 0 0.6-0.199 0.6-0.699v-2.5c0-0.5-0.2-0.7-0.6-0.7h-0.6v3.899h0.6zm3.4-2.2v0.5h-1.2v1.7h1.5v0.5h-2v-4.9h2v0.5h-1.5v1.6h1.2v0.1zm1.2-2.2l0.8 4.2 0.8-4.2h0.5l-0.9 4.9h-0.8l-0.9-4.9h0.5zm4.2 2.2v0.5h-1.2v1.7h1.4v0.5h-2v-4.9h2v0.5h-1.4v1.6h1.2v0.1zm0.8 2.7v-4.9h0.5v4.4h1.4v0.5h-1.9zm2.3-3.7c0-0.801 0.3-1.2 1.1-1.2s1.1 0.5 1.1 1.2v2.5c0 0.8-0.3 1.199-1.1 1.199s-1.1-0.5-1.1-1.199v-2.5zm0.5 2.6c0 0.5 0.2 0.7 0.6 0.7 0.399 0 0.6-0.2 0.6-0.7v-2.6c0-0.5-0.2-0.7-0.6-0.7s-0.6 0.3-0.6 0.7v2.6zm3.3-3.8c0.8 0 1.1 0.5 1.1 1.2v0.6c0 0.8-0.3 1.2-1.2 1.2h-0.5v1.9h-0.5v-4.9h1.1zm-0.1 2.5c0.4 0 0.601-0.2 0.601-0.601v-0.6c0-0.5-0.2-0.7-0.601-0.7h-0.5v2h0.5v-0.099zm3.9-2c-0.4 0-0.601 0.2-0.601 0.7v0.2c0 0.4 0.2 0.601 0.601 0.601h0.5v-0.5h0.5v0.5h0.2v0.5h-0.2v1.7c0 0.199 0 0.399 0.1 0.6h-0.5c-0.1-0.1-0.1-0.2-0.1-0.4-0.101 0.301-0.4 0.5-0.8 0.5-0.601 0-0.9-0.399-0.9-1.1v-0.5c0-0.5 0.2-0.9 0.6-1-0.399-0.1-0.6-0.5-0.6-1v-0.1c0-0.801 0.3-1.2 1.2-1.2h0.8v0.5h-0.8v-0.001zm0 2.1c-0.4 0-0.601 0.3-0.601 0.8v0.4c0 0.4 0.2 0.7 0.601 0.7 0.3 0 0.5-0.2 0.5-0.601v-1.3h-0.5v0.001zm3.9-2.6c0.801 0 1.101 0.5 1.101 1.2v2.4c0 0.8-0.3 1.2-1.101 1.2h-1.2v-4.9h1.2v0.1zm0 4.4c0.4 0 0.6-0.2 0.6-0.7v-2.5c0-0.5-0.2-0.7-0.601-0.7h-0.599v3.9h0.6zm3.3-2.2v0.5h-1.2v1.7h1.5v0.5h-2v-4.9h2v0.5h-1.4v1.6h1.1v0.1zm2.9-1v0.1h-0.5v-0.2c0-0.5-0.2-0.7-0.6-0.7s-0.601 0.2-0.601 0.7c0 1.101 1.601 1.2 1.601 2.601 0 0.8-0.3 1.199-1.101 1.199-0.8 0-1.1-0.5-1.1-1.199v-0.301h0.6v0.3c0 0.5 0.2 0.699 0.601 0.699 0.399 0 0.6-0.199 0.6-0.699 0-1.101-1.6-1.2-1.6-2.601 0-0.8 0.3-1.2 1.1-1.2 0.6 0.101 1 0.601 1 1.301zm1-1.2v4.9h-0.5v-4.9h0.5zm2.7 1.2v0.4h-0.5v-0.5c0-0.5-0.2-0.7-0.6-0.7s-0.6 0.3-0.6 0.7v2.6c0 0.5 0.2 0.699 0.601 0.699 0.399 0 0.6-0.3 0.6-0.699v-0.9h-0.5v-0.5h1v1.5c0 0.8-0.3 1.2-1.1 1.2-0.801 0-1.101-0.5-1.101-1.2v-2.5c0-0.8 0.3-1.2 1.101-1.2 0.799-0.1 1.099 0.4 1.099 1.1zm1 3.7h-0.5v-4.9h0.7l1.1 3.5v-3.5h0.5v4.9h-0.6l-1.2-3.9v3.9z" fill="#FF302C"/><linearGradient id="tab-reflection-screen_2_" y2="60.05" gradientUnits="userSpaceOnUse" x2="94.6" y1="60.05" x1="33">	<stop stop-color="#fff" stop-opacity="0" offset="0"/>	<stop stop-color="#fff" offset="1"/></linearGradient><path id="tab-reflection-screen_1_" opacity=".6" d="m93.5 14h-18.2l-42.3 92.1h60.6c1 0 1-1.5 1-2.3v-88.8c-0.1-0.8-0.1-1-1.1-1z" enable-background="new    " fill="url(#tab-reflection-screen_2_)"/></svg>