<?xml version="1.0" encoding="utf-8"?>
<!-- Generator: Adobe Illustrator 16.0.0, SVG Export Plug-In . SVG Version: 6.00 Build 0)  -->
<!DOCTYPE svg PUBLIC "-//W3C//DTD SVG 1.1//EN" "http://www.w3.org/Graphics/SVG/1.1/DTD/svg11.dtd">
<svg version="1.1" id="tab_x5F_phone_x5F_colored" xmlns="http://www.w3.org/2000/svg" xmlns:xlink="http://www.w3.org/1999/xlink"
	 x="0px" y="0px" width="120px" height="120px" viewBox="0 0 120 120" enable-background="new 0 0 120 120" xml:space="preserve">
<g id="tab">
	<path id="tab-back" fill="#565656" d="M89.414,105.85c0,3.834-2.602,6.901-6.262,6.901H22.088c-3.755,0-6.838-3.067-6.838-6.901
		V9.404c0-3.835,3.083-6.903,6.838-6.903h61.064c3.758,0,6.262,3.068,6.262,6.903V105.85z"/>
	<path id="back-reflection_1_" opacity="0.1" fill="#FFFFFF" enable-background="new    " d="M83.152,2.501H71.885L21.029,112.654
		h0.192c3.274,0,42.957-0.19,63.28-0.098c2.89-0.671,4.815-3.449,4.815-6.709V9.403C89.414,5.568,86.91,2.5,83.152,2.501
		L83.152,2.501z"/>
	<path id="tab-button" fill="none" stroke="#444344" stroke-width="0.5" stroke-miterlimit="10" d="M54.74,107.479
		c0,1.056-0.867,1.918-1.926,1.918h-0.963c-1.059,0-1.926-0.862-1.926-1.918v-0.959c0-1.055,0.867-1.916,1.926-1.916h0.963
		c1.059,0,1.926,0.861,1.926,1.916V107.479z"/>
	
		<circle id="tab-camera" fill="#808080" stroke="#333333" stroke-width="0.5" stroke-miterlimit="10" cx="52.332" cy="7.773" r="0"/>
	<path id="tab-screen_1_" fill="#D3D3D3" d="M85.563,14.005v85.132c0,0.768,0,2.205-0.963,2.205H21.799
		c-0.963,0-2.697-1.438-2.697-2.205V14.005c0-0.767,1.734-0.959,2.697-0.959h62.799C85.563,13.046,85.563,13.238,85.563,14.005z"/>
	<path id="tab-logo" fill="#FF302C" d="M58.111,44.492L45.59,40.561c-0.578-0.575-0.963-1.822-0.963-3.259
		c0-1.343,0.675-2.588,1.252-3.26l6.165-3.643l6.068,3.738L58.111,44.492L58.111,44.492z M39.811,37.589v14.188l3.372,2.014V42.095
		c-0.578-0.671-0.963-1.918-0.963-3.26c0-1.438,0.481-2.588,1.059-3.26L39.811,37.589z M45.879,44.971v10.354l6.165,3.642
		l6.163-3.642c1.156-0.671,1.156-1.821,1.156-3.26c0-1.438-0.289-2.588-0.963-3.164L45.879,44.971L45.879,44.971z M61,35.479v11.792
		c0.578,0.671,1.156,1.918,1.156,3.26c0,1.438-0.387,2.588-0.963,3.26l3.755-2.014V37.589L61,35.479z"/>
	<path id="tab-text" fill="#FF302C" d="M30.372,64.72v2.11h-0.481v-4.698h0.481v2.013h1.156v-2.106h0.482v4.696h-0.482v-2.109
		L30.372,64.72z M34.609,63.282v0.096h-0.481v-0.19c0-0.479-0.192-0.672-0.578-0.672c-0.386,0-0.578,0.191-0.578,0.672
		c0,1.056,1.541,1.149,1.541,2.494c0,0.767-0.289,1.148-1.06,1.148s-1.06-0.479-1.06-1.148v-0.289h0.481v0.285
		c0,0.479,0.193,0.672,0.579,0.672c0.385,0,0.578-0.191,0.578-0.672c0-1.055-1.541-1.147-1.541-2.492c0-0.767,0.289-1.15,1.06-1.15
		C34.321,62.132,34.609,62.611,34.609,63.282z M36.151,64.24h1.252v0.479h-1.252V64.24z M40.003,62.132
		c0.771,0,1.06,0.479,1.06,1.15v2.301c0,0.769-0.289,1.149-1.06,1.149h-1.156v-4.695h1.156V62.132z M40.003,66.352
		c0.385,0,0.578-0.19,0.578-0.67v-2.397c0-0.479-0.193-0.671-0.578-0.671h-0.578v3.738H40.003L40.003,66.352z M43.278,64.24v0.479
		h-1.155v1.631h1.445v0.479h-1.926v-4.698h1.926v0.479h-1.445v1.533h1.155V64.24z M44.434,62.132l0.77,4.025l0.771-4.025h0.481
		L45.59,66.83h-0.771l-0.867-4.698H44.434z M48.479,64.24v0.479h-1.156v1.631h1.349v0.479h-1.927v-4.698h1.927v0.479h-1.349v1.533
		h1.156V64.24z M49.25,66.83v-4.698h0.482v4.22h1.349v0.479H49.25z M51.464,63.282c0-0.769,0.29-1.15,1.061-1.15
		s1.06,0.479,1.06,1.15v2.396c0,0.77-0.289,1.15-1.06,1.15s-1.061-0.479-1.061-1.15V63.282z M51.946,65.773
		c0,0.479,0.193,0.672,0.579,0.672c0.384,0,0.578-0.191,0.578-0.672v-2.491c0-0.479-0.193-0.671-0.578-0.671
		c-0.386,0-0.579,0.287-0.579,0.671V65.773z M55.126,62.132c0.77,0,1.059,0.479,1.059,1.15v0.575c0,0.767-0.289,1.149-1.156,1.149
		h-0.482v1.822h-0.481v-4.698L55.126,62.132L55.126,62.132z M55.029,64.529c0.386,0,0.579-0.192,0.579-0.577v-0.575
		c0-0.479-0.193-0.671-0.579-0.671h-0.482v1.917h0.482V64.529z M58.785,62.611c-0.386,0-0.579,0.19-0.579,0.671v0.192
		c0,0.383,0.193,0.575,0.579,0.575h0.482V63.57h0.481v0.479h0.193v0.479h-0.193v1.63c0,0.19,0,0.382,0.096,0.573h-0.482
		c-0.096-0.094-0.096-0.19-0.096-0.383c-0.098,0.289-0.386,0.479-0.771,0.479c-0.579,0-0.867-0.383-0.867-1.055v-0.479
		c0-0.479,0.193-0.862,0.578-0.958c-0.384-0.096-0.578-0.479-0.578-0.959v-0.096c0-0.768,0.289-1.15,1.156-1.15h0.771v0.479
		L58.785,62.611L58.785,62.611L58.785,62.611z M58.785,64.624c-0.386,0-0.579,0.289-0.579,0.769v0.383
		c0,0.383,0.193,0.672,0.579,0.672c0.289,0,0.482-0.192,0.482-0.577v-1.246H58.785L58.785,64.624z M62.541,62.132
		c0.771,0,1.063,0.479,1.063,1.15v2.301c0,0.769-0.289,1.149-1.063,1.149h-1.154v-4.695h1.154V62.132z M62.541,66.352
		c0.386,0,0.578-0.193,0.578-0.674v-2.396c0-0.479-0.192-0.671-0.579-0.671h-0.576v3.738h0.577V66.352z M65.721,64.24v0.479h-1.156
		v1.631h1.444v0.479h-1.926v-4.698h1.926v0.479H64.66v1.533h1.061V64.24z M68.514,63.282v0.096h-0.48v-0.19
		c0-0.479-0.193-0.672-0.578-0.672c-0.387,0-0.579,0.191-0.579,0.672c0,1.056,1.543,1.149,1.543,2.494
		c0,0.767-0.289,1.148-1.062,1.148c-0.771,0-1.061-0.479-1.061-1.148v-0.289h0.578v0.285c0,0.479,0.191,0.672,0.579,0.672
		c0.384,0,0.578-0.191,0.578-0.672c0-1.055-1.541-1.147-1.541-2.492c0-0.767,0.288-1.15,1.059-1.15
		C68.129,62.132,68.514,62.611,68.514,63.282z M69.477,62.132v4.698h-0.481v-4.698H69.477z M72.077,63.282v0.383h-0.481v-0.479
		c0-0.479-0.193-0.67-0.578-0.67c-0.386,0-0.578,0.286-0.578,0.67v2.491c0,0.479,0.192,0.671,0.58,0.671
		c0.383,0,0.578-0.287,0.578-0.671v-0.86h-0.481v-0.479h0.963v1.438c0,0.768-0.288,1.15-1.06,1.15c-0.772,0-1.062-0.479-1.062-1.15
		v-2.396c0-0.768,0.288-1.15,1.062-1.15C71.788,62.132,72.077,62.611,72.077,63.282z M73.041,66.83h-0.482v-4.698h0.674l1.061,3.354
		v-3.354h0.48v4.698h-0.576l-1.155-3.739L73.041,66.83L73.041,66.83z"/>
	<path id="tab-dot" fill="#3F3F3F" d="M53.234,6.7c0.332,0,0.582,0.249,0.582,0.58s-0.25,0.58-0.582,0.58s-0.582-0.249-0.582-0.58
		C52.652,6.948,52.902,6.7,53.234,6.7z"/>
	<path id="screen-reflection_1_" opacity="0.2" fill="#FFFFFF" enable-background="new    " d="M84.6,13.046H67.068l-40.741,88.296
		h58.368c0.963,0,0.963-1.438,0.963-2.205V14.005C85.563,13.238,85.563,13.046,84.6,13.046z"/>
</g>
<g id="phone">
	<path id="phone-back_1_" fill="#545454" d="M113.02,108.539c0,4.555,0.332,8.861-8.137,8.861H74.488
		c-8.469,0-7.971-4.308-7.971-8.861V33.097c0-4.555-0.582-8.447,7.971-8.447h30.395c8.469,0,8.137,3.892,8.137,8.447V108.539z"/>
	<path id="back-reflection" opacity="0.1" fill="#FFFFFF" enable-background="new    " d="M113.02,108.539V33.097
		c0-4.555,0.332-8.447-8.137-8.447H96.08l-29.563,83.475v0.414c0,4.555-0.498,8.861,7.972,8.861h30.394
		C113.352,117.4,113.02,113.094,113.02,108.539z"/>
	<g id="phone-camera">
		<circle fill="#3F3F3F" cx="79.639" cy="32.518" r="0.994"/>
		<circle fill="#6D6D6D" cx="79.639" cy="32.518" r="0.579"/>
		<circle fill="#5B5B5B" cx="79.639" cy="32.518" r="0.166"/>
	</g>
	<path id="phone-dot" fill="#3F3F3F" d="M89.77,27.88c0.332,0,0.582,0.249,0.582,0.58s-0.25,0.58-0.582,0.58
		s-0.582-0.249-0.582-0.58C89.188,28.128,89.438,27.88,89.77,27.88z"/>
	<path id="phone-speaker_1_" fill="#DDDDDD" d="M95.166,32.601c0,0.166-0.166,0.331-0.332,0.331h-10.13
		c-0.167,0-0.333-0.166-0.333-0.331v-0.166c0-0.166,0.166-0.331,0.333-0.331h10.13c0.166,0,0.332,0.166,0.332,0.331V32.601z"/>
	<path id="phone-screen_1_" fill="#D3D3D3" d="M110.195,107.297c0,0.414-0.33,0.58-0.663,0.58H70.005
		c-0.415,0-0.664-0.331-0.664-0.58v-68.32c0-0.414,0.333-0.579,0.664-0.579h39.527c0.415,0,0.663,0.331,0.663,0.579V107.297z"/>
	<path id="phone-button_1_" fill="none" stroke="#444444" stroke-width="0.5" stroke-miterlimit="10" d="M89.77,109.781
		c1.56,0,2.823,1.261,2.823,2.816c0,1.555-1.265,2.814-2.823,2.814c-1.56,0-2.824-1.26-2.824-2.814
		C86.945,111.044,88.209,109.782,89.77,109.781L89.77,109.781z"/>
	<path id="phone-logo" fill="#FF302C" d="M93.921,63.158l-8.885-2.815c-0.415-0.414-0.665-1.325-0.665-2.319
		c0-0.993,0.498-1.821,0.914-2.318l4.4-2.567l4.317,2.567v7.453L93.921,63.158L93.921,63.158z M80.801,58.272v10.186l2.408,1.491
		v-8.447c-0.415-0.497-0.748-1.325-0.748-2.318c0-0.994,0.333-1.905,0.748-2.319L80.801,58.272z M85.201,63.572v7.369l4.4,2.567
		l4.401-2.567c0.83-0.496,0.83-1.324,0.83-2.317c0-0.994-0.164-1.905-0.665-2.319L85.201,63.572z M95.914,56.781v8.447
		c0.415,0.496,0.831,1.324,0.831,2.317c0,0.994-0.252,1.905-0.748,2.319l2.739-1.491V58.272L95.914,56.781z"/>
	<path id="phone-text" fill="#FF302C" d="M74.157,77.65v1.49h-0.332v-3.313h0.332v1.491h0.829v-1.491h0.332v3.313h-0.332v-1.49
		H74.157z M77.146,76.574l-0.332,0.082v-0.082c0-0.332-0.084-0.497-0.416-0.497s-0.414,0.165-0.414,0.497
		c0,0.744,1.078,0.828,1.078,1.738c0,0.496-0.248,0.828-0.746,0.828s-0.748-0.332-0.748-0.828v-0.166H75.9v0.166
		c0,0.332,0.084,0.496,0.416,0.496s0.414-0.164,0.414-0.496c0-0.746-1.08-0.828-1.08-1.738c0-0.497,0.25-0.828,0.748-0.828
		S77.146,76.077,77.146,76.574z M78.227,77.318h0.914v0.332h-0.914V77.318z M81.05,75.746c0.498,0,0.748,0.331,0.748,0.828v1.656
		c0,0.496-0.25,0.828-0.748,0.828h-0.831v-3.313L81.05,75.746L81.05,75.746z M81.05,78.811c0.249,0,0.415-0.166,0.415-0.498v-1.737
		c0-0.332-0.083-0.5-0.415-0.5h-0.416v2.649h0.416V78.811z M83.292,77.318v0.332h-0.831v1.158h0.997v0.332h-1.412v-3.313h1.412
		v0.332h-0.997v1.075h0.831V77.318z M84.122,75.746l0.582,2.898l0.581-2.898h0.331l-0.664,3.313h-0.581l-0.664-3.313H84.122
		L84.122,75.746z M87.027,77.318v0.332h-0.829v1.158h0.997v0.332h-1.412v-3.313h1.412v0.332h-0.997v1.075h0.829V77.318z
		 M87.525,79.141v-3.313h0.334v2.98h0.912v0.332H87.525L87.525,79.141z M89.104,76.574c0-0.497,0.25-0.828,0.748-0.828
		s0.746,0.331,0.746,0.828v1.738c0,0.496-0.248,0.828-0.746,0.828s-0.748-0.332-0.748-0.828V76.574z M89.52,78.313
		c0,0.332,0.084,0.498,0.416,0.498c0.248,0,0.416-0.166,0.416-0.498v-1.737c0-0.332-0.084-0.497-0.416-0.497
		c-0.248,0-0.416,0.165-0.416,0.497V78.313z M91.764,75.746c0.496,0,0.744,0.331,0.744,0.828v0.414c0,0.496-0.249,0.828-0.83,0.828
		H91.43v1.324h-0.332v-3.313h0.666V75.746z M91.68,77.484c0.248,0,0.414-0.082,0.414-0.414v-0.414c0-0.331-0.082-0.496-0.414-0.496
		h-0.332v1.324H91.68z M94.336,76.16c-0.249,0-0.415,0.165-0.415,0.496v0.166c0,0.248,0.166,0.414,0.415,0.414h0.333v-0.414H95v0.33
		h0.166v0.332H95v1.16c0,0.164,0,0.248,0.085,0.414h-0.334c0-0.084,0-0.166-0.082-0.25c-0.084,0.166-0.251,0.332-0.5,0.332
		c-0.415,0-0.581-0.248-0.581-0.746v-0.33c0-0.33,0.085-0.58,0.416-0.744c-0.25-0.082-0.416-0.33-0.416-0.663v-0.083
		c0-0.497,0.251-0.828,0.83-0.828H95v0.331h-0.664V76.16L94.336,76.16z M94.336,77.566c-0.249,0-0.415,0.166-0.415,0.498v0.33
		c0,0.25,0.083,0.498,0.415,0.498c0.166,0,0.333-0.084,0.333-0.414v-0.912H94.336z M96.993,75.746c0.498,0,0.747,0.331,0.747,0.828
		v1.656c0,0.496-0.25,0.828-0.747,0.828h-0.83v-3.313L96.993,75.746L96.993,75.746z M96.993,78.811c0.249,0,0.416-0.166,0.416-0.498
		v-1.737c0-0.332-0.085-0.5-0.416-0.5h-0.415v2.649h0.415V78.811z M99.318,77.318v0.332h-0.83v1.158h0.996v0.332h-1.328v-3.313h1.41
		v0.332H98.57v1.075h0.748V77.318z M101.229,76.574l-0.332,0.082v-0.082c0-0.332-0.084-0.497-0.414-0.497
		c-0.334,0-0.416,0.165-0.416,0.497c0,0.744,1.08,0.828,1.08,1.738c0,0.496-0.25,0.828-0.748,0.828s-0.746-0.332-0.746-0.828v-0.166
		h0.416v0.166c0,0.332,0.082,0.496,0.414,0.496c0.33,0,0.416-0.164,0.416-0.496c0-0.746-1.082-0.828-1.082-1.738
		c0-0.497,0.252-0.828,0.748-0.828C100.979,75.746,101.229,76.077,101.229,76.574z M101.977,75.746v3.313h-0.332v-3.313H101.977z
		 M103.803,76.574v0.248h-0.332v-0.331c0-0.331-0.082-0.497-0.416-0.497c-0.248,0-0.414,0.166-0.414,0.497v1.739
		c0,0.33,0.082,0.496,0.414,0.496c0.25,0,0.416-0.166,0.416-0.496v-0.58h-0.332v-0.332h0.748v0.994c0,0.496-0.25,0.828-0.748,0.828
		s-0.746-0.332-0.746-0.828v-1.738c0-0.497,0.248-0.828,0.746-0.828S103.803,76.077,103.803,76.574z M104.55,79.141h-0.331v-3.313
		h0.497l0.748,2.402v-2.402h0.331v3.313h-0.415l-0.83-2.731V79.141z"/>
	<path id="screen-reflection" opacity="0.2" fill="#FFFFFF" enable-background="new    " d="M109.532,38.397H91.262L69.34,100.091
		v7.205c0,0.332,0.249,0.58,0.664,0.58h39.527c0.332,0,0.664-0.248,0.664-0.58v-68.32C110.195,38.729,109.947,38.397,109.532,38.397
		z"/>
</g>
</svg>
