<?xml version="1.0" encoding="utf-8"?>
<!-- Generator: Adobe Illustrator 16.0.0, SVG Export Plug-In . SVG Version: 6.00 Build 0)  -->
<!DOCTYPE svg PUBLIC "-//W3C//DTD SVG 1.1//EN" "http://www.w3.org/Graphics/SVG/1.1/DTD/svg11.dtd">
<svg version="1.1" xmlns="http://www.w3.org/2000/svg" xmlns:xlink="http://www.w3.org/1999/xlink" x="0px" y="0px" width="120px"
	 height="120px" viewBox="0 0 120 120" enable-background="new 0 0 120 120" xml:space="preserve">
<g id="tab">
	<path id="back" fill="none" stroke="#FF302C" stroke-width="0.25" stroke-miterlimit="10" d="M83.183,2.521h-60.84
		c-3.743,0-6.813,3.071-6.813,6.909v96.537c0,3.838,3.071,6.909,6.813,6.909H66.86c-0.226-1.294-0.178-2.753-0.178-4.242v-7.179
		H22.054c-0.959,0-2.686-1.438-2.686-2.207V14.037c0-0.768,1.727-0.959,2.686-0.959h62.567c0.96,0,0.96,0.192,0.96,0.959v10.867
		h3.838V9.431C89.419,5.592,86.925,2.521,83.183,2.521z"/>
	<path id="button" fill="none" stroke="#FF302C" stroke-width="0.25" stroke-miterlimit="10" d="M54.873,107.599
		c0,1.055-0.863,1.919-1.919,1.919h-0.959c-1.056,0-1.919-0.864-1.919-1.919v-0.96c0-1.055,0.864-1.92,1.919-1.92h0.959
		c1.056,0,1.919,0.865,1.919,1.92V107.599z"/>
	<circle id="camera" fill="none" stroke="#FF302C" stroke-width="0.25" stroke-miterlimit="10" cx="52.475" cy="8.07" r="0.45"/>
	<path id="text" fill="none" stroke="#FF302C" stroke-width="0.15" stroke-miterlimit="10" d="M41.823,62.208h1.919v0.48h-1.44
		v1.535h1.152v0.098v0.479h-1.152v1.631h1.44v0.479h-1.919V62.208z M41.247,63.36v2.304c0,0.768-0.288,1.151-1.055,1.151H39.04
		v-4.702h1.152v0.095C40.959,62.208,41.247,62.688,41.247,63.36z M40.767,63.36c0-0.479-0.192-0.67-0.575-0.67h-0.576v3.741h0.576
		c0.383,0,0.575-0.192,0.575-0.672V63.36z M66.683,62.67c-0.062,0.165-0.103,0.354-0.103,0.594c0,0.203,0.043,0.371,0.103,0.525
		V62.67z M31.747,64.224h-1.151v-2.016h-0.48v4.703h0.48v-2.11l1.151-0.097v2.111h0.48v-4.702h-0.48V64.224z M45.374,66.239
		l-0.769-4.031h-0.479l0.864,4.703h0.767l0.864-4.703h-0.479L45.374,66.239z M36.353,64.801H37.6v-0.479h-1.247V64.801z
		 M33.762,62.113c-0.768,0-1.056,0.382-1.056,1.15c0,1.344,1.535,1.438,1.535,2.496c0,0.479-0.192,0.672-0.576,0.672
		c-0.383,0-0.576-0.192-0.576-0.672v-0.289H32.61v0.289c0,0.672,0.288,1.151,1.055,1.151c0.769,0,1.056-0.383,1.056-1.151
		c0-1.343-1.535-1.438-1.535-2.495c0-0.48,0.192-0.673,0.576-0.673c0.383,0,0.576,0.192,0.576,0.673v0.192h0.479V63.36
		C34.817,62.688,34.53,62.208,33.762,62.113z M53.722,63.36v2.399c0,0.768-0.287,1.151-1.056,1.151
		c-0.768,0-1.056-0.479-1.056-1.151V63.36c0-0.769,0.288-1.152,1.056-1.152C53.435,62.208,53.722,62.688,53.722,63.36z
		 M53.241,63.36c0-0.479-0.191-0.672-0.575-0.672s-0.575,0.288-0.575,0.672v2.495c0,0.479,0.191,0.672,0.575,0.672
		s0.575-0.192,0.575-0.672V63.36z M63.703,63.36v2.304c0,0.768-0.288,1.151-1.057,1.151h-1.151v-4.702h1.151v0.095
		C63.415,62.208,63.703,62.688,63.703,63.36z M63.222,63.36c0-0.479-0.191-0.672-0.575-0.672h-0.575v3.743h0.575
		c0.384,0,0.575-0.192,0.575-0.672V63.36z M64.182,66.911h1.92v-0.479h-1.44v-1.631h1.152v-0.479v-0.098h-1.057v-1.535h1.345v-0.48
		h-1.92V66.911z M66.683,65.471h-0.294v0.289c0,0.364,0.095,0.662,0.294,0.867V65.471z M49.883,62.208h-0.479v4.703h1.824v-0.479
		h-1.344V62.208z M46.909,66.911h1.92v-0.479h-1.345v-1.631h1.152v-0.479v-0.098h-1.152v-1.535h1.345v-0.48h-1.92V66.911z
		 M56.313,63.36v0.575c0,0.769-0.288,1.152-1.152,1.152h-0.48v1.823h-0.479v-4.703h1.056C56.025,62.208,56.313,62.688,56.313,63.36z
		 M55.737,63.455c0-0.479-0.19-0.672-0.576-0.672h-0.48v1.919h0.48v-0.095c0.384,0,0.576-0.19,0.576-0.575V63.455z M59.864,64.129
		h0.192v0.48h-0.192v1.63c0,0.192,0,0.383,0.095,0.576h-0.48c-0.095-0.096-0.095-0.192-0.095-0.382
		c-0.097,0.288-0.384,0.479-0.768,0.479c-0.577,0-0.863-0.383-0.863-1.055v-0.481c0-0.48,0.192-0.862,0.575-0.959
		c-0.382-0.096-0.575-0.479-0.575-0.959V63.36c0-0.769,0.288-1.149,1.151-1.149h0.767v0.479h-0.767v-0.002
		c-0.384,0-0.577,0.192-0.577,0.672v0.191c0,0.384,0.191,0.577,0.577,0.577h0.48v-0.479h0.48V64.129z M59.384,64.702h-0.48v0.002
		c-0.384,0-0.577,0.287-0.577,0.767v0.385c0,0.384,0.191,0.672,0.577,0.672c0.288,0,0.48-0.192,0.48-0.576V64.702z"/>
	<path id="logo" fill="none" stroke="#FF302C" stroke-width="0.25" stroke-miterlimit="10" d="M58.232,44.552l-12.475-3.934
		c-0.576-0.576-0.959-1.824-0.959-3.264c0-1.343,0.671-2.59,1.247-3.262l6.142-3.647l6.045,3.743V44.552z M39.999,37.644v14.202
		l3.359,2.015V42.153c-0.576-0.672-0.959-1.92-0.959-3.263c0-1.439,0.48-2.591,1.056-3.263L39.999,37.644z M46.045,45.032v10.363
		l6.142,3.648l6.141-3.648c1.151-0.671,1.151-1.823,1.151-3.261c0-1.44-0.288-2.592-0.96-3.167L46.045,45.032L46.045,45.032z
		 M61.111,35.532v11.804c0.575,0.671,1.151,1.919,1.151,3.262c0,1.44-0.385,2.591-0.96,3.263l3.742-2.015V37.644L61.111,35.532z"/>
</g>
<g id="phone">
	<path id="back_1_" fill="none" stroke="#FF302C" stroke-width="0.25" stroke-miterlimit="10" d="M112.971,108.635
		c0,4.546,0.331,8.844-8.101,8.844H74.618c-8.431,0-7.936-4.298-7.936-8.844v-75.3c0-4.546-0.578-8.431,7.936-8.431h30.252
		c8.432,0,8.101,3.885,8.101,8.431V108.635z"/>
	<path id="speak" fill="none" stroke="#FF302C" stroke-width="0.25" stroke-miterlimit="10" d="M89.827,28.127
		c0.331,0,0.579,0.249,0.579,0.578c0,0.331-0.248,0.579-0.579,0.579c-0.33,0-0.578-0.248-0.578-0.579
		C89.249,28.375,89.497,28.127,89.827,28.127z"/>
	<path id="speaker" fill="none" stroke="#FF302C" stroke-width="0.25" stroke-miterlimit="10" d="M95.199,32.839
		c0,0.165-0.165,0.331-0.33,0.331H84.785c-0.165,0-0.331-0.166-0.331-0.331v-0.167c0-0.164,0.166-0.33,0.331-0.33h10.084
		c0.165,0,0.33,0.166,0.33,0.33V32.839z"/>
	<path id="screen_1_" fill="none" stroke="#FF302C" stroke-width="0.25" stroke-miterlimit="10" d="M110.16,107.395
		c0,0.413-0.329,0.578-0.662,0.578H70.155c-0.413,0-0.662-0.33-0.662-0.578V39.203c0-0.414,0.332-0.578,0.662-0.578h39.343
		c0.415,0,0.662,0.33,0.662,0.578V107.395z"/>
	<path id="button_1_" fill="none" stroke="#FF302C" stroke-width="0.25" stroke-miterlimit="10" d="M89.827,109.874
		c1.553,0,2.811,1.259,2.811,2.81c0,1.554-1.258,2.812-2.811,2.812c-1.554,0-2.811-1.258-2.811-2.81c0-1.553,1.257-2.81,2.811-2.81
		V109.874z"/>
	<path id="logo_1_" fill="none" stroke="#FF302C" stroke-width="0.25" stroke-miterlimit="10" d="M93.961,63.339l-8.846-2.811
		c-0.413-0.413-0.661-1.322-0.661-2.314c0-0.992,0.496-1.818,0.909-2.315l4.382-2.562l4.297,2.562v7.44H93.961z M80.9,58.462v10.167
		l2.396,1.488v-8.432c-0.415-0.496-0.743-1.323-0.743-2.314c0-0.992,0.328-1.901,0.743-2.314L80.9,58.462z M85.281,63.751v7.355
		l4.382,2.564l4.379-2.564c0.827-0.495,0.827-1.321,0.827-2.312c0-0.992-0.165-1.902-0.661-2.314L85.281,63.751z M95.944,56.974
		v8.431c0.412,0.496,0.826,1.323,0.826,2.314c0,0.992-0.249,1.901-0.744,2.314l2.729-1.487V58.462L95.944,56.974z"/>
	<path id="text_1_" fill="none" stroke="#FF302C" stroke-width="0.15" stroke-miterlimit="10" d="M74.288,77.804v1.488h-0.331
		v-3.306h0.331v1.487h0.826v-1.487h0.332v3.306h-0.332v-1.488H74.288z M77.263,76.729l-0.329,0.083v-0.083
		c0-0.331-0.083-0.495-0.415-0.495c-0.33,0-0.411,0.164-0.411,0.495c0,0.745,1.073,0.827,1.073,1.736
		c0,0.496-0.247,0.827-0.743,0.827s-0.744-0.331-0.744-0.827v-0.166h0.33v0.166c0,0.332,0.084,0.496,0.414,0.496
		s0.413-0.164,0.413-0.496c0-0.744-1.074-0.826-1.074-1.736c0-0.495,0.247-0.826,0.742-0.826S77.263,76.233,77.263,76.729z
		 M78.338,77.474h0.909v0.33h-0.909V77.474z M81.148,75.902c0.496,0,0.744,0.331,0.744,0.826v1.653c0,0.496-0.248,0.826-0.744,0.826
		h-0.826v-3.306H81.148z M81.148,78.961c0.247,0,0.413-0.164,0.413-0.497v-1.735c0-0.331-0.082-0.497-0.413-0.497h-0.416v2.646
		h0.416V78.961z M83.38,77.474v0.33h-0.826v1.157h0.993v0.331H82.14v-3.306h1.407v0.33h-0.993v1.073h0.826V77.474z M84.206,75.902
		l0.579,2.895l0.578-2.895h0.331l-0.661,3.306h-0.579l-0.661-3.306H84.206L84.206,75.902z M87.101,77.474v0.33h-0.827v1.157h0.991
		v0.331h-1.405v-3.306h1.405v0.33h-0.991v1.073h0.827V77.474z M87.596,79.292v-3.306h0.33v2.975h0.909v0.331H87.596z M89.165,76.729
		c0-0.495,0.25-0.826,0.744-0.826c0.497,0,0.744,0.331,0.744,0.826v1.736c0,0.496-0.247,0.827-0.744,0.827
		c-0.494,0-0.744-0.331-0.744-0.827V76.729z M89.58,78.465c0,0.332,0.083,0.496,0.412,0.496c0.249,0,0.414-0.164,0.414-0.496v-1.736
		c0-0.331-0.084-0.495-0.414-0.495c-0.247,0-0.412,0.164-0.412,0.495V78.465z M91.812,75.902c0.495,0,0.743,0.331,0.743,0.826v0.414
		c0,0.496-0.248,0.826-0.827,0.826H91.48v1.323h-0.33v-3.306h0.661V75.902z M91.728,77.639c0.248,0,0.413-0.083,0.413-0.414v-0.413
		c0-0.33-0.081-0.495-0.413-0.495h-0.329v1.322H91.728z M94.373,76.316c-0.247,0-0.412,0.165-0.412,0.495v0.166
		c0,0.247,0.165,0.412,0.412,0.412h0.331v-0.412h0.33v0.33h0.165v0.331h-0.165v1.158c0,0.164,0,0.247,0.083,0.411h-0.33
		c0-0.083,0-0.164-0.083-0.247c-0.082,0.164-0.248,0.331-0.496,0.331c-0.413,0-0.578-0.248-0.578-0.745v-0.329
		c0-0.33,0.083-0.579,0.412-0.743c-0.247-0.083-0.412-0.331-0.412-0.663v-0.082c0-0.496,0.249-0.826,0.826-0.826h0.578v0.33h-0.661
		V76.316L94.373,76.316z M94.373,77.721c-0.247,0-0.412,0.166-0.412,0.495v0.331c0,0.25,0.081,0.497,0.412,0.497
		c0.165,0,0.331-0.083,0.331-0.413v-0.91H94.373z M97.019,75.902c0.495,0,0.743,0.331,0.743,0.826v1.653
		c0,0.496-0.248,0.826-0.743,0.826h-0.829v-3.306H97.019z M97.019,78.961c0.248,0,0.413-0.164,0.413-0.497v-1.735
		c0-0.331-0.083-0.497-0.413-0.497h-0.413v2.646h0.413V78.961z M99.332,77.474v0.33h-0.826v1.157h0.993v0.331h-1.323v-3.306h1.405
		v0.33h-0.993v1.073h0.744V77.474z M101.233,76.729l-0.329,0.083v-0.083c0-0.331-0.086-0.495-0.415-0.495
		c-0.332,0-0.412,0.164-0.412,0.495c0,0.745,1.074,0.827,1.074,1.736c0,0.496-0.247,0.827-0.743,0.827
		c-0.497,0-0.745-0.331-0.745-0.827v-0.166h0.414v0.166c0,0.332,0.084,0.496,0.412,0.496c0.331,0,0.415-0.164,0.415-0.496
		c0-0.744-1.075-0.826-1.075-1.736c0-0.495,0.248-0.826,0.743-0.826C100.986,75.902,101.233,76.233,101.233,76.729z M101.977,75.902
		v3.306h-0.329v-3.306H101.977z M103.797,76.729v0.249h-0.331v-0.331c0-0.33-0.083-0.496-0.414-0.496
		c-0.247,0-0.413,0.166-0.413,0.496v1.735c0,0.331,0.081,0.496,0.413,0.496c0.248,0,0.414-0.165,0.414-0.496v-0.578h-0.331v-0.33
		h0.742v0.991c0,0.496-0.246,0.827-0.742,0.827s-0.743-0.331-0.743-0.827v-1.736c0-0.495,0.249-0.826,0.743-0.826
		C103.631,75.902,103.797,76.233,103.797,76.729z M104.539,79.292h-0.329v-3.306h0.495l0.744,2.396v-2.396h0.331v3.306h-0.413
		l-0.828-2.729V79.292z"/>
</g>
</svg>
