<svg xmlns="http://www.w3.org/2000/svg" xmlns:xlink="http://www.w3.org/1999/xlink" width="64" height="64" viewBox="0 0 64 64"><path fill="#888" d="M25.276 48.028h13.792v4.827h-13.792zM22.518 55.614h19.311v1.378h-19.311z"/><path fill="#424242" d="M25.276 47.337h13.792v.691h-13.792zM22.518 55.614h19.31l-2.76-2.759h-13.792z"/><path fill="#C2C2C2" d="M62.518 39.751h-60.69v4.827c0 1.518 1.242 2.759 2.759 2.759h55.173c1.516 0 2.758-1.241 2.758-2.759v-4.827zm-24.721 4.481h-11.249v-1.379h11.249v1.379z"/><path fill="#191919" d="M62.518 39.059v-27.584c0-1.518-1.242-2.759-2.758-2.759h-55.173c-1.518 0-2.759 1.241-2.759 2.759v28.273h60.689l.001-.689z"/><defs><path id="a" d="M18.003 49.645l23.54-43.645 22.457 1.604v41.25z"/></defs><clipPath id="b"><use xlink:href="#a" overflow="visible"/></clipPath><path fill="#888" d="M62.518 39.751h-60.69v4.827c0 1.518 1.242 2.759 2.759 2.759h55.173c1.516 0 2.758-1.241 2.758-2.759v-4.827zm-24.721 4.481h-11.249v-1.379h11.249v1.379z" clip-path="url(#b)"/><defs><path id="c" d="M18.003 49.645l23.54-43.645 22.457 1.604v41.25z"/></defs><clipPath id="d"><use xlink:href="#c" overflow="visible"/></clipPath><path clip-path="url(#d)" d="M62.518 39.059v-27.584c0-1.518-1.242-2.759-2.758-2.759h-55.173c-1.518 0-2.759 1.241-2.759 2.759v28.273h60.689l.001-.689z"/><path fill="#E2E2E2" d="M61.137 38.372h-57.92899999999999v-26.897c0-.762.618-1.381 1.379-1.381h55.173c.762 0 1.377.619 1.377 1.381v26.897z"/><defs><path id="e" d="M40.42 6.062l-25.96 38.814 49.54 1.895v-39.917z"/></defs><clipPath id="f"><use xlink:href="#e" overflow="visible"/></clipPath><path clip-path="url(#f)" fill="#D8D8D8" d="M61.137 38.372h-57.92899999999999v-26.897c0-.762.618-1.381 1.379-1.381h55.173c.762 0 1.377.619 1.377 1.381v26.897z"/><path fill="#383838" d="M26.548 42.854h11.249v1.379h-11.249z"/><path d="M44.575 55.741c0 .622-.375 1.126-.84 1.126h-34.896c-.463 0-.839-.504-.839-1.126v-22.387c0-.623.376-1.127.839-1.127h34.896c.465 0 .84.504.84 1.127v22.387z"/><path fill="#CCC8C8" d="M9.458 33.578h33.759v20.813h-33.759z"/><path fill="#5F6767" d="M1.771 57.208s-.304.567 1.858 1.039h45.263s1.515-.097 1.914-.812l.002-.392-49.037.165z"/><linearGradient id="g" gradientUnits="userSpaceOnUse" x1="275.75" y1="-355.771" x2="324.826" y2="-355.771" gradientTransform="matrix(1 0 0 -1 -274 -299)"><stop offset="0" stop-color="#999C9D"/><stop offset=".001" stop-color="#A5A7A9"/><stop offset=".004" stop-color="#C2C3C5"/><stop offset=".007" stop-color="#D9D8DA"/><stop offset=".01" stop-color="#E9E7EA"/><stop offset=".013" stop-color="#F2F0F3"/><stop offset=".018" stop-color="#F5F3F6"/><stop offset=".049" stop-color="#DFE1E3"/><stop offset=".189" stop-color="#D1D1D1"/><stop offset=".506" stop-color="#E3E5E7"/><stop offset=".872" stop-color="#D1D1D1"/><stop offset=".951" stop-color="#DFE1E3"/><stop offset=".988" stop-color="#F5F3F6"/><stop offset="1" stop-color="#999C9D"/></linearGradient><path fill="url(#g)" d="M1.782 56.064h49.041v1.259s.072.169-.506.126h-48.074s-.451.126-.493-.168l.032-1.217z"/><path fill="#5F6767" d="M48.544 56.799c0 .049-.031.088-.072.088h-1.668c-.041 0-.072-.039-.072-.088 0-.049.031-.089.072-.089h1.668c.041 0 .072.04.072.089z"/><linearGradient id="h" gradientUnits="userSpaceOnUse" x1="300.289" y1="-355.768" x2="300.289" y2="-355.074" gradientTransform="matrix(1 0 0 -1 -274 -299)"><stop offset=".342" stop-color="#676B6C"/><stop offset=".361" stop-color="#707475"/><stop offset=".457" stop-color="#989B9C"/><stop offset=".552" stop-color="#B7B9BB"/><stop offset=".644" stop-color="#CDCFD1"/><stop offset=".732" stop-color="#DADDDE"/><stop offset=".811" stop-color="#DFE1E3"/><stop offset=".982" stop-color="#E3E5E7"/></linearGradient><path fill="url(#h)" d="M22.972 56.074s-.188.63.44.691h5.688s.605.08.524-.672l-6.652-.019z"/><linearGradient id="i" gradientUnits="userSpaceOnUse" x1="297.106" y1="-355.707" x2="297.106" y2="-355.059" gradientTransform="matrix(1 0 0 -1 -274 -299)"><stop offset=".024" stop-color="#5F6767"/><stop offset=".476" stop-color="#676B6C"/><stop offset=".514" stop-color="#717576"/><stop offset=".619" stop-color="#878A8B"/><stop offset=".72" stop-color="#949899"/><stop offset=".811" stop-color="#999C9D"/></linearGradient><path fill="url(#i)" d="M23.003 56.073h.004l.002-.015h-.069s-.172.547.357.648c-.452-.13-.294-.633-.294-.633z"/><linearGradient id="j" gradientUnits="userSpaceOnUse" x1="300.481" y1="-355.739" x2="300.481" y2="-355.092" gradientTransform="matrix(1 0 0 -1 -274 -299)"><stop offset=".024" stop-color="#5F6767"/><stop offset=".476" stop-color="#676B6C"/><stop offset=".514" stop-color="#717576"/><stop offset=".619" stop-color="#878A8B"/><stop offset=".72" stop-color="#949899"/><stop offset=".811" stop-color="#999C9D"/></linearGradient><path fill="url(#j)" d="M29.658 56.094l-.063-.001v.015c.045.711-.525.613-.525.613h-5.688l-.083-.013.146.026h5.688c-.001 0 .589.102.525-.64z"/><linearGradient id="k" gradientUnits="userSpaceOnUse" x1="303.597" y1="-355.107" x2="303.597" y2="-355.092" gradientTransform="matrix(1 0 0 -1 -274 -299)"><stop offset=".024" stop-color="#5F6767"/><stop offset=".476" stop-color="#676B6C"/><stop offset=".514" stop-color="#717576"/><stop offset=".619" stop-color="#878A8B"/><stop offset=".72" stop-color="#949899"/><stop offset=".811" stop-color="#999C9D"/></linearGradient><path fill="url(#k)" d="M29.597 56.107v-.016.016z"/><linearGradient id="l" gradientUnits="userSpaceOnUse" x1="294.337" y1="-342.332" x2="318.596" y2="-342.332" gradientTransform="matrix(1 0 0 -1 -274 -299)"><stop offset="0" stop-color="#fff" stop-opacity="0"/><stop offset="1" stop-color="#fff"/></linearGradient><path opacity=".6" fill="url(#l)" enable-background="new" d="M35.787 32.199h7.514s1.438.01 1.283 1.271l-.047 20.994h-24.2"/><path fill="#253142" d="M42.829 58.874c0 .821-.554 1.479-1.334 1.479h-13.024c-.802 0-1.459-.658-1.459-1.479v-20.666c0-.821.657-1.479 1.459-1.479h13.023c.802 0 1.334.658 1.334 1.479l.001 20.666z"/><path fill="#36445B" d="M38.968 36.729l-11.956 12.018v-10.643c0-.819.76-1.375 1.563-1.375h10.393z"/><path fill="#666" stroke="#061323" stroke-miterlimit="10" d="M35.538 59.223c0 .229-.187.412-.412.412h-.205c-.228 0-.412-.186-.412-.412v-.205c0-.227.187-.41.412-.41h.205c.228 0 .412.186.412.41v.205z"/><circle fill="#253142" stroke="#0A192B" stroke-miterlimit="10" cx="34.98" cy="37.858" r=".103"/><path fill="#D3D3D3" d="M42.009 39.193v18.242c0 .164 0 .473-.207.473h-13.393c-.207 0-.576-.309-.576-.473v-18.242c0-.164.369-.205.576-.205h13.393c.207 0 .207.041.207.205z"/><path fill="#D8D8D8" d="M39.604 38.988l-11.771 11.813v-11.608c0-.164.369-.205.576-.205h11.195z"/><path fill="#843232" d="M48.043 59.328c0 1.031.074 2.006-1.838 2.006h-6.861c-1.914 0-1.801-.975-1.801-2.006v-17.081c0-1.031-.131-1.913 1.801-1.913h6.861c1.912 0 1.838.882 1.838 1.913v17.081z"/><path fill="#A74D4B" d="M37.543 51.547v-9.3c0-1.031-.131-1.913 1.801-1.913h6.861c1.051 0 1.5.264 1.688.656l-10.35 10.557z"/><path opacity=".2" fill="#1A1A1A" enable-background="new" d="M43.918 60.378c0-.206.057-.356-.301-.356h-1.838c-.355 0-.299.15-.299.356v.019c0 .207-.076.396.299.396h1.838c.358-.022.301-.209.301-.415z"/><circle fill="#484949" cx="41.012" cy="40.785" r=".225"/><circle fill="#484949" cx="44.404" cy="40.785" r=".225"/><circle fill="#484949" cx="44.93" cy="40.785" r=".225"/><circle fill="#3F3F3F" cx="46.242" cy="40.972" r=".225"/><circle fill="#6D6D6D" cx="46.242" cy="40.972" r=".131"/><circle fill="#5B5B5B" cx="46.242" cy="40.972" r=".038"/><path fill="#ddd" d="M43.918 40.822l-.076.074h-2.287l-.074-.074v-.038l.074-.075h2.287l.076.075v.038z"/><path fill="#D3D3D3" d="M47.705 59.29c0 .094-.074.149-.15.149h-9.522c-.095 0-.15-.074-.15-.149v-16.912c0-.094.074-.149.15-.149h9.522c.094 0 .15.074.15.149v16.912z"/><path fill="#D8D8D8" d="M47.668 42.378v1.369l-9.75 9.823v-11.192c0-.094.02-.169.113-.169h9.523c.094 0 .114.075.114.169z"/></svg>